M48
; DRILL file {KiCad (5.1.2)-1} date 5/27/2019 2:02:45 PM
; FORMAT={-:-/ absolute / metric / decimal}
; #@! TF.CreationDate,2019-05-27T14:02:45+07:00
; #@! TF.GenerationSoftware,Kicad,Pcbnew,(5.1.2)-1
; #@! TF.FileFunction,Plated,1,2,PTH
FMAT,2
METRIC
T1C0.400
T2C0.500
T3C0.550
T4C0.800
T5C1.000
T6C1.400
T7C2.050
%
G90
G05
T1
X38.748Y-48.619
X38.748Y-67.669
X42.618Y-28.844
X43.937Y-39.92
X47.721Y-28.769
X49.908Y-36.149
X50.228Y-41.899
X51.148Y-38.419
X51.946Y-31.863
X52.588Y-88.294
X52.618Y-85.994
X52.758Y-74.229
X53.163Y-64.389
X53.618Y-85.994
X53.618Y-88.899
X53.658Y-36.369
X53.888Y-73.459
X54.348Y-50.299
X54.358Y-47.894
X55.468Y-56.879
X57.798Y-86.719
X57.798Y-105.769
X58.588Y-39.91
X59.328Y-37.519
X63.738Y-34.019
X65.198Y-29.694
X66.771Y-46.714
X66.819Y-29.677
X66.829Y-28.641
X67.028Y-106.619
X67.356Y-49.288
X67.385Y-35.712
X67.488Y-30.419
X68.028Y-48.429
X68.322Y-62.191
X68.578Y-66.636
X69.107Y-61.407
X69.353Y-40.965
X69.353Y-38.965
X69.353Y-39.965
X69.602Y-52.314
X69.838Y-62.089
X69.858Y-68.519
X69.868Y-29.469
X70.108Y-51.109
X71.118Y-62.369
X71.338Y-50.019
X71.482Y-58.748
X71.538Y-33.469
X72.128Y-37.329
X72.598Y-87.569
X72.768Y-33.549
X73.363Y-35.722
X73.548Y-61.629
X74.339Y-46.198
X75.118Y-31.144
X75.253Y-32.978
X75.256Y-40.69
X75.422Y-29.508
X75.786Y-51.538
X76.526Y-28.457
X77.847Y-48.262
X78.968Y-47.939
X79.938Y-47.479
X80.217Y-48.788
X81.078Y-41.529
X81.818Y-49.254
X82.014Y-41.882
X82.51Y-54.296
X82.678Y-34.529
X84.188Y-33.729
X84.476Y-28.819
X84.476Y-47.804
X85.926Y-32.529
X85.926Y-34.129
X85.926Y-46.329
X85.948Y-28.844
X86.467Y-31.144
X86.841Y-35.357
X89.518Y-75.869
X89.707Y-40.709
X90.376Y-31.482
X90.554Y-54.99
X90.893Y-74.674
X91.396Y-37.334
X91.638Y-54.359
X91.678Y-93.059
X91.848Y-74.379
X91.978Y-36.389
X92.089Y-35.395
X92.528Y-55.219
X93.086Y-47.123
X93.258Y-31.144
X94.273Y-93.679
X94.408Y-27.849
X95.898Y-29.569
X95.898Y-48.619
X95.898Y-86.719
X96.5Y-67.669
X96.508Y-105.659
X96.508Y-105.659
X97.488Y-34.497
X97.536Y-37.984
T4
X38.108Y-35.199
X38.108Y-37.739
X40.648Y-35.199
X40.648Y-37.739
X43.188Y-35.199
X43.188Y-37.739
X45.728Y-35.199
X45.728Y-37.739
X48.268Y-35.199
X48.268Y-37.739
T6
X62.236Y-50.87
X64.776Y-50.87
X43.186Y-108.02
X45.726Y-108.02
X100.336Y-50.87
X102.876Y-50.87
X100.336Y-88.335
X102.876Y-88.335
X43.186Y-88.97
X45.726Y-88.97
X62.236Y-31.82
X64.776Y-31.82
X52.711Y-108.02
X55.251Y-108.02
X62.236Y-88.97
X64.776Y-88.97
X81.286Y-50.87
X83.826Y-50.87
X81.286Y-88.97
X83.826Y-88.97
X81.286Y-31.82
X83.826Y-31.82
X100.336Y-50.235
X102.876Y-50.235
X43.186Y-50.87
X45.726Y-50.87
X81.286Y-108.02
X83.826Y-108.02
X43.186Y-31.82
X45.726Y-31.82
X81.286Y-69.92
X83.826Y-69.92
X100.336Y-69.92
X102.876Y-69.92
X100.336Y-31.82
X102.876Y-31.82
X43.186Y-69.92
X45.726Y-69.92
X100.336Y-88.97
X102.876Y-88.97
X100.336Y-108.02
X102.876Y-108.02
X62.236Y-108.02
X64.776Y-108.02
X62.236Y-69.92
X64.776Y-69.92
T7
X78.746Y-62.3
X85.096Y-59.76
X78.746Y-24.2
X85.096Y-21.66
X59.696Y-24.2
X66.046Y-21.66
X40.646Y-43.25
X46.996Y-40.71
X50.171Y-100.4
X56.521Y-97.86
X40.646Y-24.2
X46.996Y-21.66
X78.746Y-81.35
X85.096Y-78.81
X97.796Y-24.2
X104.146Y-21.66
X59.696Y-43.25
X66.046Y-40.71
X40.646Y-100.4
X46.996Y-97.86
X97.796Y-81.35
X104.146Y-78.81
X59.696Y-62.3
X66.046Y-59.76
X59.696Y-100.4
X66.046Y-97.86
X78.746Y-100.4
X85.096Y-97.86
X97.796Y-100.4
X104.146Y-97.86
X97.796Y-62.3
X104.146Y-59.76
X99.066Y-98.495
X105.416Y-95.955
X40.646Y-62.3
X46.996Y-59.76
X97.796Y-43.25
X104.146Y-40.71
X40.646Y-81.35
X46.996Y-78.81
X99.066Y-60.395
X105.416Y-57.855
X59.696Y-81.35
X66.046Y-78.81
X78.746Y-43.25
X85.096Y-40.71
T2
G00X68.895Y-20.198
M15
G01X68.895Y-20.848
M16
G05
G00X75.895Y-20.198
M15
G01X75.895Y-20.848
M16
G05
T3
G00X70.045Y-23.223
M15
G01X69.745Y-23.223
M16
G05
G00X75.045Y-23.223
M15
G01X74.745Y-23.223
M16
G05
T5
G00X68.706Y-19.1
M15
G01X68.706Y-20.2
M16
G05
G00X68.706Y-24.6
M15
G01X68.706Y-25.7
M16
G05
G00X76.106Y-19.1
M15
G01X76.106Y-20.2
M16
G05
G00X76.106Y-24.6
M15
G01X76.106Y-25.7
M16
G05
T0
M30
