G04 #@! TF.GenerationSoftware,KiCad,Pcbnew,(5.1.2)-1*
G04 #@! TF.CreationDate,2019-05-27T14:02:07+07:00*
G04 #@! TF.ProjectId,numpad,6e756d70-6164-42e6-9b69-6361645f7063,rev?*
G04 #@! TF.SameCoordinates,Original*
G04 #@! TF.FileFunction,Legend,Top*
G04 #@! TF.FilePolarity,Positive*
%FSLAX46Y46*%
G04 Gerber Fmt 4.6, Leading zero omitted, Abs format (unit mm)*
G04 Created by KiCad (PCBNEW (5.1.2)-1) date 2019-05-27 14:02:07*
%MOMM*%
%LPD*%
G04 APERTURE LIST*
%ADD10C,0.150000*%
G04 APERTURE END LIST*
D10*
X42805373Y-29986861D02*
X43567278Y-29986861D01*
X43186326Y-30367813D02*
X43186326Y-29605909D01*
X42805373Y-49036861D02*
X43567278Y-49036861D01*
X43186326Y-49417813D02*
X43186326Y-48655909D01*
X42805373Y-68086861D02*
X43567278Y-68086861D01*
X43186326Y-68467813D02*
X43186326Y-67705909D01*
X42805373Y-87136861D02*
X43567278Y-87136861D01*
X43186326Y-87517813D02*
X43186326Y-86755909D01*
X42805373Y-106186861D02*
X43567278Y-106186861D01*
X43186326Y-106567813D02*
X43186326Y-105805909D01*
X52330373Y-106186861D02*
X53092278Y-106186861D01*
X52711326Y-106567813D02*
X52711326Y-105805909D01*
X61855373Y-29986861D02*
X62617278Y-29986861D01*
X62236326Y-30367813D02*
X62236326Y-29605909D01*
X61855373Y-49036861D02*
X62617278Y-49036861D01*
X62236326Y-49417813D02*
X62236326Y-48655909D01*
X61855373Y-68086861D02*
X62617278Y-68086861D01*
X62236326Y-68467813D02*
X62236326Y-67705909D01*
X61855373Y-87136861D02*
X62617278Y-87136861D01*
X62236326Y-87517813D02*
X62236326Y-86755909D01*
X61855373Y-106186861D02*
X62617278Y-106186861D01*
X62236326Y-106567813D02*
X62236326Y-105805909D01*
X80905373Y-29986861D02*
X81667278Y-29986861D01*
X81286326Y-30367813D02*
X81286326Y-29605909D01*
X80905373Y-49036861D02*
X81667278Y-49036861D01*
X81286326Y-49417813D02*
X81286326Y-48655909D01*
X80905373Y-68086861D02*
X81667278Y-68086861D01*
X81286326Y-68467813D02*
X81286326Y-67705909D01*
X80905373Y-87136861D02*
X81667278Y-87136861D01*
X81286326Y-87517813D02*
X81286326Y-86755909D01*
X80905373Y-106186861D02*
X81667278Y-106186861D01*
X81286326Y-106567813D02*
X81286326Y-105805909D01*
X99955373Y-29986861D02*
X100717278Y-29986861D01*
X100336326Y-30367813D02*
X100336326Y-29605909D01*
X99955373Y-49036861D02*
X100717278Y-49036861D01*
X100336326Y-49417813D02*
X100336326Y-48655909D01*
X99955373Y-52211861D02*
X100717278Y-52211861D01*
X100336326Y-52592813D02*
X100336326Y-51830909D01*
X99955373Y-68086861D02*
X100717278Y-68086861D01*
X100336326Y-68467813D02*
X100336326Y-67705909D01*
X99955373Y-87136861D02*
X100717278Y-87136861D01*
X100336326Y-87517813D02*
X100336326Y-86755909D01*
X99955373Y-90311861D02*
X100717278Y-90311861D01*
X100336326Y-90692813D02*
X100336326Y-89930909D01*
X99955373Y-106186861D02*
X100717278Y-106186861D01*
X100336326Y-106567813D02*
X100336326Y-105805909D01*
M02*
