G04 #@! TF.GenerationSoftware,KiCad,Pcbnew,(5.1.2)-1*
G04 #@! TF.CreationDate,2019-05-27T14:02:08+07:00*
G04 #@! TF.ProjectId,numpad,6e756d70-6164-42e6-9b69-6361645f7063,rev?*
G04 #@! TF.SameCoordinates,Original*
G04 #@! TF.FileFunction,Soldermask,Top*
G04 #@! TF.FilePolarity,Negative*
%FSLAX46Y46*%
G04 Gerber Fmt 4.6, Leading zero omitted, Abs format (unit mm)*
G04 Created by KiCad (PCBNEW (5.1.2)-1) date 2019-05-27 14:02:08*
%MOMM*%
%LPD*%
G04 APERTURE LIST*
%ADD10O,1.800000X2.900000*%
%ADD11C,1.300000*%
%ADD12C,2.100000*%
%ADD13R,2.100000X2.100000*%
%ADD14C,2.101800*%
%ADD15C,4.387800*%
%ADD16O,1.400000X1.950000*%
%ADD17O,1.650000X1.350000*%
G04 APERTURE END LIST*
D10*
X76106326Y-25150433D03*
D11*
X74606326Y-22650433D03*
X70206326Y-22650433D03*
D10*
X76106326Y-19650433D03*
X68706326Y-19650433D03*
X68706326Y-25150433D03*
D12*
X43188146Y-37739333D03*
X43188146Y-35199333D03*
X40648146Y-37739333D03*
X40648146Y-35199333D03*
X38108146Y-37739333D03*
D13*
X38108146Y-35199333D03*
D12*
X45728146Y-37739333D03*
X48268146Y-37739333D03*
X45728146Y-35199333D03*
X48268146Y-35199333D03*
D14*
X49536326Y-26740433D03*
X39376326Y-26740433D03*
D15*
X44456326Y-26740433D03*
X44456326Y-45790433D03*
D14*
X39376326Y-45790433D03*
X49536326Y-45790433D03*
X49536326Y-64840433D03*
X39376326Y-64840433D03*
D15*
X44456326Y-64840433D03*
D14*
X49536326Y-83890433D03*
X39376326Y-83890433D03*
D15*
X44456326Y-83890433D03*
D14*
X49536326Y-102940433D03*
X39376326Y-102940433D03*
D15*
X44456326Y-102940433D03*
D14*
X59061326Y-102940433D03*
X48901326Y-102940433D03*
D15*
X53981326Y-102940433D03*
D14*
X68586326Y-26740433D03*
X58426326Y-26740433D03*
D15*
X63506326Y-26740433D03*
X63506326Y-45790433D03*
D14*
X58426326Y-45790433D03*
X68586326Y-45790433D03*
D15*
X63506326Y-64840433D03*
D14*
X58426326Y-64840433D03*
X68586326Y-64840433D03*
X68586326Y-83890433D03*
X58426326Y-83890433D03*
D15*
X63506326Y-83890433D03*
X63506326Y-102940433D03*
D14*
X58426326Y-102940433D03*
X68586326Y-102940433D03*
X87636326Y-26740433D03*
X77476326Y-26740433D03*
D15*
X82556326Y-26740433D03*
D14*
X87636326Y-45790433D03*
X77476326Y-45790433D03*
D15*
X82556326Y-45790433D03*
X82556326Y-64840433D03*
D14*
X77476326Y-64840433D03*
X87636326Y-64840433D03*
X87636326Y-83890433D03*
X77476326Y-83890433D03*
D15*
X82556326Y-83890433D03*
X82556326Y-102940433D03*
D14*
X77476326Y-102940433D03*
X87636326Y-102940433D03*
X106686326Y-26740433D03*
X96526326Y-26740433D03*
D15*
X101606326Y-26740433D03*
X101606326Y-64840433D03*
D14*
X96526326Y-64840433D03*
X106686326Y-64840433D03*
D15*
X101606326Y-45790433D03*
D14*
X96526326Y-45790433D03*
X106686326Y-45790433D03*
D15*
X101606326Y-83890433D03*
D14*
X96526326Y-83890433D03*
X106686326Y-83890433D03*
D16*
X75895426Y-20522973D03*
X68895426Y-20522973D03*
D17*
X74895426Y-23222973D03*
X69895426Y-23222973D03*
D14*
X96526326Y-55315433D03*
X106686326Y-55315433D03*
D15*
X101606326Y-55315433D03*
X101606326Y-93415433D03*
D14*
X106686326Y-93415433D03*
X96526326Y-93415433D03*
D15*
X101606326Y-102940433D03*
D14*
X96526326Y-102940433D03*
X106686326Y-102940433D03*
M02*
