M48
; DRILL file {KiCad (5.1.2)-1} date 5/27/2019 2:02:45 PM
; FORMAT={-:-/ absolute / metric / decimal}
; #@! TF.CreationDate,2019-05-27T14:02:45+07:00
; #@! TF.GenerationSoftware,Kicad,Pcbnew,(5.1.2)-1
; #@! TF.FileFunction,NonPlated,1,2,NPTH
FMAT,2
METRIC
T1C0.900
T2C1.702
T3C3.988
%
G90
G05
T1
X70.206Y-22.65
X74.606Y-22.65
T2
X77.476Y-83.89
X87.636Y-83.89
X96.526Y-26.74
X106.686Y-26.74
X58.426Y-45.79
X68.586Y-45.79
X39.376Y-102.94
X49.536Y-102.94
X96.526Y-83.89
X106.686Y-83.89
X58.426Y-64.84
X68.586Y-64.84
X58.426Y-102.94
X68.586Y-102.94
X77.476Y-102.94
X87.636Y-102.94
X96.526Y-102.94
X106.686Y-102.94
X96.526Y-64.84
X106.686Y-64.84
X96.526Y-93.415
X106.686Y-93.415
X39.376Y-64.84
X49.536Y-64.84
X96.526Y-45.79
X106.686Y-45.79
X39.376Y-83.89
X49.536Y-83.89
X96.526Y-55.315
X106.686Y-55.315
X58.426Y-83.89
X68.586Y-83.89
X77.476Y-45.79
X87.636Y-45.79
X77.476Y-64.84
X87.636Y-64.84
X77.476Y-26.74
X87.636Y-26.74
X58.426Y-26.74
X68.586Y-26.74
X39.376Y-45.79
X49.536Y-45.79
X48.901Y-102.94
X59.061Y-102.94
X39.376Y-26.74
X49.536Y-26.74
T3
X82.556Y-45.79
X82.556Y-64.84
X82.556Y-26.74
X63.506Y-26.74
X44.456Y-45.79
X53.981Y-102.94
X44.456Y-26.74
X82.556Y-83.89
X101.606Y-26.74
X63.506Y-45.79
X44.456Y-102.94
X101.606Y-83.89
X63.506Y-64.84
X63.506Y-102.94
X82.556Y-102.94
X101.606Y-102.94
X101.606Y-64.84
X101.606Y-93.415
X44.456Y-64.84
X101.606Y-45.79
X44.456Y-83.89
X101.606Y-55.315
X63.506Y-83.89
T0
M30
