G04 #@! TF.GenerationSoftware,KiCad,Pcbnew,(5.1.2)-2*
G04 #@! TF.CreationDate,2019-08-05T19:31:07+07:00*
G04 #@! TF.ProjectId,PCB,5043422e-6b69-4636-9164-5f7063625858,a*
G04 #@! TF.SameCoordinates,Original*
G04 #@! TF.FileFunction,Paste,Bot*
G04 #@! TF.FilePolarity,Positive*
%FSLAX46Y46*%
G04 Gerber Fmt 4.6, Leading zero omitted, Abs format (unit mm)*
G04 Created by KiCad (PCBNEW (5.1.2)-2) date 2019-08-05 19:31:07*
%MOMM*%
%LPD*%
G04 APERTURE LIST*
%ADD10C,0.100000*%
%ADD11C,0.975000*%
%ADD12R,0.900000X1.200000*%
%ADD13R,0.600000X0.889000*%
%ADD14R,1.397000X0.889000*%
%ADD15C,0.550000*%
%ADD16R,2.400000X2.000000*%
%ADD17R,1.450000X0.600000*%
%ADD18R,1.450000X0.300000*%
%ADD19R,1.950000X1.500000*%
G04 APERTURE END LIST*
D10*
G36*
X37480167Y-13576224D02*
G01*
X37503828Y-13579734D01*
X37527032Y-13585546D01*
X37549554Y-13593604D01*
X37571178Y-13603832D01*
X37591695Y-13616129D01*
X37610908Y-13630379D01*
X37628632Y-13646443D01*
X37644696Y-13664167D01*
X37658946Y-13683380D01*
X37671243Y-13703897D01*
X37681471Y-13725521D01*
X37689529Y-13748043D01*
X37695341Y-13771247D01*
X37698851Y-13794908D01*
X37700025Y-13818800D01*
X37700025Y-14306300D01*
X37698851Y-14330192D01*
X37695341Y-14353853D01*
X37689529Y-14377057D01*
X37681471Y-14399579D01*
X37671243Y-14421203D01*
X37658946Y-14441720D01*
X37644696Y-14460933D01*
X37628632Y-14478657D01*
X37610908Y-14494721D01*
X37591695Y-14508971D01*
X37571178Y-14521268D01*
X37549554Y-14531496D01*
X37527032Y-14539554D01*
X37503828Y-14545366D01*
X37480167Y-14548876D01*
X37456275Y-14550050D01*
X36543775Y-14550050D01*
X36519883Y-14548876D01*
X36496222Y-14545366D01*
X36473018Y-14539554D01*
X36450496Y-14531496D01*
X36428872Y-14521268D01*
X36408355Y-14508971D01*
X36389142Y-14494721D01*
X36371418Y-14478657D01*
X36355354Y-14460933D01*
X36341104Y-14441720D01*
X36328807Y-14421203D01*
X36318579Y-14399579D01*
X36310521Y-14377057D01*
X36304709Y-14353853D01*
X36301199Y-14330192D01*
X36300025Y-14306300D01*
X36300025Y-13818800D01*
X36301199Y-13794908D01*
X36304709Y-13771247D01*
X36310521Y-13748043D01*
X36318579Y-13725521D01*
X36328807Y-13703897D01*
X36341104Y-13683380D01*
X36355354Y-13664167D01*
X36371418Y-13646443D01*
X36389142Y-13630379D01*
X36408355Y-13616129D01*
X36428872Y-13603832D01*
X36450496Y-13593604D01*
X36473018Y-13585546D01*
X36496222Y-13579734D01*
X36519883Y-13576224D01*
X36543775Y-13575050D01*
X37456275Y-13575050D01*
X37480167Y-13576224D01*
X37480167Y-13576224D01*
G37*
D11*
X37000025Y-14062550D03*
D10*
G36*
X37480167Y-15451224D02*
G01*
X37503828Y-15454734D01*
X37527032Y-15460546D01*
X37549554Y-15468604D01*
X37571178Y-15478832D01*
X37591695Y-15491129D01*
X37610908Y-15505379D01*
X37628632Y-15521443D01*
X37644696Y-15539167D01*
X37658946Y-15558380D01*
X37671243Y-15578897D01*
X37681471Y-15600521D01*
X37689529Y-15623043D01*
X37695341Y-15646247D01*
X37698851Y-15669908D01*
X37700025Y-15693800D01*
X37700025Y-16181300D01*
X37698851Y-16205192D01*
X37695341Y-16228853D01*
X37689529Y-16252057D01*
X37681471Y-16274579D01*
X37671243Y-16296203D01*
X37658946Y-16316720D01*
X37644696Y-16335933D01*
X37628632Y-16353657D01*
X37610908Y-16369721D01*
X37591695Y-16383971D01*
X37571178Y-16396268D01*
X37549554Y-16406496D01*
X37527032Y-16414554D01*
X37503828Y-16420366D01*
X37480167Y-16423876D01*
X37456275Y-16425050D01*
X36543775Y-16425050D01*
X36519883Y-16423876D01*
X36496222Y-16420366D01*
X36473018Y-16414554D01*
X36450496Y-16406496D01*
X36428872Y-16396268D01*
X36408355Y-16383971D01*
X36389142Y-16369721D01*
X36371418Y-16353657D01*
X36355354Y-16335933D01*
X36341104Y-16316720D01*
X36328807Y-16296203D01*
X36318579Y-16274579D01*
X36310521Y-16252057D01*
X36304709Y-16228853D01*
X36301199Y-16205192D01*
X36300025Y-16181300D01*
X36300025Y-15693800D01*
X36301199Y-15669908D01*
X36304709Y-15646247D01*
X36310521Y-15623043D01*
X36318579Y-15600521D01*
X36328807Y-15578897D01*
X36341104Y-15558380D01*
X36355354Y-15539167D01*
X36371418Y-15521443D01*
X36389142Y-15505379D01*
X36408355Y-15491129D01*
X36428872Y-15478832D01*
X36450496Y-15468604D01*
X36473018Y-15460546D01*
X36496222Y-15454734D01*
X36519883Y-15451224D01*
X36543775Y-15450050D01*
X37456275Y-15450050D01*
X37480167Y-15451224D01*
X37480167Y-15451224D01*
G37*
D11*
X37000025Y-15937550D03*
D10*
G36*
X37480167Y-10576224D02*
G01*
X37503828Y-10579734D01*
X37527032Y-10585546D01*
X37549554Y-10593604D01*
X37571178Y-10603832D01*
X37591695Y-10616129D01*
X37610908Y-10630379D01*
X37628632Y-10646443D01*
X37644696Y-10664167D01*
X37658946Y-10683380D01*
X37671243Y-10703897D01*
X37681471Y-10725521D01*
X37689529Y-10748043D01*
X37695341Y-10771247D01*
X37698851Y-10794908D01*
X37700025Y-10818800D01*
X37700025Y-11306300D01*
X37698851Y-11330192D01*
X37695341Y-11353853D01*
X37689529Y-11377057D01*
X37681471Y-11399579D01*
X37671243Y-11421203D01*
X37658946Y-11441720D01*
X37644696Y-11460933D01*
X37628632Y-11478657D01*
X37610908Y-11494721D01*
X37591695Y-11508971D01*
X37571178Y-11521268D01*
X37549554Y-11531496D01*
X37527032Y-11539554D01*
X37503828Y-11545366D01*
X37480167Y-11548876D01*
X37456275Y-11550050D01*
X36543775Y-11550050D01*
X36519883Y-11548876D01*
X36496222Y-11545366D01*
X36473018Y-11539554D01*
X36450496Y-11531496D01*
X36428872Y-11521268D01*
X36408355Y-11508971D01*
X36389142Y-11494721D01*
X36371418Y-11478657D01*
X36355354Y-11460933D01*
X36341104Y-11441720D01*
X36328807Y-11421203D01*
X36318579Y-11399579D01*
X36310521Y-11377057D01*
X36304709Y-11353853D01*
X36301199Y-11330192D01*
X36300025Y-11306300D01*
X36300025Y-10818800D01*
X36301199Y-10794908D01*
X36304709Y-10771247D01*
X36310521Y-10748043D01*
X36318579Y-10725521D01*
X36328807Y-10703897D01*
X36341104Y-10683380D01*
X36355354Y-10664167D01*
X36371418Y-10646443D01*
X36389142Y-10630379D01*
X36408355Y-10616129D01*
X36428872Y-10603832D01*
X36450496Y-10593604D01*
X36473018Y-10585546D01*
X36496222Y-10579734D01*
X36519883Y-10576224D01*
X36543775Y-10575050D01*
X37456275Y-10575050D01*
X37480167Y-10576224D01*
X37480167Y-10576224D01*
G37*
D11*
X37000025Y-11062550D03*
D10*
G36*
X37480167Y-12451224D02*
G01*
X37503828Y-12454734D01*
X37527032Y-12460546D01*
X37549554Y-12468604D01*
X37571178Y-12478832D01*
X37591695Y-12491129D01*
X37610908Y-12505379D01*
X37628632Y-12521443D01*
X37644696Y-12539167D01*
X37658946Y-12558380D01*
X37671243Y-12578897D01*
X37681471Y-12600521D01*
X37689529Y-12623043D01*
X37695341Y-12646247D01*
X37698851Y-12669908D01*
X37700025Y-12693800D01*
X37700025Y-13181300D01*
X37698851Y-13205192D01*
X37695341Y-13228853D01*
X37689529Y-13252057D01*
X37681471Y-13274579D01*
X37671243Y-13296203D01*
X37658946Y-13316720D01*
X37644696Y-13335933D01*
X37628632Y-13353657D01*
X37610908Y-13369721D01*
X37591695Y-13383971D01*
X37571178Y-13396268D01*
X37549554Y-13406496D01*
X37527032Y-13414554D01*
X37503828Y-13420366D01*
X37480167Y-13423876D01*
X37456275Y-13425050D01*
X36543775Y-13425050D01*
X36519883Y-13423876D01*
X36496222Y-13420366D01*
X36473018Y-13414554D01*
X36450496Y-13406496D01*
X36428872Y-13396268D01*
X36408355Y-13383971D01*
X36389142Y-13369721D01*
X36371418Y-13353657D01*
X36355354Y-13335933D01*
X36341104Y-13316720D01*
X36328807Y-13296203D01*
X36318579Y-13274579D01*
X36310521Y-13252057D01*
X36304709Y-13228853D01*
X36301199Y-13205192D01*
X36300025Y-13181300D01*
X36300025Y-12693800D01*
X36301199Y-12669908D01*
X36304709Y-12646247D01*
X36310521Y-12623043D01*
X36318579Y-12600521D01*
X36328807Y-12578897D01*
X36341104Y-12558380D01*
X36355354Y-12539167D01*
X36371418Y-12521443D01*
X36389142Y-12505379D01*
X36408355Y-12491129D01*
X36428872Y-12478832D01*
X36450496Y-12468604D01*
X36473018Y-12460546D01*
X36496222Y-12454734D01*
X36519883Y-12451224D01*
X36543775Y-12450050D01*
X37456275Y-12450050D01*
X37480167Y-12451224D01*
X37480167Y-12451224D01*
G37*
D11*
X37000025Y-12937550D03*
D12*
X-3492450Y-39373725D03*
X-192450Y-39373725D03*
X-192450Y-36992475D03*
X-3492450Y-36992475D03*
D13*
X2719000Y3216000D03*
D14*
X3100000Y1247500D03*
D13*
X3481000Y3216000D03*
X8243500Y-15834000D03*
D14*
X7862500Y-17802500D03*
D13*
X7481500Y-15834000D03*
X10624750Y-34884000D03*
D14*
X10243750Y-36852500D03*
D13*
X9862750Y-34884000D03*
X5100250Y-53934000D03*
D14*
X5481250Y-55902500D03*
D13*
X5862250Y-53934000D03*
X21769000Y3216000D03*
D14*
X22150000Y1247500D03*
D13*
X22531000Y3216000D03*
X40381000Y-15834000D03*
D14*
X40000000Y-17802500D03*
D13*
X39619000Y-15834000D03*
X36056500Y-34884000D03*
D14*
X36437500Y-36852500D03*
D13*
X36818500Y-34884000D03*
X32056000Y-53934000D03*
D14*
X31675000Y-55902500D03*
D13*
X31294000Y-53934000D03*
X40819000Y3216000D03*
D14*
X41200000Y1247500D03*
D13*
X41581000Y3216000D03*
X51106000Y-15834000D03*
D14*
X50725000Y-17802500D03*
D13*
X50344000Y-15834000D03*
X55868500Y-34884000D03*
D14*
X55487500Y-36852500D03*
D13*
X55106500Y-34884000D03*
X57487750Y-53934000D03*
D14*
X57868750Y-55902500D03*
D13*
X58249750Y-53934000D03*
X59869000Y3216000D03*
D14*
X60250000Y1247500D03*
D13*
X60631000Y3216000D03*
X70156000Y-15834000D03*
D14*
X69775000Y-17802500D03*
D13*
X69394000Y-15834000D03*
X74156500Y-34884000D03*
D14*
X74537500Y-36852500D03*
D13*
X74918500Y-34884000D03*
X89206000Y-53934000D03*
D14*
X88825000Y-55902500D03*
D13*
X88444000Y-53934000D03*
X78919000Y3216000D03*
D14*
X79300000Y1247500D03*
D13*
X79681000Y3216000D03*
X88444000Y-15834000D03*
D14*
X88825000Y-17802500D03*
D13*
X89206000Y-15834000D03*
X93968500Y-34884000D03*
D14*
X93587500Y-36852500D03*
D13*
X93206500Y-34884000D03*
X98731000Y3216000D03*
D14*
X98350000Y1247500D03*
D13*
X97969000Y3216000D03*
X108256000Y-15834000D03*
D14*
X107875000Y-17802500D03*
D13*
X107494000Y-15834000D03*
X113018500Y-34884000D03*
D14*
X112637500Y-36852500D03*
D13*
X112256500Y-34884000D03*
X126544000Y-53934000D03*
D14*
X126925000Y-55902500D03*
D13*
X127306000Y-53934000D03*
X117781000Y3216000D03*
D14*
X117400000Y1247500D03*
D13*
X117019000Y3216000D03*
X126544000Y-15834000D03*
D14*
X126925000Y-17802500D03*
D13*
X127306000Y-15834000D03*
X131306500Y-34884000D03*
D14*
X131687500Y-36852500D03*
D13*
X132068500Y-34884000D03*
X136831000Y3216000D03*
D14*
X136450000Y1247500D03*
D13*
X136069000Y3216000D03*
X146356000Y-15834000D03*
D14*
X145975000Y-17802500D03*
D13*
X145594000Y-15834000D03*
X151118500Y-34884000D03*
D14*
X150737500Y-36852500D03*
D13*
X150356500Y-34884000D03*
X158262250Y-53934000D03*
D14*
X157881250Y-55902500D03*
D13*
X157500250Y-53934000D03*
X155881000Y3216000D03*
D14*
X155500000Y1247500D03*
D13*
X155119000Y3216000D03*
X164644000Y-15834000D03*
D14*
X165025000Y-17802500D03*
D13*
X165406000Y-15834000D03*
X169406500Y-34884000D03*
D14*
X169787500Y-36852500D03*
D13*
X170168500Y-34884000D03*
X183694000Y-53934000D03*
D14*
X184075000Y-55902500D03*
D13*
X184456000Y-53934000D03*
X174931000Y3216000D03*
D14*
X174550000Y1247500D03*
D13*
X174169000Y3216000D03*
X183694000Y-15834000D03*
D14*
X184075000Y-17802500D03*
D13*
X184456000Y-15834000D03*
X212269000Y3216000D03*
D14*
X212650000Y1247500D03*
D13*
X213031000Y3216000D03*
X193219000Y3216000D03*
D14*
X193600000Y1247500D03*
D13*
X193981000Y3216000D03*
X207506500Y-15834000D03*
D14*
X207887500Y-17802500D03*
D13*
X208268500Y-15834000D03*
X201124750Y-34884000D03*
D14*
X200743750Y-36852500D03*
D13*
X200362750Y-34884000D03*
X210649750Y-53934000D03*
D14*
X210268750Y-55902500D03*
D13*
X209887750Y-53934000D03*
X188456500Y-34884000D03*
D14*
X188837500Y-36852500D03*
D13*
X189218500Y-34884000D03*
D10*
G36*
X-169833Y-14301224D02*
G01*
X-146172Y-14304734D01*
X-122968Y-14310546D01*
X-100446Y-14318604D01*
X-78822Y-14328832D01*
X-58305Y-14341129D01*
X-39092Y-14355379D01*
X-21368Y-14371443D01*
X-5304Y-14389167D01*
X8946Y-14408380D01*
X21243Y-14428897D01*
X31471Y-14450521D01*
X39529Y-14473043D01*
X45341Y-14496247D01*
X48851Y-14519908D01*
X50025Y-14543800D01*
X50025Y-15456300D01*
X48851Y-15480192D01*
X45341Y-15503853D01*
X39529Y-15527057D01*
X31471Y-15549579D01*
X21243Y-15571203D01*
X8946Y-15591720D01*
X-5304Y-15610933D01*
X-21368Y-15628657D01*
X-39092Y-15644721D01*
X-58305Y-15658971D01*
X-78822Y-15671268D01*
X-100446Y-15681496D01*
X-122968Y-15689554D01*
X-146172Y-15695366D01*
X-169833Y-15698876D01*
X-193725Y-15700050D01*
X-681225Y-15700050D01*
X-705117Y-15698876D01*
X-728778Y-15695366D01*
X-751982Y-15689554D01*
X-774504Y-15681496D01*
X-796128Y-15671268D01*
X-816645Y-15658971D01*
X-835858Y-15644721D01*
X-853582Y-15628657D01*
X-869646Y-15610933D01*
X-883896Y-15591720D01*
X-896193Y-15571203D01*
X-906421Y-15549579D01*
X-914479Y-15527057D01*
X-920291Y-15503853D01*
X-923801Y-15480192D01*
X-924975Y-15456300D01*
X-924975Y-14543800D01*
X-923801Y-14519908D01*
X-920291Y-14496247D01*
X-914479Y-14473043D01*
X-906421Y-14450521D01*
X-896193Y-14428897D01*
X-883896Y-14408380D01*
X-869646Y-14389167D01*
X-853582Y-14371443D01*
X-835858Y-14355379D01*
X-816645Y-14341129D01*
X-796128Y-14328832D01*
X-774504Y-14318604D01*
X-751982Y-14310546D01*
X-728778Y-14304734D01*
X-705117Y-14301224D01*
X-681225Y-14300050D01*
X-193725Y-14300050D01*
X-169833Y-14301224D01*
X-169833Y-14301224D01*
G37*
D11*
X-437475Y-15000050D03*
D10*
G36*
X1705167Y-14301224D02*
G01*
X1728828Y-14304734D01*
X1752032Y-14310546D01*
X1774554Y-14318604D01*
X1796178Y-14328832D01*
X1816695Y-14341129D01*
X1835908Y-14355379D01*
X1853632Y-14371443D01*
X1869696Y-14389167D01*
X1883946Y-14408380D01*
X1896243Y-14428897D01*
X1906471Y-14450521D01*
X1914529Y-14473043D01*
X1920341Y-14496247D01*
X1923851Y-14519908D01*
X1925025Y-14543800D01*
X1925025Y-15456300D01*
X1923851Y-15480192D01*
X1920341Y-15503853D01*
X1914529Y-15527057D01*
X1906471Y-15549579D01*
X1896243Y-15571203D01*
X1883946Y-15591720D01*
X1869696Y-15610933D01*
X1853632Y-15628657D01*
X1835908Y-15644721D01*
X1816695Y-15658971D01*
X1796178Y-15671268D01*
X1774554Y-15681496D01*
X1752032Y-15689554D01*
X1728828Y-15695366D01*
X1705167Y-15698876D01*
X1681275Y-15700050D01*
X1193775Y-15700050D01*
X1169883Y-15698876D01*
X1146222Y-15695366D01*
X1123018Y-15689554D01*
X1100496Y-15681496D01*
X1078872Y-15671268D01*
X1058355Y-15658971D01*
X1039142Y-15644721D01*
X1021418Y-15628657D01*
X1005354Y-15610933D01*
X991104Y-15591720D01*
X978807Y-15571203D01*
X968579Y-15549579D01*
X960521Y-15527057D01*
X954709Y-15503853D01*
X951199Y-15480192D01*
X950025Y-15456300D01*
X950025Y-14543800D01*
X951199Y-14519908D01*
X954709Y-14496247D01*
X960521Y-14473043D01*
X968579Y-14450521D01*
X978807Y-14428897D01*
X991104Y-14408380D01*
X1005354Y-14389167D01*
X1021418Y-14371443D01*
X1039142Y-14355379D01*
X1058355Y-14341129D01*
X1078872Y-14328832D01*
X1100496Y-14318604D01*
X1123018Y-14310546D01*
X1146222Y-14304734D01*
X1169883Y-14301224D01*
X1193775Y-14300050D01*
X1681275Y-14300050D01*
X1705167Y-14301224D01*
X1705167Y-14301224D01*
G37*
D11*
X1437525Y-15000050D03*
D10*
G36*
X-5294833Y-35301224D02*
G01*
X-5271172Y-35304734D01*
X-5247968Y-35310546D01*
X-5225446Y-35318604D01*
X-5203822Y-35328832D01*
X-5183305Y-35341129D01*
X-5164092Y-35355379D01*
X-5146368Y-35371443D01*
X-5130304Y-35389167D01*
X-5116054Y-35408380D01*
X-5103757Y-35428897D01*
X-5093529Y-35450521D01*
X-5085471Y-35473043D01*
X-5079659Y-35496247D01*
X-5076149Y-35519908D01*
X-5074975Y-35543800D01*
X-5074975Y-36456300D01*
X-5076149Y-36480192D01*
X-5079659Y-36503853D01*
X-5085471Y-36527057D01*
X-5093529Y-36549579D01*
X-5103757Y-36571203D01*
X-5116054Y-36591720D01*
X-5130304Y-36610933D01*
X-5146368Y-36628657D01*
X-5164092Y-36644721D01*
X-5183305Y-36658971D01*
X-5203822Y-36671268D01*
X-5225446Y-36681496D01*
X-5247968Y-36689554D01*
X-5271172Y-36695366D01*
X-5294833Y-36698876D01*
X-5318725Y-36700050D01*
X-5806225Y-36700050D01*
X-5830117Y-36698876D01*
X-5853778Y-36695366D01*
X-5876982Y-36689554D01*
X-5899504Y-36681496D01*
X-5921128Y-36671268D01*
X-5941645Y-36658971D01*
X-5960858Y-36644721D01*
X-5978582Y-36628657D01*
X-5994646Y-36610933D01*
X-6008896Y-36591720D01*
X-6021193Y-36571203D01*
X-6031421Y-36549579D01*
X-6039479Y-36527057D01*
X-6045291Y-36503853D01*
X-6048801Y-36480192D01*
X-6049975Y-36456300D01*
X-6049975Y-35543800D01*
X-6048801Y-35519908D01*
X-6045291Y-35496247D01*
X-6039479Y-35473043D01*
X-6031421Y-35450521D01*
X-6021193Y-35428897D01*
X-6008896Y-35408380D01*
X-5994646Y-35389167D01*
X-5978582Y-35371443D01*
X-5960858Y-35355379D01*
X-5941645Y-35341129D01*
X-5921128Y-35328832D01*
X-5899504Y-35318604D01*
X-5876982Y-35310546D01*
X-5853778Y-35304734D01*
X-5830117Y-35301224D01*
X-5806225Y-35300050D01*
X-5318725Y-35300050D01*
X-5294833Y-35301224D01*
X-5294833Y-35301224D01*
G37*
D11*
X-5562475Y-36000050D03*
D10*
G36*
X-7169833Y-35301224D02*
G01*
X-7146172Y-35304734D01*
X-7122968Y-35310546D01*
X-7100446Y-35318604D01*
X-7078822Y-35328832D01*
X-7058305Y-35341129D01*
X-7039092Y-35355379D01*
X-7021368Y-35371443D01*
X-7005304Y-35389167D01*
X-6991054Y-35408380D01*
X-6978757Y-35428897D01*
X-6968529Y-35450521D01*
X-6960471Y-35473043D01*
X-6954659Y-35496247D01*
X-6951149Y-35519908D01*
X-6949975Y-35543800D01*
X-6949975Y-36456300D01*
X-6951149Y-36480192D01*
X-6954659Y-36503853D01*
X-6960471Y-36527057D01*
X-6968529Y-36549579D01*
X-6978757Y-36571203D01*
X-6991054Y-36591720D01*
X-7005304Y-36610933D01*
X-7021368Y-36628657D01*
X-7039092Y-36644721D01*
X-7058305Y-36658971D01*
X-7078822Y-36671268D01*
X-7100446Y-36681496D01*
X-7122968Y-36689554D01*
X-7146172Y-36695366D01*
X-7169833Y-36698876D01*
X-7193725Y-36700050D01*
X-7681225Y-36700050D01*
X-7705117Y-36698876D01*
X-7728778Y-36695366D01*
X-7751982Y-36689554D01*
X-7774504Y-36681496D01*
X-7796128Y-36671268D01*
X-7816645Y-36658971D01*
X-7835858Y-36644721D01*
X-7853582Y-36628657D01*
X-7869646Y-36610933D01*
X-7883896Y-36591720D01*
X-7896193Y-36571203D01*
X-7906421Y-36549579D01*
X-7914479Y-36527057D01*
X-7920291Y-36503853D01*
X-7923801Y-36480192D01*
X-7924975Y-36456300D01*
X-7924975Y-35543800D01*
X-7923801Y-35519908D01*
X-7920291Y-35496247D01*
X-7914479Y-35473043D01*
X-7906421Y-35450521D01*
X-7896193Y-35428897D01*
X-7883896Y-35408380D01*
X-7869646Y-35389167D01*
X-7853582Y-35371443D01*
X-7835858Y-35355379D01*
X-7816645Y-35341129D01*
X-7796128Y-35328832D01*
X-7774504Y-35318604D01*
X-7751982Y-35310546D01*
X-7728778Y-35304734D01*
X-7705117Y-35301224D01*
X-7681225Y-35300050D01*
X-7193725Y-35300050D01*
X-7169833Y-35301224D01*
X-7169833Y-35301224D01*
G37*
D11*
X-7437475Y-36000050D03*
D10*
G36*
X-7169833Y-33301224D02*
G01*
X-7146172Y-33304734D01*
X-7122968Y-33310546D01*
X-7100446Y-33318604D01*
X-7078822Y-33328832D01*
X-7058305Y-33341129D01*
X-7039092Y-33355379D01*
X-7021368Y-33371443D01*
X-7005304Y-33389167D01*
X-6991054Y-33408380D01*
X-6978757Y-33428897D01*
X-6968529Y-33450521D01*
X-6960471Y-33473043D01*
X-6954659Y-33496247D01*
X-6951149Y-33519908D01*
X-6949975Y-33543800D01*
X-6949975Y-34456300D01*
X-6951149Y-34480192D01*
X-6954659Y-34503853D01*
X-6960471Y-34527057D01*
X-6968529Y-34549579D01*
X-6978757Y-34571203D01*
X-6991054Y-34591720D01*
X-7005304Y-34610933D01*
X-7021368Y-34628657D01*
X-7039092Y-34644721D01*
X-7058305Y-34658971D01*
X-7078822Y-34671268D01*
X-7100446Y-34681496D01*
X-7122968Y-34689554D01*
X-7146172Y-34695366D01*
X-7169833Y-34698876D01*
X-7193725Y-34700050D01*
X-7681225Y-34700050D01*
X-7705117Y-34698876D01*
X-7728778Y-34695366D01*
X-7751982Y-34689554D01*
X-7774504Y-34681496D01*
X-7796128Y-34671268D01*
X-7816645Y-34658971D01*
X-7835858Y-34644721D01*
X-7853582Y-34628657D01*
X-7869646Y-34610933D01*
X-7883896Y-34591720D01*
X-7896193Y-34571203D01*
X-7906421Y-34549579D01*
X-7914479Y-34527057D01*
X-7920291Y-34503853D01*
X-7923801Y-34480192D01*
X-7924975Y-34456300D01*
X-7924975Y-33543800D01*
X-7923801Y-33519908D01*
X-7920291Y-33496247D01*
X-7914479Y-33473043D01*
X-7906421Y-33450521D01*
X-7896193Y-33428897D01*
X-7883896Y-33408380D01*
X-7869646Y-33389167D01*
X-7853582Y-33371443D01*
X-7835858Y-33355379D01*
X-7816645Y-33341129D01*
X-7796128Y-33328832D01*
X-7774504Y-33318604D01*
X-7751982Y-33310546D01*
X-7728778Y-33304734D01*
X-7705117Y-33301224D01*
X-7681225Y-33300050D01*
X-7193725Y-33300050D01*
X-7169833Y-33301224D01*
X-7169833Y-33301224D01*
G37*
D11*
X-7437475Y-34000050D03*
D10*
G36*
X-5294833Y-33301224D02*
G01*
X-5271172Y-33304734D01*
X-5247968Y-33310546D01*
X-5225446Y-33318604D01*
X-5203822Y-33328832D01*
X-5183305Y-33341129D01*
X-5164092Y-33355379D01*
X-5146368Y-33371443D01*
X-5130304Y-33389167D01*
X-5116054Y-33408380D01*
X-5103757Y-33428897D01*
X-5093529Y-33450521D01*
X-5085471Y-33473043D01*
X-5079659Y-33496247D01*
X-5076149Y-33519908D01*
X-5074975Y-33543800D01*
X-5074975Y-34456300D01*
X-5076149Y-34480192D01*
X-5079659Y-34503853D01*
X-5085471Y-34527057D01*
X-5093529Y-34549579D01*
X-5103757Y-34571203D01*
X-5116054Y-34591720D01*
X-5130304Y-34610933D01*
X-5146368Y-34628657D01*
X-5164092Y-34644721D01*
X-5183305Y-34658971D01*
X-5203822Y-34671268D01*
X-5225446Y-34681496D01*
X-5247968Y-34689554D01*
X-5271172Y-34695366D01*
X-5294833Y-34698876D01*
X-5318725Y-34700050D01*
X-5806225Y-34700050D01*
X-5830117Y-34698876D01*
X-5853778Y-34695366D01*
X-5876982Y-34689554D01*
X-5899504Y-34681496D01*
X-5921128Y-34671268D01*
X-5941645Y-34658971D01*
X-5960858Y-34644721D01*
X-5978582Y-34628657D01*
X-5994646Y-34610933D01*
X-6008896Y-34591720D01*
X-6021193Y-34571203D01*
X-6031421Y-34549579D01*
X-6039479Y-34527057D01*
X-6045291Y-34503853D01*
X-6048801Y-34480192D01*
X-6049975Y-34456300D01*
X-6049975Y-33543800D01*
X-6048801Y-33519908D01*
X-6045291Y-33496247D01*
X-6039479Y-33473043D01*
X-6031421Y-33450521D01*
X-6021193Y-33428897D01*
X-6008896Y-33408380D01*
X-5994646Y-33389167D01*
X-5978582Y-33371443D01*
X-5960858Y-33355379D01*
X-5941645Y-33341129D01*
X-5921128Y-33328832D01*
X-5899504Y-33318604D01*
X-5876982Y-33310546D01*
X-5853778Y-33304734D01*
X-5830117Y-33301224D01*
X-5806225Y-33300050D01*
X-5318725Y-33300050D01*
X-5294833Y-33301224D01*
X-5294833Y-33301224D01*
G37*
D11*
X-5562475Y-34000050D03*
D10*
G36*
X-7169833Y-31301224D02*
G01*
X-7146172Y-31304734D01*
X-7122968Y-31310546D01*
X-7100446Y-31318604D01*
X-7078822Y-31328832D01*
X-7058305Y-31341129D01*
X-7039092Y-31355379D01*
X-7021368Y-31371443D01*
X-7005304Y-31389167D01*
X-6991054Y-31408380D01*
X-6978757Y-31428897D01*
X-6968529Y-31450521D01*
X-6960471Y-31473043D01*
X-6954659Y-31496247D01*
X-6951149Y-31519908D01*
X-6949975Y-31543800D01*
X-6949975Y-32456300D01*
X-6951149Y-32480192D01*
X-6954659Y-32503853D01*
X-6960471Y-32527057D01*
X-6968529Y-32549579D01*
X-6978757Y-32571203D01*
X-6991054Y-32591720D01*
X-7005304Y-32610933D01*
X-7021368Y-32628657D01*
X-7039092Y-32644721D01*
X-7058305Y-32658971D01*
X-7078822Y-32671268D01*
X-7100446Y-32681496D01*
X-7122968Y-32689554D01*
X-7146172Y-32695366D01*
X-7169833Y-32698876D01*
X-7193725Y-32700050D01*
X-7681225Y-32700050D01*
X-7705117Y-32698876D01*
X-7728778Y-32695366D01*
X-7751982Y-32689554D01*
X-7774504Y-32681496D01*
X-7796128Y-32671268D01*
X-7816645Y-32658971D01*
X-7835858Y-32644721D01*
X-7853582Y-32628657D01*
X-7869646Y-32610933D01*
X-7883896Y-32591720D01*
X-7896193Y-32571203D01*
X-7906421Y-32549579D01*
X-7914479Y-32527057D01*
X-7920291Y-32503853D01*
X-7923801Y-32480192D01*
X-7924975Y-32456300D01*
X-7924975Y-31543800D01*
X-7923801Y-31519908D01*
X-7920291Y-31496247D01*
X-7914479Y-31473043D01*
X-7906421Y-31450521D01*
X-7896193Y-31428897D01*
X-7883896Y-31408380D01*
X-7869646Y-31389167D01*
X-7853582Y-31371443D01*
X-7835858Y-31355379D01*
X-7816645Y-31341129D01*
X-7796128Y-31328832D01*
X-7774504Y-31318604D01*
X-7751982Y-31310546D01*
X-7728778Y-31304734D01*
X-7705117Y-31301224D01*
X-7681225Y-31300050D01*
X-7193725Y-31300050D01*
X-7169833Y-31301224D01*
X-7169833Y-31301224D01*
G37*
D11*
X-7437475Y-32000050D03*
D10*
G36*
X-5294833Y-31301224D02*
G01*
X-5271172Y-31304734D01*
X-5247968Y-31310546D01*
X-5225446Y-31318604D01*
X-5203822Y-31328832D01*
X-5183305Y-31341129D01*
X-5164092Y-31355379D01*
X-5146368Y-31371443D01*
X-5130304Y-31389167D01*
X-5116054Y-31408380D01*
X-5103757Y-31428897D01*
X-5093529Y-31450521D01*
X-5085471Y-31473043D01*
X-5079659Y-31496247D01*
X-5076149Y-31519908D01*
X-5074975Y-31543800D01*
X-5074975Y-32456300D01*
X-5076149Y-32480192D01*
X-5079659Y-32503853D01*
X-5085471Y-32527057D01*
X-5093529Y-32549579D01*
X-5103757Y-32571203D01*
X-5116054Y-32591720D01*
X-5130304Y-32610933D01*
X-5146368Y-32628657D01*
X-5164092Y-32644721D01*
X-5183305Y-32658971D01*
X-5203822Y-32671268D01*
X-5225446Y-32681496D01*
X-5247968Y-32689554D01*
X-5271172Y-32695366D01*
X-5294833Y-32698876D01*
X-5318725Y-32700050D01*
X-5806225Y-32700050D01*
X-5830117Y-32698876D01*
X-5853778Y-32695366D01*
X-5876982Y-32689554D01*
X-5899504Y-32681496D01*
X-5921128Y-32671268D01*
X-5941645Y-32658971D01*
X-5960858Y-32644721D01*
X-5978582Y-32628657D01*
X-5994646Y-32610933D01*
X-6008896Y-32591720D01*
X-6021193Y-32571203D01*
X-6031421Y-32549579D01*
X-6039479Y-32527057D01*
X-6045291Y-32503853D01*
X-6048801Y-32480192D01*
X-6049975Y-32456300D01*
X-6049975Y-31543800D01*
X-6048801Y-31519908D01*
X-6045291Y-31496247D01*
X-6039479Y-31473043D01*
X-6031421Y-31450521D01*
X-6021193Y-31428897D01*
X-6008896Y-31408380D01*
X-5994646Y-31389167D01*
X-5978582Y-31371443D01*
X-5960858Y-31355379D01*
X-5941645Y-31341129D01*
X-5921128Y-31328832D01*
X-5899504Y-31318604D01*
X-5876982Y-31310546D01*
X-5853778Y-31304734D01*
X-5830117Y-31301224D01*
X-5806225Y-31300050D01*
X-5318725Y-31300050D01*
X-5294833Y-31301224D01*
X-5294833Y-31301224D01*
G37*
D11*
X-5562475Y-32000050D03*
D15*
X17725305Y-14214947D03*
D10*
G36*
X18096536Y-13454807D02*
G01*
X18485445Y-13843716D01*
X17354074Y-14975087D01*
X16965165Y-14586178D01*
X18096536Y-13454807D01*
X18096536Y-13454807D01*
G37*
D15*
X18290990Y-14780633D03*
D10*
G36*
X18662221Y-14020493D02*
G01*
X19051130Y-14409402D01*
X17919759Y-15540773D01*
X17530850Y-15151864D01*
X18662221Y-14020493D01*
X18662221Y-14020493D01*
G37*
D15*
X18856676Y-15346318D03*
D10*
G36*
X19227907Y-14586178D02*
G01*
X19616816Y-14975087D01*
X18485445Y-16106458D01*
X18096536Y-15717549D01*
X19227907Y-14586178D01*
X19227907Y-14586178D01*
G37*
D15*
X19422361Y-15912003D03*
D10*
G36*
X19793592Y-15151863D02*
G01*
X20182501Y-15540772D01*
X19051130Y-16672143D01*
X18662221Y-16283234D01*
X19793592Y-15151863D01*
X19793592Y-15151863D01*
G37*
D15*
X19988047Y-16477689D03*
D10*
G36*
X20359278Y-15717549D02*
G01*
X20748187Y-16106458D01*
X19616816Y-17237829D01*
X19227907Y-16848920D01*
X20359278Y-15717549D01*
X20359278Y-15717549D01*
G37*
D15*
X20553732Y-17043374D03*
D10*
G36*
X20924963Y-16283234D02*
G01*
X21313872Y-16672143D01*
X20182501Y-17803514D01*
X19793592Y-17414605D01*
X20924963Y-16283234D01*
X20924963Y-16283234D01*
G37*
D15*
X21119417Y-17609060D03*
D10*
G36*
X21490648Y-16848920D02*
G01*
X21879557Y-17237829D01*
X20748186Y-18369200D01*
X20359277Y-17980291D01*
X21490648Y-16848920D01*
X21490648Y-16848920D01*
G37*
D15*
X21685103Y-18174745D03*
D10*
G36*
X22056334Y-17414605D02*
G01*
X22445243Y-17803514D01*
X21313872Y-18934885D01*
X20924963Y-18545976D01*
X22056334Y-17414605D01*
X22056334Y-17414605D01*
G37*
D15*
X21685103Y-20225355D03*
D10*
G36*
X22409887Y-20561231D02*
G01*
X22020979Y-20950139D01*
X20960319Y-19889479D01*
X21349227Y-19500571D01*
X22409887Y-20561231D01*
X22409887Y-20561231D01*
G37*
D15*
X21119417Y-20791040D03*
D10*
G36*
X21879557Y-21162271D02*
G01*
X21490648Y-21551180D01*
X20359277Y-20419809D01*
X20748186Y-20030900D01*
X21879557Y-21162271D01*
X21879557Y-21162271D01*
G37*
D15*
X20553732Y-21356726D03*
D10*
G36*
X21313872Y-21727957D02*
G01*
X20924963Y-22116866D01*
X19793592Y-20985495D01*
X20182501Y-20596586D01*
X21313872Y-21727957D01*
X21313872Y-21727957D01*
G37*
D15*
X19988047Y-21922411D03*
D10*
G36*
X20748187Y-22293642D02*
G01*
X20359278Y-22682551D01*
X19227907Y-21551180D01*
X19616816Y-21162271D01*
X20748187Y-22293642D01*
X20748187Y-22293642D01*
G37*
D15*
X19422361Y-22488097D03*
D10*
G36*
X20182501Y-22859328D02*
G01*
X19793592Y-23248237D01*
X18662221Y-22116866D01*
X19051130Y-21727957D01*
X20182501Y-22859328D01*
X20182501Y-22859328D01*
G37*
D15*
X18856676Y-23053782D03*
D10*
G36*
X19616816Y-23425013D02*
G01*
X19227907Y-23813922D01*
X18096536Y-22682551D01*
X18485445Y-22293642D01*
X19616816Y-23425013D01*
X19616816Y-23425013D01*
G37*
D15*
X18290990Y-23619467D03*
D10*
G36*
X19051130Y-23990698D02*
G01*
X18662221Y-24379607D01*
X17530850Y-23248236D01*
X17919759Y-22859327D01*
X19051130Y-23990698D01*
X19051130Y-23990698D01*
G37*
D15*
X17725305Y-24185153D03*
D10*
G36*
X18485445Y-24556384D02*
G01*
X18096536Y-24945293D01*
X16965165Y-23813922D01*
X17354074Y-23425013D01*
X18485445Y-24556384D01*
X18485445Y-24556384D01*
G37*
D15*
X15674695Y-24185153D03*
D10*
G36*
X16045926Y-23425013D02*
G01*
X16434835Y-23813922D01*
X15303464Y-24945293D01*
X14914555Y-24556384D01*
X16045926Y-23425013D01*
X16045926Y-23425013D01*
G37*
D15*
X15109010Y-23619467D03*
D10*
G36*
X15480241Y-22859327D02*
G01*
X15869150Y-23248236D01*
X14737779Y-24379607D01*
X14348870Y-23990698D01*
X15480241Y-22859327D01*
X15480241Y-22859327D01*
G37*
D15*
X14543324Y-23053782D03*
D10*
G36*
X14914555Y-22293642D02*
G01*
X15303464Y-22682551D01*
X14172093Y-23813922D01*
X13783184Y-23425013D01*
X14914555Y-22293642D01*
X14914555Y-22293642D01*
G37*
D15*
X13977639Y-22488097D03*
D10*
G36*
X14348870Y-21727957D02*
G01*
X14737779Y-22116866D01*
X13606408Y-23248237D01*
X13217499Y-22859328D01*
X14348870Y-21727957D01*
X14348870Y-21727957D01*
G37*
D15*
X13411953Y-21922411D03*
D10*
G36*
X13783184Y-21162271D02*
G01*
X14172093Y-21551180D01*
X13040722Y-22682551D01*
X12651813Y-22293642D01*
X13783184Y-21162271D01*
X13783184Y-21162271D01*
G37*
D15*
X12846268Y-21356726D03*
D10*
G36*
X13217499Y-20596586D02*
G01*
X13606408Y-20985495D01*
X12475037Y-22116866D01*
X12086128Y-21727957D01*
X13217499Y-20596586D01*
X13217499Y-20596586D01*
G37*
D15*
X12280583Y-20791040D03*
D10*
G36*
X12651814Y-20030900D02*
G01*
X13040723Y-20419809D01*
X11909352Y-21551180D01*
X11520443Y-21162271D01*
X12651814Y-20030900D01*
X12651814Y-20030900D01*
G37*
D15*
X11714897Y-20225355D03*
D10*
G36*
X12086128Y-19465215D02*
G01*
X12475037Y-19854124D01*
X11343666Y-20985495D01*
X10954757Y-20596586D01*
X12086128Y-19465215D01*
X12086128Y-19465215D01*
G37*
D15*
X11714897Y-18174745D03*
D10*
G36*
X12475037Y-18545976D02*
G01*
X12086128Y-18934885D01*
X10954757Y-17803514D01*
X11343666Y-17414605D01*
X12475037Y-18545976D01*
X12475037Y-18545976D01*
G37*
D15*
X12280583Y-17609060D03*
D10*
G36*
X13040723Y-17980291D02*
G01*
X12651814Y-18369200D01*
X11520443Y-17237829D01*
X11909352Y-16848920D01*
X13040723Y-17980291D01*
X13040723Y-17980291D01*
G37*
D15*
X12846268Y-17043374D03*
D10*
G36*
X13606408Y-17414605D02*
G01*
X13217499Y-17803514D01*
X12086128Y-16672143D01*
X12475037Y-16283234D01*
X13606408Y-17414605D01*
X13606408Y-17414605D01*
G37*
D15*
X13411953Y-16477689D03*
D10*
G36*
X14172093Y-16848920D02*
G01*
X13783184Y-17237829D01*
X12651813Y-16106458D01*
X13040722Y-15717549D01*
X14172093Y-16848920D01*
X14172093Y-16848920D01*
G37*
D15*
X13977639Y-15912003D03*
D10*
G36*
X14737779Y-16283234D02*
G01*
X14348870Y-16672143D01*
X13217499Y-15540772D01*
X13606408Y-15151863D01*
X14737779Y-16283234D01*
X14737779Y-16283234D01*
G37*
D15*
X14543324Y-15346318D03*
D10*
G36*
X15303464Y-15717549D02*
G01*
X14914555Y-16106458D01*
X13783184Y-14975087D01*
X14172093Y-14586178D01*
X15303464Y-15717549D01*
X15303464Y-15717549D01*
G37*
D15*
X15109010Y-14780633D03*
D10*
G36*
X15869150Y-15151864D02*
G01*
X15480241Y-15540773D01*
X14348870Y-14409402D01*
X14737779Y-14020493D01*
X15869150Y-15151864D01*
X15869150Y-15151864D01*
G37*
D15*
X15674695Y-14214947D03*
D10*
G36*
X16434835Y-14586178D02*
G01*
X16045926Y-14975087D01*
X14914555Y-13843716D01*
X15303464Y-13454807D01*
X16434835Y-14586178D01*
X16434835Y-14586178D01*
G37*
D16*
X34080025Y-11650050D03*
X34080025Y-15350050D03*
D10*
G36*
X-169833Y-20301224D02*
G01*
X-146172Y-20304734D01*
X-122968Y-20310546D01*
X-100446Y-20318604D01*
X-78822Y-20328832D01*
X-58305Y-20341129D01*
X-39092Y-20355379D01*
X-21368Y-20371443D01*
X-5304Y-20389167D01*
X8946Y-20408380D01*
X21243Y-20428897D01*
X31471Y-20450521D01*
X39529Y-20473043D01*
X45341Y-20496247D01*
X48851Y-20519908D01*
X50025Y-20543800D01*
X50025Y-21456300D01*
X48851Y-21480192D01*
X45341Y-21503853D01*
X39529Y-21527057D01*
X31471Y-21549579D01*
X21243Y-21571203D01*
X8946Y-21591720D01*
X-5304Y-21610933D01*
X-21368Y-21628657D01*
X-39092Y-21644721D01*
X-58305Y-21658971D01*
X-78822Y-21671268D01*
X-100446Y-21681496D01*
X-122968Y-21689554D01*
X-146172Y-21695366D01*
X-169833Y-21698876D01*
X-193725Y-21700050D01*
X-681225Y-21700050D01*
X-705117Y-21698876D01*
X-728778Y-21695366D01*
X-751982Y-21689554D01*
X-774504Y-21681496D01*
X-796128Y-21671268D01*
X-816645Y-21658971D01*
X-835858Y-21644721D01*
X-853582Y-21628657D01*
X-869646Y-21610933D01*
X-883896Y-21591720D01*
X-896193Y-21571203D01*
X-906421Y-21549579D01*
X-914479Y-21527057D01*
X-920291Y-21503853D01*
X-923801Y-21480192D01*
X-924975Y-21456300D01*
X-924975Y-20543800D01*
X-923801Y-20519908D01*
X-920291Y-20496247D01*
X-914479Y-20473043D01*
X-906421Y-20450521D01*
X-896193Y-20428897D01*
X-883896Y-20408380D01*
X-869646Y-20389167D01*
X-853582Y-20371443D01*
X-835858Y-20355379D01*
X-816645Y-20341129D01*
X-796128Y-20328832D01*
X-774504Y-20318604D01*
X-751982Y-20310546D01*
X-728778Y-20304734D01*
X-705117Y-20301224D01*
X-681225Y-20300050D01*
X-193725Y-20300050D01*
X-169833Y-20301224D01*
X-169833Y-20301224D01*
G37*
D11*
X-437475Y-21000050D03*
D10*
G36*
X1705167Y-20301224D02*
G01*
X1728828Y-20304734D01*
X1752032Y-20310546D01*
X1774554Y-20318604D01*
X1796178Y-20328832D01*
X1816695Y-20341129D01*
X1835908Y-20355379D01*
X1853632Y-20371443D01*
X1869696Y-20389167D01*
X1883946Y-20408380D01*
X1896243Y-20428897D01*
X1906471Y-20450521D01*
X1914529Y-20473043D01*
X1920341Y-20496247D01*
X1923851Y-20519908D01*
X1925025Y-20543800D01*
X1925025Y-21456300D01*
X1923851Y-21480192D01*
X1920341Y-21503853D01*
X1914529Y-21527057D01*
X1906471Y-21549579D01*
X1896243Y-21571203D01*
X1883946Y-21591720D01*
X1869696Y-21610933D01*
X1853632Y-21628657D01*
X1835908Y-21644721D01*
X1816695Y-21658971D01*
X1796178Y-21671268D01*
X1774554Y-21681496D01*
X1752032Y-21689554D01*
X1728828Y-21695366D01*
X1705167Y-21698876D01*
X1681275Y-21700050D01*
X1193775Y-21700050D01*
X1169883Y-21698876D01*
X1146222Y-21695366D01*
X1123018Y-21689554D01*
X1100496Y-21681496D01*
X1078872Y-21671268D01*
X1058355Y-21658971D01*
X1039142Y-21644721D01*
X1021418Y-21628657D01*
X1005354Y-21610933D01*
X991104Y-21591720D01*
X978807Y-21571203D01*
X968579Y-21549579D01*
X960521Y-21527057D01*
X954709Y-21503853D01*
X951199Y-21480192D01*
X950025Y-21456300D01*
X950025Y-20543800D01*
X951199Y-20519908D01*
X954709Y-20496247D01*
X960521Y-20473043D01*
X968579Y-20450521D01*
X978807Y-20428897D01*
X991104Y-20408380D01*
X1005354Y-20389167D01*
X1021418Y-20371443D01*
X1039142Y-20355379D01*
X1058355Y-20341129D01*
X1078872Y-20328832D01*
X1100496Y-20318604D01*
X1123018Y-20310546D01*
X1146222Y-20304734D01*
X1169883Y-20301224D01*
X1193775Y-20300050D01*
X1681275Y-20300050D01*
X1705167Y-20301224D01*
X1705167Y-20301224D01*
G37*
D11*
X1437525Y-21000050D03*
D10*
G36*
X1705167Y-16301224D02*
G01*
X1728828Y-16304734D01*
X1752032Y-16310546D01*
X1774554Y-16318604D01*
X1796178Y-16328832D01*
X1816695Y-16341129D01*
X1835908Y-16355379D01*
X1853632Y-16371443D01*
X1869696Y-16389167D01*
X1883946Y-16408380D01*
X1896243Y-16428897D01*
X1906471Y-16450521D01*
X1914529Y-16473043D01*
X1920341Y-16496247D01*
X1923851Y-16519908D01*
X1925025Y-16543800D01*
X1925025Y-17456300D01*
X1923851Y-17480192D01*
X1920341Y-17503853D01*
X1914529Y-17527057D01*
X1906471Y-17549579D01*
X1896243Y-17571203D01*
X1883946Y-17591720D01*
X1869696Y-17610933D01*
X1853632Y-17628657D01*
X1835908Y-17644721D01*
X1816695Y-17658971D01*
X1796178Y-17671268D01*
X1774554Y-17681496D01*
X1752032Y-17689554D01*
X1728828Y-17695366D01*
X1705167Y-17698876D01*
X1681275Y-17700050D01*
X1193775Y-17700050D01*
X1169883Y-17698876D01*
X1146222Y-17695366D01*
X1123018Y-17689554D01*
X1100496Y-17681496D01*
X1078872Y-17671268D01*
X1058355Y-17658971D01*
X1039142Y-17644721D01*
X1021418Y-17628657D01*
X1005354Y-17610933D01*
X991104Y-17591720D01*
X978807Y-17571203D01*
X968579Y-17549579D01*
X960521Y-17527057D01*
X954709Y-17503853D01*
X951199Y-17480192D01*
X950025Y-17456300D01*
X950025Y-16543800D01*
X951199Y-16519908D01*
X954709Y-16496247D01*
X960521Y-16473043D01*
X968579Y-16450521D01*
X978807Y-16428897D01*
X991104Y-16408380D01*
X1005354Y-16389167D01*
X1021418Y-16371443D01*
X1039142Y-16355379D01*
X1058355Y-16341129D01*
X1078872Y-16328832D01*
X1100496Y-16318604D01*
X1123018Y-16310546D01*
X1146222Y-16304734D01*
X1169883Y-16301224D01*
X1193775Y-16300050D01*
X1681275Y-16300050D01*
X1705167Y-16301224D01*
X1705167Y-16301224D01*
G37*
D11*
X1437525Y-17000050D03*
D10*
G36*
X-169833Y-16301224D02*
G01*
X-146172Y-16304734D01*
X-122968Y-16310546D01*
X-100446Y-16318604D01*
X-78822Y-16328832D01*
X-58305Y-16341129D01*
X-39092Y-16355379D01*
X-21368Y-16371443D01*
X-5304Y-16389167D01*
X8946Y-16408380D01*
X21243Y-16428897D01*
X31471Y-16450521D01*
X39529Y-16473043D01*
X45341Y-16496247D01*
X48851Y-16519908D01*
X50025Y-16543800D01*
X50025Y-17456300D01*
X48851Y-17480192D01*
X45341Y-17503853D01*
X39529Y-17527057D01*
X31471Y-17549579D01*
X21243Y-17571203D01*
X8946Y-17591720D01*
X-5304Y-17610933D01*
X-21368Y-17628657D01*
X-39092Y-17644721D01*
X-58305Y-17658971D01*
X-78822Y-17671268D01*
X-100446Y-17681496D01*
X-122968Y-17689554D01*
X-146172Y-17695366D01*
X-169833Y-17698876D01*
X-193725Y-17700050D01*
X-681225Y-17700050D01*
X-705117Y-17698876D01*
X-728778Y-17695366D01*
X-751982Y-17689554D01*
X-774504Y-17681496D01*
X-796128Y-17671268D01*
X-816645Y-17658971D01*
X-835858Y-17644721D01*
X-853582Y-17628657D01*
X-869646Y-17610933D01*
X-883896Y-17591720D01*
X-896193Y-17571203D01*
X-906421Y-17549579D01*
X-914479Y-17527057D01*
X-920291Y-17503853D01*
X-923801Y-17480192D01*
X-924975Y-17456300D01*
X-924975Y-16543800D01*
X-923801Y-16519908D01*
X-920291Y-16496247D01*
X-914479Y-16473043D01*
X-906421Y-16450521D01*
X-896193Y-16428897D01*
X-883896Y-16408380D01*
X-869646Y-16389167D01*
X-853582Y-16371443D01*
X-835858Y-16355379D01*
X-816645Y-16341129D01*
X-796128Y-16328832D01*
X-774504Y-16318604D01*
X-751982Y-16310546D01*
X-728778Y-16304734D01*
X-705117Y-16301224D01*
X-681225Y-16300050D01*
X-193725Y-16300050D01*
X-169833Y-16301224D01*
X-169833Y-16301224D01*
G37*
D11*
X-437475Y-17000050D03*
D17*
X-2705000Y-15825050D03*
X-2705000Y-22275050D03*
X-2705000Y-16600050D03*
X-2705000Y-21500050D03*
D18*
X-2705000Y-20800050D03*
X-2705000Y-17300050D03*
X-2705000Y-20300050D03*
X-2705000Y-17800050D03*
X-2705000Y-19800050D03*
X-2705000Y-18300050D03*
X-2705000Y-18800050D03*
X-2705000Y-19300050D03*
D19*
X-2742714Y-28721649D03*
X7286Y-28721649D03*
D10*
G36*
X-3107572Y-25822823D02*
G01*
X-3083911Y-25826333D01*
X-3060707Y-25832145D01*
X-3038185Y-25840203D01*
X-3016561Y-25850431D01*
X-2996044Y-25862728D01*
X-2976831Y-25876978D01*
X-2959107Y-25893042D01*
X-2943043Y-25910766D01*
X-2928793Y-25929979D01*
X-2916496Y-25950496D01*
X-2906268Y-25972120D01*
X-2898210Y-25994642D01*
X-2892398Y-26017846D01*
X-2888888Y-26041507D01*
X-2887714Y-26065399D01*
X-2887714Y-26977899D01*
X-2888888Y-27001791D01*
X-2892398Y-27025452D01*
X-2898210Y-27048656D01*
X-2906268Y-27071178D01*
X-2916496Y-27092802D01*
X-2928793Y-27113319D01*
X-2943043Y-27132532D01*
X-2959107Y-27150256D01*
X-2976831Y-27166320D01*
X-2996044Y-27180570D01*
X-3016561Y-27192867D01*
X-3038185Y-27203095D01*
X-3060707Y-27211153D01*
X-3083911Y-27216965D01*
X-3107572Y-27220475D01*
X-3131464Y-27221649D01*
X-3618964Y-27221649D01*
X-3642856Y-27220475D01*
X-3666517Y-27216965D01*
X-3689721Y-27211153D01*
X-3712243Y-27203095D01*
X-3733867Y-27192867D01*
X-3754384Y-27180570D01*
X-3773597Y-27166320D01*
X-3791321Y-27150256D01*
X-3807385Y-27132532D01*
X-3821635Y-27113319D01*
X-3833932Y-27092802D01*
X-3844160Y-27071178D01*
X-3852218Y-27048656D01*
X-3858030Y-27025452D01*
X-3861540Y-27001791D01*
X-3862714Y-26977899D01*
X-3862714Y-26065399D01*
X-3861540Y-26041507D01*
X-3858030Y-26017846D01*
X-3852218Y-25994642D01*
X-3844160Y-25972120D01*
X-3833932Y-25950496D01*
X-3821635Y-25929979D01*
X-3807385Y-25910766D01*
X-3791321Y-25893042D01*
X-3773597Y-25876978D01*
X-3754384Y-25862728D01*
X-3733867Y-25850431D01*
X-3712243Y-25840203D01*
X-3689721Y-25832145D01*
X-3666517Y-25826333D01*
X-3642856Y-25822823D01*
X-3618964Y-25821649D01*
X-3131464Y-25821649D01*
X-3107572Y-25822823D01*
X-3107572Y-25822823D01*
G37*
D11*
X-3375214Y-26521649D03*
D10*
G36*
X-1232572Y-25822823D02*
G01*
X-1208911Y-25826333D01*
X-1185707Y-25832145D01*
X-1163185Y-25840203D01*
X-1141561Y-25850431D01*
X-1121044Y-25862728D01*
X-1101831Y-25876978D01*
X-1084107Y-25893042D01*
X-1068043Y-25910766D01*
X-1053793Y-25929979D01*
X-1041496Y-25950496D01*
X-1031268Y-25972120D01*
X-1023210Y-25994642D01*
X-1017398Y-26017846D01*
X-1013888Y-26041507D01*
X-1012714Y-26065399D01*
X-1012714Y-26977899D01*
X-1013888Y-27001791D01*
X-1017398Y-27025452D01*
X-1023210Y-27048656D01*
X-1031268Y-27071178D01*
X-1041496Y-27092802D01*
X-1053793Y-27113319D01*
X-1068043Y-27132532D01*
X-1084107Y-27150256D01*
X-1101831Y-27166320D01*
X-1121044Y-27180570D01*
X-1141561Y-27192867D01*
X-1163185Y-27203095D01*
X-1185707Y-27211153D01*
X-1208911Y-27216965D01*
X-1232572Y-27220475D01*
X-1256464Y-27221649D01*
X-1743964Y-27221649D01*
X-1767856Y-27220475D01*
X-1791517Y-27216965D01*
X-1814721Y-27211153D01*
X-1837243Y-27203095D01*
X-1858867Y-27192867D01*
X-1879384Y-27180570D01*
X-1898597Y-27166320D01*
X-1916321Y-27150256D01*
X-1932385Y-27132532D01*
X-1946635Y-27113319D01*
X-1958932Y-27092802D01*
X-1969160Y-27071178D01*
X-1977218Y-27048656D01*
X-1983030Y-27025452D01*
X-1986540Y-27001791D01*
X-1987714Y-26977899D01*
X-1987714Y-26065399D01*
X-1986540Y-26041507D01*
X-1983030Y-26017846D01*
X-1977218Y-25994642D01*
X-1969160Y-25972120D01*
X-1958932Y-25950496D01*
X-1946635Y-25929979D01*
X-1932385Y-25910766D01*
X-1916321Y-25893042D01*
X-1898597Y-25876978D01*
X-1879384Y-25862728D01*
X-1858867Y-25850431D01*
X-1837243Y-25840203D01*
X-1814721Y-25832145D01*
X-1791517Y-25826333D01*
X-1767856Y-25822823D01*
X-1743964Y-25821649D01*
X-1256464Y-25821649D01*
X-1232572Y-25822823D01*
X-1232572Y-25822823D01*
G37*
D11*
X-1500214Y-26521649D03*
M02*
