G04 #@! TF.GenerationSoftware,KiCad,Pcbnew,(5.1.2)-2*
G04 #@! TF.CreationDate,2019-08-05T19:31:07+07:00*
G04 #@! TF.ProjectId,PCB,5043422e-6b69-4636-9164-5f7063625858,a*
G04 #@! TF.SameCoordinates,Original*
G04 #@! TF.FileFunction,Legend,Top*
G04 #@! TF.FilePolarity,Positive*
%FSLAX46Y46*%
G04 Gerber Fmt 4.6, Leading zero omitted, Abs format (unit mm)*
G04 Created by KiCad (PCBNEW (5.1.2)-2) date 2019-08-05 19:31:07*
%MOMM*%
%LPD*%
G04 APERTURE LIST*
%ADD10C,0.120000*%
%ADD11C,0.150000*%
G04 APERTURE END LIST*
D10*
X24260650Y-33230050D02*
X24260650Y-34600050D01*
X22890650Y-33230050D02*
X24260650Y-33230050D01*
X19540650Y-41770050D02*
X18400650Y-41770050D01*
X22080650Y-41770050D02*
X20940650Y-41770050D01*
X19540650Y-34430050D02*
X18400650Y-34430050D01*
X22080650Y-34430050D02*
X20940650Y-34430050D01*
X16470650Y-41770050D02*
X17000650Y-41770050D01*
X16470650Y-34430050D02*
X16470650Y-41770050D01*
X17000650Y-34430050D02*
X16470650Y-34430050D01*
X24010650Y-41770050D02*
X23480650Y-41770050D01*
X24010650Y-34430050D02*
X24010650Y-41770050D01*
X23480650Y-34430050D02*
X24010650Y-34430050D01*
D11*
X30240000Y-28194050D02*
X30240000Y-10160050D01*
X-2526000Y-10160050D02*
X-2526000Y-28194050D01*
X30240000Y-28194050D02*
X-2526000Y-28194050D01*
X-2526000Y-10160050D02*
X30240000Y-10160050D01*
D10*
X193932525Y-20990000D02*
X196592525Y-20990000D01*
X193932525Y-10770000D02*
X193932525Y-20990000D01*
X196592525Y-10770000D02*
X196592525Y-20990000D01*
X193932525Y-10770000D02*
X196592525Y-10770000D01*
X193932525Y-9500000D02*
X193932525Y-8170000D01*
X193932525Y-8170000D02*
X195262525Y-8170000D01*
M02*
