M48
; DRILL file {KiCad (5.1.2)-2} date 8/5/2019 7:31:09 PM
; FORMAT={-:-/ absolute / metric / decimal}
; #@! TF.CreationDate,2019-08-05T19:31:09+07:00
; #@! TF.GenerationSoftware,Kicad,Pcbnew,(5.1.2)-2
; #@! TF.FileFunction,NonPlated,1,2,NPTH
FMAT,2
METRIC
T1C0.650
T2C1.702
T3C3.048
T4C3.988
%
G90
G05
T1
X-4.15Y-16.16
X-4.15Y-21.94
T2
X47.308Y-38.1
X57.468Y-38.1
X61.595Y-19.05
X71.755Y-19.05
X13.97Y-0.0
X24.13Y-0.0
X202.089Y-57.15
X212.249Y-57.15
X156.845Y-19.05
X167.005Y-19.05
X28.258Y-38.1
X38.418Y-38.1
X180.658Y-38.1
X190.818Y-38.1
X123.508Y-38.1
X133.668Y-38.1
X23.495Y-57.15
X33.655Y-57.15
X166.37Y-0.0
X176.53Y-0.0
X192.564Y-38.1
X202.089Y-38.1
X202.724Y-38.1
X212.249Y-38.1
X99.695Y-19.05
X109.855Y-19.05
X175.895Y-57.15
X186.055Y-57.15
X128.27Y-0.0
X138.43Y-0.0
X109.22Y-0.0
X119.38Y-0.0
X23.495Y-19.05
X33.655Y-19.05
X49.689Y-57.15
X59.849Y-57.15
X80.645Y-57.15
X90.805Y-57.15
X90.17Y-0.0
X100.33Y-0.0
X161.608Y-38.1
X171.768Y-38.1
X42.545Y-19.05
X52.705Y-19.05
X149.701Y-57.15
X159.861Y-57.15
X-5.08Y-0.0
X5.08Y-0.0
X71.12Y-0.0
X81.28Y-0.0
X118.745Y-57.15
X128.905Y-57.15
X137.795Y-19.05
X147.955Y-19.05
X-0.317Y-19.05
X9.843Y-19.05
X118.745Y-19.05
X128.905Y-19.05
X104.458Y-38.1
X114.618Y-38.1
X33.02Y-0.0
X43.18Y-0.0
X52.07Y-0.0
X62.23Y-0.0
X85.408Y-38.1
X95.568Y-38.1
X-2.699Y-57.15
X7.461Y-57.15
X175.895Y-19.05
X186.055Y-19.05
X66.358Y-38.1
X76.518Y-38.1
X185.42Y-0.0
X195.58Y-0.0
X2.064Y-38.1
X12.224Y-38.1
X80.645Y-19.05
X90.805Y-19.05
X199.708Y-19.05
X209.868Y-19.05
X204.47Y-0.0
X214.63Y-0.0
X147.32Y-0.0
X157.48Y-0.0
X142.558Y-38.1
X152.718Y-38.1
T3
X185.705Y-31.115
X111.887Y-64.135
X97.663Y-64.135
X73.787Y-64.135
X209.581Y-31.115
X135.763Y-64.135
T4
X52.388Y-38.1
X66.675Y-19.05
X19.05Y-0.0
X207.169Y-57.15
X161.925Y-19.05
X33.338Y-38.1
X185.738Y-38.1
X128.588Y-38.1
X28.575Y-57.15
X171.45Y-0.0
X197.644Y-38.1
X207.169Y-38.1
X104.775Y-19.05
X180.975Y-57.15
X185.705Y-46.355
X133.35Y-0.0
X114.3Y-0.0
X28.575Y-19.05
X54.769Y-57.15
X85.725Y-57.15
X95.25Y-0.0
X166.688Y-38.1
X47.625Y-19.05
X154.781Y-57.15
X0.0Y-0.0
X111.887Y-48.895
X76.2Y-0.0
X123.825Y-57.15
X97.663Y-48.895
X142.875Y-19.05
X4.763Y-19.05
X123.825Y-19.05
X109.538Y-38.1
X38.1Y-0.0
X57.15Y-0.0
X90.488Y-38.1
X73.787Y-48.895
X2.381Y-57.15
X180.975Y-19.05
X71.438Y-38.1
X190.5Y-0.0
X7.144Y-38.1
X85.725Y-19.05
X204.788Y-19.05
X209.581Y-46.355
X209.55Y-0.0
X135.763Y-48.895
X152.4Y-0.0
X147.638Y-38.1
T0
M30
