M48
;DRILL file {KiCad (5.0.2)-1} date 5/27/2019 6:19:24 PM
;FORMAT={-:-/ absolute / metric / decimal}
FMAT,2
METRIC,TZ
T1C0.400
T2C0.600
T3C0.800
T4C1.000
T5C1.200
T6C1.700
T7C2.050
T8C2.500
%
G90
G05
T1
X-6.44Y-30.795
X-5.883Y-30.092
X-4.704Y4.704
X-4.704Y-44.496
X-4.161Y-41.665
X-4.13Y-19.8
X-2.244Y-49.416
X-1.442Y-18.302
X0.296Y-31.027
X2.214Y-13.604
X2.43Y-29.546
X2.816Y-16.813
X3.009Y-32.666
X3.377Y-31.485
X5.21Y-23.606
X5.735Y-9.18
X6.006Y-21.868
X7.596Y-49.416
X10.03Y-10.26
X10.43Y-16.89
X10.985Y-16.314
X12.516Y-46.956
X12.53Y-19.42
X13.195Y-23.606
X13.76Y-19.31
X15.347Y-18.207
X16.214Y-18.188
X16.64Y-15.18
X16.65Y-24.38
X16.74Y-23.2
X17.08Y-22.39
X17.436Y-49.416
X17.88Y-22.08
X18.5Y-13.44
X19.065Y-29.45
X19.34Y-13.73
X19.636Y-30.025
X19.641Y-28.85
X22.356Y-46.956
X23.592Y-20.397
X25.644Y-17.664
X25.811Y-16.125
X26.635Y-20.872
X26.98Y-29.77
X27.54Y-14.595
X28.18Y-29.77
X28.18Y-30.97
X28.203Y-32.145
X28.442Y-13.189
X28.822Y-31.57
X28.861Y-30.37
X33.644Y-6.299
X34.241Y-6.899
X34.396Y-8.11
X34.411Y-9.31
X34.656Y-46.956
X34.946Y-8.71
X34.96Y-7.499
X34.96Y-9.91
X37.116Y-56.796
X39.576Y-49.416
X39.576Y-61.716
X40.766Y-13.912
X42.036Y-39.576
X43.922Y-30.702
X43.933Y-27.11
X43.951Y-29.527
X44.483Y-30.127
X44.485Y-27.71
X44.485Y-28.927
X44.496Y-44.496
X44.496Y-56.796
X46.956Y-0.216
X46.956Y-49.416
X46.956Y-61.716
X49.416Y-5.136
X54.336Y-32.196
X54.336Y-46.956
X56.796Y-19.896
X59.256Y-7.596
X59.256Y-49.416
X61.716Y-44.496
X64.135Y-28.927
X64.176Y-56.796
X66.636Y-0.216
X66.636Y-7.596
X66.636Y-61.716
X71.556Y-56.796
X73.66Y-13.3
X76.476Y-19.896
X76.476Y-59.256
X78.936Y-7.596
X78.936Y-44.496
X81.396Y-39.576
X81.396Y-49.416
X86.316Y-0.216
X86.316Y-7.596
X88.776Y-49.416
X93.696Y-44.496
X96.156Y-19.896
X96.156Y-56.796
X98.616Y-7.596
X98.616Y-42.036
X101.076Y-59.256
X102.235Y-28.927
X103.536Y-5.136
X103.536Y-49.416
X105.996Y-56.796
X110.916Y-59.256
X111.76Y-12.7
X113.376Y-19.896
X115.836Y-24.816
X118.296Y-7.596
X118.296Y-39.576
X118.296Y-46.956
X123.216Y-0.216
X123.216Y-49.416
X125.676Y-5.136
X130.596Y-46.956
X130.81Y-12.1
X133.056Y-19.896
X133.056Y-56.796
X135.516Y-7.596
X135.516Y-24.816
X137.976Y-59.256
X140.436Y-44.496
X142.896Y-0.216
X142.896Y-7.596
X142.896Y-56.796
X145.356Y-61.716
X147.816Y-49.416
X149.86Y-11.5
X152.736Y-19.896
X152.736Y-46.956
X155.196Y-7.596
X155.196Y-24.816
X157.656Y-39.576
X157.656Y-49.416
X162.576Y-0.216
X162.576Y-7.596
X165.036Y-56.796
X167.496Y-49.416
X167.496Y-61.716
X168.91Y-10.9
X169.956Y-24.816
X169.956Y-44.496
X172.416Y-10.056
X172.416Y-19.896
X172.416Y-56.796
X174.876Y-42.036
X174.876Y-49.416
X177.336Y-7.596
X179.035Y-28.31
X179.612Y-27.71
X179.796Y-12.516
X180.412Y-27.71
X180.573Y-26.558
X184.716Y-10.056
X189.636Y-12.516
X189.636Y-19.896
X192.096Y-32.196
X192.096Y-49.416
X197.016Y4.704
X199.445Y-4.48
X199.445Y-6.13
X199.476Y-0.216
X199.476Y-10.056
X199.476Y-46.956
X199.476Y-61.716
X201.648Y-27.71
X201.735Y-33.38
X202.544Y-53.934
X202.848Y-27.835
X203.951Y-33.379
X204.396Y4.704
X204.396Y-49.416
X206.856Y-10.056
X209.316Y-27.276
X210.68Y3.22
X211.776Y-7.596
T3
X8.255Y5.239
X8.255Y2.699
X8.255Y0.159
X8.255Y-2.381
X8.255Y-4.921
X10.795Y5.239
X10.795Y2.699
X10.795Y0.159
X10.795Y-2.381
X10.795Y-4.921
T4
X1.03Y-11.43
X1.03Y-26.67
X3.57Y-11.43
X3.57Y-26.67
X6.11Y-11.43
X6.11Y-26.67
X8.65Y-11.43
X8.65Y-26.67
X9.92Y-13.97
X11.19Y-11.43
X11.19Y-26.67
X12.46Y-13.97
X13.73Y-11.43
X13.73Y-26.67
X16.27Y-11.43
X16.27Y-26.67
X18.81Y-11.43
X18.81Y-26.67
X21.35Y-11.43
X21.35Y-26.67
X23.89Y-11.43
X23.89Y-26.67
X26.43Y-11.43
X26.43Y-26.67
X28.97Y-11.43
X28.97Y-26.67
X195.263Y-9.5
X195.263Y-12.04
X195.263Y-14.58
X195.263Y-17.12
X195.263Y-19.66
T5
X218.294Y-9.628
T6
X4.604Y-43.18
X10.954Y-40.64
X83.185Y-62.23
X89.535Y-59.69
X168.91Y-5.08
X175.26Y-2.54
X83.185Y-24.13
X89.535Y-21.59
X35.56Y-5.08
X41.91Y-2.54
X183.198Y-43.18
X189.548Y-40.64
X102.235Y-24.13
X108.585Y-21.59
X126.048Y-43.18
X132.398Y-40.64
X-2.54Y-5.08
X3.81Y-2.54
X178.435Y-62.23
X184.785Y-59.69
X207.01Y-5.08
X213.36Y-2.54
X49.848Y-43.18
X56.198Y-40.64
X140.335Y-24.13
X146.685Y-21.59
X111.76Y-5.08
X118.11Y-2.54
X164.148Y-43.18
X170.498Y-40.64
X195.104Y-43.18
X201.454Y-40.64
X204.629Y-43.18
X210.979Y-40.64
X30.798Y-43.18
X37.148Y-40.64
X64.135Y-24.13
X70.485Y-21.59
X204.629Y-62.23
X210.979Y-59.69
X92.71Y-5.08
X99.06Y-2.54
X121.285Y-62.23
X127.635Y-59.69
X54.61Y-5.08
X60.96Y-2.54
X159.385Y-24.13
X165.735Y-21.59
X52.229Y-62.23
X58.579Y-59.69
X149.86Y-5.08
X156.21Y-2.54
X16.51Y-5.08
X22.86Y-2.54
X73.66Y-5.08
X80.01Y-2.54
X106.998Y-43.18
X113.348Y-40.64
X45.085Y-24.13
X51.435Y-21.59
X-0.159Y-62.23
X6.191Y-59.69
X145.098Y-43.18
X151.448Y-40.64
X130.81Y-5.08
X137.16Y-2.54
X68.898Y-43.18
X75.248Y-40.64
X187.96Y-5.08
X194.31Y-2.54
X202.248Y-24.13
X208.598Y-21.59
X26.035Y-62.23
X32.385Y-59.69
X152.241Y-62.23
X158.591Y-59.69
X178.435Y-24.13
X184.785Y-21.59
X121.285Y-24.13
X127.635Y-21.59
X87.948Y-43.18
X94.298Y-40.64
T7
X2.223Y-24.13
X8.573Y-21.59
X26.035Y-24.13
X32.385Y-21.59
T2
X-8.1Y-14.73G85X-7.5Y-14.73
G05
X-8.1Y-23.37G85X-7.5Y-23.37
G05
X-4.17Y-14.73G85X-3.07Y-14.73
G05
X-4.17Y-23.37G85X-3.07Y-23.37
G05
T8
X103.725Y-0.G85X105.825Y-0.
G05
X193.022Y-57.15G85X195.122Y-57.15
G05
X137.063Y-38.1G85X139.163Y-38.1
G05
X179.925Y-0.G85X182.025Y-0.
G05
X14.428Y-57.15G85X16.528Y-57.15
G05
X60.863Y-38.1G85X62.963Y-38.1
G05
X27.525Y-0.G85X29.625Y-0.
G05
T0
M30
