G04 #@! TF.GenerationSoftware,KiCad,Pcbnew,(5.0.2)-1*
G04 #@! TF.CreationDate,2019-05-12T20:42:33+07:00*
G04 #@! TF.ProjectId,PCB,5043422e-6b69-4636-9164-5f7063625858,a*
G04 #@! TF.SameCoordinates,Original*
G04 #@! TF.FileFunction,Soldermask,Bot*
G04 #@! TF.FilePolarity,Negative*
%FSLAX46Y46*%
G04 Gerber Fmt 4.6, Leading zero omitted, Abs format (unit mm)*
G04 Created by KiCad (PCBNEW (5.0.2)-1) date 5/12/2019 8:42:33 PM*
%MOMM*%
%LPD*%
G01*
G04 APERTURE LIST*
%ADD10C,0.010000*%
G04 APERTURE END LIST*
D10*
G04 #@! TO.C,G\002A\002A\002A*
G36*
X214831599Y-23250156D02*
X214855929Y-23286485D01*
X214915486Y-23361373D01*
X214967938Y-23390707D01*
X215023374Y-23374926D01*
X215091878Y-23314470D01*
X215107672Y-23297456D01*
X215172870Y-23226521D01*
X215232404Y-23162861D01*
X215259806Y-23134236D01*
X215297527Y-23087919D01*
X215312015Y-23056015D01*
X215329061Y-23022472D01*
X215373429Y-22965411D01*
X215434961Y-22895608D01*
X215503501Y-22823836D01*
X215568891Y-22760872D01*
X215620976Y-22717490D01*
X215643031Y-22704850D01*
X215683732Y-22678801D01*
X215693015Y-22657817D01*
X215711687Y-22629118D01*
X215758769Y-22582621D01*
X215820855Y-22529380D01*
X215884540Y-22480445D01*
X215936421Y-22446870D01*
X215959129Y-22438410D01*
X215989452Y-22422862D01*
X216045202Y-22382557D01*
X216114296Y-22326998D01*
X216184656Y-22265691D01*
X216216388Y-22235994D01*
X216264491Y-22198494D01*
X216299158Y-22184410D01*
X216335280Y-22170449D01*
X216395055Y-22134821D01*
X216433645Y-22108210D01*
X216500034Y-22064321D01*
X216552855Y-22036780D01*
X216570408Y-22032010D01*
X216607474Y-22011909D01*
X216614170Y-22000240D01*
X216641173Y-21973409D01*
X216699636Y-21934380D01*
X216777112Y-21889658D01*
X216861155Y-21845748D01*
X216939317Y-21809155D01*
X216999150Y-21786384D01*
X217028159Y-21783888D01*
X217023872Y-21811768D01*
X216996249Y-21866475D01*
X216953795Y-21935250D01*
X216905012Y-22005335D01*
X216858405Y-22063971D01*
X216822476Y-22098400D01*
X216816375Y-22101648D01*
X216791033Y-22127485D01*
X216747112Y-22187988D01*
X216691150Y-22273665D01*
X216639231Y-22358803D01*
X216579817Y-22458088D01*
X216529308Y-22540410D01*
X216493556Y-22596361D01*
X216479081Y-22616210D01*
X216447678Y-22660374D01*
X216414716Y-22732315D01*
X216388872Y-22810052D01*
X216378815Y-22870175D01*
X216396422Y-22938763D01*
X216427181Y-22982308D01*
X216470988Y-23011207D01*
X216513148Y-23002006D01*
X216528781Y-22992834D01*
X216569777Y-22956820D01*
X216582015Y-22930975D01*
X216601132Y-22900286D01*
X216649445Y-22855841D01*
X216677265Y-22834880D01*
X216760150Y-22775536D01*
X216850178Y-22710199D01*
X216874115Y-22692649D01*
X216939455Y-22648851D01*
X216991392Y-22621514D01*
X217007557Y-22617053D01*
X217048654Y-22605205D01*
X217112454Y-22576653D01*
X217134180Y-22565410D01*
X217200203Y-22533592D01*
X217249844Y-22515901D01*
X217258972Y-22514610D01*
X217294209Y-22494626D01*
X217298561Y-22485869D01*
X217328108Y-22463350D01*
X217383228Y-22450587D01*
X217445864Y-22443990D01*
X217483715Y-22438219D01*
X217548180Y-22435007D01*
X217590369Y-22454055D01*
X217598015Y-22473251D01*
X217581842Y-22523105D01*
X217537575Y-22601553D01*
X217471589Y-22699874D01*
X217390258Y-22809344D01*
X217299958Y-22921242D01*
X217207063Y-23026847D01*
X217149748Y-23086549D01*
X217001527Y-23228829D01*
X216881592Y-23331430D01*
X216790421Y-23394008D01*
X216728495Y-23416217D01*
X216702974Y-23407729D01*
X216659644Y-23381997D01*
X216621157Y-23383041D01*
X216607415Y-23405807D01*
X216588100Y-23460415D01*
X216536155Y-23534314D01*
X216460579Y-23617678D01*
X216370371Y-23700683D01*
X216274530Y-23773505D01*
X216264515Y-23780156D01*
X216119156Y-23870627D01*
X215982994Y-23946770D01*
X215865071Y-24004005D01*
X215774432Y-24037754D01*
X215742683Y-24044334D01*
X215702980Y-24043492D01*
X215683093Y-24020569D01*
X215673985Y-23962627D01*
X215672531Y-23943913D01*
X215684114Y-23816875D01*
X215716981Y-23718434D01*
X215751398Y-23638493D01*
X215764119Y-23592139D01*
X215753506Y-23566290D01*
X215717921Y-23547860D01*
X215694524Y-23538954D01*
X215649001Y-23524247D01*
X215623778Y-23531631D01*
X215607721Y-23571124D01*
X215594825Y-23628636D01*
X215579478Y-23715508D01*
X215563668Y-23828046D01*
X215551329Y-23937010D01*
X215535364Y-24051053D01*
X215514067Y-24127048D01*
X215495765Y-24154661D01*
X215476100Y-24177688D01*
X215478679Y-24212327D01*
X215505376Y-24273182D01*
X215512869Y-24288011D01*
X215550215Y-24350848D01*
X215583063Y-24388949D01*
X215594154Y-24394210D01*
X215629801Y-24382088D01*
X215694965Y-24350765D01*
X215775987Y-24307804D01*
X215859205Y-24260768D01*
X215930960Y-24217221D01*
X215977591Y-24184726D01*
X215985115Y-24177744D01*
X216031986Y-24137645D01*
X216092921Y-24099395D01*
X216149039Y-24073581D01*
X216178616Y-24069243D01*
X216174383Y-24092045D01*
X216145662Y-24149072D01*
X216096772Y-24232706D01*
X216032030Y-24335328D01*
X216001327Y-24381994D01*
X215909109Y-24525027D01*
X215809996Y-24686166D01*
X215716216Y-24845145D01*
X215643411Y-24975322D01*
X215488086Y-25264334D01*
X215538746Y-25361526D01*
X215564288Y-25415407D01*
X215576004Y-25462538D01*
X215574797Y-25519681D01*
X215561566Y-25603598D01*
X215553937Y-25644092D01*
X215533219Y-25768242D01*
X215513861Y-25910876D01*
X215500872Y-26032587D01*
X215486009Y-26149879D01*
X215465385Y-26237095D01*
X215444508Y-26280160D01*
X215419013Y-26319210D01*
X215431601Y-26353358D01*
X215444671Y-26369060D01*
X215471286Y-26420007D01*
X215494236Y-26498307D01*
X215501721Y-26539206D01*
X215518735Y-26617643D01*
X215550367Y-26681994D01*
X215607133Y-26750769D01*
X215642437Y-26786856D01*
X215733917Y-26867741D01*
X215809078Y-26905473D01*
X215878160Y-26900203D01*
X215951401Y-26852085D01*
X216011233Y-26792331D01*
X216073141Y-26718147D01*
X216126573Y-26636351D01*
X216178710Y-26534112D01*
X216236736Y-26398597D01*
X216249725Y-26366259D01*
X216278678Y-26293608D01*
X216349730Y-26391659D01*
X216454501Y-26509876D01*
X216577389Y-26606540D01*
X216706137Y-26673995D01*
X216828489Y-26704585D01*
X216852438Y-26705610D01*
X216937185Y-26689752D01*
X217026669Y-26649085D01*
X217103584Y-26593963D01*
X217150622Y-26534743D01*
X217154437Y-26524902D01*
X217177000Y-26485425D01*
X217192674Y-26477010D01*
X217221074Y-26455467D01*
X217253259Y-26403009D01*
X217280248Y-26337889D01*
X217293057Y-26278360D01*
X217293215Y-26272693D01*
X217314035Y-26221422D01*
X217342617Y-26205335D01*
X217388714Y-26170040D01*
X217443938Y-26087212D01*
X217507321Y-25959103D01*
X217577895Y-25787968D01*
X217654693Y-25576059D01*
X217736746Y-25325629D01*
X217777682Y-25192506D01*
X217796522Y-25103794D01*
X217801981Y-25017532D01*
X217794746Y-24947385D01*
X217775502Y-24907018D01*
X217763115Y-24902210D01*
X217732560Y-24924431D01*
X217725015Y-24968393D01*
X217716000Y-25049307D01*
X217692460Y-25157674D01*
X217659645Y-25274158D01*
X217622808Y-25379420D01*
X217598587Y-25433854D01*
X217556851Y-25520137D01*
X217515111Y-25613458D01*
X217509776Y-25626110D01*
X217439736Y-25776372D01*
X217354225Y-25931986D01*
X217258651Y-26085568D01*
X217158421Y-26229735D01*
X217058942Y-26357104D01*
X216965621Y-26460292D01*
X216883866Y-26531917D01*
X216823089Y-26563697D01*
X216735647Y-26562475D01*
X216642528Y-26525321D01*
X216561947Y-26461137D01*
X216531866Y-26421388D01*
X216490552Y-26312454D01*
X216480509Y-26216115D01*
X216477037Y-26140235D01*
X216461505Y-26097920D01*
X216426005Y-26072109D01*
X216410565Y-26065154D01*
X216344035Y-26031045D01*
X216298778Y-26000536D01*
X216271461Y-25983983D01*
X216255056Y-25998781D01*
X216242040Y-26053660D01*
X216239290Y-26069568D01*
X216201577Y-26202010D01*
X216136790Y-26337438D01*
X216052906Y-26465111D01*
X215957899Y-26574287D01*
X215859744Y-26654223D01*
X215777347Y-26691786D01*
X215716155Y-26693318D01*
X215681080Y-26656971D01*
X215668245Y-26578211D01*
X215668003Y-26563914D01*
X215679959Y-26507736D01*
X215710756Y-26434129D01*
X215752154Y-26357582D01*
X215795913Y-26292581D01*
X215833792Y-26253613D01*
X215847467Y-26248410D01*
X215871301Y-26227353D01*
X215900363Y-26175635D01*
X215904866Y-26165282D01*
X215932970Y-26116937D01*
X215985667Y-26041223D01*
X216054350Y-25949221D01*
X216130412Y-25852012D01*
X216205244Y-25760676D01*
X216270241Y-25686295D01*
X216303950Y-25651510D01*
X216342389Y-25613248D01*
X216373037Y-25581660D01*
X216412188Y-25547278D01*
X216432632Y-25537210D01*
X216456812Y-25520361D01*
X216507892Y-25475050D01*
X216577246Y-25409128D01*
X216623837Y-25363152D01*
X216769674Y-25230900D01*
X216901678Y-25138786D01*
X217016546Y-25088867D01*
X217078321Y-25080010D01*
X217123299Y-25084994D01*
X217135511Y-25110252D01*
X217127746Y-25157887D01*
X217124858Y-25222791D01*
X217137275Y-25294006D01*
X217159858Y-25353658D01*
X217187469Y-25383872D01*
X217192984Y-25384810D01*
X217216204Y-25363885D01*
X217229876Y-25333501D01*
X217254016Y-25285192D01*
X217298682Y-25215793D01*
X217334641Y-25166278D01*
X217391536Y-25082198D01*
X217410818Y-25020608D01*
X217392530Y-24969898D01*
X217336715Y-24918460D01*
X217335562Y-24917601D01*
X217263610Y-24864110D01*
X217217191Y-24921260D01*
X217161867Y-24963735D01*
X217108187Y-24978410D01*
X217008753Y-24995894D01*
X216883516Y-25044663D01*
X216741679Y-25119190D01*
X216592446Y-25213947D01*
X216445021Y-25323408D01*
X216308607Y-25442045D01*
X216265310Y-25484568D01*
X216193338Y-25554979D01*
X216133031Y-25608839D01*
X216094258Y-25637520D01*
X216087510Y-25640018D01*
X216060996Y-25658418D01*
X216009033Y-25707414D01*
X215939475Y-25779241D01*
X215870815Y-25854199D01*
X215779996Y-25952305D01*
X215717646Y-26011395D01*
X215681817Y-26033141D01*
X215671125Y-26025718D01*
X215671921Y-25977883D01*
X215683457Y-25900504D01*
X215701694Y-25812637D01*
X215722592Y-25733340D01*
X215742110Y-25681670D01*
X215745068Y-25676910D01*
X215761045Y-25636087D01*
X215775869Y-25570336D01*
X215777132Y-25562610D01*
X215791281Y-25484284D01*
X215811356Y-25386486D01*
X215821793Y-25339426D01*
X215837990Y-25259486D01*
X215838694Y-25210513D01*
X215821696Y-25174445D01*
X215798343Y-25147478D01*
X215765340Y-25098659D01*
X215766270Y-25065862D01*
X215785663Y-25029832D01*
X215812523Y-24961988D01*
X215832856Y-24902210D01*
X215862622Y-24818513D01*
X215892043Y-24751291D01*
X215907995Y-24724410D01*
X215938626Y-24674469D01*
X215970162Y-24606618D01*
X215970964Y-24604602D01*
X216003280Y-24539751D01*
X216037204Y-24494783D01*
X216038645Y-24493544D01*
X216065716Y-24483104D01*
X216090282Y-24508784D01*
X216111755Y-24554531D01*
X216140314Y-24612520D01*
X216169700Y-24632818D01*
X216216245Y-24626112D01*
X216219707Y-24625149D01*
X216284148Y-24614351D01*
X216378831Y-24607285D01*
X216491488Y-24603840D01*
X216609852Y-24603902D01*
X216721653Y-24607356D01*
X216814625Y-24614090D01*
X216876500Y-24623990D01*
X216893578Y-24631387D01*
X216937678Y-24649176D01*
X217007728Y-24656265D01*
X217026515Y-24655834D01*
X217156932Y-24664877D01*
X217291120Y-24699842D01*
X217408882Y-24754228D01*
X217468217Y-24797997D01*
X217517078Y-24851195D01*
X217540433Y-24905323D01*
X217547105Y-24983081D01*
X217547215Y-25001300D01*
X217551262Y-25074570D01*
X217561629Y-25121518D01*
X217570130Y-25130810D01*
X217594427Y-25108456D01*
X217619519Y-25052709D01*
X217639565Y-24980541D01*
X217648722Y-24908923D01*
X217648815Y-24902210D01*
X217636038Y-24807610D01*
X217602317Y-24707785D01*
X217554570Y-24615107D01*
X217499712Y-24541947D01*
X217444660Y-24500679D01*
X217421639Y-24495810D01*
X217375615Y-24479482D01*
X217361642Y-24461392D01*
X217354379Y-24448291D01*
X217339628Y-24436917D01*
X217311406Y-24426054D01*
X217263732Y-24414485D01*
X217190621Y-24400997D01*
X217086093Y-24384372D01*
X216944163Y-24363397D01*
X216758850Y-24336854D01*
X216724947Y-24332034D01*
X216582048Y-24310496D01*
X216456291Y-24289214D01*
X216356511Y-24269868D01*
X216291543Y-24254140D01*
X216270877Y-24245632D01*
X216252606Y-24193689D01*
X216274586Y-24119565D01*
X216333663Y-24027470D01*
X216426682Y-23921613D01*
X216550488Y-23806206D01*
X216676089Y-23704871D01*
X216770580Y-23629962D01*
X216849661Y-23561437D01*
X216904416Y-23507402D01*
X216925451Y-23478120D01*
X216953314Y-23437850D01*
X216976164Y-23429010D01*
X217018140Y-23409329D01*
X217032104Y-23391817D01*
X217056816Y-23360520D01*
X217109887Y-23300912D01*
X217184067Y-23220910D01*
X217272108Y-23128435D01*
X217293716Y-23106067D01*
X217412435Y-22978999D01*
X217500659Y-22872694D01*
X217567122Y-22775642D01*
X217620557Y-22676329D01*
X217621972Y-22673360D01*
X217665521Y-22587534D01*
X217703557Y-22523043D01*
X217729404Y-22490908D01*
X217733471Y-22489210D01*
X217777322Y-22512074D01*
X217807781Y-22573838D01*
X217824327Y-22664260D01*
X217826437Y-22773095D01*
X217813588Y-22890102D01*
X217785258Y-23005036D01*
X217762786Y-23063890D01*
X217730841Y-23140389D01*
X217711161Y-23196005D01*
X217707832Y-23217094D01*
X217730471Y-23208568D01*
X217769533Y-23168625D01*
X217815609Y-23109589D01*
X217859290Y-23043784D01*
X217891167Y-22983536D01*
X217896465Y-22970006D01*
X217918748Y-22893424D01*
X217924341Y-22824794D01*
X217912965Y-22744096D01*
X217892141Y-22659929D01*
X217860999Y-22574295D01*
X217820760Y-22500683D01*
X217804266Y-22479758D01*
X217772250Y-22437781D01*
X217759195Y-22390339D01*
X217761393Y-22318705D01*
X217765278Y-22282767D01*
X217771807Y-22194983D01*
X217764219Y-22142324D01*
X217741788Y-22111590D01*
X217693425Y-22089514D01*
X217646878Y-22092346D01*
X217620768Y-22116454D01*
X217621129Y-22135118D01*
X217632004Y-22185781D01*
X217642598Y-22251173D01*
X217653652Y-22330637D01*
X217471337Y-22332352D01*
X217377082Y-22336277D01*
X217301557Y-22344974D01*
X217260352Y-22356608D01*
X217259369Y-22357314D01*
X217216136Y-22376147D01*
X217147172Y-22393030D01*
X217131511Y-22395667D01*
X217036315Y-22421894D01*
X216922941Y-22469377D01*
X216812962Y-22527741D01*
X216727949Y-22586611D01*
X216720077Y-22593556D01*
X216671298Y-22629151D01*
X216637527Y-22641610D01*
X216608900Y-22625580D01*
X216618766Y-22578119D01*
X216666467Y-22500167D01*
X216751347Y-22392665D01*
X216872750Y-22256554D01*
X216997694Y-22125684D01*
X217076283Y-22043804D01*
X217139664Y-21974978D01*
X217180518Y-21927339D01*
X217192072Y-21909784D01*
X217210961Y-21883048D01*
X217257060Y-21839583D01*
X217315646Y-21791339D01*
X217371998Y-21750265D01*
X217411394Y-21728311D01*
X217417007Y-21727210D01*
X217453159Y-21711119D01*
X217451928Y-21666356D01*
X217413734Y-21598187D01*
X217405906Y-21587659D01*
X217354453Y-21532869D01*
X217306267Y-21501492D01*
X217292640Y-21498610D01*
X217245028Y-21512443D01*
X217161678Y-21551442D01*
X217048617Y-21611857D01*
X216911875Y-21689937D01*
X216757480Y-21781932D01*
X216591459Y-21884090D01*
X216419842Y-21992661D01*
X216248656Y-22103894D01*
X216083929Y-22214039D01*
X215931691Y-22319345D01*
X215797970Y-22416062D01*
X215710943Y-22482695D01*
X215601902Y-22568227D01*
X215494535Y-22651027D01*
X215401972Y-22721045D01*
X215342643Y-22764500D01*
X215233339Y-22844532D01*
X215121142Y-22930843D01*
X215020682Y-23011900D01*
X214946591Y-23076175D01*
X214943715Y-23078860D01*
X214884823Y-23129323D01*
X214843229Y-23160607D01*
X214813952Y-23184082D01*
X214809541Y-23208630D01*
X214831599Y-23250156D01*
X214831599Y-23250156D01*
G37*
X214831599Y-23250156D02*
X214855929Y-23286485D01*
X214915486Y-23361373D01*
X214967938Y-23390707D01*
X215023374Y-23374926D01*
X215091878Y-23314470D01*
X215107672Y-23297456D01*
X215172870Y-23226521D01*
X215232404Y-23162861D01*
X215259806Y-23134236D01*
X215297527Y-23087919D01*
X215312015Y-23056015D01*
X215329061Y-23022472D01*
X215373429Y-22965411D01*
X215434961Y-22895608D01*
X215503501Y-22823836D01*
X215568891Y-22760872D01*
X215620976Y-22717490D01*
X215643031Y-22704850D01*
X215683732Y-22678801D01*
X215693015Y-22657817D01*
X215711687Y-22629118D01*
X215758769Y-22582621D01*
X215820855Y-22529380D01*
X215884540Y-22480445D01*
X215936421Y-22446870D01*
X215959129Y-22438410D01*
X215989452Y-22422862D01*
X216045202Y-22382557D01*
X216114296Y-22326998D01*
X216184656Y-22265691D01*
X216216388Y-22235994D01*
X216264491Y-22198494D01*
X216299158Y-22184410D01*
X216335280Y-22170449D01*
X216395055Y-22134821D01*
X216433645Y-22108210D01*
X216500034Y-22064321D01*
X216552855Y-22036780D01*
X216570408Y-22032010D01*
X216607474Y-22011909D01*
X216614170Y-22000240D01*
X216641173Y-21973409D01*
X216699636Y-21934380D01*
X216777112Y-21889658D01*
X216861155Y-21845748D01*
X216939317Y-21809155D01*
X216999150Y-21786384D01*
X217028159Y-21783888D01*
X217023872Y-21811768D01*
X216996249Y-21866475D01*
X216953795Y-21935250D01*
X216905012Y-22005335D01*
X216858405Y-22063971D01*
X216822476Y-22098400D01*
X216816375Y-22101648D01*
X216791033Y-22127485D01*
X216747112Y-22187988D01*
X216691150Y-22273665D01*
X216639231Y-22358803D01*
X216579817Y-22458088D01*
X216529308Y-22540410D01*
X216493556Y-22596361D01*
X216479081Y-22616210D01*
X216447678Y-22660374D01*
X216414716Y-22732315D01*
X216388872Y-22810052D01*
X216378815Y-22870175D01*
X216396422Y-22938763D01*
X216427181Y-22982308D01*
X216470988Y-23011207D01*
X216513148Y-23002006D01*
X216528781Y-22992834D01*
X216569777Y-22956820D01*
X216582015Y-22930975D01*
X216601132Y-22900286D01*
X216649445Y-22855841D01*
X216677265Y-22834880D01*
X216760150Y-22775536D01*
X216850178Y-22710199D01*
X216874115Y-22692649D01*
X216939455Y-22648851D01*
X216991392Y-22621514D01*
X217007557Y-22617053D01*
X217048654Y-22605205D01*
X217112454Y-22576653D01*
X217134180Y-22565410D01*
X217200203Y-22533592D01*
X217249844Y-22515901D01*
X217258972Y-22514610D01*
X217294209Y-22494626D01*
X217298561Y-22485869D01*
X217328108Y-22463350D01*
X217383228Y-22450587D01*
X217445864Y-22443990D01*
X217483715Y-22438219D01*
X217548180Y-22435007D01*
X217590369Y-22454055D01*
X217598015Y-22473251D01*
X217581842Y-22523105D01*
X217537575Y-22601553D01*
X217471589Y-22699874D01*
X217390258Y-22809344D01*
X217299958Y-22921242D01*
X217207063Y-23026847D01*
X217149748Y-23086549D01*
X217001527Y-23228829D01*
X216881592Y-23331430D01*
X216790421Y-23394008D01*
X216728495Y-23416217D01*
X216702974Y-23407729D01*
X216659644Y-23381997D01*
X216621157Y-23383041D01*
X216607415Y-23405807D01*
X216588100Y-23460415D01*
X216536155Y-23534314D01*
X216460579Y-23617678D01*
X216370371Y-23700683D01*
X216274530Y-23773505D01*
X216264515Y-23780156D01*
X216119156Y-23870627D01*
X215982994Y-23946770D01*
X215865071Y-24004005D01*
X215774432Y-24037754D01*
X215742683Y-24044334D01*
X215702980Y-24043492D01*
X215683093Y-24020569D01*
X215673985Y-23962627D01*
X215672531Y-23943913D01*
X215684114Y-23816875D01*
X215716981Y-23718434D01*
X215751398Y-23638493D01*
X215764119Y-23592139D01*
X215753506Y-23566290D01*
X215717921Y-23547860D01*
X215694524Y-23538954D01*
X215649001Y-23524247D01*
X215623778Y-23531631D01*
X215607721Y-23571124D01*
X215594825Y-23628636D01*
X215579478Y-23715508D01*
X215563668Y-23828046D01*
X215551329Y-23937010D01*
X215535364Y-24051053D01*
X215514067Y-24127048D01*
X215495765Y-24154661D01*
X215476100Y-24177688D01*
X215478679Y-24212327D01*
X215505376Y-24273182D01*
X215512869Y-24288011D01*
X215550215Y-24350848D01*
X215583063Y-24388949D01*
X215594154Y-24394210D01*
X215629801Y-24382088D01*
X215694965Y-24350765D01*
X215775987Y-24307804D01*
X215859205Y-24260768D01*
X215930960Y-24217221D01*
X215977591Y-24184726D01*
X215985115Y-24177744D01*
X216031986Y-24137645D01*
X216092921Y-24099395D01*
X216149039Y-24073581D01*
X216178616Y-24069243D01*
X216174383Y-24092045D01*
X216145662Y-24149072D01*
X216096772Y-24232706D01*
X216032030Y-24335328D01*
X216001327Y-24381994D01*
X215909109Y-24525027D01*
X215809996Y-24686166D01*
X215716216Y-24845145D01*
X215643411Y-24975322D01*
X215488086Y-25264334D01*
X215538746Y-25361526D01*
X215564288Y-25415407D01*
X215576004Y-25462538D01*
X215574797Y-25519681D01*
X215561566Y-25603598D01*
X215553937Y-25644092D01*
X215533219Y-25768242D01*
X215513861Y-25910876D01*
X215500872Y-26032587D01*
X215486009Y-26149879D01*
X215465385Y-26237095D01*
X215444508Y-26280160D01*
X215419013Y-26319210D01*
X215431601Y-26353358D01*
X215444671Y-26369060D01*
X215471286Y-26420007D01*
X215494236Y-26498307D01*
X215501721Y-26539206D01*
X215518735Y-26617643D01*
X215550367Y-26681994D01*
X215607133Y-26750769D01*
X215642437Y-26786856D01*
X215733917Y-26867741D01*
X215809078Y-26905473D01*
X215878160Y-26900203D01*
X215951401Y-26852085D01*
X216011233Y-26792331D01*
X216073141Y-26718147D01*
X216126573Y-26636351D01*
X216178710Y-26534112D01*
X216236736Y-26398597D01*
X216249725Y-26366259D01*
X216278678Y-26293608D01*
X216349730Y-26391659D01*
X216454501Y-26509876D01*
X216577389Y-26606540D01*
X216706137Y-26673995D01*
X216828489Y-26704585D01*
X216852438Y-26705610D01*
X216937185Y-26689752D01*
X217026669Y-26649085D01*
X217103584Y-26593963D01*
X217150622Y-26534743D01*
X217154437Y-26524902D01*
X217177000Y-26485425D01*
X217192674Y-26477010D01*
X217221074Y-26455467D01*
X217253259Y-26403009D01*
X217280248Y-26337889D01*
X217293057Y-26278360D01*
X217293215Y-26272693D01*
X217314035Y-26221422D01*
X217342617Y-26205335D01*
X217388714Y-26170040D01*
X217443938Y-26087212D01*
X217507321Y-25959103D01*
X217577895Y-25787968D01*
X217654693Y-25576059D01*
X217736746Y-25325629D01*
X217777682Y-25192506D01*
X217796522Y-25103794D01*
X217801981Y-25017532D01*
X217794746Y-24947385D01*
X217775502Y-24907018D01*
X217763115Y-24902210D01*
X217732560Y-24924431D01*
X217725015Y-24968393D01*
X217716000Y-25049307D01*
X217692460Y-25157674D01*
X217659645Y-25274158D01*
X217622808Y-25379420D01*
X217598587Y-25433854D01*
X217556851Y-25520137D01*
X217515111Y-25613458D01*
X217509776Y-25626110D01*
X217439736Y-25776372D01*
X217354225Y-25931986D01*
X217258651Y-26085568D01*
X217158421Y-26229735D01*
X217058942Y-26357104D01*
X216965621Y-26460292D01*
X216883866Y-26531917D01*
X216823089Y-26563697D01*
X216735647Y-26562475D01*
X216642528Y-26525321D01*
X216561947Y-26461137D01*
X216531866Y-26421388D01*
X216490552Y-26312454D01*
X216480509Y-26216115D01*
X216477037Y-26140235D01*
X216461505Y-26097920D01*
X216426005Y-26072109D01*
X216410565Y-26065154D01*
X216344035Y-26031045D01*
X216298778Y-26000536D01*
X216271461Y-25983983D01*
X216255056Y-25998781D01*
X216242040Y-26053660D01*
X216239290Y-26069568D01*
X216201577Y-26202010D01*
X216136790Y-26337438D01*
X216052906Y-26465111D01*
X215957899Y-26574287D01*
X215859744Y-26654223D01*
X215777347Y-26691786D01*
X215716155Y-26693318D01*
X215681080Y-26656971D01*
X215668245Y-26578211D01*
X215668003Y-26563914D01*
X215679959Y-26507736D01*
X215710756Y-26434129D01*
X215752154Y-26357582D01*
X215795913Y-26292581D01*
X215833792Y-26253613D01*
X215847467Y-26248410D01*
X215871301Y-26227353D01*
X215900363Y-26175635D01*
X215904866Y-26165282D01*
X215932970Y-26116937D01*
X215985667Y-26041223D01*
X216054350Y-25949221D01*
X216130412Y-25852012D01*
X216205244Y-25760676D01*
X216270241Y-25686295D01*
X216303950Y-25651510D01*
X216342389Y-25613248D01*
X216373037Y-25581660D01*
X216412188Y-25547278D01*
X216432632Y-25537210D01*
X216456812Y-25520361D01*
X216507892Y-25475050D01*
X216577246Y-25409128D01*
X216623837Y-25363152D01*
X216769674Y-25230900D01*
X216901678Y-25138786D01*
X217016546Y-25088867D01*
X217078321Y-25080010D01*
X217123299Y-25084994D01*
X217135511Y-25110252D01*
X217127746Y-25157887D01*
X217124858Y-25222791D01*
X217137275Y-25294006D01*
X217159858Y-25353658D01*
X217187469Y-25383872D01*
X217192984Y-25384810D01*
X217216204Y-25363885D01*
X217229876Y-25333501D01*
X217254016Y-25285192D01*
X217298682Y-25215793D01*
X217334641Y-25166278D01*
X217391536Y-25082198D01*
X217410818Y-25020608D01*
X217392530Y-24969898D01*
X217336715Y-24918460D01*
X217335562Y-24917601D01*
X217263610Y-24864110D01*
X217217191Y-24921260D01*
X217161867Y-24963735D01*
X217108187Y-24978410D01*
X217008753Y-24995894D01*
X216883516Y-25044663D01*
X216741679Y-25119190D01*
X216592446Y-25213947D01*
X216445021Y-25323408D01*
X216308607Y-25442045D01*
X216265310Y-25484568D01*
X216193338Y-25554979D01*
X216133031Y-25608839D01*
X216094258Y-25637520D01*
X216087510Y-25640018D01*
X216060996Y-25658418D01*
X216009033Y-25707414D01*
X215939475Y-25779241D01*
X215870815Y-25854199D01*
X215779996Y-25952305D01*
X215717646Y-26011395D01*
X215681817Y-26033141D01*
X215671125Y-26025718D01*
X215671921Y-25977883D01*
X215683457Y-25900504D01*
X215701694Y-25812637D01*
X215722592Y-25733340D01*
X215742110Y-25681670D01*
X215745068Y-25676910D01*
X215761045Y-25636087D01*
X215775869Y-25570336D01*
X215777132Y-25562610D01*
X215791281Y-25484284D01*
X215811356Y-25386486D01*
X215821793Y-25339426D01*
X215837990Y-25259486D01*
X215838694Y-25210513D01*
X215821696Y-25174445D01*
X215798343Y-25147478D01*
X215765340Y-25098659D01*
X215766270Y-25065862D01*
X215785663Y-25029832D01*
X215812523Y-24961988D01*
X215832856Y-24902210D01*
X215862622Y-24818513D01*
X215892043Y-24751291D01*
X215907995Y-24724410D01*
X215938626Y-24674469D01*
X215970162Y-24606618D01*
X215970964Y-24604602D01*
X216003280Y-24539751D01*
X216037204Y-24494783D01*
X216038645Y-24493544D01*
X216065716Y-24483104D01*
X216090282Y-24508784D01*
X216111755Y-24554531D01*
X216140314Y-24612520D01*
X216169700Y-24632818D01*
X216216245Y-24626112D01*
X216219707Y-24625149D01*
X216284148Y-24614351D01*
X216378831Y-24607285D01*
X216491488Y-24603840D01*
X216609852Y-24603902D01*
X216721653Y-24607356D01*
X216814625Y-24614090D01*
X216876500Y-24623990D01*
X216893578Y-24631387D01*
X216937678Y-24649176D01*
X217007728Y-24656265D01*
X217026515Y-24655834D01*
X217156932Y-24664877D01*
X217291120Y-24699842D01*
X217408882Y-24754228D01*
X217468217Y-24797997D01*
X217517078Y-24851195D01*
X217540433Y-24905323D01*
X217547105Y-24983081D01*
X217547215Y-25001300D01*
X217551262Y-25074570D01*
X217561629Y-25121518D01*
X217570130Y-25130810D01*
X217594427Y-25108456D01*
X217619519Y-25052709D01*
X217639565Y-24980541D01*
X217648722Y-24908923D01*
X217648815Y-24902210D01*
X217636038Y-24807610D01*
X217602317Y-24707785D01*
X217554570Y-24615107D01*
X217499712Y-24541947D01*
X217444660Y-24500679D01*
X217421639Y-24495810D01*
X217375615Y-24479482D01*
X217361642Y-24461392D01*
X217354379Y-24448291D01*
X217339628Y-24436917D01*
X217311406Y-24426054D01*
X217263732Y-24414485D01*
X217190621Y-24400997D01*
X217086093Y-24384372D01*
X216944163Y-24363397D01*
X216758850Y-24336854D01*
X216724947Y-24332034D01*
X216582048Y-24310496D01*
X216456291Y-24289214D01*
X216356511Y-24269868D01*
X216291543Y-24254140D01*
X216270877Y-24245632D01*
X216252606Y-24193689D01*
X216274586Y-24119565D01*
X216333663Y-24027470D01*
X216426682Y-23921613D01*
X216550488Y-23806206D01*
X216676089Y-23704871D01*
X216770580Y-23629962D01*
X216849661Y-23561437D01*
X216904416Y-23507402D01*
X216925451Y-23478120D01*
X216953314Y-23437850D01*
X216976164Y-23429010D01*
X217018140Y-23409329D01*
X217032104Y-23391817D01*
X217056816Y-23360520D01*
X217109887Y-23300912D01*
X217184067Y-23220910D01*
X217272108Y-23128435D01*
X217293716Y-23106067D01*
X217412435Y-22978999D01*
X217500659Y-22872694D01*
X217567122Y-22775642D01*
X217620557Y-22676329D01*
X217621972Y-22673360D01*
X217665521Y-22587534D01*
X217703557Y-22523043D01*
X217729404Y-22490908D01*
X217733471Y-22489210D01*
X217777322Y-22512074D01*
X217807781Y-22573838D01*
X217824327Y-22664260D01*
X217826437Y-22773095D01*
X217813588Y-22890102D01*
X217785258Y-23005036D01*
X217762786Y-23063890D01*
X217730841Y-23140389D01*
X217711161Y-23196005D01*
X217707832Y-23217094D01*
X217730471Y-23208568D01*
X217769533Y-23168625D01*
X217815609Y-23109589D01*
X217859290Y-23043784D01*
X217891167Y-22983536D01*
X217896465Y-22970006D01*
X217918748Y-22893424D01*
X217924341Y-22824794D01*
X217912965Y-22744096D01*
X217892141Y-22659929D01*
X217860999Y-22574295D01*
X217820760Y-22500683D01*
X217804266Y-22479758D01*
X217772250Y-22437781D01*
X217759195Y-22390339D01*
X217761393Y-22318705D01*
X217765278Y-22282767D01*
X217771807Y-22194983D01*
X217764219Y-22142324D01*
X217741788Y-22111590D01*
X217693425Y-22089514D01*
X217646878Y-22092346D01*
X217620768Y-22116454D01*
X217621129Y-22135118D01*
X217632004Y-22185781D01*
X217642598Y-22251173D01*
X217653652Y-22330637D01*
X217471337Y-22332352D01*
X217377082Y-22336277D01*
X217301557Y-22344974D01*
X217260352Y-22356608D01*
X217259369Y-22357314D01*
X217216136Y-22376147D01*
X217147172Y-22393030D01*
X217131511Y-22395667D01*
X217036315Y-22421894D01*
X216922941Y-22469377D01*
X216812962Y-22527741D01*
X216727949Y-22586611D01*
X216720077Y-22593556D01*
X216671298Y-22629151D01*
X216637527Y-22641610D01*
X216608900Y-22625580D01*
X216618766Y-22578119D01*
X216666467Y-22500167D01*
X216751347Y-22392665D01*
X216872750Y-22256554D01*
X216997694Y-22125684D01*
X217076283Y-22043804D01*
X217139664Y-21974978D01*
X217180518Y-21927339D01*
X217192072Y-21909784D01*
X217210961Y-21883048D01*
X217257060Y-21839583D01*
X217315646Y-21791339D01*
X217371998Y-21750265D01*
X217411394Y-21728311D01*
X217417007Y-21727210D01*
X217453159Y-21711119D01*
X217451928Y-21666356D01*
X217413734Y-21598187D01*
X217405906Y-21587659D01*
X217354453Y-21532869D01*
X217306267Y-21501492D01*
X217292640Y-21498610D01*
X217245028Y-21512443D01*
X217161678Y-21551442D01*
X217048617Y-21611857D01*
X216911875Y-21689937D01*
X216757480Y-21781932D01*
X216591459Y-21884090D01*
X216419842Y-21992661D01*
X216248656Y-22103894D01*
X216083929Y-22214039D01*
X215931691Y-22319345D01*
X215797970Y-22416062D01*
X215710943Y-22482695D01*
X215601902Y-22568227D01*
X215494535Y-22651027D01*
X215401972Y-22721045D01*
X215342643Y-22764500D01*
X215233339Y-22844532D01*
X215121142Y-22930843D01*
X215020682Y-23011900D01*
X214946591Y-23076175D01*
X214943715Y-23078860D01*
X214884823Y-23129323D01*
X214843229Y-23160607D01*
X214813952Y-23184082D01*
X214809541Y-23208630D01*
X214831599Y-23250156D01*
G36*
X216362954Y-21505168D02*
X216402707Y-21547936D01*
X216455052Y-21595349D01*
X216492839Y-21622840D01*
X216500523Y-21625610D01*
X216509912Y-21603101D01*
X216511912Y-21546453D01*
X216510282Y-21517491D01*
X216518756Y-21404577D01*
X216554869Y-21276024D01*
X216611264Y-21153016D01*
X216663747Y-21075569D01*
X216795435Y-20926076D01*
X216919793Y-20801818D01*
X217032751Y-20705727D01*
X217130242Y-20640733D01*
X217208195Y-20609770D01*
X217262542Y-20615770D01*
X217278877Y-20632360D01*
X217273564Y-20667303D01*
X217239687Y-20730846D01*
X217183336Y-20814441D01*
X217110597Y-20909541D01*
X217027557Y-21007595D01*
X216959978Y-21080193D01*
X216891576Y-21153295D01*
X216839649Y-21214495D01*
X216812629Y-21253638D01*
X216810615Y-21260092D01*
X216792280Y-21290144D01*
X216745419Y-21337510D01*
X216709015Y-21368555D01*
X216642184Y-21426125D01*
X216613912Y-21466817D01*
X216621041Y-21502739D01*
X216660413Y-21546002D01*
X216662278Y-21547744D01*
X216717142Y-21598857D01*
X216773546Y-21542383D01*
X216874955Y-21455451D01*
X217004456Y-21372449D01*
X217113910Y-21314460D01*
X217228262Y-21264707D01*
X217311161Y-21247212D01*
X217369763Y-21261218D01*
X217396409Y-21284630D01*
X217420955Y-21305382D01*
X217443371Y-21292492D01*
X217474654Y-21240180D01*
X217511157Y-21161444D01*
X217517404Y-21113625D01*
X217494120Y-21087380D01*
X217486796Y-21084207D01*
X217423438Y-21080596D01*
X217328011Y-21101357D01*
X217211265Y-21143528D01*
X217120919Y-21185046D01*
X217030145Y-21230321D01*
X216975674Y-21256318D01*
X216948258Y-21266251D01*
X216938650Y-21263333D01*
X216937604Y-21250779D01*
X216937615Y-21248750D01*
X216954626Y-21222173D01*
X217001171Y-21167517D01*
X217070518Y-21092273D01*
X217155936Y-21003934D01*
X217173431Y-20986283D01*
X217297222Y-20857004D01*
X217384451Y-20753125D01*
X217438594Y-20668783D01*
X217463131Y-20598115D01*
X217461537Y-20535257D01*
X217454724Y-20511981D01*
X217415238Y-20461203D01*
X217346978Y-20449928D01*
X217248645Y-20478130D01*
X217188239Y-20506796D01*
X217121666Y-20538643D01*
X217072650Y-20557021D01*
X217062476Y-20558810D01*
X217026784Y-20575034D01*
X216964125Y-20618321D01*
X216884215Y-20680588D01*
X216796770Y-20753754D01*
X216711506Y-20829736D01*
X216638136Y-20900453D01*
X216593813Y-20948665D01*
X216469319Y-21118933D01*
X216379771Y-21287523D01*
X216340056Y-21403292D01*
X216336972Y-21455633D01*
X216362954Y-21505168D01*
X216362954Y-21505168D01*
G37*
X216362954Y-21505168D02*
X216402707Y-21547936D01*
X216455052Y-21595349D01*
X216492839Y-21622840D01*
X216500523Y-21625610D01*
X216509912Y-21603101D01*
X216511912Y-21546453D01*
X216510282Y-21517491D01*
X216518756Y-21404577D01*
X216554869Y-21276024D01*
X216611264Y-21153016D01*
X216663747Y-21075569D01*
X216795435Y-20926076D01*
X216919793Y-20801818D01*
X217032751Y-20705727D01*
X217130242Y-20640733D01*
X217208195Y-20609770D01*
X217262542Y-20615770D01*
X217278877Y-20632360D01*
X217273564Y-20667303D01*
X217239687Y-20730846D01*
X217183336Y-20814441D01*
X217110597Y-20909541D01*
X217027557Y-21007595D01*
X216959978Y-21080193D01*
X216891576Y-21153295D01*
X216839649Y-21214495D01*
X216812629Y-21253638D01*
X216810615Y-21260092D01*
X216792280Y-21290144D01*
X216745419Y-21337510D01*
X216709015Y-21368555D01*
X216642184Y-21426125D01*
X216613912Y-21466817D01*
X216621041Y-21502739D01*
X216660413Y-21546002D01*
X216662278Y-21547744D01*
X216717142Y-21598857D01*
X216773546Y-21542383D01*
X216874955Y-21455451D01*
X217004456Y-21372449D01*
X217113910Y-21314460D01*
X217228262Y-21264707D01*
X217311161Y-21247212D01*
X217369763Y-21261218D01*
X217396409Y-21284630D01*
X217420955Y-21305382D01*
X217443371Y-21292492D01*
X217474654Y-21240180D01*
X217511157Y-21161444D01*
X217517404Y-21113625D01*
X217494120Y-21087380D01*
X217486796Y-21084207D01*
X217423438Y-21080596D01*
X217328011Y-21101357D01*
X217211265Y-21143528D01*
X217120919Y-21185046D01*
X217030145Y-21230321D01*
X216975674Y-21256318D01*
X216948258Y-21266251D01*
X216938650Y-21263333D01*
X216937604Y-21250779D01*
X216937615Y-21248750D01*
X216954626Y-21222173D01*
X217001171Y-21167517D01*
X217070518Y-21092273D01*
X217155936Y-21003934D01*
X217173431Y-20986283D01*
X217297222Y-20857004D01*
X217384451Y-20753125D01*
X217438594Y-20668783D01*
X217463131Y-20598115D01*
X217461537Y-20535257D01*
X217454724Y-20511981D01*
X217415238Y-20461203D01*
X217346978Y-20449928D01*
X217248645Y-20478130D01*
X217188239Y-20506796D01*
X217121666Y-20538643D01*
X217072650Y-20557021D01*
X217062476Y-20558810D01*
X217026784Y-20575034D01*
X216964125Y-20618321D01*
X216884215Y-20680588D01*
X216796770Y-20753754D01*
X216711506Y-20829736D01*
X216638136Y-20900453D01*
X216593813Y-20948665D01*
X216469319Y-21118933D01*
X216379771Y-21287523D01*
X216340056Y-21403292D01*
X216336972Y-21455633D01*
X216362954Y-21505168D01*
G36*
X216305832Y-19904492D02*
X216319387Y-19955560D01*
X216344286Y-19995058D01*
X216383625Y-19986780D01*
X216436054Y-19931232D01*
X216454693Y-19904586D01*
X216498843Y-19847287D01*
X216568948Y-19766512D01*
X216654446Y-19674103D01*
X216724102Y-19602495D01*
X216830472Y-19500511D01*
X216924124Y-19419584D01*
X217001267Y-19361583D01*
X217058111Y-19328376D01*
X217090865Y-19321834D01*
X217095738Y-19343823D01*
X217068940Y-19396213D01*
X217029242Y-19452061D01*
X216967788Y-19541061D01*
X216892800Y-19662330D01*
X216811658Y-19802545D01*
X216731741Y-19948382D01*
X216660427Y-20086517D01*
X216605095Y-20203625D01*
X216582343Y-20259044D01*
X216553352Y-20341957D01*
X216542551Y-20395614D01*
X216548847Y-20437757D01*
X216568634Y-20481294D01*
X216601768Y-20533495D01*
X216629681Y-20558450D01*
X216632122Y-20558810D01*
X216661957Y-20544398D01*
X216720769Y-20506060D01*
X216797501Y-20451141D01*
X216823315Y-20431810D01*
X216905362Y-20372922D01*
X216975288Y-20328537D01*
X217021040Y-20306130D01*
X217028108Y-20304810D01*
X217071544Y-20286929D01*
X217108608Y-20254010D01*
X217150407Y-20215653D01*
X217178209Y-20203053D01*
X217217615Y-20192024D01*
X217275220Y-20165912D01*
X217343590Y-20138982D01*
X217433724Y-20114012D01*
X217472869Y-20105890D01*
X217554690Y-20094666D01*
X217608130Y-20100265D01*
X217653643Y-20125526D01*
X217662313Y-20132175D01*
X217705770Y-20162376D01*
X217722915Y-20159449D01*
X217725015Y-20142139D01*
X217705448Y-20101155D01*
X217660479Y-20060495D01*
X217536837Y-20008929D01*
X217386474Y-19999046D01*
X217208815Y-20030913D01*
X217003285Y-20104598D01*
X216903220Y-20150605D01*
X216819271Y-20188961D01*
X216754008Y-20214037D01*
X216719615Y-20221254D01*
X216717684Y-20220345D01*
X216718553Y-20189050D01*
X216741163Y-20127088D01*
X216779531Y-20046362D01*
X216827677Y-19958775D01*
X216879619Y-19876229D01*
X216914809Y-19828101D01*
X216979521Y-19749670D01*
X217059288Y-19656875D01*
X217121555Y-19586801D01*
X217181814Y-19514348D01*
X217225078Y-19450950D01*
X217242192Y-19410068D01*
X217242205Y-19409460D01*
X217260612Y-19371882D01*
X217281408Y-19365010D01*
X217334160Y-19350766D01*
X217391756Y-19316961D01*
X217434704Y-19276985D01*
X217445615Y-19252216D01*
X217426258Y-19210253D01*
X217380586Y-19161533D01*
X217327197Y-19123037D01*
X217290962Y-19111010D01*
X217253581Y-19123125D01*
X217184694Y-19155561D01*
X217096328Y-19202451D01*
X217051299Y-19227922D01*
X216860459Y-19340071D01*
X216707181Y-19435091D01*
X216583491Y-19518362D01*
X216481411Y-19595269D01*
X216392967Y-19671194D01*
X216388883Y-19674947D01*
X216328710Y-19733246D01*
X216297690Y-19779311D01*
X216291503Y-19830581D01*
X216305832Y-19904492D01*
X216305832Y-19904492D01*
G37*
X216305832Y-19904492D02*
X216319387Y-19955560D01*
X216344286Y-19995058D01*
X216383625Y-19986780D01*
X216436054Y-19931232D01*
X216454693Y-19904586D01*
X216498843Y-19847287D01*
X216568948Y-19766512D01*
X216654446Y-19674103D01*
X216724102Y-19602495D01*
X216830472Y-19500511D01*
X216924124Y-19419584D01*
X217001267Y-19361583D01*
X217058111Y-19328376D01*
X217090865Y-19321834D01*
X217095738Y-19343823D01*
X217068940Y-19396213D01*
X217029242Y-19452061D01*
X216967788Y-19541061D01*
X216892800Y-19662330D01*
X216811658Y-19802545D01*
X216731741Y-19948382D01*
X216660427Y-20086517D01*
X216605095Y-20203625D01*
X216582343Y-20259044D01*
X216553352Y-20341957D01*
X216542551Y-20395614D01*
X216548847Y-20437757D01*
X216568634Y-20481294D01*
X216601768Y-20533495D01*
X216629681Y-20558450D01*
X216632122Y-20558810D01*
X216661957Y-20544398D01*
X216720769Y-20506060D01*
X216797501Y-20451141D01*
X216823315Y-20431810D01*
X216905362Y-20372922D01*
X216975288Y-20328537D01*
X217021040Y-20306130D01*
X217028108Y-20304810D01*
X217071544Y-20286929D01*
X217108608Y-20254010D01*
X217150407Y-20215653D01*
X217178209Y-20203053D01*
X217217615Y-20192024D01*
X217275220Y-20165912D01*
X217343590Y-20138982D01*
X217433724Y-20114012D01*
X217472869Y-20105890D01*
X217554690Y-20094666D01*
X217608130Y-20100265D01*
X217653643Y-20125526D01*
X217662313Y-20132175D01*
X217705770Y-20162376D01*
X217722915Y-20159449D01*
X217725015Y-20142139D01*
X217705448Y-20101155D01*
X217660479Y-20060495D01*
X217536837Y-20008929D01*
X217386474Y-19999046D01*
X217208815Y-20030913D01*
X217003285Y-20104598D01*
X216903220Y-20150605D01*
X216819271Y-20188961D01*
X216754008Y-20214037D01*
X216719615Y-20221254D01*
X216717684Y-20220345D01*
X216718553Y-20189050D01*
X216741163Y-20127088D01*
X216779531Y-20046362D01*
X216827677Y-19958775D01*
X216879619Y-19876229D01*
X216914809Y-19828101D01*
X216979521Y-19749670D01*
X217059288Y-19656875D01*
X217121555Y-19586801D01*
X217181814Y-19514348D01*
X217225078Y-19450950D01*
X217242192Y-19410068D01*
X217242205Y-19409460D01*
X217260612Y-19371882D01*
X217281408Y-19365010D01*
X217334160Y-19350766D01*
X217391756Y-19316961D01*
X217434704Y-19276985D01*
X217445615Y-19252216D01*
X217426258Y-19210253D01*
X217380586Y-19161533D01*
X217327197Y-19123037D01*
X217290962Y-19111010D01*
X217253581Y-19123125D01*
X217184694Y-19155561D01*
X217096328Y-19202451D01*
X217051299Y-19227922D01*
X216860459Y-19340071D01*
X216707181Y-19435091D01*
X216583491Y-19518362D01*
X216481411Y-19595269D01*
X216392967Y-19671194D01*
X216388883Y-19674947D01*
X216328710Y-19733246D01*
X216297690Y-19779311D01*
X216291503Y-19830581D01*
X216305832Y-19904492D01*
G36*
X215391352Y-19968784D02*
X215418201Y-20034841D01*
X215425375Y-20048993D01*
X215466623Y-20106449D01*
X215512161Y-20139194D01*
X215549550Y-20140592D01*
X215563261Y-20122571D01*
X215584501Y-20091483D01*
X215633320Y-20033211D01*
X215701804Y-19956914D01*
X215760595Y-19894126D01*
X215837502Y-19809776D01*
X215898979Y-19735472D01*
X215937571Y-19680651D01*
X215947014Y-19658089D01*
X215968233Y-19619480D01*
X216007891Y-19594607D01*
X216057406Y-19562677D01*
X216120905Y-19504757D01*
X216165670Y-19455536D01*
X216220516Y-19393646D01*
X216263745Y-19351587D01*
X216282593Y-19339610D01*
X216294341Y-19362397D01*
X216301743Y-19420366D01*
X216303003Y-19460260D01*
X216307531Y-19558322D01*
X216319628Y-19606459D01*
X216338255Y-19604811D01*
X216362372Y-19553518D01*
X216390939Y-19452722D01*
X216392018Y-19448251D01*
X216417363Y-19350896D01*
X216441745Y-19271011D01*
X216460654Y-19223078D01*
X216463617Y-19218279D01*
X216498518Y-19185147D01*
X216557839Y-19139935D01*
X216626306Y-19093008D01*
X216688645Y-19054731D01*
X216729582Y-19035469D01*
X216733976Y-19034810D01*
X216758687Y-19013857D01*
X216772632Y-18983641D01*
X216794346Y-18948695D01*
X216811705Y-18946583D01*
X216841859Y-18939120D01*
X216885266Y-18902172D01*
X216890656Y-18896152D01*
X216941989Y-18851497D01*
X216989521Y-18831669D01*
X216991496Y-18831610D01*
X217037346Y-18820073D01*
X217050443Y-18808591D01*
X217085207Y-18780923D01*
X217154648Y-18743462D01*
X217245109Y-18702038D01*
X217342928Y-18662483D01*
X217434446Y-18630629D01*
X217506005Y-18612306D01*
X217512595Y-18611294D01*
X217587955Y-18606591D01*
X217639538Y-18623595D01*
X217684894Y-18662179D01*
X217717837Y-18699767D01*
X217737448Y-18740420D01*
X217747118Y-18798198D01*
X217750239Y-18887160D01*
X217750415Y-18933725D01*
X217747121Y-19037409D01*
X217738397Y-19126303D01*
X217725972Y-19184176D01*
X217722957Y-19191055D01*
X217705108Y-19241189D01*
X217718237Y-19255560D01*
X217754655Y-19231354D01*
X217774341Y-19209858D01*
X217800952Y-19172542D01*
X217821065Y-19127048D01*
X217838413Y-19061028D01*
X217856726Y-18962133D01*
X217865605Y-18907810D01*
X217863476Y-18843231D01*
X217845475Y-18762436D01*
X217838876Y-18742710D01*
X217816182Y-18679565D01*
X217802950Y-18641481D01*
X217801597Y-18636957D01*
X217782839Y-18620987D01*
X217735128Y-18584495D01*
X217694611Y-18554407D01*
X217612956Y-18503208D01*
X217534861Y-18480360D01*
X217454928Y-18476010D01*
X217321626Y-18492585D01*
X217158657Y-18540362D01*
X216973984Y-18616411D01*
X216775567Y-18717806D01*
X216735593Y-18740489D01*
X216645193Y-18791660D01*
X216571799Y-18831389D01*
X216526142Y-18853953D01*
X216517096Y-18857010D01*
X216510294Y-18833500D01*
X216508271Y-18769940D01*
X216510320Y-18676782D01*
X216515737Y-18564478D01*
X216523815Y-18443481D01*
X216533849Y-18324243D01*
X216545135Y-18217218D01*
X216556966Y-18132857D01*
X216568637Y-18081613D01*
X216569592Y-18079135D01*
X216610506Y-18014115D01*
X216673845Y-17946637D01*
X216697810Y-17926735D01*
X216769747Y-17868636D01*
X216833898Y-17811723D01*
X216849395Y-17796560D01*
X216901624Y-17755895D01*
X216946877Y-17739410D01*
X216996692Y-17723233D01*
X217037394Y-17694960D01*
X217098232Y-17642629D01*
X217154391Y-17603982D01*
X217226756Y-17565580D01*
X217272297Y-17543797D01*
X217358939Y-17509548D01*
X217425348Y-17502015D01*
X217469147Y-17510274D01*
X217528598Y-17519432D01*
X217544958Y-17503929D01*
X217516560Y-17468509D01*
X217490763Y-17448750D01*
X217405559Y-17415732D01*
X217293797Y-17418610D01*
X217153678Y-17457893D01*
X216983405Y-17534088D01*
X216781179Y-17647702D01*
X216776855Y-17650323D01*
X216690096Y-17701899D01*
X216620190Y-17741411D01*
X216578112Y-17762740D01*
X216571535Y-17764810D01*
X216566000Y-17741377D01*
X216565054Y-17678524D01*
X216568659Y-17587420D01*
X216572343Y-17532275D01*
X216579430Y-17420805D01*
X216579916Y-17352744D01*
X216573324Y-17321069D01*
X216559182Y-17318760D01*
X216557964Y-17319475D01*
X216517647Y-17368166D01*
X216478548Y-17459315D01*
X216443598Y-17584607D01*
X216419018Y-17713807D01*
X216389418Y-17904105D01*
X216123766Y-18088301D01*
X216017341Y-18164253D01*
X215922297Y-18236035D01*
X215848809Y-18295705D01*
X215807048Y-18335319D01*
X215806360Y-18336154D01*
X215762789Y-18380402D01*
X215728672Y-18399774D01*
X215727747Y-18399810D01*
X215679159Y-18421744D01*
X215641257Y-18473779D01*
X215626876Y-18535259D01*
X215630229Y-18556739D01*
X215668270Y-18634636D01*
X215721580Y-18688397D01*
X215768478Y-18704610D01*
X215805277Y-18687064D01*
X215858681Y-18643935D01*
X215914084Y-18589482D01*
X215956883Y-18537966D01*
X215972575Y-18505311D01*
X215991908Y-18481717D01*
X216038611Y-18447012D01*
X216042425Y-18444572D01*
X216103025Y-18402566D01*
X216180048Y-18344543D01*
X216222039Y-18311222D01*
X216286570Y-18262024D01*
X216336566Y-18229622D01*
X216355389Y-18222010D01*
X216369665Y-18233952D01*
X216376619Y-18273037D01*
X216376061Y-18344151D01*
X216367800Y-18452180D01*
X216351648Y-18602013D01*
X216335431Y-18735285D01*
X216291752Y-19083460D01*
X216208283Y-19128411D01*
X216153603Y-19164066D01*
X216125036Y-19194774D01*
X216123887Y-19199336D01*
X216103553Y-19226626D01*
X216052518Y-19268147D01*
X216011663Y-19295798D01*
X215950083Y-19339941D01*
X215862498Y-19409448D01*
X215760136Y-19495125D01*
X215654223Y-19587775D01*
X215644290Y-19596691D01*
X215529395Y-19702891D01*
X215450458Y-19785338D01*
X215403676Y-19851895D01*
X215385242Y-19910423D01*
X215391352Y-19968784D01*
X215391352Y-19968784D01*
G37*
X215391352Y-19968784D02*
X215418201Y-20034841D01*
X215425375Y-20048993D01*
X215466623Y-20106449D01*
X215512161Y-20139194D01*
X215549550Y-20140592D01*
X215563261Y-20122571D01*
X215584501Y-20091483D01*
X215633320Y-20033211D01*
X215701804Y-19956914D01*
X215760595Y-19894126D01*
X215837502Y-19809776D01*
X215898979Y-19735472D01*
X215937571Y-19680651D01*
X215947014Y-19658089D01*
X215968233Y-19619480D01*
X216007891Y-19594607D01*
X216057406Y-19562677D01*
X216120905Y-19504757D01*
X216165670Y-19455536D01*
X216220516Y-19393646D01*
X216263745Y-19351587D01*
X216282593Y-19339610D01*
X216294341Y-19362397D01*
X216301743Y-19420366D01*
X216303003Y-19460260D01*
X216307531Y-19558322D01*
X216319628Y-19606459D01*
X216338255Y-19604811D01*
X216362372Y-19553518D01*
X216390939Y-19452722D01*
X216392018Y-19448251D01*
X216417363Y-19350896D01*
X216441745Y-19271011D01*
X216460654Y-19223078D01*
X216463617Y-19218279D01*
X216498518Y-19185147D01*
X216557839Y-19139935D01*
X216626306Y-19093008D01*
X216688645Y-19054731D01*
X216729582Y-19035469D01*
X216733976Y-19034810D01*
X216758687Y-19013857D01*
X216772632Y-18983641D01*
X216794346Y-18948695D01*
X216811705Y-18946583D01*
X216841859Y-18939120D01*
X216885266Y-18902172D01*
X216890656Y-18896152D01*
X216941989Y-18851497D01*
X216989521Y-18831669D01*
X216991496Y-18831610D01*
X217037346Y-18820073D01*
X217050443Y-18808591D01*
X217085207Y-18780923D01*
X217154648Y-18743462D01*
X217245109Y-18702038D01*
X217342928Y-18662483D01*
X217434446Y-18630629D01*
X217506005Y-18612306D01*
X217512595Y-18611294D01*
X217587955Y-18606591D01*
X217639538Y-18623595D01*
X217684894Y-18662179D01*
X217717837Y-18699767D01*
X217737448Y-18740420D01*
X217747118Y-18798198D01*
X217750239Y-18887160D01*
X217750415Y-18933725D01*
X217747121Y-19037409D01*
X217738397Y-19126303D01*
X217725972Y-19184176D01*
X217722957Y-19191055D01*
X217705108Y-19241189D01*
X217718237Y-19255560D01*
X217754655Y-19231354D01*
X217774341Y-19209858D01*
X217800952Y-19172542D01*
X217821065Y-19127048D01*
X217838413Y-19061028D01*
X217856726Y-18962133D01*
X217865605Y-18907810D01*
X217863476Y-18843231D01*
X217845475Y-18762436D01*
X217838876Y-18742710D01*
X217816182Y-18679565D01*
X217802950Y-18641481D01*
X217801597Y-18636957D01*
X217782839Y-18620987D01*
X217735128Y-18584495D01*
X217694611Y-18554407D01*
X217612956Y-18503208D01*
X217534861Y-18480360D01*
X217454928Y-18476010D01*
X217321626Y-18492585D01*
X217158657Y-18540362D01*
X216973984Y-18616411D01*
X216775567Y-18717806D01*
X216735593Y-18740489D01*
X216645193Y-18791660D01*
X216571799Y-18831389D01*
X216526142Y-18853953D01*
X216517096Y-18857010D01*
X216510294Y-18833500D01*
X216508271Y-18769940D01*
X216510320Y-18676782D01*
X216515737Y-18564478D01*
X216523815Y-18443481D01*
X216533849Y-18324243D01*
X216545135Y-18217218D01*
X216556966Y-18132857D01*
X216568637Y-18081613D01*
X216569592Y-18079135D01*
X216610506Y-18014115D01*
X216673845Y-17946637D01*
X216697810Y-17926735D01*
X216769747Y-17868636D01*
X216833898Y-17811723D01*
X216849395Y-17796560D01*
X216901624Y-17755895D01*
X216946877Y-17739410D01*
X216996692Y-17723233D01*
X217037394Y-17694960D01*
X217098232Y-17642629D01*
X217154391Y-17603982D01*
X217226756Y-17565580D01*
X217272297Y-17543797D01*
X217358939Y-17509548D01*
X217425348Y-17502015D01*
X217469147Y-17510274D01*
X217528598Y-17519432D01*
X217544958Y-17503929D01*
X217516560Y-17468509D01*
X217490763Y-17448750D01*
X217405559Y-17415732D01*
X217293797Y-17418610D01*
X217153678Y-17457893D01*
X216983405Y-17534088D01*
X216781179Y-17647702D01*
X216776855Y-17650323D01*
X216690096Y-17701899D01*
X216620190Y-17741411D01*
X216578112Y-17762740D01*
X216571535Y-17764810D01*
X216566000Y-17741377D01*
X216565054Y-17678524D01*
X216568659Y-17587420D01*
X216572343Y-17532275D01*
X216579430Y-17420805D01*
X216579916Y-17352744D01*
X216573324Y-17321069D01*
X216559182Y-17318760D01*
X216557964Y-17319475D01*
X216517647Y-17368166D01*
X216478548Y-17459315D01*
X216443598Y-17584607D01*
X216419018Y-17713807D01*
X216389418Y-17904105D01*
X216123766Y-18088301D01*
X216017341Y-18164253D01*
X215922297Y-18236035D01*
X215848809Y-18295705D01*
X215807048Y-18335319D01*
X215806360Y-18336154D01*
X215762789Y-18380402D01*
X215728672Y-18399774D01*
X215727747Y-18399810D01*
X215679159Y-18421744D01*
X215641257Y-18473779D01*
X215626876Y-18535259D01*
X215630229Y-18556739D01*
X215668270Y-18634636D01*
X215721580Y-18688397D01*
X215768478Y-18704610D01*
X215805277Y-18687064D01*
X215858681Y-18643935D01*
X215914084Y-18589482D01*
X215956883Y-18537966D01*
X215972575Y-18505311D01*
X215991908Y-18481717D01*
X216038611Y-18447012D01*
X216042425Y-18444572D01*
X216103025Y-18402566D01*
X216180048Y-18344543D01*
X216222039Y-18311222D01*
X216286570Y-18262024D01*
X216336566Y-18229622D01*
X216355389Y-18222010D01*
X216369665Y-18233952D01*
X216376619Y-18273037D01*
X216376061Y-18344151D01*
X216367800Y-18452180D01*
X216351648Y-18602013D01*
X216335431Y-18735285D01*
X216291752Y-19083460D01*
X216208283Y-19128411D01*
X216153603Y-19164066D01*
X216125036Y-19194774D01*
X216123887Y-19199336D01*
X216103553Y-19226626D01*
X216052518Y-19268147D01*
X216011663Y-19295798D01*
X215950083Y-19339941D01*
X215862498Y-19409448D01*
X215760136Y-19495125D01*
X215654223Y-19587775D01*
X215644290Y-19596691D01*
X215529395Y-19702891D01*
X215450458Y-19785338D01*
X215403676Y-19851895D01*
X215385242Y-19910423D01*
X215391352Y-19968784D01*
G36*
X216200078Y-15125522D02*
X216244444Y-15174660D01*
X216268861Y-15191893D01*
X216315137Y-15217236D01*
X216343927Y-15209903D01*
X216366263Y-15183907D01*
X216394941Y-15140530D01*
X216403407Y-15120270D01*
X216420314Y-15095098D01*
X216463036Y-15045848D01*
X216521046Y-14983436D01*
X216583818Y-14918779D01*
X216640825Y-14862795D01*
X216681540Y-14826400D01*
X216694479Y-14818410D01*
X216720288Y-14803504D01*
X216773903Y-14764269D01*
X216844133Y-14708927D01*
X216850062Y-14704110D01*
X216933086Y-14643712D01*
X217006600Y-14603093D01*
X217061486Y-14586045D01*
X217088626Y-14596362D01*
X217090015Y-14604283D01*
X217075674Y-14634463D01*
X217036716Y-14696203D01*
X216979235Y-14780599D01*
X216909328Y-14878748D01*
X216833088Y-14981745D01*
X216818035Y-15001594D01*
X216745706Y-15102640D01*
X216673556Y-15213862D01*
X216607544Y-15324808D01*
X216553624Y-15425029D01*
X216517754Y-15504073D01*
X216505815Y-15549376D01*
X216520463Y-15608150D01*
X216538903Y-15641351D01*
X216560599Y-15664839D01*
X216586918Y-15668700D01*
X216630958Y-15650472D01*
X216700136Y-15611044D01*
X216814132Y-15548896D01*
X216891980Y-15517698D01*
X216932626Y-15517333D01*
X216935013Y-15547681D01*
X216898086Y-15608625D01*
X216880465Y-15631271D01*
X216824096Y-15705397D01*
X216752652Y-15805298D01*
X216674408Y-15918715D01*
X216597636Y-16033391D01*
X216530613Y-16137069D01*
X216481613Y-16217491D01*
X216467715Y-16242699D01*
X216426806Y-16321305D01*
X216375871Y-16418621D01*
X216342704Y-16481728D01*
X216268494Y-16622627D01*
X216341106Y-16698418D01*
X216403615Y-16754783D01*
X216452261Y-16768515D01*
X216501531Y-16739133D01*
X216544987Y-16691660D01*
X216600012Y-16634878D01*
X216651260Y-16595939D01*
X216662108Y-16590670D01*
X216710644Y-16553932D01*
X216726955Y-16527170D01*
X216743985Y-16495080D01*
X216775851Y-16460926D01*
X216831284Y-16417195D01*
X216919017Y-16356377D01*
X216948258Y-16336796D01*
X217018899Y-16287205D01*
X217076797Y-16242314D01*
X217092896Y-16228056D01*
X217152156Y-16190336D01*
X217191036Y-16177421D01*
X217249700Y-16153740D01*
X217277055Y-16131422D01*
X217328357Y-16092864D01*
X217411219Y-16052871D01*
X217507079Y-16018273D01*
X217597374Y-15995896D01*
X217656954Y-15991684D01*
X217702369Y-15998212D01*
X217726458Y-16015084D01*
X217735985Y-16055188D01*
X217737711Y-16131411D01*
X217737715Y-16145606D01*
X217740614Y-16224083D01*
X217748124Y-16277095D01*
X217756112Y-16291656D01*
X217779942Y-16270841D01*
X217810267Y-16221467D01*
X217837050Y-16163007D01*
X217850253Y-16114936D01*
X217850404Y-16108721D01*
X217839944Y-16058970D01*
X217827846Y-16024028D01*
X217771589Y-15948671D01*
X217680547Y-15897737D01*
X217566445Y-15875223D01*
X217441010Y-15885126D01*
X217428649Y-15887966D01*
X217337447Y-15916885D01*
X217222641Y-15962799D01*
X217097472Y-16019318D01*
X216975185Y-16080050D01*
X216869025Y-16138606D01*
X216792235Y-16188592D01*
X216773291Y-16204214D01*
X216726655Y-16245100D01*
X216698293Y-16265640D01*
X216696315Y-16266210D01*
X216673014Y-16281727D01*
X216628242Y-16320074D01*
X216617003Y-16330369D01*
X216563125Y-16369326D01*
X216527144Y-16373417D01*
X216524632Y-16371387D01*
X216520251Y-16333378D01*
X216544699Y-16265889D01*
X216592915Y-16177287D01*
X216659840Y-16075939D01*
X216740414Y-15970209D01*
X216827442Y-15870724D01*
X216898676Y-15794184D01*
X216982553Y-15702669D01*
X217043095Y-15635774D01*
X217104378Y-15570315D01*
X217153224Y-15523200D01*
X217179428Y-15504243D01*
X217179882Y-15504210D01*
X217208893Y-15487722D01*
X217252953Y-15447972D01*
X217253839Y-15447060D01*
X217307464Y-15397296D01*
X217350872Y-15364510D01*
X217376461Y-15341967D01*
X217376854Y-15309090D01*
X217356273Y-15255279D01*
X217328291Y-15201119D01*
X217295379Y-15181302D01*
X217236869Y-15185194D01*
X217224052Y-15187257D01*
X217146278Y-15203516D01*
X217082846Y-15222390D01*
X217077315Y-15224613D01*
X217027252Y-15246187D01*
X216949579Y-15280013D01*
X216880465Y-15310279D01*
X216805430Y-15339528D01*
X216752730Y-15353018D01*
X216734415Y-15348577D01*
X216747302Y-15311103D01*
X216780010Y-15247069D01*
X216823609Y-15171795D01*
X216869170Y-15100602D01*
X216907763Y-15048812D01*
X216911695Y-15044419D01*
X216946340Y-15003968D01*
X217000529Y-14937496D01*
X217062721Y-14859167D01*
X217064615Y-14856750D01*
X217133458Y-14769751D01*
X217200894Y-14686002D01*
X217248765Y-14627906D01*
X217303729Y-14542635D01*
X217314586Y-14472094D01*
X217280996Y-14420357D01*
X217266730Y-14411429D01*
X217222887Y-14398545D01*
X217184548Y-14421517D01*
X217165975Y-14442285D01*
X217131912Y-14477893D01*
X217116338Y-14483852D01*
X217116260Y-14483156D01*
X217095578Y-14478853D01*
X217040165Y-14498664D01*
X216957431Y-14538337D01*
X216854789Y-14593618D01*
X216739647Y-14660254D01*
X216619418Y-14733992D01*
X216501512Y-14810580D01*
X216393339Y-14885763D01*
X216324450Y-14937574D01*
X216238715Y-15013231D01*
X216197713Y-15073796D01*
X216200078Y-15125522D01*
X216200078Y-15125522D01*
G37*
X216200078Y-15125522D02*
X216244444Y-15174660D01*
X216268861Y-15191893D01*
X216315137Y-15217236D01*
X216343927Y-15209903D01*
X216366263Y-15183907D01*
X216394941Y-15140530D01*
X216403407Y-15120270D01*
X216420314Y-15095098D01*
X216463036Y-15045848D01*
X216521046Y-14983436D01*
X216583818Y-14918779D01*
X216640825Y-14862795D01*
X216681540Y-14826400D01*
X216694479Y-14818410D01*
X216720288Y-14803504D01*
X216773903Y-14764269D01*
X216844133Y-14708927D01*
X216850062Y-14704110D01*
X216933086Y-14643712D01*
X217006600Y-14603093D01*
X217061486Y-14586045D01*
X217088626Y-14596362D01*
X217090015Y-14604283D01*
X217075674Y-14634463D01*
X217036716Y-14696203D01*
X216979235Y-14780599D01*
X216909328Y-14878748D01*
X216833088Y-14981745D01*
X216818035Y-15001594D01*
X216745706Y-15102640D01*
X216673556Y-15213862D01*
X216607544Y-15324808D01*
X216553624Y-15425029D01*
X216517754Y-15504073D01*
X216505815Y-15549376D01*
X216520463Y-15608150D01*
X216538903Y-15641351D01*
X216560599Y-15664839D01*
X216586918Y-15668700D01*
X216630958Y-15650472D01*
X216700136Y-15611044D01*
X216814132Y-15548896D01*
X216891980Y-15517698D01*
X216932626Y-15517333D01*
X216935013Y-15547681D01*
X216898086Y-15608625D01*
X216880465Y-15631271D01*
X216824096Y-15705397D01*
X216752652Y-15805298D01*
X216674408Y-15918715D01*
X216597636Y-16033391D01*
X216530613Y-16137069D01*
X216481613Y-16217491D01*
X216467715Y-16242699D01*
X216426806Y-16321305D01*
X216375871Y-16418621D01*
X216342704Y-16481728D01*
X216268494Y-16622627D01*
X216341106Y-16698418D01*
X216403615Y-16754783D01*
X216452261Y-16768515D01*
X216501531Y-16739133D01*
X216544987Y-16691660D01*
X216600012Y-16634878D01*
X216651260Y-16595939D01*
X216662108Y-16590670D01*
X216710644Y-16553932D01*
X216726955Y-16527170D01*
X216743985Y-16495080D01*
X216775851Y-16460926D01*
X216831284Y-16417195D01*
X216919017Y-16356377D01*
X216948258Y-16336796D01*
X217018899Y-16287205D01*
X217076797Y-16242314D01*
X217092896Y-16228056D01*
X217152156Y-16190336D01*
X217191036Y-16177421D01*
X217249700Y-16153740D01*
X217277055Y-16131422D01*
X217328357Y-16092864D01*
X217411219Y-16052871D01*
X217507079Y-16018273D01*
X217597374Y-15995896D01*
X217656954Y-15991684D01*
X217702369Y-15998212D01*
X217726458Y-16015084D01*
X217735985Y-16055188D01*
X217737711Y-16131411D01*
X217737715Y-16145606D01*
X217740614Y-16224083D01*
X217748124Y-16277095D01*
X217756112Y-16291656D01*
X217779942Y-16270841D01*
X217810267Y-16221467D01*
X217837050Y-16163007D01*
X217850253Y-16114936D01*
X217850404Y-16108721D01*
X217839944Y-16058970D01*
X217827846Y-16024028D01*
X217771589Y-15948671D01*
X217680547Y-15897737D01*
X217566445Y-15875223D01*
X217441010Y-15885126D01*
X217428649Y-15887966D01*
X217337447Y-15916885D01*
X217222641Y-15962799D01*
X217097472Y-16019318D01*
X216975185Y-16080050D01*
X216869025Y-16138606D01*
X216792235Y-16188592D01*
X216773291Y-16204214D01*
X216726655Y-16245100D01*
X216698293Y-16265640D01*
X216696315Y-16266210D01*
X216673014Y-16281727D01*
X216628242Y-16320074D01*
X216617003Y-16330369D01*
X216563125Y-16369326D01*
X216527144Y-16373417D01*
X216524632Y-16371387D01*
X216520251Y-16333378D01*
X216544699Y-16265889D01*
X216592915Y-16177287D01*
X216659840Y-16075939D01*
X216740414Y-15970209D01*
X216827442Y-15870724D01*
X216898676Y-15794184D01*
X216982553Y-15702669D01*
X217043095Y-15635774D01*
X217104378Y-15570315D01*
X217153224Y-15523200D01*
X217179428Y-15504243D01*
X217179882Y-15504210D01*
X217208893Y-15487722D01*
X217252953Y-15447972D01*
X217253839Y-15447060D01*
X217307464Y-15397296D01*
X217350872Y-15364510D01*
X217376461Y-15341967D01*
X217376854Y-15309090D01*
X217356273Y-15255279D01*
X217328291Y-15201119D01*
X217295379Y-15181302D01*
X217236869Y-15185194D01*
X217224052Y-15187257D01*
X217146278Y-15203516D01*
X217082846Y-15222390D01*
X217077315Y-15224613D01*
X217027252Y-15246187D01*
X216949579Y-15280013D01*
X216880465Y-15310279D01*
X216805430Y-15339528D01*
X216752730Y-15353018D01*
X216734415Y-15348577D01*
X216747302Y-15311103D01*
X216780010Y-15247069D01*
X216823609Y-15171795D01*
X216869170Y-15100602D01*
X216907763Y-15048812D01*
X216911695Y-15044419D01*
X216946340Y-15003968D01*
X217000529Y-14937496D01*
X217062721Y-14859167D01*
X217064615Y-14856750D01*
X217133458Y-14769751D01*
X217200894Y-14686002D01*
X217248765Y-14627906D01*
X217303729Y-14542635D01*
X217314586Y-14472094D01*
X217280996Y-14420357D01*
X217266730Y-14411429D01*
X217222887Y-14398545D01*
X217184548Y-14421517D01*
X217165975Y-14442285D01*
X217131912Y-14477893D01*
X217116338Y-14483852D01*
X217116260Y-14483156D01*
X217095578Y-14478853D01*
X217040165Y-14498664D01*
X216957431Y-14538337D01*
X216854789Y-14593618D01*
X216739647Y-14660254D01*
X216619418Y-14733992D01*
X216501512Y-14810580D01*
X216393339Y-14885763D01*
X216324450Y-14937574D01*
X216238715Y-15013231D01*
X216197713Y-15073796D01*
X216200078Y-15125522D01*
G36*
X216301242Y-13480696D02*
X216302868Y-13485679D01*
X216337467Y-13564841D01*
X216379408Y-13632295D01*
X216401212Y-13663195D01*
X216413092Y-13695315D01*
X216415385Y-13740293D01*
X216408431Y-13809768D01*
X216392566Y-13915377D01*
X216388389Y-13941635D01*
X216367412Y-14098144D01*
X216362580Y-14215326D01*
X216375227Y-14302448D01*
X216406692Y-14368778D01*
X216457836Y-14423186D01*
X216551773Y-14486559D01*
X216639610Y-14506058D01*
X216736977Y-14483726D01*
X216778768Y-14465163D01*
X216865987Y-14416339D01*
X216951830Y-14357644D01*
X217025092Y-14298056D01*
X217074571Y-14246558D01*
X217089557Y-14216053D01*
X217110131Y-14182013D01*
X217147165Y-14155424D01*
X217215453Y-14103054D01*
X217290147Y-14019773D01*
X217362091Y-13919379D01*
X217422129Y-13815667D01*
X217461108Y-13722431D01*
X217471015Y-13667414D01*
X217456673Y-13612792D01*
X217420659Y-13542388D01*
X217403458Y-13516358D01*
X217352687Y-13455032D01*
X217303836Y-13427402D01*
X217267530Y-13423785D01*
X217267530Y-13509200D01*
X217295607Y-13526011D01*
X217311121Y-13555835D01*
X217314425Y-13587415D01*
X217302743Y-13631932D01*
X217273300Y-13700567D01*
X217229720Y-13791383D01*
X217154632Y-13917391D01*
X217057353Y-14039698D01*
X216946251Y-14151352D01*
X216829696Y-14245401D01*
X216716058Y-14314894D01*
X216613706Y-14352880D01*
X216549315Y-14356502D01*
X216500982Y-14329083D01*
X216481920Y-14270836D01*
X216489602Y-14190548D01*
X216521501Y-14097009D01*
X216575091Y-13999006D01*
X216647846Y-13905330D01*
X216691449Y-13862112D01*
X216755867Y-13799138D01*
X216806126Y-13741205D01*
X216823941Y-13714447D01*
X216867491Y-13662747D01*
X216939393Y-13611572D01*
X217027496Y-13565776D01*
X217119653Y-13530213D01*
X217203714Y-13509736D01*
X217267530Y-13509200D01*
X217267530Y-13423785D01*
X217243694Y-13421410D01*
X217112677Y-13434933D01*
X216967980Y-13470932D01*
X216832353Y-13522548D01*
X216742941Y-13572357D01*
X216671072Y-13617632D01*
X216629599Y-13628389D01*
X216610962Y-13603873D01*
X216607415Y-13558846D01*
X216625997Y-13515351D01*
X216673590Y-13454093D01*
X216737961Y-13386971D01*
X216806876Y-13325880D01*
X216868104Y-13282718D01*
X216905428Y-13269010D01*
X216936084Y-13257676D01*
X216929919Y-13232987D01*
X216892936Y-13208913D01*
X216877525Y-13204096D01*
X216780142Y-13202567D01*
X216669122Y-13237108D01*
X216559819Y-13302075D01*
X216519669Y-13335639D01*
X216455446Y-13385914D01*
X216416006Y-13399347D01*
X216406066Y-13377621D01*
X216430341Y-13322419D01*
X216439927Y-13307189D01*
X216469805Y-13249253D01*
X216480415Y-13207665D01*
X216499803Y-13161567D01*
X216513698Y-13149622D01*
X216551737Y-13114578D01*
X216590144Y-13065810D01*
X216624844Y-13022316D01*
X216682760Y-12957456D01*
X216756265Y-12878967D01*
X216837733Y-12794588D01*
X216919537Y-12712055D01*
X216994052Y-12639108D01*
X217053649Y-12583483D01*
X217090703Y-12552919D01*
X217098834Y-12549696D01*
X217121943Y-12540639D01*
X217168287Y-12505497D01*
X217195004Y-12482004D01*
X217269952Y-12417915D01*
X217347591Y-12358125D01*
X217362891Y-12347382D01*
X217415255Y-12308711D01*
X217443662Y-12282090D01*
X217445346Y-12278410D01*
X217429439Y-12234110D01*
X217390996Y-12178148D01*
X217344541Y-12128103D01*
X217304600Y-12101554D01*
X217298444Y-12100610D01*
X217253851Y-12113198D01*
X217182498Y-12146110D01*
X217104493Y-12189510D01*
X217027929Y-12234325D01*
X216969149Y-12266341D01*
X216940887Y-12278623D01*
X216914394Y-12292626D01*
X216857419Y-12329812D01*
X216780400Y-12383263D01*
X216747115Y-12407072D01*
X216656041Y-12471913D01*
X216572220Y-12530125D01*
X216510527Y-12571416D01*
X216499625Y-12578309D01*
X216442473Y-12634257D01*
X216433626Y-12703759D01*
X216456043Y-12762931D01*
X216471502Y-12783626D01*
X216492446Y-12785183D01*
X216526817Y-12762932D01*
X216582558Y-12712204D01*
X216642510Y-12653311D01*
X216757841Y-12543535D01*
X216869025Y-12446435D01*
X216970384Y-12366063D01*
X217056240Y-12306471D01*
X217120914Y-12271712D01*
X217158728Y-12265838D01*
X217166215Y-12279555D01*
X217148967Y-12313212D01*
X217102472Y-12372645D01*
X217034602Y-12448950D01*
X216953231Y-12533222D01*
X216877365Y-12606288D01*
X216801979Y-12684271D01*
X216708492Y-12793017D01*
X216606308Y-12920578D01*
X216504832Y-13055007D01*
X216413468Y-13184358D01*
X216368835Y-13252316D01*
X216319388Y-13333740D01*
X216294528Y-13388727D01*
X216289924Y-13432603D01*
X216301242Y-13480696D01*
X216301242Y-13480696D01*
G37*
X216301242Y-13480696D02*
X216302868Y-13485679D01*
X216337467Y-13564841D01*
X216379408Y-13632295D01*
X216401212Y-13663195D01*
X216413092Y-13695315D01*
X216415385Y-13740293D01*
X216408431Y-13809768D01*
X216392566Y-13915377D01*
X216388389Y-13941635D01*
X216367412Y-14098144D01*
X216362580Y-14215326D01*
X216375227Y-14302448D01*
X216406692Y-14368778D01*
X216457836Y-14423186D01*
X216551773Y-14486559D01*
X216639610Y-14506058D01*
X216736977Y-14483726D01*
X216778768Y-14465163D01*
X216865987Y-14416339D01*
X216951830Y-14357644D01*
X217025092Y-14298056D01*
X217074571Y-14246558D01*
X217089557Y-14216053D01*
X217110131Y-14182013D01*
X217147165Y-14155424D01*
X217215453Y-14103054D01*
X217290147Y-14019773D01*
X217362091Y-13919379D01*
X217422129Y-13815667D01*
X217461108Y-13722431D01*
X217471015Y-13667414D01*
X217456673Y-13612792D01*
X217420659Y-13542388D01*
X217403458Y-13516358D01*
X217352687Y-13455032D01*
X217303836Y-13427402D01*
X217267530Y-13423785D01*
X217267530Y-13509200D01*
X217295607Y-13526011D01*
X217311121Y-13555835D01*
X217314425Y-13587415D01*
X217302743Y-13631932D01*
X217273300Y-13700567D01*
X217229720Y-13791383D01*
X217154632Y-13917391D01*
X217057353Y-14039698D01*
X216946251Y-14151352D01*
X216829696Y-14245401D01*
X216716058Y-14314894D01*
X216613706Y-14352880D01*
X216549315Y-14356502D01*
X216500982Y-14329083D01*
X216481920Y-14270836D01*
X216489602Y-14190548D01*
X216521501Y-14097009D01*
X216575091Y-13999006D01*
X216647846Y-13905330D01*
X216691449Y-13862112D01*
X216755867Y-13799138D01*
X216806126Y-13741205D01*
X216823941Y-13714447D01*
X216867491Y-13662747D01*
X216939393Y-13611572D01*
X217027496Y-13565776D01*
X217119653Y-13530213D01*
X217203714Y-13509736D01*
X217267530Y-13509200D01*
X217267530Y-13423785D01*
X217243694Y-13421410D01*
X217112677Y-13434933D01*
X216967980Y-13470932D01*
X216832353Y-13522548D01*
X216742941Y-13572357D01*
X216671072Y-13617632D01*
X216629599Y-13628389D01*
X216610962Y-13603873D01*
X216607415Y-13558846D01*
X216625997Y-13515351D01*
X216673590Y-13454093D01*
X216737961Y-13386971D01*
X216806876Y-13325880D01*
X216868104Y-13282718D01*
X216905428Y-13269010D01*
X216936084Y-13257676D01*
X216929919Y-13232987D01*
X216892936Y-13208913D01*
X216877525Y-13204096D01*
X216780142Y-13202567D01*
X216669122Y-13237108D01*
X216559819Y-13302075D01*
X216519669Y-13335639D01*
X216455446Y-13385914D01*
X216416006Y-13399347D01*
X216406066Y-13377621D01*
X216430341Y-13322419D01*
X216439927Y-13307189D01*
X216469805Y-13249253D01*
X216480415Y-13207665D01*
X216499803Y-13161567D01*
X216513698Y-13149622D01*
X216551737Y-13114578D01*
X216590144Y-13065810D01*
X216624844Y-13022316D01*
X216682760Y-12957456D01*
X216756265Y-12878967D01*
X216837733Y-12794588D01*
X216919537Y-12712055D01*
X216994052Y-12639108D01*
X217053649Y-12583483D01*
X217090703Y-12552919D01*
X217098834Y-12549696D01*
X217121943Y-12540639D01*
X217168287Y-12505497D01*
X217195004Y-12482004D01*
X217269952Y-12417915D01*
X217347591Y-12358125D01*
X217362891Y-12347382D01*
X217415255Y-12308711D01*
X217443662Y-12282090D01*
X217445346Y-12278410D01*
X217429439Y-12234110D01*
X217390996Y-12178148D01*
X217344541Y-12128103D01*
X217304600Y-12101554D01*
X217298444Y-12100610D01*
X217253851Y-12113198D01*
X217182498Y-12146110D01*
X217104493Y-12189510D01*
X217027929Y-12234325D01*
X216969149Y-12266341D01*
X216940887Y-12278623D01*
X216914394Y-12292626D01*
X216857419Y-12329812D01*
X216780400Y-12383263D01*
X216747115Y-12407072D01*
X216656041Y-12471913D01*
X216572220Y-12530125D01*
X216510527Y-12571416D01*
X216499625Y-12578309D01*
X216442473Y-12634257D01*
X216433626Y-12703759D01*
X216456043Y-12762931D01*
X216471502Y-12783626D01*
X216492446Y-12785183D01*
X216526817Y-12762932D01*
X216582558Y-12712204D01*
X216642510Y-12653311D01*
X216757841Y-12543535D01*
X216869025Y-12446435D01*
X216970384Y-12366063D01*
X217056240Y-12306471D01*
X217120914Y-12271712D01*
X217158728Y-12265838D01*
X217166215Y-12279555D01*
X217148967Y-12313212D01*
X217102472Y-12372645D01*
X217034602Y-12448950D01*
X216953231Y-12533222D01*
X216877365Y-12606288D01*
X216801979Y-12684271D01*
X216708492Y-12793017D01*
X216606308Y-12920578D01*
X216504832Y-13055007D01*
X216413468Y-13184358D01*
X216368835Y-13252316D01*
X216319388Y-13333740D01*
X216294528Y-13388727D01*
X216289924Y-13432603D01*
X216301242Y-13480696D01*
G36*
X215425866Y-12451339D02*
X215436126Y-12484242D01*
X215446107Y-12539883D01*
X215454196Y-12641085D01*
X215460161Y-12782636D01*
X215463768Y-12959323D01*
X215464803Y-13126750D01*
X215466254Y-13343730D01*
X215470403Y-13512076D01*
X215477448Y-13633896D01*
X215487586Y-13711293D01*
X215501016Y-13746373D01*
X215517934Y-13741242D01*
X215521938Y-13735271D01*
X215548665Y-13667434D01*
X215575854Y-13555170D01*
X215602425Y-13404830D01*
X215627297Y-13222761D01*
X215649390Y-13015315D01*
X215654927Y-12953597D01*
X215670595Y-12778070D01*
X215685669Y-12643686D01*
X215703761Y-12540960D01*
X215728482Y-12460411D01*
X215763443Y-12392553D01*
X215812256Y-12327905D01*
X215878531Y-12256983D01*
X215945588Y-12190305D01*
X216099414Y-12038700D01*
X216099414Y-12461701D01*
X216101390Y-12643061D01*
X216107114Y-12789024D01*
X216116283Y-12894560D01*
X216128594Y-12954635D01*
X216129224Y-12956206D01*
X216146544Y-12994246D01*
X216158023Y-12999996D01*
X216168254Y-12967560D01*
X216181828Y-12891042D01*
X216182334Y-12888010D01*
X216197737Y-12803213D01*
X216212245Y-12735631D01*
X216219290Y-12710210D01*
X216229092Y-12662720D01*
X216237792Y-12587687D01*
X216240364Y-12553558D01*
X216250920Y-12469571D01*
X216268614Y-12399570D01*
X216276104Y-12382084D01*
X216290173Y-12331255D01*
X216300624Y-12247120D01*
X216305353Y-12147154D01*
X216305420Y-12139011D01*
X216308829Y-12045537D01*
X216316921Y-11973318D01*
X216328054Y-11936075D01*
X216329914Y-11934336D01*
X216350698Y-11899180D01*
X216353729Y-11876860D01*
X216373468Y-11840922D01*
X216421085Y-11794329D01*
X216479751Y-11750555D01*
X216532638Y-11723072D01*
X216550148Y-11719609D01*
X216577355Y-11700557D01*
X216601520Y-11668810D01*
X216640424Y-11628820D01*
X216669418Y-11618010D01*
X216705458Y-11596858D01*
X216721715Y-11567210D01*
X216743978Y-11526176D01*
X216760253Y-11516409D01*
X216792300Y-11503185D01*
X216850831Y-11469176D01*
X216898153Y-11438470D01*
X216986632Y-11388624D01*
X217050509Y-11373758D01*
X217061849Y-11375832D01*
X217119747Y-11371475D01*
X217149024Y-11352172D01*
X217191314Y-11320544D01*
X217213507Y-11313210D01*
X217249076Y-11294874D01*
X217306713Y-11246332D01*
X217377048Y-11177283D01*
X217450713Y-11097424D01*
X217518337Y-11016453D01*
X217570551Y-10944068D01*
X217571342Y-10942825D01*
X217616317Y-10871365D01*
X217638337Y-10826369D01*
X217640176Y-10790495D01*
X217624605Y-10746403D01*
X217608570Y-10709960D01*
X217578410Y-10655147D01*
X217551356Y-10628034D01*
X217548088Y-10627410D01*
X217522617Y-10646924D01*
X217478856Y-10698189D01*
X217426087Y-10770290D01*
X217423916Y-10773460D01*
X217370892Y-10845037D01*
X217300070Y-10932373D01*
X217218731Y-11027449D01*
X217134158Y-11122245D01*
X217053632Y-11208742D01*
X216984435Y-11278921D01*
X216933850Y-11324764D01*
X216910711Y-11338610D01*
X216881587Y-11352042D01*
X216820330Y-11388380D01*
X216736623Y-11441684D01*
X216662283Y-11491010D01*
X216568185Y-11553332D01*
X216489440Y-11603337D01*
X216435577Y-11635103D01*
X216416962Y-11643410D01*
X216407195Y-11621576D01*
X216409138Y-11568267D01*
X216410193Y-11560860D01*
X216415747Y-11493941D01*
X216411611Y-11447169D01*
X216411399Y-11446560D01*
X216380965Y-11425746D01*
X216323602Y-11415915D01*
X216262182Y-11418020D01*
X216219574Y-11433015D01*
X216214853Y-11438367D01*
X216204620Y-11473274D01*
X216190577Y-11544636D01*
X216175395Y-11638520D01*
X216172034Y-11661759D01*
X216143774Y-11861593D01*
X215961527Y-11992667D01*
X215852570Y-12069866D01*
X215777797Y-12118322D01*
X215730834Y-12139878D01*
X215705305Y-12136378D01*
X215694835Y-12109665D01*
X215693014Y-12070307D01*
X215701292Y-12002394D01*
X215721369Y-11955528D01*
X215722894Y-11953890D01*
X215734843Y-11914592D01*
X215708733Y-11872774D01*
X215655739Y-11838444D01*
X215587034Y-11821611D01*
X215574778Y-11821210D01*
X215489815Y-11821210D01*
X215489814Y-12066859D01*
X215487712Y-12191667D01*
X215480467Y-12275785D01*
X215466676Y-12329187D01*
X215448826Y-12357801D01*
X215422900Y-12399951D01*
X215425866Y-12451339D01*
X215425866Y-12451339D01*
G37*
X215425866Y-12451339D02*
X215436126Y-12484242D01*
X215446107Y-12539883D01*
X215454196Y-12641085D01*
X215460161Y-12782636D01*
X215463768Y-12959323D01*
X215464803Y-13126750D01*
X215466254Y-13343730D01*
X215470403Y-13512076D01*
X215477448Y-13633896D01*
X215487586Y-13711293D01*
X215501016Y-13746373D01*
X215517934Y-13741242D01*
X215521938Y-13735271D01*
X215548665Y-13667434D01*
X215575854Y-13555170D01*
X215602425Y-13404830D01*
X215627297Y-13222761D01*
X215649390Y-13015315D01*
X215654927Y-12953597D01*
X215670595Y-12778070D01*
X215685669Y-12643686D01*
X215703761Y-12540960D01*
X215728482Y-12460411D01*
X215763443Y-12392553D01*
X215812256Y-12327905D01*
X215878531Y-12256983D01*
X215945588Y-12190305D01*
X216099414Y-12038700D01*
X216099414Y-12461701D01*
X216101390Y-12643061D01*
X216107114Y-12789024D01*
X216116283Y-12894560D01*
X216128594Y-12954635D01*
X216129224Y-12956206D01*
X216146544Y-12994246D01*
X216158023Y-12999996D01*
X216168254Y-12967560D01*
X216181828Y-12891042D01*
X216182334Y-12888010D01*
X216197737Y-12803213D01*
X216212245Y-12735631D01*
X216219290Y-12710210D01*
X216229092Y-12662720D01*
X216237792Y-12587687D01*
X216240364Y-12553558D01*
X216250920Y-12469571D01*
X216268614Y-12399570D01*
X216276104Y-12382084D01*
X216290173Y-12331255D01*
X216300624Y-12247120D01*
X216305353Y-12147154D01*
X216305420Y-12139011D01*
X216308829Y-12045537D01*
X216316921Y-11973318D01*
X216328054Y-11936075D01*
X216329914Y-11934336D01*
X216350698Y-11899180D01*
X216353729Y-11876860D01*
X216373468Y-11840922D01*
X216421085Y-11794329D01*
X216479751Y-11750555D01*
X216532638Y-11723072D01*
X216550148Y-11719609D01*
X216577355Y-11700557D01*
X216601520Y-11668810D01*
X216640424Y-11628820D01*
X216669418Y-11618010D01*
X216705458Y-11596858D01*
X216721715Y-11567210D01*
X216743978Y-11526176D01*
X216760253Y-11516409D01*
X216792300Y-11503185D01*
X216850831Y-11469176D01*
X216898153Y-11438470D01*
X216986632Y-11388624D01*
X217050509Y-11373758D01*
X217061849Y-11375832D01*
X217119747Y-11371475D01*
X217149024Y-11352172D01*
X217191314Y-11320544D01*
X217213507Y-11313210D01*
X217249076Y-11294874D01*
X217306713Y-11246332D01*
X217377048Y-11177283D01*
X217450713Y-11097424D01*
X217518337Y-11016453D01*
X217570551Y-10944068D01*
X217571342Y-10942825D01*
X217616317Y-10871365D01*
X217638337Y-10826369D01*
X217640176Y-10790495D01*
X217624605Y-10746403D01*
X217608570Y-10709960D01*
X217578410Y-10655147D01*
X217551356Y-10628034D01*
X217548088Y-10627410D01*
X217522617Y-10646924D01*
X217478856Y-10698189D01*
X217426087Y-10770290D01*
X217423916Y-10773460D01*
X217370892Y-10845037D01*
X217300070Y-10932373D01*
X217218731Y-11027449D01*
X217134158Y-11122245D01*
X217053632Y-11208742D01*
X216984435Y-11278921D01*
X216933850Y-11324764D01*
X216910711Y-11338610D01*
X216881587Y-11352042D01*
X216820330Y-11388380D01*
X216736623Y-11441684D01*
X216662283Y-11491010D01*
X216568185Y-11553332D01*
X216489440Y-11603337D01*
X216435577Y-11635103D01*
X216416962Y-11643410D01*
X216407195Y-11621576D01*
X216409138Y-11568267D01*
X216410193Y-11560860D01*
X216415747Y-11493941D01*
X216411611Y-11447169D01*
X216411399Y-11446560D01*
X216380965Y-11425746D01*
X216323602Y-11415915D01*
X216262182Y-11418020D01*
X216219574Y-11433015D01*
X216214853Y-11438367D01*
X216204620Y-11473274D01*
X216190577Y-11544636D01*
X216175395Y-11638520D01*
X216172034Y-11661759D01*
X216143774Y-11861593D01*
X215961527Y-11992667D01*
X215852570Y-12069866D01*
X215777797Y-12118322D01*
X215730834Y-12139878D01*
X215705305Y-12136378D01*
X215694835Y-12109665D01*
X215693014Y-12070307D01*
X215701292Y-12002394D01*
X215721369Y-11955528D01*
X215722894Y-11953890D01*
X215734843Y-11914592D01*
X215708733Y-11872774D01*
X215655739Y-11838444D01*
X215587034Y-11821611D01*
X215574778Y-11821210D01*
X215489815Y-11821210D01*
X215489814Y-12066859D01*
X215487712Y-12191667D01*
X215480467Y-12275785D01*
X215466676Y-12329187D01*
X215448826Y-12357801D01*
X215422900Y-12399951D01*
X215425866Y-12451339D01*
M02*
