G04 #@! TF.GenerationSoftware,KiCad,Pcbnew,(5.1.2)-2*
G04 #@! TF.CreationDate,2019-08-05T19:31:08+07:00*
G04 #@! TF.ProjectId,PCB,5043422e-6b69-4636-9164-5f7063625858,a*
G04 #@! TF.SameCoordinates,Original*
G04 #@! TF.FileFunction,Profile,NP*
%FSLAX46Y46*%
G04 Gerber Fmt 4.6, Leading zero omitted, Abs format (unit mm)*
G04 Created by KiCad (PCBNEW (5.1.2)-2) date 2019-08-05 19:31:08*
%MOMM*%
%LPD*%
G04 APERTURE LIST*
%ADD10C,0.150000*%
%ADD11C,0.200000*%
G04 APERTURE END LIST*
D10*
X-9523815Y-30575050D02*
X-9524315Y-7525050D01*
D11*
X218761195Y-30575050D02*
G75*
G02X218271297Y-30175050I0J500000D01*
G01*
X216312205Y-28575050D02*
G75*
G02X214312205Y-26575050I0J2000000D01*
G01*
X214312205Y-11525050D02*
G75*
G02X216312205Y-9525050I2000000J0D01*
G01*
X214312205Y-11525050D02*
X214312205Y-26575050D01*
X218271797Y-7925050D02*
G75*
G02X216312205Y-9525050I-1959592J400000D01*
G01*
X216311705Y-28575050D02*
G75*
G02X218271297Y-30175050I0J-2000000D01*
G01*
X218271797Y-7925050D02*
G75*
G02X218761695Y-7525050I489898J-100000D01*
G01*
X218761195Y-30575050D02*
X219074215Y-30575050D01*
X219074715Y-7525050D02*
X218761695Y-7525050D01*
D10*
X219074715Y-7525050D02*
X219074215Y-30575050D01*
X-9523815Y-45625050D02*
X-9523815Y-30575050D01*
X-9524315Y4524400D02*
X-9524315Y-7525050D01*
D11*
X218761195Y-30575050D02*
X219074215Y-30575050D01*
X219074715Y-7525050D02*
X218761695Y-7525050D01*
X218761195Y-30575050D02*
G75*
G02X218271297Y-30175050I0J500000D01*
G01*
X216311705Y-28575050D02*
G75*
G02X218271297Y-30175050I0J-2000000D01*
G01*
X219074215Y-30575050D02*
X219074215Y-45625050D01*
X216312205Y-28575050D02*
G75*
G02X214312205Y-26575050I0J2000000D01*
G01*
X214312205Y-11525050D02*
X214312205Y-26575050D01*
X214312205Y-11525050D02*
G75*
G02X216312205Y-9525050I2000000J0D01*
G01*
X218271797Y-7925050D02*
G75*
G02X218761695Y-7525050I489898J-100000D01*
G01*
X218271797Y-7925050D02*
G75*
G02X216312205Y-9525050I-1959592J400000D01*
G01*
X219074715Y-7525050D02*
X219074715Y4524400D01*
X-8333435Y-47453851D02*
G75*
G02X-7143055Y-49282653I-809620J-1828802D01*
G01*
X-8333435Y-47453852D02*
G75*
G02X-9523815Y-45625050I809620J1828802D01*
G01*
X-7143055Y-61675774D02*
X-7143055Y-49282653D01*
X216693456Y-49282653D02*
G75*
G02X217883835Y-47453852I1999999J0D01*
G01*
X219074215Y-45625050D02*
G75*
G02X217883835Y-47453852I-2000000J0D01*
G01*
X216693455Y-61675774D02*
G75*
G02X211693455Y-66675774I-5000000J0D01*
G01*
X216693455Y-61675774D02*
X216693455Y-49282653D01*
X-2143055Y-66675774D02*
G75*
G02X-7143055Y-61675774I0J5000000D01*
G01*
X214075600Y9524400D02*
G75*
G02X219075600Y4524400I0J-5000000D01*
G01*
X-9524315Y4524400D02*
G75*
G02X-4524315Y9524400I5000000J0D01*
G01*
X211693455Y-66675774D02*
X-2143055Y-66675774D01*
X-4524315Y9524400D02*
X214075600Y9524400D01*
M02*
