  0
SECTION
  2
HEADER
  9
$ACADVER
  1
AC1027
  9
$ACADMAINTVER
 70
   125
  9
$DWGCODEPAGE
  3
ANSI_1252
  9
$LASTSAVEDBY
  1
boy9x
  9
$REQUIREDVERSIONS
160
                 0
  9
$INSBASE
 10
0.0
 20
0.0
 30
0.0
  9
$EXTMIN
 10
-0.380575000000001
 20
-0.3942499999999858
 30
0.0
  9
$EXTMAX
 10
229.169775
 20
76.75565
 30
1.0
  9
$LIMMIN
 10
0.0
 20
0.0
  9
$LIMMAX
 10
12.0
 20
9.0
  9
$ORTHOMODE
 70
     0
  9
$REGENMODE
 70
     1
  9
$FILLMODE
 70
     0
  9
$QTEXTMODE
 70
     0
  9
$MIRRTEXT
 70
     0
  9
$LTSCALE
 40
1.0
  9
$ATTMODE
 70
     1
  9
$TEXTSIZE
 40
0.2
  9
$TRACEWID
 40
0.05
  9
$TEXTSTYLE
  7
Standard
  9
$CLAYER
  8
0
  9
$CELTYPE
  6
Continuous
  9
$CECOLOR
 62
   256
  9
$CELTSCALE
 40
1.0
  9
$DISPSILH
 70
     0
  9
$DIMSCALE
 40
1.0
  9
$DIMASZ
 40
0.18
  9
$DIMEXO
 40
0.0625
  9
$DIMDLI
 40
0.38
  9
$DIMRND
 40
0.0
  9
$DIMDLE
 40
0.0
  9
$DIMEXE
 40
0.18
  9
$DIMTP
 40
0.0
  9
$DIMTM
 40
0.0
  9
$DIMTXT
 40
0.18
  9
$DIMCEN
 40
0.09
  9
$DIMTSZ
 40
0.0
  9
$DIMTOL
 70
     0
  9
$DIMLIM
 70
     0
  9
$DIMTIH
 70
     1
  9
$DIMTOH
 70
     1
  9
$DIMSE1
 70
     0
  9
$DIMSE2
 70
     0
  9
$DIMTAD
 70
     0
  9
$DIMZIN
 70
     0
  9
$DIMBLK
  1

  9
$DIMASO
 70
     1
  9
$DIMSHO
 70
     1
  9
$DIMPOST
  1

  9
$DIMAPOST
  1

  9
$DIMALT
 70
     0
  9
$DIMALTD
 70
     2
  9
$DIMALTF
 40
25.4
  9
$DIMLFAC
 40
1.0
  9
$DIMTOFL
 70
     0
  9
$DIMTVP
 40
0.0
  9
$DIMTIX
 70
     0
  9
$DIMSOXD
 70
     0
  9
$DIMSAH
 70
     0
  9
$DIMBLK1
  1

  9
$DIMBLK2
  1

  9
$DIMSTYLE
  2
Standard
  9
$DIMCLRD
 70
     0
  9
$DIMCLRE
 70
     0
  9
$DIMCLRT
 70
     0
  9
$DIMTFAC
 40
1.0
  9
$DIMGAP
 40
0.09
  9
$DIMJUST
 70
     0
  9
$DIMSD1
 70
     0
  9
$DIMSD2
 70
     0
  9
$DIMTOLJ
 70
     1
  9
$DIMTZIN
 70
     0
  9
$DIMALTZ
 70
     0
  9
$DIMALTTZ
 70
     0
  9
$DIMUPT
 70
     0
  9
$DIMDEC
 70
     4
  9
$DIMTDEC
 70
     4
  9
$DIMALTU
 70
     2
  9
$DIMALTTD
 70
     2
  9
$DIMTXSTY
  7
Standard
  9
$DIMAUNIT
 70
     0
  9
$DIMADEC
 70
     0
  9
$DIMALTRND
 40
0.0
  9
$DIMAZIN
 70
     0
  9
$DIMDSEP
 70
    46
  9
$DIMATFIT
 70
     3
  9
$DIMFRAC
 70
     0
  9
$DIMLDRBLK
  1

  9
$DIMLUNIT
 70
     2
  9
$DIMLWD
 70
    -2
  9
$DIMLWE
 70
    -2
  9
$DIMTMOVE
 70
     0
  9
$DIMFXL
 40
1.0
  9
$DIMFXLON
 70
     0
  9
$DIMJOGANG
 40
0.7853981633974483
  9
$DIMTFILL
 70
     0
  9
$DIMTFILLCLR
 70
     0
  9
$DIMARCSYM
 70
     0
  9
$DIMLTYPE
  6

  9
$DIMLTEX1
  6

  9
$DIMLTEX2
  6

  9
$DIMTXTDIRECTION
 70
     0
  9
$LUNITS
 70
     2
  9
$LUPREC
 70
     4
  9
$SKETCHINC
 40
0.1
  9
$FILLETRAD
 40
5.0
  9
$AUNITS
 70
     0
  9
$AUPREC
 70
     0
  9
$MENU
  1
.
  9
$ELEVATION
 40
0.0
  9
$PELEVATION
 40
0.0
  9
$THICKNESS
 40
0.0
  9
$LIMCHECK
 70
     0
  9
$CHAMFERA
 40
0.0
  9
$CHAMFERB
 40
0.0
  9
$CHAMFERC
 40
0.0
  9
$CHAMFERD
 40
0.0
  9
$SKPOLY
 70
     0
  9
$TDCREATE
 40
2458593.639421296
  9
$TDUCREATE
 40
2458593.347754630
  9
$TDUPDATE
 40
2458595.476643519
  9
$TDUUPDATE
 40
2458595.184976852
  9
$TDINDWG
 40
0.0731597222
  9
$TDUSRTIMER
 40
0.0731597222
  9
$USRTIMER
 70
     1
  9
$ANGBASE
 50
0.0
  9
$ANGDIR
 70
     0
  9
$PDMODE
 70
     0
  9
$PDSIZE
 40
0.0
  9
$PLINEWID
 40
0.0
  9
$SPLFRAME
 70
     1
  9
$SPLINETYPE
 70
     6
  9
$SPLINESEGS
 70
     8
  9
$HANDSEED
  5
5C6
  9
$SURFTAB1
 70
     6
  9
$SURFTAB2
 70
     6
  9
$SURFTYPE
 70
     6
  9
$SURFU
 70
     6
  9
$SURFV
 70
     6
  9
$UCSBASE
  2

  9
$UCSNAME
  2

  9
$UCSORG
 10
0.0
 20
0.0
 30
0.0
  9
$UCSXDIR
 10
1.0
 20
0.0
 30
0.0
  9
$UCSYDIR
 10
0.0
 20
1.0
 30
0.0
  9
$UCSORTHOREF
  2

  9
$UCSORTHOVIEW
 70
     0
  9
$UCSORGTOP
 10
0.0
 20
0.0
 30
0.0
  9
$UCSORGBOTTOM
 10
0.0
 20
0.0
 30
0.0
  9
$UCSORGLEFT
 10
0.0
 20
0.0
 30
0.0
  9
$UCSORGRIGHT
 10
0.0
 20
0.0
 30
0.0
  9
$UCSORGFRONT
 10
0.0
 20
0.0
 30
0.0
  9
$UCSORGBACK
 10
0.0
 20
0.0
 30
0.0
  9
$PUCSBASE
  2

  9
$PUCSNAME
  2

  9
$PUCSORG
 10
0.0
 20
0.0
 30
0.0
  9
$PUCSXDIR
 10
1.0
 20
0.0
 30
0.0
  9
$PUCSYDIR
 10
0.0
 20
1.0
 30
0.0
  9
$PUCSORTHOREF
  2

  9
$PUCSORTHOVIEW
 70
     0
  9
$PUCSORGTOP
 10
0.0
 20
0.0
 30
0.0
  9
$PUCSORGBOTTOM
 10
0.0
 20
0.0
 30
0.0
  9
$PUCSORGLEFT
 10
0.0
 20
0.0
 30
0.0
  9
$PUCSORGRIGHT
 10
0.0
 20
0.0
 30
0.0
  9
$PUCSORGFRONT
 10
0.0
 20
0.0
 30
0.0
  9
$PUCSORGBACK
 10
0.0
 20
0.0
 30
0.0
  9
$USERI1
 70
     0
  9
$USERI2
 70
     0
  9
$USERI3
 70
     0
  9
$USERI4
 70
     0
  9
$USERI5
 70
     0
  9
$USERR1
 40
0.0
  9
$USERR2
 40
0.0
  9
$USERR3
 40
0.0
  9
$USERR4
 40
0.0
  9
$USERR5
 40
0.0
  9
$WORLDVIEW
 70
     1
  9
$SHADEDGE
 70
     3
  9
$SHADEDIF
 70
    70
  9
$TILEMODE
 70
     1
  9
$MAXACTVP
 70
    64
  9
$PINSBASE
 10
0.0
 20
0.0
 30
0.0
  9
$PLIMCHECK
 70
     0
  9
$PEXTMIN
 10
1.000000000000000E+20
 20
1.000000000000000E+20
 30
1.000000000000000E+20
  9
$PEXTMAX
 10
-1.000000000000000E+20
 20
-1.000000000000000E+20
 30
-1.000000000000000E+20
  9
$PLIMMIN
 10
0.0
 20
0.0
  9
$PLIMMAX
 10
12.0
 20
9.0
  9
$UNITMODE
 70
     0
  9
$VISRETAIN
 70
     1
  9
$PLINEGEN
 70
     0
  9
$PSLTSCALE
 70
     1
  9
$TREEDEPTH
 70
  3020
  9
$CMLSTYLE
  2
Standard
  9
$CMLJUST
 70
     0
  9
$CMLSCALE
 40
1.0
  9
$PROXYGRAPHICS
 70
     1
  9
$MEASUREMENT
 70
     0
  9
$CELWEIGHT
370
    -1
  9
$ENDCAPS
280
     0
  9
$JOINSTYLE
280
     0
  9
$LWDISPLAY
290
     0
  9
$INSUNITS
 70
     0
  9
$HYPERLINKBASE
  1

  9
$STYLESHEET
  1

  9
$XEDIT
290
     1
  9
$CEPSNTYPE
380
     0
  9
$PSTYLEMODE
290
     1
  9
$FINGERPRINTGUID
  2
{393284AF-E2B3-3D4A-8519-36BA33EAC46A}
  9
$VERSIONGUID
  2
{802338ED-D1E0-F246-9FF6-032F076F36C4}
  9
$EXTNAMES
290
     1
  9
$PSVPSCALE
 40
0.0
  9
$OLESTARTUP
290
     0
  9
$SORTENTS
280
   127
  9
$INDEXCTL
280
     0
  9
$HIDETEXT
280
     0
  9
$XCLIPFRAME
280
     2
  9
$HALOGAP
280
     0
  9
$OBSCOLOR
 70
   257
  9
$OBSLTYPE
280
     0
  9
$INTERSECTIONDISPLAY
280
     0
  9
$INTERSECTIONCOLOR
 70
   257
  9
$DIMASSOC
280
     1
  9
$PROJECTNAME
  1

  9
$CAMERADISPLAY
290
     0
  9
$LENSLENGTH
 40
50.0
  9
$CAMERAHEIGHT
 40
0.0
  9
$STEPSPERSEC
 40
2.0
  9
$STEPSIZE
 40
6.0
  9
$3DDWFPREC
 40
2.0
  9
$PSOLWIDTH
 40
0.25
  9
$PSOLHEIGHT
 40
4.0
  9
$LOFTANG1
 40
1.570796326794896
  9
$LOFTANG2
 40
1.570796326794896
  9
$LOFTMAG1
 40
0.0
  9
$LOFTMAG2
 40
0.0
  9
$LOFTPARAM
 70
     7
  9
$LOFTNORMALS
280
     1
  9
$LATITUDE
 40
37.795
  9
$LONGITUDE
 40
-122.394
  9
$NORTHDIRECTION
 40
0.0
  9
$TIMEZONE
 70
 -8000
  9
$LIGHTGLYPHDISPLAY
280
     1
  9
$TILEMODELIGHTSYNCH
280
     1
  9
$CMATERIAL
347
11
  9
$SOLIDHIST
280
     0
  9
$SHOWHIST
280
     1
  9
$DWFFRAME
280
     2
  9
$DGNFRAME
280
     0
  9
$REALWORLDSCALE
290
     1
  9
$INTERFERECOLOR
 62
     1
  9
$INTERFEREOBJVS
345
33
  9
$INTERFEREVPVS
346
30
  9
$CSHADOW
280
     0
  9
$SHADOWPLANELOCATION
 40
0.0
  0
ENDSEC
  0
SECTION
  2
CLASSES
  0
CLASS
  1
ACDBDICTIONARYWDFLT
  2
AcDbDictionaryWithDefault
  3
ObjectDBX Classes
 90
        0
 91
        1
280
     0
281
     0
  0
CLASS
  1
MATERIAL
  2
AcDbMaterial
  3
ObjectDBX Classes
 90
     1153
 91
        3
280
     0
281
     0
  0
CLASS
  1
VISUALSTYLE
  2
AcDbVisualStyle
  3
ObjectDBX Classes
 90
     4095
 91
       24
280
     0
281
     0
  0
CLASS
  1
SCALE
  2
AcDbScale
  3
ObjectDBX Classes
 90
     1153
 91
       17
280
     0
281
     0
  0
CLASS
  1
TABLESTYLE
  2
AcDbTableStyle
  3
ObjectDBX Classes
 90
     4095
 91
        1
280
     0
281
     0
  0
CLASS
  1
MLEADERSTYLE
  2
AcDbMLeaderStyle
  3
ACDB_MLEADERSTYLE_CLASS
 90
     4095
 91
        1
280
     0
281
     0
  0
CLASS
  1
ACDBSECTIONVIEWSTYLE
  2
AcDbSectionViewStyle
  3
ObjectDBX Classes
 90
     1025
 91
        1
280
     0
281
     0
  0
CLASS
  1
ACDBDETAILVIEWSTYLE
  2
AcDbDetailViewStyle
  3
ObjectDBX Classes
 90
     1025
 91
        1
280
     0
281
     0
  0
CLASS
  1
SORTENTSTABLE
  2
AcDbSortentsTable
  3
ObjectDBX Classes
 90
        0
 91
        1
280
     0
281
     0
  0
CLASS
  1
DICTIONARYVAR
  2
AcDbDictionaryVar
  3
ObjectDBX Classes
 90
        0
 91
        9
280
     0
281
     0
  0
CLASS
  1
CELLSTYLEMAP
  2
AcDbCellStyleMap
  3
ObjectDBX Classes
 90
     1152
 91
        2
280
     0
281
     0
  0
ENDSEC
  0
SECTION
  2
TABLES
  0
TABLE
  2
VPORT
  5
8
330
0
100
AcDbSymbolTable
 70
     1
1001
ACAD
1000
DbSaveVer
1071
      105
  0
VPORT
  5
74
330
8
100
AcDbSymbolTableRecord
100
AcDbViewportTableRecord
  2
*Active
 70
     0
 10
0.0
 20
0.0
 11
1.0
 21
1.0
 12
133.1684416316264
 22
53.59111826912243
 13
0.0
 23
0.0
 14
1.0
 24
1.0
 15
0.0
 25
0.0
 16
0.0
 26
0.0
 36
1.0
 17
0.0
 27
0.0
 37
0.0
 40
337.111011255549
 41
1.155797101449275
 42
50.0
 43
0.0
 44
0.0
 50
0.0
 51
0.0
 71
     0
 72
   100
 73
     1
 74
     0
 75
     0
 76
     0
 77
     0
 78
     0
281
     0
 65
     1
110
0.0
120
0.0
130
0.0
111
1.0
121
0.0
131
0.0
112
0.0
122
1.0
132
0.0
 79
     0
146
0.0
348
2F
 60
     3
 61
     5
292
     1
282
     1
141
0.0
142
0.0
 63
   250
421
  3355443
1001
ACAD_NAV_VCDISPLAY
1070
     3
  0
ENDTAB
  0
TABLE
  2
LTYPE
  5
5
330
0
100
AcDbSymbolTable
 70
     2
  0
LTYPE
  5
5A
330
5
100
AcDbSymbolTableRecord
100
AcDbLinetypeTableRecord
  2
ByBlock
 70
     0
  3

 72
    65
 73
     0
 40
0.0
  0
LTYPE
  5
5B
330
5
100
AcDbSymbolTableRecord
100
AcDbLinetypeTableRecord
  2
ByLayer
 70
     0
  3

 72
    65
 73
     0
 40
0.0
  0
LTYPE
  5
5C
330
5
100
AcDbSymbolTableRecord
100
AcDbLinetypeTableRecord
  2
Continuous
 70
     0
  3
Solid line
 72
    65
 73
     0
 40
0.0
  0
ENDTAB
  0
TABLE
  2
LAYER
  5
2
102
{ACAD_XDICTIONARY
360
2CD
102
}
330
0
100
AcDbSymbolTable
 70
     1
  0
LAYER
  5
54
102
{ACAD_XDICTIONARY
360
597
102
}
330
2
100
AcDbSymbolTableRecord
100
AcDbLayerTableRecord
  2
0
 70
     0
 62
     7
  6
Continuous
370
    -3
390
F
347
21
348
0
  0
ENDTAB
  0
TABLE
  2
STYLE
  5
3
330
0
100
AcDbSymbolTable
 70
     2
  0
STYLE
  5
55
330
3
100
AcDbSymbolTableRecord
100
AcDbTextStyleTableRecord
  2
Standard
 70
     0
 40
0.0
 41
1.0
 50
0.0
 71
     0
 42
0.2
  3
txt
  4

  0
STYLE
  5
59
330
3
100
AcDbSymbolTableRecord
100
AcDbTextStyleTableRecord
  2
Annotative
 70
     0
 40
0.0
 41
1.0
 50
0.0
 71
     0
 42
0.2
  3
txt
  4

1001
AcadAnnotative
1000
AnnotativeData
1002
{
1070
     1
1070
     1
1002
}
  0
ENDTAB
  0
TABLE
  2
VIEW
  5
6
330
0
100
AcDbSymbolTable
 70
     0
  0
ENDTAB
  0
TABLE
  2
UCS
  5
7
330
0
100
AcDbSymbolTable
 70
     0
  0
ENDTAB
  0
TABLE
  2
APPID
  5
9
330
0
100
AcDbSymbolTable
 70
     4
  0
APPID
  5
56
330
9
100
AcDbSymbolTableRecord
100
AcDbRegAppTableRecord
  2
ACAD
 70
     0
  0
APPID
  5
5D
330
9
100
AcDbSymbolTableRecord
100
AcDbRegAppTableRecord
  2
AcadAnnotative
 70
     0
  0
APPID
  5
2C2
330
9
100
AcDbSymbolTableRecord
100
AcDbRegAppTableRecord
  2
ACAD_NAV_VCDISPLAY
 70
     0
  0
APPID
  5
5AE
330
9
100
AcDbSymbolTableRecord
100
AcDbRegAppTableRecord
  2
ACAD_EXEMPT_FROM_CAD_STANDARDS
 70
     0
  0
ENDTAB
  0
TABLE
  2
DIMSTYLE
  5
A
330
0
100
AcDbSymbolTable
 70
     3
100
AcDbDimStyleTable
 71
     1
340
57
  0
DIMSTYLE
105
57
330
A
100
AcDbSymbolTableRecord
100
AcDbDimStyleTableRecord
  2
Standard
 70
     0
340
55
  0
DIMSTYLE
105
58
330
A
100
AcDbSymbolTableRecord
100
AcDbDimStyleTableRecord
  2
Annotative
 70
     0
340
55
1001
AcadAnnotative
1000
AnnotativeData
1002
{
1070
     1
1070
     1
1002
}
  0
ENDTAB
  0
TABLE
  2
BLOCK_RECORD
  5
1
330
0
100
AcDbSymbolTable
 70
     1
  0
BLOCK_RECORD
  5
6F
102
{ACAD_XDICTIONARY
360
188
102
}
330
1
100
AcDbSymbolTableRecord
100
AcDbBlockTableRecord
  2
*Model_Space
340
72
 70
     0
280
     1
281
     0
  0
BLOCK_RECORD
  5
6B
330
1
100
AcDbSymbolTableRecord
100
AcDbBlockTableRecord
  2
*Paper_Space
340
6E
 70
     0
280
     1
281
     0
  0
ENDTAB
  0
ENDSEC
  0
SECTION
  2
BLOCKS
  0
BLOCK
  5
70
330
6F
100
AcDbEntity
  8
0
100
AcDbBlockBegin
  2
*Model_Space
 70
     0
 10
0.0
 20
0.0
 30
0.0
  3
*Model_Space
  1

  0
ENDBLK
  5
71
330
6F
100
AcDbEntity
  8
0
100
AcDbBlockEnd
  0
BLOCK
  5
6C
330
6B
100
AcDbEntity
 67
     1
  8
0
100
AcDbBlockBegin
  2
*Paper_Space
 70
     0
 10
0.0
 20
0.0
 30
0.0
  3
*Paper_Space
  1

  0
ENDBLK
  5
6D
330
6B
100
AcDbEntity
 67
     1
  8
0
100
AcDbBlockEnd
  0
ENDSEC
  0
SECTION
  2
ENTITIES
  0
LINE
  5
121
330
6F
100
AcDbEntity
  8
0
 62
     0
100
AcDbLine
 10
189.357775
 20
35.65534999999999
 30
0.0
 11
191.7267500000008
 21
35.65534999999999
 31
0.0
  0
LINE
  5
123
330
6F
100
AcDbEntity
  8
0
 62
     0
100
AcDbLine
 10
191.7501546678517
 20
21.65594999999999
 30
0.0
 11
189.357775
 21
21.65594999999999
 31
0.0
  0
LINE
  5
124
330
6F
100
AcDbEntity
  8
0
 62
     0
100
AcDbLine
 10
188.357775
 20
22.65594999999999
 30
0.0
 11
188.357775
 21
34.65534999999999
 31
0.0
  0
LINE
  5
126
330
6F
100
AcDbEntity
  8
0
 62
     0
100
AcDbLine
 10
223.787775
 20
34.65534999999999
 30
0.0
 11
223.787775
 21
22.65594999999999
 31
0.0
  0
LINE
  5
151
330
6F
100
AcDbEntity
  8
0
 62
     0
100
AcDbLine
 10
207.407
 20
54.7053
 30
0.0
 11
221.407
 21
54.7053
 31
0.0
  0
LINE
  5
155
330
6F
100
AcDbEntity
  8
0
 62
     0
100
AcDbLine
 10
3.61965
 20
73.75530000000002
 30
0.0
 11
15.6192
 21
73.75530000000002
 31
0.0
  0
LINE
  5
156
330
6F
100
AcDbEntity
  8
0
 62
     0
100
AcDbLine
 10
16.6192
 20
72.7553
 30
0.0
 11
16.6192
 21
60.756
 31
0.0
  0
LINE
  5
157
330
6F
100
AcDbEntity
  8
0
 62
     0
100
AcDbLine
 10
15.6192
 20
59.756
 30
0.0
 11
3.61965
 21
59.756
 31
0.0
  0
LINE
  5
158
330
6F
100
AcDbEntity
  8
0
 62
     0
100
AcDbLine
 10
2.61965
 20
60.756
 30
0.0
 11
2.61965
 21
72.7553
 31
0.0
  0
ARC
  5
187
330
6F
100
AcDbEntity
  8
0
 62
     0
100
AcDbCircle
 10
15.6192
 20
72.7553
 30
0.0
 40
1.0
100
AcDbArc
 50
0.0
 51
90.0
  0
ARC
  5
18A
330
6F
100
AcDbEntity
  8
0
 62
     0
100
AcDbCircle
 10
15.6192
 20
60.756
 30
0.0
 40
1.0
100
AcDbArc
 50
270.0
 51
0.0
  0
ARC
  5
18B
330
6F
100
AcDbEntity
  8
0
 62
     0
100
AcDbCircle
 10
3.61965
 20
60.756
 30
0.0
 40
1.0
100
AcDbArc
 50
180.0
 51
270.0
  0
ARC
  5
18C
330
6F
100
AcDbEntity
  8
0
 62
     0
100
AcDbCircle
 10
3.61965
 20
72.7553
 30
0.0
 40
1.0
100
AcDbArc
 50
90.0
 51
180.0
  0
LINE
  5
18D
330
6F
100
AcDbEntity
  8
0
 62
     0
100
AcDbLine
 10
22.6697
 20
73.75530000000002
 30
0.0
 11
34.66925
 21
73.75530000000002
 31
0.0
  0
ARC
  5
18E
330
6F
100
AcDbEntity
  8
0
 62
     0
100
AcDbCircle
 10
22.6697
 20
72.7553
 30
0.0
 40
1.0
100
AcDbArc
 50
90.0
 51
180.0
  0
LINE
  5
18F
330
6F
100
AcDbEntity
  8
0
 62
     0
100
AcDbLine
 10
35.66925
 20
72.7553
 30
0.0
 11
35.66925
 21
60.756
 31
0.0
  0
ARC
  5
190
330
6F
100
AcDbEntity
  8
0
 62
     0
100
AcDbCircle
 10
34.66925
 20
72.7553
 30
0.0
 40
1.0
100
AcDbArc
 50
0.0
 51
90.0
  0
LINE
  5
191
330
6F
100
AcDbEntity
  8
0
 62
     0
100
AcDbLine
 10
34.66925
 20
59.756
 30
0.0
 11
22.6697
 21
59.756
 31
0.0
  0
ARC
  5
192
330
6F
100
AcDbEntity
  8
0
 62
     0
100
AcDbCircle
 10
34.66925
 20
60.756
 30
0.0
 40
1.0
100
AcDbArc
 50
270.0
 51
0.0
  0
LINE
  5
193
330
6F
100
AcDbEntity
  8
0
 62
     0
100
AcDbLine
 10
21.6697
 20
60.756
 30
0.0
 11
21.6697
 21
72.7553
 31
0.0
  0
ARC
  5
194
330
6F
100
AcDbEntity
  8
0
 62
     0
100
AcDbCircle
 10
22.6697
 20
60.756
 30
0.0
 40
1.0
100
AcDbArc
 50
180.0
 51
270.0
  0
LINE
  5
195
330
6F
100
AcDbEntity
  8
0
 62
     0
100
AcDbLine
 10
41.7197
 20
73.75530000000002
 30
0.0
 11
53.71925
 21
73.75530000000002
 31
0.0
  0
ARC
  5
196
330
6F
100
AcDbEntity
  8
0
 62
     0
100
AcDbCircle
 10
41.7197
 20
72.7553
 30
0.0
 40
1.0
100
AcDbArc
 50
90.0
 51
180.0
  0
LINE
  5
197
330
6F
100
AcDbEntity
  8
0
 62
     0
100
AcDbLine
 10
54.71925
 20
72.7553
 30
0.0
 11
54.71925
 21
60.756
 31
0.0
  0
ARC
  5
198
330
6F
100
AcDbEntity
  8
0
 62
     0
100
AcDbCircle
 10
53.71925
 20
72.7553
 30
0.0
 40
1.0
100
AcDbArc
 50
0.0
 51
90.0
  0
LINE
  5
199
330
6F
100
AcDbEntity
  8
0
 62
     0
100
AcDbLine
 10
53.71925
 20
59.756
 30
0.0
 11
41.7197
 21
59.756
 31
0.0
  0
ARC
  5
19A
330
6F
100
AcDbEntity
  8
0
 62
     0
100
AcDbCircle
 10
53.71925
 20
60.756
 30
0.0
 40
1.0
100
AcDbArc
 50
270.0
 51
0.0
  0
LINE
  5
19B
330
6F
100
AcDbEntity
  8
0
 62
     0
100
AcDbLine
 10
40.7197
 20
60.756
 30
0.0
 11
40.7197
 21
72.7553
 31
0.0
  0
ARC
  5
19C
330
6F
100
AcDbEntity
  8
0
 62
     0
100
AcDbCircle
 10
41.7197
 20
60.756
 30
0.0
 40
1.0
100
AcDbArc
 50
180.0
 51
270.0
  0
LINE
  5
19D
330
6F
100
AcDbEntity
  8
0
 62
     0
100
AcDbLine
 10
60.7697
 20
73.75530000000002
 30
0.0
 11
72.76925
 21
73.75530000000002
 31
0.0
  0
ARC
  5
19E
330
6F
100
AcDbEntity
  8
0
 62
     0
100
AcDbCircle
 10
60.7697
 20
72.7553
 30
0.0
 40
1.0
100
AcDbArc
 50
90.0
 51
180.0
  0
LINE
  5
19F
330
6F
100
AcDbEntity
  8
0
 62
     0
100
AcDbLine
 10
73.76924999999999
 20
72.7553
 30
0.0
 11
73.76924999999999
 21
60.756
 31
0.0
  0
ARC
  5
1A0
330
6F
100
AcDbEntity
  8
0
 62
     0
100
AcDbCircle
 10
72.76925
 20
72.7553
 30
0.0
 40
1.0
100
AcDbArc
 50
0.0
 51
90.0
  0
LINE
  5
1A1
330
6F
100
AcDbEntity
  8
0
 62
     0
100
AcDbLine
 10
72.76925
 20
59.756
 30
0.0
 11
60.7697
 21
59.756
 31
0.0
  0
ARC
  5
1A2
330
6F
100
AcDbEntity
  8
0
 62
     0
100
AcDbCircle
 10
72.76925
 20
60.756
 30
0.0
 40
1.0
100
AcDbArc
 50
270.0
 51
0.0
  0
LINE
  5
1A3
330
6F
100
AcDbEntity
  8
0
 62
     0
100
AcDbLine
 10
59.7697
 20
60.756
 30
0.0
 11
59.7697
 21
72.7553
 31
0.0
  0
ARC
  5
1A4
330
6F
100
AcDbEntity
  8
0
 62
     0
100
AcDbCircle
 10
60.7697
 20
60.756
 30
0.0
 40
1.0
100
AcDbArc
 50
180.0
 51
270.0
  0
LINE
  5
1A5
330
6F
100
AcDbEntity
  8
0
 62
     0
100
AcDbLine
 10
79.81970000000003
 20
73.75530000000002
 30
0.0
 11
91.81924999999999
 21
73.75530000000002
 31
0.0
  0
ARC
  5
1A6
330
6F
100
AcDbEntity
  8
0
 62
     0
100
AcDbCircle
 10
79.81970000000003
 20
72.7553
 30
0.0
 40
1.0
100
AcDbArc
 50
90.0
 51
180.0
  0
LINE
  5
1A7
330
6F
100
AcDbEntity
  8
0
 62
     0
100
AcDbLine
 10
92.81924999999999
 20
72.7553
 30
0.0
 11
92.81924999999999
 21
60.756
 31
0.0
  0
ARC
  5
1A8
330
6F
100
AcDbEntity
  8
0
 62
     0
100
AcDbCircle
 10
91.81924999999999
 20
72.7553
 30
0.0
 40
1.0
100
AcDbArc
 50
0.0
 51
90.0
  0
LINE
  5
1A9
330
6F
100
AcDbEntity
  8
0
 62
     0
100
AcDbLine
 10
91.81924999999999
 20
59.756
 30
0.0
 11
79.81970000000003
 21
59.756
 31
0.0
  0
ARC
  5
1AA
330
6F
100
AcDbEntity
  8
0
 62
     0
100
AcDbCircle
 10
91.81924999999999
 20
60.756
 30
0.0
 40
1.0
100
AcDbArc
 50
270.0
 51
0.0
  0
LINE
  5
1AB
330
6F
100
AcDbEntity
  8
0
 62
     0
100
AcDbLine
 10
78.81970000000002
 20
60.756
 30
0.0
 11
78.81970000000002
 21
72.7553
 31
0.0
  0
ARC
  5
1AC
330
6F
100
AcDbEntity
  8
0
 62
     0
100
AcDbCircle
 10
79.81970000000003
 20
60.756
 30
0.0
 40
1.0
100
AcDbArc
 50
180.0
 51
270.0
  0
LINE
  5
1AD
330
6F
100
AcDbEntity
  8
0
 62
     0
100
AcDbLine
 10
98.86830000000001
 20
73.75530000000002
 30
0.0
 11
110.86785
 21
73.75530000000002
 31
0.0
  0
ARC
  5
1AE
330
6F
100
AcDbEntity
  8
0
 62
     0
100
AcDbCircle
 10
98.86830000000001
 20
72.7553
 30
0.0
 40
1.0
100
AcDbArc
 50
90.0
 51
180.0
  0
LINE
  5
1AF
330
6F
100
AcDbEntity
  8
0
 62
     0
100
AcDbLine
 10
111.86785
 20
72.7553
 30
0.0
 11
111.86785
 21
60.756
 31
0.0
  0
ARC
  5
1B0
330
6F
100
AcDbEntity
  8
0
 62
     0
100
AcDbCircle
 10
110.86785
 20
72.7553
 30
0.0
 40
1.0
100
AcDbArc
 50
0.0
 51
90.0
  0
LINE
  5
1B1
330
6F
100
AcDbEntity
  8
0
 62
     0
100
AcDbLine
 10
110.86785
 20
59.756
 30
0.0
 11
98.86830000000001
 21
59.756
 31
0.0
  0
ARC
  5
1B2
330
6F
100
AcDbEntity
  8
0
 62
     0
100
AcDbCircle
 10
110.86785
 20
60.756
 30
0.0
 40
1.0
100
AcDbArc
 50
270.0
 51
0.0
  0
LINE
  5
1B3
330
6F
100
AcDbEntity
  8
0
 62
     0
100
AcDbLine
 10
97.86830000000001
 20
60.756
 30
0.0
 11
97.86830000000001
 21
72.7553
 31
0.0
  0
ARC
  5
1B4
330
6F
100
AcDbEntity
  8
0
 62
     0
100
AcDbCircle
 10
98.86830000000001
 20
60.756
 30
0.0
 40
1.0
100
AcDbArc
 50
180.0
 51
270.0
  0
LINE
  5
1B5
330
6F
100
AcDbEntity
  8
0
 62
     0
100
AcDbLine
 10
117.918
 20
73.75530000000002
 30
0.0
 11
129.91755
 21
73.75530000000002
 31
0.0
  0
ARC
  5
1B6
330
6F
100
AcDbEntity
  8
0
 62
     0
100
AcDbCircle
 10
117.918
 20
72.7553
 30
0.0
 40
1.0
100
AcDbArc
 50
90.0
 51
180.0
  0
LINE
  5
1B7
330
6F
100
AcDbEntity
  8
0
 62
     0
100
AcDbLine
 10
130.91755
 20
72.7553
 30
0.0
 11
130.91755
 21
60.756
 31
0.0
  0
ARC
  5
1B8
330
6F
100
AcDbEntity
  8
0
 62
     0
100
AcDbCircle
 10
129.91755
 20
72.7553
 30
0.0
 40
1.0
100
AcDbArc
 50
0.0
 51
90.0
  0
LINE
  5
1B9
330
6F
100
AcDbEntity
  8
0
 62
     0
100
AcDbLine
 10
129.91755
 20
59.756
 30
0.0
 11
117.918
 21
59.756
 31
0.0
  0
ARC
  5
1BA
330
6F
100
AcDbEntity
  8
0
 62
     0
100
AcDbCircle
 10
129.91755
 20
60.756
 30
0.0
 40
1.0
100
AcDbArc
 50
270.0
 51
0.0
  0
LINE
  5
1BB
330
6F
100
AcDbEntity
  8
0
 62
     0
100
AcDbLine
 10
116.918
 20
60.756
 30
0.0
 11
116.918
 21
72.7553
 31
0.0
  0
ARC
  5
1BC
330
6F
100
AcDbEntity
  8
0
 62
     0
100
AcDbCircle
 10
117.918
 20
60.756
 30
0.0
 40
1.0
100
AcDbArc
 50
180.0
 51
270.0
  0
LINE
  5
1BD
330
6F
100
AcDbEntity
  8
0
 62
     0
100
AcDbLine
 10
136.97
 20
73.75530000000002
 30
0.0
 11
148.96955
 21
73.75530000000002
 31
0.0
  0
ARC
  5
1BE
330
6F
100
AcDbEntity
  8
0
 62
     0
100
AcDbCircle
 10
136.97
 20
72.7553
 30
0.0
 40
1.0
100
AcDbArc
 50
90.0
 51
180.0
  0
LINE
  5
1BF
330
6F
100
AcDbEntity
  8
0
 62
     0
100
AcDbLine
 10
149.96955
 20
72.7553
 30
0.0
 11
149.96955
 21
60.756
 31
0.0
  0
ARC
  5
1C0
330
6F
100
AcDbEntity
  8
0
 62
     0
100
AcDbCircle
 10
148.96955
 20
72.7553
 30
0.0
 40
1.0
100
AcDbArc
 50
0.0
 51
90.0
  0
LINE
  5
1C1
330
6F
100
AcDbEntity
  8
0
 62
     0
100
AcDbLine
 10
148.96955
 20
59.756
 30
0.0
 11
136.97
 21
59.756
 31
0.0
  0
ARC
  5
1C2
330
6F
100
AcDbEntity
  8
0
 62
     0
100
AcDbCircle
 10
148.96955
 20
60.756
 30
0.0
 40
1.0
100
AcDbArc
 50
270.0
 51
0.0
  0
LINE
  5
1C3
330
6F
100
AcDbEntity
  8
0
 62
     0
100
AcDbLine
 10
135.97
 20
60.756
 30
0.0
 11
135.97
 21
72.7553
 31
0.0
  0
ARC
  5
1C4
330
6F
100
AcDbEntity
  8
0
 62
     0
100
AcDbCircle
 10
136.97
 20
60.756
 30
0.0
 40
1.0
100
AcDbArc
 50
180.0
 51
270.0
  0
LINE
  5
1C5
330
6F
100
AcDbEntity
  8
0
 62
     0
100
AcDbLine
 10
156.02
 20
73.75530000000002
 30
0.0
 11
168.01955
 21
73.75530000000002
 31
0.0
  0
ARC
  5
1C6
330
6F
100
AcDbEntity
  8
0
 62
     0
100
AcDbCircle
 10
156.02
 20
72.7553
 30
0.0
 40
1.0
100
AcDbArc
 50
90.0
 51
180.0
  0
LINE
  5
1C7
330
6F
100
AcDbEntity
  8
0
 62
     0
100
AcDbLine
 10
169.01955
 20
72.7553
 30
0.0
 11
169.01955
 21
60.756
 31
0.0
  0
ARC
  5
1C8
330
6F
100
AcDbEntity
  8
0
 62
     0
100
AcDbCircle
 10
168.01955
 20
72.7553
 30
0.0
 40
1.0
100
AcDbArc
 50
0.0
 51
90.0
  0
LINE
  5
1C9
330
6F
100
AcDbEntity
  8
0
 62
     0
100
AcDbLine
 10
168.01955
 20
59.756
 30
0.0
 11
156.02
 21
59.756
 31
0.0
  0
ARC
  5
1CA
330
6F
100
AcDbEntity
  8
0
 62
     0
100
AcDbCircle
 10
168.01955
 20
60.756
 30
0.0
 40
1.0
100
AcDbArc
 50
270.0
 51
0.0
  0
LINE
  5
1CB
330
6F
100
AcDbEntity
  8
0
 62
     0
100
AcDbLine
 10
155.02
 20
60.756
 30
0.0
 11
155.02
 21
72.7553
 31
0.0
  0
ARC
  5
1CC
330
6F
100
AcDbEntity
  8
0
 62
     0
100
AcDbCircle
 10
156.02
 20
60.756
 30
0.0
 40
1.0
100
AcDbArc
 50
180.0
 51
270.0
  0
LINE
  5
1CD
330
6F
100
AcDbEntity
  8
0
 62
     0
100
AcDbLine
 10
175.07
 20
73.75530000000002
 30
0.0
 11
187.06955
 21
73.75530000000002
 31
0.0
  0
ARC
  5
1CE
330
6F
100
AcDbEntity
  8
0
 62
     0
100
AcDbCircle
 10
175.07
 20
72.7553
 30
0.0
 40
1.0
100
AcDbArc
 50
90.0
 51
180.0
  0
LINE
  5
1CF
330
6F
100
AcDbEntity
  8
0
 62
     0
100
AcDbLine
 10
188.06955
 20
72.7553
 30
0.0
 11
188.06955
 21
60.756
 31
0.0
  0
ARC
  5
1D0
330
6F
100
AcDbEntity
  8
0
 62
     0
100
AcDbCircle
 10
187.06955
 20
72.7553
 30
0.0
 40
1.0
100
AcDbArc
 50
0.0
 51
90.0
  0
LINE
  5
1D1
330
6F
100
AcDbEntity
  8
0
 62
     0
100
AcDbLine
 10
187.06955
 20
59.756
 30
0.0
 11
175.07
 21
59.756
 31
0.0
  0
ARC
  5
1D2
330
6F
100
AcDbEntity
  8
0
 62
     0
100
AcDbCircle
 10
187.06955
 20
60.756
 30
0.0
 40
1.0
100
AcDbArc
 50
270.0
 51
0.0
  0
LINE
  5
1D3
330
6F
100
AcDbEntity
  8
0
 62
     0
100
AcDbLine
 10
174.07
 20
60.756
 30
0.0
 11
174.07
 21
72.7553
 31
0.0
  0
ARC
  5
1D4
330
6F
100
AcDbEntity
  8
0
 62
     0
100
AcDbCircle
 10
175.07
 20
60.756
 30
0.0
 40
1.0
100
AcDbArc
 50
180.0
 51
270.0
  0
LINE
  5
1D5
330
6F
100
AcDbEntity
  8
0
 62
     0
100
AcDbLine
 10
194.12
 20
73.75530000000002
 30
0.0
 11
206.11955
 21
73.75530000000002
 31
0.0
  0
ARC
  5
1D6
330
6F
100
AcDbEntity
  8
0
 62
     0
100
AcDbCircle
 10
194.12
 20
72.7553
 30
0.0
 40
1.0
100
AcDbArc
 50
90.0
 51
180.0
  0
LINE
  5
1D7
330
6F
100
AcDbEntity
  8
0
 62
     0
100
AcDbLine
 10
207.11955
 20
72.7553
 30
0.0
 11
207.11955
 21
60.756
 31
0.0
  0
ARC
  5
1D8
330
6F
100
AcDbEntity
  8
0
 62
     0
100
AcDbCircle
 10
206.11955
 20
72.7553
 30
0.0
 40
1.0
100
AcDbArc
 50
0.0
 51
90.0
  0
LINE
  5
1D9
330
6F
100
AcDbEntity
  8
0
 62
     0
100
AcDbLine
 10
206.11955
 20
59.756
 30
0.0
 11
194.12
 21
59.756
 31
0.0
  0
ARC
  5
1DA
330
6F
100
AcDbEntity
  8
0
 62
     0
100
AcDbCircle
 10
206.11955
 20
60.756
 30
0.0
 40
1.0
100
AcDbArc
 50
270.0
 51
0.0
  0
LINE
  5
1DB
330
6F
100
AcDbEntity
  8
0
 62
     0
100
AcDbLine
 10
193.12
 20
60.756
 30
0.0
 11
193.12
 21
72.7553
 31
0.0
  0
ARC
  5
1DC
330
6F
100
AcDbEntity
  8
0
 62
     0
100
AcDbCircle
 10
194.12
 20
60.756
 30
0.0
 40
1.0
100
AcDbArc
 50
180.0
 51
270.0
  0
LINE
  5
1DD
330
6F
100
AcDbEntity
  8
0
 62
     0
100
AcDbLine
 10
213.17
 20
73.75530000000002
 30
0.0
 11
225.16955
 21
73.75530000000002
 31
0.0
  0
ARC
  5
1DE
330
6F
100
AcDbEntity
  8
0
 62
     0
100
AcDbCircle
 10
213.17
 20
72.7553
 30
0.0
 40
1.0
100
AcDbArc
 50
90.0
 51
180.0
  0
LINE
  5
1DF
330
6F
100
AcDbEntity
  8
0
 62
     0
100
AcDbLine
 10
226.16955
 20
72.7553
 30
0.0
 11
226.16955
 21
60.756
 31
0.0
  0
ARC
  5
1E0
330
6F
100
AcDbEntity
  8
0
 62
     0
100
AcDbCircle
 10
225.16955
 20
72.7553
 30
0.0
 40
1.0
100
AcDbArc
 50
0.0
 51
90.0
  0
LINE
  5
1E1
330
6F
100
AcDbEntity
  8
0
 62
     0
100
AcDbLine
 10
225.16955
 20
59.756
 30
0.0
 11
213.17
 21
59.756
 31
0.0
  0
ARC
  5
1E2
330
6F
100
AcDbEntity
  8
0
 62
     0
100
AcDbCircle
 10
225.16955
 20
60.756
 30
0.0
 40
1.0
100
AcDbArc
 50
270.0
 51
0.0
  0
LINE
  5
1E3
330
6F
100
AcDbEntity
  8
0
 62
     0
100
AcDbLine
 10
212.17
 20
60.756
 30
0.0
 11
212.17
 21
72.7553
 31
0.0
  0
ARC
  5
1E4
330
6F
100
AcDbEntity
  8
0
 62
     0
100
AcDbCircle
 10
213.17
 20
60.756
 30
0.0
 40
1.0
100
AcDbArc
 50
180.0
 51
270.0
  0
LINE
  5
1E5
330
6F
100
AcDbEntity
  8
0
 62
     0
100
AcDbLine
 10
8.38216
 20
54.7053
 30
0.0
 11
20.38171
 21
54.7053
 31
0.0
  0
ARC
  5
1E6
330
6F
100
AcDbEntity
  8
0
 62
     0
100
AcDbCircle
 10
8.38216
 20
53.7053
 30
0.0
 40
1.0
100
AcDbArc
 50
90.0
 51
180.0
  0
LINE
  5
1E7
330
6F
100
AcDbEntity
  8
0
 62
     0
100
AcDbLine
 10
21.38171
 20
53.7053
 30
0.0
 11
21.38171
 21
41.70599999999999
 31
0.0
  0
ARC
  5
1E8
330
6F
100
AcDbEntity
  8
0
 62
     0
100
AcDbCircle
 10
20.38171
 20
53.7053
 30
0.0
 40
1.0
100
AcDbArc
 50
0.0
 51
90.0
  0
LINE
  5
1E9
330
6F
100
AcDbEntity
  8
0
 62
     0
100
AcDbLine
 10
20.38171
 20
40.70599999999998
 30
0.0
 11
8.38216
 21
40.70599999999998
 31
0.0
  0
ARC
  5
1EA
330
6F
100
AcDbEntity
  8
0
 62
     0
100
AcDbCircle
 10
20.38171
 20
41.70599999999999
 30
0.0
 40
1.0
100
AcDbArc
 50
270.0
 51
0.0
  0
LINE
  5
1EB
330
6F
100
AcDbEntity
  8
0
 62
     0
100
AcDbLine
 10
7.38216
 20
41.70599999999999
 30
0.0
 11
7.38216
 21
53.7053
 31
0.0
  0
ARC
  5
1EC
330
6F
100
AcDbEntity
  8
0
 62
     0
100
AcDbCircle
 10
8.38216
 20
41.70599999999999
 30
0.0
 40
1.0
100
AcDbArc
 50
180.0
 51
270.0
  0
LINE
  5
1ED
330
6F
100
AcDbEntity
  8
0
 62
     0
100
AcDbLine
 10
208.407
 20
54.7053
 30
0.0
 11
220.40655
 21
54.7053
 31
0.0
  0
ARC
  5
1EE
330
6F
100
AcDbEntity
  8
0
 62
     0
100
AcDbCircle
 10
208.407
 20
53.7053
 30
0.0
 40
1.0
100
AcDbArc
 50
90.0
 51
180.0
  0
LINE
  5
1EF
330
6F
100
AcDbEntity
  8
0
 62
     0
100
AcDbLine
 10
221.40655
 20
53.7053
 30
0.0
 11
221.40655
 21
41.70599999999999
 31
0.0
  0
ARC
  5
1F0
330
6F
100
AcDbEntity
  8
0
 62
     0
100
AcDbCircle
 10
220.40655
 20
53.7053
 30
0.0
 40
1.0
100
AcDbArc
 50
0.0
 51
90.0
  0
LINE
  5
1F1
330
6F
100
AcDbEntity
  8
0
 62
     0
100
AcDbLine
 10
220.40655
 20
40.70599999999998
 30
0.0
 11
208.407
 21
40.70599999999998
 31
0.0
  0
ARC
  5
1F2
330
6F
100
AcDbEntity
  8
0
 62
     0
100
AcDbCircle
 10
220.40655
 20
41.70599999999999
 30
0.0
 40
1.0
100
AcDbArc
 50
270.0
 51
0.0
  0
LINE
  5
1F3
330
6F
100
AcDbEntity
  8
0
 62
     0
100
AcDbLine
 10
207.407
 20
41.70599999999999
 30
0.0
 11
207.407
 21
53.7053
 31
0.0
  0
ARC
  5
1F4
330
6F
100
AcDbEntity
  8
0
 62
     0
100
AcDbCircle
 10
208.407
 20
41.70599999999999
 30
0.0
 40
1.0
100
AcDbArc
 50
180.0
 51
270.0
  0
LINE
  5
1F5
330
6F
100
AcDbEntity
  8
0
 62
     0
100
AcDbLine
 10
32.1947
 20
54.7053
 30
0.0
 11
44.19424999999999
 21
54.7053
 31
0.0
  0
ARC
  5
1F6
330
6F
100
AcDbEntity
  8
0
 62
     0
100
AcDbCircle
 10
32.1947
 20
53.7053
 30
0.0
 40
1.0
100
AcDbArc
 50
90.0
 51
180.0
  0
LINE
  5
1F7
330
6F
100
AcDbEntity
  8
0
 62
     0
100
AcDbLine
 10
45.19425
 20
53.7053
 30
0.0
 11
45.19425
 21
41.70599999999999
 31
0.0
  0
ARC
  5
1F8
330
6F
100
AcDbEntity
  8
0
 62
     0
100
AcDbCircle
 10
44.19424999999999
 20
53.7053
 30
0.0
 40
1.0
100
AcDbArc
 50
0.0
 51
90.0
  0
LINE
  5
1F9
330
6F
100
AcDbEntity
  8
0
 62
     0
100
AcDbLine
 10
44.19424999999999
 20
40.70599999999998
 30
0.0
 11
32.1947
 21
40.70599999999998
 31
0.0
  0
ARC
  5
1FA
330
6F
100
AcDbEntity
  8
0
 62
     0
100
AcDbCircle
 10
44.19424999999999
 20
41.70599999999999
 30
0.0
 40
1.0
100
AcDbArc
 50
270.0
 51
0.0
  0
LINE
  5
1FB
330
6F
100
AcDbEntity
  8
0
 62
     0
100
AcDbLine
 10
31.1947
 20
41.70599999999999
 30
0.0
 11
31.1947
 21
53.7053
 31
0.0
  0
ARC
  5
1FC
330
6F
100
AcDbEntity
  8
0
 62
     0
100
AcDbCircle
 10
32.1947
 20
41.70599999999999
 30
0.0
 40
1.0
100
AcDbArc
 50
180.0
 51
270.0
  0
LINE
  5
1FD
330
6F
100
AcDbEntity
  8
0
 62
     0
100
AcDbLine
 10
51.24470000000001
 20
54.7053
 30
0.0
 11
63.24425000000001
 21
54.7053
 31
0.0
  0
ARC
  5
1FE
330
6F
100
AcDbEntity
  8
0
 62
     0
100
AcDbCircle
 10
51.24470000000001
 20
53.7053
 30
0.0
 40
1.0
100
AcDbArc
 50
90.0
 51
180.0
  0
LINE
  5
1FF
330
6F
100
AcDbEntity
  8
0
 62
     0
100
AcDbLine
 10
64.24425000000001
 20
53.7053
 30
0.0
 11
64.24425000000001
 21
41.70599999999999
 31
0.0
  0
ARC
  5
200
330
6F
100
AcDbEntity
  8
0
 62
     0
100
AcDbCircle
 10
63.24425000000001
 20
53.7053
 30
0.0
 40
1.0
100
AcDbArc
 50
0.0
 51
90.0
  0
LINE
  5
201
330
6F
100
AcDbEntity
  8
0
 62
     0
100
AcDbLine
 10
63.24425000000001
 20
40.70599999999998
 30
0.0
 11
51.24470000000001
 21
40.70599999999998
 31
0.0
  0
ARC
  5
202
330
6F
100
AcDbEntity
  8
0
 62
     0
100
AcDbCircle
 10
63.24425000000001
 20
41.70599999999999
 30
0.0
 40
1.0
100
AcDbArc
 50
270.0
 51
0.0
  0
LINE
  5
203
330
6F
100
AcDbEntity
  8
0
 62
     0
100
AcDbLine
 10
50.2447
 20
41.70599999999999
 30
0.0
 11
50.2447
 21
53.7053
 31
0.0
  0
ARC
  5
204
330
6F
100
AcDbEntity
  8
0
 62
     0
100
AcDbCircle
 10
51.24470000000001
 20
41.70599999999999
 30
0.0
 40
1.0
100
AcDbArc
 50
180.0
 51
270.0
  0
LINE
  5
205
330
6F
100
AcDbEntity
  8
0
 62
     0
100
AcDbLine
 10
70.2947
 20
54.7053
 30
0.0
 11
82.29425
 21
54.7053
 31
0.0
  0
ARC
  5
206
330
6F
100
AcDbEntity
  8
0
 62
     0
100
AcDbCircle
 10
70.2947
 20
53.7053
 30
0.0
 40
1.0
100
AcDbArc
 50
90.0
 51
180.0
  0
LINE
  5
207
330
6F
100
AcDbEntity
  8
0
 62
     0
100
AcDbLine
 10
83.29425
 20
53.7053
 30
0.0
 11
83.29425
 21
41.70599999999999
 31
0.0
  0
ARC
  5
208
330
6F
100
AcDbEntity
  8
0
 62
     0
100
AcDbCircle
 10
82.29425
 20
53.7053
 30
0.0
 40
1.0
100
AcDbArc
 50
0.0
 51
90.0
  0
LINE
  5
209
330
6F
100
AcDbEntity
  8
0
 62
     0
100
AcDbLine
 10
82.29425
 20
40.70599999999998
 30
0.0
 11
70.2947
 21
40.70599999999998
 31
0.0
  0
ARC
  5
20A
330
6F
100
AcDbEntity
  8
0
 62
     0
100
AcDbCircle
 10
82.29425
 20
41.70599999999999
 30
0.0
 40
1.0
100
AcDbArc
 50
270.0
 51
0.0
  0
LINE
  5
20B
330
6F
100
AcDbEntity
  8
0
 62
     0
100
AcDbLine
 10
69.29470000000001
 20
41.70599999999999
 30
0.0
 11
69.29470000000001
 21
53.7053
 31
0.0
  0
ARC
  5
20C
330
6F
100
AcDbEntity
  8
0
 62
     0
100
AcDbCircle
 10
70.2947
 20
41.70599999999999
 30
0.0
 40
1.0
100
AcDbArc
 50
180.0
 51
270.0
  0
LINE
  5
20D
330
6F
100
AcDbEntity
  8
0
 62
     0
100
AcDbLine
 10
89.34470000000002
 20
54.7053
 30
0.0
 11
101.34425
 21
54.7053
 31
0.0
  0
ARC
  5
20E
330
6F
100
AcDbEntity
  8
0
 62
     0
100
AcDbCircle
 10
89.34470000000002
 20
53.7053
 30
0.0
 40
1.0
100
AcDbArc
 50
90.0
 51
180.0
  0
LINE
  5
20F
330
6F
100
AcDbEntity
  8
0
 62
     0
100
AcDbLine
 10
102.34425
 20
53.7053
 30
0.0
 11
102.34425
 21
41.70599999999999
 31
0.0
  0
ARC
  5
210
330
6F
100
AcDbEntity
  8
0
 62
     0
100
AcDbCircle
 10
101.34425
 20
53.7053
 30
0.0
 40
1.0
100
AcDbArc
 50
0.0
 51
90.0
  0
LINE
  5
211
330
6F
100
AcDbEntity
  8
0
 62
     0
100
AcDbLine
 10
101.34425
 20
40.70599999999998
 30
0.0
 11
89.34470000000002
 21
40.70599999999998
 31
0.0
  0
ARC
  5
212
330
6F
100
AcDbEntity
  8
0
 62
     0
100
AcDbCircle
 10
101.34425
 20
41.70599999999999
 30
0.0
 40
1.0
100
AcDbArc
 50
270.0
 51
0.0
  0
LINE
  5
213
330
6F
100
AcDbEntity
  8
0
 62
     0
100
AcDbLine
 10
88.34470000000001
 20
41.70599999999999
 30
0.0
 11
88.34470000000001
 21
53.7053
 31
0.0
  0
ARC
  5
214
330
6F
100
AcDbEntity
  8
0
 62
     0
100
AcDbCircle
 10
89.34470000000002
 20
41.70599999999999
 30
0.0
 40
1.0
100
AcDbArc
 50
180.0
 51
270.0
  0
LINE
  5
215
330
6F
100
AcDbEntity
  8
0
 62
     0
100
AcDbLine
 10
108.3933
 20
54.7053
 30
0.0
 11
120.39285
 21
54.7053
 31
0.0
  0
ARC
  5
216
330
6F
100
AcDbEntity
  8
0
 62
     0
100
AcDbCircle
 10
108.3933
 20
53.7053
 30
0.0
 40
1.0
100
AcDbArc
 50
90.0
 51
180.0
  0
LINE
  5
217
330
6F
100
AcDbEntity
  8
0
 62
     0
100
AcDbLine
 10
121.39285
 20
53.7053
 30
0.0
 11
121.39285
 21
41.70599999999999
 31
0.0
  0
ARC
  5
218
330
6F
100
AcDbEntity
  8
0
 62
     0
100
AcDbCircle
 10
120.39285
 20
53.7053
 30
0.0
 40
1.0
100
AcDbArc
 50
0.0
 51
90.0
  0
LINE
  5
219
330
6F
100
AcDbEntity
  8
0
 62
     0
100
AcDbLine
 10
120.39285
 20
40.70599999999998
 30
0.0
 11
108.3933
 21
40.70599999999998
 31
0.0
  0
ARC
  5
21A
330
6F
100
AcDbEntity
  8
0
 62
     0
100
AcDbCircle
 10
120.39285
 20
41.70599999999999
 30
0.0
 40
1.0
100
AcDbArc
 50
270.0
 51
0.0
  0
LINE
  5
21B
330
6F
100
AcDbEntity
  8
0
 62
     0
100
AcDbLine
 10
107.3933
 20
41.70599999999999
 30
0.0
 11
107.3933
 21
53.7053
 31
0.0
  0
ARC
  5
21C
330
6F
100
AcDbEntity
  8
0
 62
     0
100
AcDbCircle
 10
108.3933
 20
41.70599999999999
 30
0.0
 40
1.0
100
AcDbArc
 50
180.0
 51
270.0
  0
LINE
  5
21D
330
6F
100
AcDbEntity
  8
0
 62
     0
100
AcDbLine
 10
127.443
 20
54.7053
 30
0.0
 11
139.44255
 21
54.7053
 31
0.0
  0
ARC
  5
21E
330
6F
100
AcDbEntity
  8
0
 62
     0
100
AcDbCircle
 10
127.443
 20
53.7053
 30
0.0
 40
1.0
100
AcDbArc
 50
90.0
 51
180.0
  0
LINE
  5
21F
330
6F
100
AcDbEntity
  8
0
 62
     0
100
AcDbLine
 10
140.44255
 20
53.7053
 30
0.0
 11
140.44255
 21
41.70599999999999
 31
0.0
  0
ARC
  5
220
330
6F
100
AcDbEntity
  8
0
 62
     0
100
AcDbCircle
 10
139.44255
 20
53.7053
 30
0.0
 40
1.0
100
AcDbArc
 50
0.0
 51
90.0
  0
LINE
  5
221
330
6F
100
AcDbEntity
  8
0
 62
     0
100
AcDbLine
 10
139.44255
 20
40.70599999999998
 30
0.0
 11
127.443
 21
40.70599999999998
 31
0.0
  0
ARC
  5
222
330
6F
100
AcDbEntity
  8
0
 62
     0
100
AcDbCircle
 10
139.44255
 20
41.70599999999999
 30
0.0
 40
1.0
100
AcDbArc
 50
270.0
 51
0.0
  0
LINE
  5
223
330
6F
100
AcDbEntity
  8
0
 62
     0
100
AcDbLine
 10
126.443
 20
41.70599999999999
 30
0.0
 11
126.443
 21
53.7053
 31
0.0
  0
ARC
  5
224
330
6F
100
AcDbEntity
  8
0
 62
     0
100
AcDbCircle
 10
127.443
 20
41.70599999999999
 30
0.0
 40
1.0
100
AcDbArc
 50
180.0
 51
270.0
  0
LINE
  5
225
330
6F
100
AcDbEntity
  8
0
 62
     0
100
AcDbLine
 10
146.495
 20
54.7053
 30
0.0
 11
158.49455
 21
54.7053
 31
0.0
  0
ARC
  5
226
330
6F
100
AcDbEntity
  8
0
 62
     0
100
AcDbCircle
 10
146.495
 20
53.7053
 30
0.0
 40
1.0
100
AcDbArc
 50
90.0
 51
180.0
  0
LINE
  5
227
330
6F
100
AcDbEntity
  8
0
 62
     0
100
AcDbLine
 10
159.49455
 20
53.7053
 30
0.0
 11
159.49455
 21
41.70599999999999
 31
0.0
  0
ARC
  5
228
330
6F
100
AcDbEntity
  8
0
 62
     0
100
AcDbCircle
 10
158.49455
 20
53.7053
 30
0.0
 40
1.0
100
AcDbArc
 50
0.0
 51
90.0
  0
LINE
  5
229
330
6F
100
AcDbEntity
  8
0
 62
     0
100
AcDbLine
 10
158.49455
 20
40.70599999999998
 30
0.0
 11
146.495
 21
40.70599999999998
 31
0.0
  0
ARC
  5
22A
330
6F
100
AcDbEntity
  8
0
 62
     0
100
AcDbCircle
 10
158.49455
 20
41.70599999999999
 30
0.0
 40
1.0
100
AcDbArc
 50
270.0
 51
0.0
  0
LINE
  5
22B
330
6F
100
AcDbEntity
  8
0
 62
     0
100
AcDbLine
 10
145.495
 20
41.70599999999999
 30
0.0
 11
145.495
 21
53.7053
 31
0.0
  0
ARC
  5
22C
330
6F
100
AcDbEntity
  8
0
 62
     0
100
AcDbCircle
 10
146.495
 20
41.70599999999999
 30
0.0
 40
1.0
100
AcDbArc
 50
180.0
 51
270.0
  0
LINE
  5
22D
330
6F
100
AcDbEntity
  8
0
 62
     0
100
AcDbLine
 10
165.545
 20
54.7053
 30
0.0
 11
177.54455
 21
54.7053
 31
0.0
  0
ARC
  5
22E
330
6F
100
AcDbEntity
  8
0
 62
     0
100
AcDbCircle
 10
165.545
 20
53.7053
 30
0.0
 40
1.0
100
AcDbArc
 50
90.0
 51
180.0
  0
LINE
  5
22F
330
6F
100
AcDbEntity
  8
0
 62
     0
100
AcDbLine
 10
178.5445499999999
 20
53.7053
 30
0.0
 11
178.5445499999999
 21
41.70599999999999
 31
0.0
  0
ARC
  5
230
330
6F
100
AcDbEntity
  8
0
 62
     0
100
AcDbCircle
 10
177.54455
 20
53.7053
 30
0.0
 40
1.0
100
AcDbArc
 50
0.0
 51
90.0
  0
LINE
  5
231
330
6F
100
AcDbEntity
  8
0
 62
     0
100
AcDbLine
 10
177.54455
 20
40.70599999999998
 30
0.0
 11
165.545
 21
40.70599999999998
 31
0.0
  0
ARC
  5
232
330
6F
100
AcDbEntity
  8
0
 62
     0
100
AcDbCircle
 10
177.54455
 20
41.70599999999999
 30
0.0
 40
1.0
100
AcDbArc
 50
270.0
 51
0.0
  0
LINE
  5
233
330
6F
100
AcDbEntity
  8
0
 62
     0
100
AcDbLine
 10
164.545
 20
41.70599999999999
 30
0.0
 11
164.545
 21
53.7053
 31
0.0
  0
ARC
  5
234
330
6F
100
AcDbEntity
  8
0
 62
     0
100
AcDbCircle
 10
165.545
 20
41.70599999999999
 30
0.0
 40
1.0
100
AcDbArc
 50
180.0
 51
270.0
  0
LINE
  5
235
330
6F
100
AcDbEntity
  8
0
 62
     0
100
AcDbLine
 10
184.595
 20
54.7053
 30
0.0
 11
196.59455
 21
54.7053
 31
0.0
  0
ARC
  5
236
330
6F
100
AcDbEntity
  8
0
 62
     0
100
AcDbCircle
 10
184.595
 20
53.7053
 30
0.0
 40
1.0
100
AcDbArc
 50
90.0
 51
180.0
  0
LINE
  5
237
330
6F
100
AcDbEntity
  8
0
 62
     0
100
AcDbLine
 10
197.59455
 20
53.7053
 30
0.0
 11
197.59455
 21
41.70599999999999
 31
0.0
  0
ARC
  5
238
330
6F
100
AcDbEntity
  8
0
 62
     0
100
AcDbCircle
 10
196.59455
 20
53.7053
 30
0.0
 40
1.0
100
AcDbArc
 50
0.0
 51
90.0
  0
LINE
  5
239
330
6F
100
AcDbEntity
  8
0
 62
     0
100
AcDbLine
 10
196.59455
 20
40.70599999999998
 30
0.0
 11
184.595
 21
40.70599999999998
 31
0.0
  0
ARC
  5
23A
330
6F
100
AcDbEntity
  8
0
 62
     0
100
AcDbCircle
 10
196.59455
 20
41.70599999999999
 30
0.0
 40
1.0
100
AcDbArc
 50
270.0
 51
0.0
  0
LINE
  5
23B
330
6F
100
AcDbEntity
  8
0
 62
     0
100
AcDbLine
 10
183.595
 20
41.70599999999999
 30
0.0
 11
183.595
 21
53.7053
 31
0.0
  0
ARC
  5
23C
330
6F
100
AcDbEntity
  8
0
 62
     0
100
AcDbCircle
 10
184.595
 20
41.70599999999999
 30
0.0
 40
1.0
100
AcDbArc
 50
180.0
 51
270.0
  0
LINE
  5
23E
330
6F
100
AcDbEntity
  8
0
 62
     0
100
AcDbLine
 10
10.76341
 20
35.6553
 30
0.0
 11
22.76296
 21
35.6553
 31
0.0
  0
ARC
  5
23F
330
6F
100
AcDbEntity
  8
0
 62
     0
100
AcDbCircle
 10
10.76341
 20
34.6553
 30
0.0
 40
1.0
100
AcDbArc
 50
90.0
 51
180.0
  0
LINE
  5
240
330
6F
100
AcDbEntity
  8
0
 62
     0
100
AcDbLine
 10
23.76296
 20
34.6553
 30
0.0
 11
23.76296
 21
22.65599999999999
 31
0.0
  0
ARC
  5
241
330
6F
100
AcDbEntity
  8
0
 62
     0
100
AcDbCircle
 10
22.76296
 20
34.6553
 30
0.0
 40
1.0
100
AcDbArc
 50
0.0
 51
90.0
  0
LINE
  5
242
330
6F
100
AcDbEntity
  8
0
 62
     0
100
AcDbLine
 10
22.76296
 20
21.65599999999999
 30
0.0
 11
10.76341
 21
21.65599999999999
 31
0.0
  0
ARC
  5
243
330
6F
100
AcDbEntity
  8
0
 62
     0
100
AcDbCircle
 10
22.76296
 20
22.65599999999999
 30
0.0
 40
1.0
100
AcDbArc
 50
270.0
 51
0.0
  0
LINE
  5
244
330
6F
100
AcDbEntity
  8
0
 62
     0
100
AcDbLine
 10
9.76341
 20
22.65599999999999
 30
0.0
 11
9.76341
 21
34.6553
 31
0.0
  0
ARC
  5
245
330
6F
100
AcDbEntity
  8
0
 62
     0
100
AcDbCircle
 10
10.76341
 20
22.65599999999999
 30
0.0
 40
1.0
100
AcDbArc
 50
180.0
 51
270.0
  0
LINE
  5
247
330
6F
100
AcDbEntity
  8
0
 62
     0
100
AcDbLine
 10
6.00091
 20
16.60539999999999
 30
0.0
 11
18.00046
 21
16.60539999999999
 31
0.0
  0
ARC
  5
248
330
6F
100
AcDbEntity
  8
0
 62
     0
100
AcDbCircle
 10
6.00091
 20
15.60539999999999
 30
0.0
 40
1.0
100
AcDbArc
 50
90.0
 51
180.0
  0
LINE
  5
249
330
6F
100
AcDbEntity
  8
0
 62
     0
100
AcDbLine
 10
19.00045999999999
 20
15.60539999999999
 30
0.0
 11
19.00045999999999
 21
3.60609999999999
 31
0.0
  0
ARC
  5
24A
330
6F
100
AcDbEntity
  8
0
 62
     0
100
AcDbCircle
 10
18.00046
 20
15.60539999999999
 30
0.0
 40
1.0
100
AcDbArc
 50
0.0
 51
90.0
  0
LINE
  5
24B
330
6F
100
AcDbEntity
  8
0
 62
     0
100
AcDbLine
 10
18.00046
 20
2.60609999999999
 30
0.0
 11
6.00091
 21
2.60609999999999
 31
0.0
  0
ARC
  5
24C
330
6F
100
AcDbEntity
  8
0
 62
     0
100
AcDbCircle
 10
18.00046
 20
3.60609999999999
 30
0.0
 40
1.0
100
AcDbArc
 50
270.0
 51
0.0
  0
LINE
  5
24D
330
6F
100
AcDbEntity
  8
0
 62
     0
100
AcDbLine
 10
5.00091
 20
3.60609999999999
 30
0.0
 11
5.00091
 21
15.60539999999999
 31
0.0
  0
ARC
  5
24E
330
6F
100
AcDbEntity
  8
0
 62
     0
100
AcDbCircle
 10
6.00091
 20
3.60609999999999
 30
0.0
 40
1.0
100
AcDbArc
 50
180.0
 51
270.0
  0
LINE
  5
250
330
6F
100
AcDbEntity
  8
0
 62
     0
100
AcDbLine
 10
32.1947
 20
16.60539999999999
 30
0.0
 11
44.19424999999999
 21
16.60539999999999
 31
0.0
  0
ARC
  5
251
330
6F
100
AcDbEntity
  8
0
 62
     0
100
AcDbCircle
 10
32.1947
 20
15.60539999999999
 30
0.0
 40
1.0
100
AcDbArc
 50
90.0
 51
180.0
  0
LINE
  5
252
330
6F
100
AcDbEntity
  8
0
 62
     0
100
AcDbLine
 10
45.19425
 20
15.60539999999999
 30
0.0
 11
45.19425
 21
3.60609999999999
 31
0.0
  0
ARC
  5
253
330
6F
100
AcDbEntity
  8
0
 62
     0
100
AcDbCircle
 10
44.19424999999999
 20
15.60539999999999
 30
0.0
 40
1.0
100
AcDbArc
 50
0.0
 51
90.0
  0
LINE
  5
254
330
6F
100
AcDbEntity
  8
0
 62
     0
100
AcDbLine
 10
44.19424999999999
 20
2.60609999999999
 30
0.0
 11
32.1947
 21
2.60609999999999
 31
0.0
  0
ARC
  5
255
330
6F
100
AcDbEntity
  8
0
 62
     0
100
AcDbCircle
 10
44.19424999999999
 20
3.60609999999999
 30
0.0
 40
1.0
100
AcDbArc
 50
270.0
 51
0.0
  0
LINE
  5
256
330
6F
100
AcDbEntity
  8
0
 62
     0
100
AcDbLine
 10
31.1947
 20
3.60609999999999
 30
0.0
 11
31.1947
 21
15.60539999999999
 31
0.0
  0
ARC
  5
257
330
6F
100
AcDbEntity
  8
0
 62
     0
100
AcDbCircle
 10
32.1947
 20
3.60609999999999
 30
0.0
 40
1.0
100
AcDbArc
 50
180.0
 51
270.0
  0
LINE
  5
259
330
6F
100
AcDbEntity
  8
0
 62
     0
100
AcDbLine
 10
58.3885
 20
16.60539999999999
 30
0.0
 11
70.38804999999998
 21
16.60539999999999
 31
0.0
  0
ARC
  5
25A
330
6F
100
AcDbEntity
  8
0
 62
     0
100
AcDbCircle
 10
58.3885
 20
15.60539999999999
 30
0.0
 40
1.0
100
AcDbArc
 50
90.0
 51
180.0
  0
LINE
  5
25B
330
6F
100
AcDbEntity
  8
0
 62
     0
100
AcDbLine
 10
71.38804999999997
 20
15.60539999999999
 30
0.0
 11
71.38804999999997
 21
3.60609999999999
 31
0.0
  0
ARC
  5
25C
330
6F
100
AcDbEntity
  8
0
 62
     0
100
AcDbCircle
 10
70.38804999999998
 20
15.60539999999999
 30
0.0
 40
1.0
100
AcDbArc
 50
0.0
 51
90.0
  0
LINE
  5
25D
330
6F
100
AcDbEntity
  8
0
 62
     0
100
AcDbLine
 10
70.38804999999998
 20
2.60609999999999
 30
0.0
 11
58.3885
 21
2.60609999999999
 31
0.0
  0
ARC
  5
25E
330
6F
100
AcDbEntity
  8
0
 62
     0
100
AcDbCircle
 10
70.38804999999998
 20
3.60609999999999
 30
0.0
 40
1.0
100
AcDbArc
 50
270.0
 51
0.0
  0
LINE
  5
25F
330
6F
100
AcDbEntity
  8
0
 62
     0
100
AcDbLine
 10
57.3885
 20
3.60609999999999
 30
0.0
 11
57.3885
 21
15.60539999999999
 31
0.0
  0
ARC
  5
260
330
6F
100
AcDbEntity
  8
0
 62
     0
100
AcDbCircle
 10
58.3885
 20
3.60609999999999
 30
0.0
 40
1.0
100
AcDbArc
 50
180.0
 51
270.0
  0
LINE
  5
262
330
6F
100
AcDbEntity
  8
0
 62
     0
100
AcDbLine
 10
184.595
 20
16.60539999999999
 30
0.0
 11
196.59455
 21
16.60539999999999
 31
0.0
  0
ARC
  5
263
330
6F
100
AcDbEntity
  8
0
 62
     0
100
AcDbCircle
 10
184.595
 20
15.60539999999999
 30
0.0
 40
1.0
100
AcDbArc
 50
90.0
 51
180.0
  0
LINE
  5
264
330
6F
100
AcDbEntity
  8
0
 62
     0
100
AcDbLine
 10
197.59455
 20
15.60539999999999
 30
0.0
 11
197.59455
 21
3.60609999999999
 31
0.0
  0
ARC
  5
265
330
6F
100
AcDbEntity
  8
0
 62
     0
100
AcDbCircle
 10
196.59455
 20
15.60539999999999
 30
0.0
 40
1.0
100
AcDbArc
 50
0.0
 51
90.0
  0
LINE
  5
266
330
6F
100
AcDbEntity
  8
0
 62
     0
100
AcDbLine
 10
196.59455
 20
2.60609999999999
 30
0.0
 11
184.595
 21
2.60609999999999
 31
0.0
  0
ARC
  5
267
330
6F
100
AcDbEntity
  8
0
 62
     0
100
AcDbCircle
 10
196.59455
 20
3.60609999999999
 30
0.0
 40
1.0
100
AcDbArc
 50
270.0
 51
0.0
  0
LINE
  5
268
330
6F
100
AcDbEntity
  8
0
 62
     0
100
AcDbLine
 10
183.595
 20
3.60609999999999
 30
0.0
 11
183.595
 21
15.60539999999999
 31
0.0
  0
ARC
  5
269
330
6F
100
AcDbEntity
  8
0
 62
     0
100
AcDbCircle
 10
184.595
 20
3.60609999999999
 30
0.0
 40
1.0
100
AcDbArc
 50
180.0
 51
270.0
  0
LINE
  5
26B
330
6F
100
AcDbEntity
  8
0
 62
     0
100
AcDbLine
 10
210.788
 20
16.60539999999999
 30
0.0
 11
222.78755
 21
16.60539999999999
 31
0.0
  0
ARC
  5
26C
330
6F
100
AcDbEntity
  8
0
 62
     0
100
AcDbCircle
 10
210.788
 20
15.60539999999999
 30
0.0
 40
1.0
100
AcDbArc
 50
90.0
 51
180.0
  0
LINE
  5
26D
330
6F
100
AcDbEntity
  8
0
 62
     0
100
AcDbLine
 10
223.78755
 20
15.60539999999999
 30
0.0
 11
223.78755
 21
3.60609999999999
 31
0.0
  0
ARC
  5
26E
330
6F
100
AcDbEntity
  8
0
 62
     0
100
AcDbCircle
 10
222.78755
 20
15.60539999999999
 30
0.0
 40
1.0
100
AcDbArc
 50
0.0
 51
90.0
  0
LINE
  5
26F
330
6F
100
AcDbEntity
  8
0
 62
     0
100
AcDbLine
 10
222.78755
 20
2.60609999999999
 30
0.0
 11
210.788
 21
2.60609999999999
 31
0.0
  0
ARC
  5
270
330
6F
100
AcDbEntity
  8
0
 62
     0
100
AcDbCircle
 10
222.78755
 20
3.60609999999999
 30
0.0
 40
1.0
100
AcDbArc
 50
270.0
 51
0.0
  0
LINE
  5
271
330
6F
100
AcDbEntity
  8
0
 62
     0
100
AcDbLine
 10
209.788
 20
3.60609999999999
 30
0.0
 11
209.788
 21
15.60539999999999
 31
0.0
  0
ARC
  5
272
330
6F
100
AcDbEntity
  8
0
 62
     0
100
AcDbCircle
 10
210.788
 20
3.60609999999999
 30
0.0
 40
1.0
100
AcDbArc
 50
180.0
 51
270.0
  0
LINE
  5
274
330
6F
100
AcDbEntity
  8
0
 62
     0
100
AcDbLine
 10
158.401
 20
16.60539999999999
 30
0.0
 11
170.40055
 21
16.60539999999999
 31
0.0
  0
ARC
  5
275
330
6F
100
AcDbEntity
  8
0
 62
     0
100
AcDbCircle
 10
158.401
 20
15.60539999999999
 30
0.0
 40
1.0
100
AcDbArc
 50
90.0
 51
180.0
  0
LINE
  5
276
330
6F
100
AcDbEntity
  8
0
 62
     0
100
AcDbLine
 10
171.40055
 20
15.60539999999999
 30
0.0
 11
171.40055
 21
3.60609999999999
 31
0.0
  0
ARC
  5
277
330
6F
100
AcDbEntity
  8
0
 62
     0
100
AcDbCircle
 10
170.40055
 20
15.60539999999999
 30
0.0
 40
1.0
100
AcDbArc
 50
0.0
 51
90.0
  0
LINE
  5
278
330
6F
100
AcDbEntity
  8
0
 62
     0
100
AcDbLine
 10
170.40055
 20
2.60609999999999
 30
0.0
 11
158.401
 21
2.60609999999999
 31
0.0
  0
ARC
  5
279
330
6F
100
AcDbEntity
  8
0
 62
     0
100
AcDbCircle
 10
170.40055
 20
3.60609999999999
 30
0.0
 40
1.0
100
AcDbArc
 50
270.0
 51
0.0
  0
LINE
  5
27A
330
6F
100
AcDbEntity
  8
0
 62
     0
100
AcDbLine
 10
157.401
 20
3.60609999999999
 30
0.0
 11
157.401
 21
15.60539999999999
 31
0.0
  0
ARC
  5
27B
330
6F
100
AcDbEntity
  8
0
 62
     0
100
AcDbCircle
 10
158.401
 20
3.60609999999999
 30
0.0
 40
1.0
100
AcDbArc
 50
180.0
 51
270.0
  0
LINE
  5
27C
330
6F
100
AcDbEntity
  8
0
 62
     0
100
AcDbLine
 10
36.9572
 20
35.6553
 30
0.0
 11
48.95675
 21
35.6553
 31
0.0
  0
ARC
  5
27D
330
6F
100
AcDbEntity
  8
0
 62
     0
100
AcDbCircle
 10
36.9572
 20
34.6553
 30
0.0
 40
1.0
100
AcDbArc
 50
90.0
 51
180.0
  0
LINE
  5
27E
330
6F
100
AcDbEntity
  8
0
 62
     0
100
AcDbLine
 10
49.95675
 20
34.6553
 30
0.0
 11
49.95675
 21
22.65599999999999
 31
0.0
  0
ARC
  5
27F
330
6F
100
AcDbEntity
  8
0
 62
     0
100
AcDbCircle
 10
48.95675
 20
34.6553
 30
0.0
 40
1.0
100
AcDbArc
 50
0.0
 51
90.0
  0
LINE
  5
280
330
6F
100
AcDbEntity
  8
0
 62
     0
100
AcDbLine
 10
48.95675
 20
21.65599999999999
 30
0.0
 11
36.9572
 21
21.65599999999999
 31
0.0
  0
ARC
  5
281
330
6F
100
AcDbEntity
  8
0
 62
     0
100
AcDbCircle
 10
48.95675
 20
22.65599999999999
 30
0.0
 40
1.0
100
AcDbArc
 50
270.0
 51
0.0
  0
LINE
  5
282
330
6F
100
AcDbEntity
  8
0
 62
     0
100
AcDbLine
 10
35.9572
 20
22.65599999999999
 30
0.0
 11
35.9572
 21
34.6553
 31
0.0
  0
ARC
  5
283
330
6F
100
AcDbEntity
  8
0
 62
     0
100
AcDbCircle
 10
36.9572
 20
22.65599999999999
 30
0.0
 40
1.0
100
AcDbArc
 50
180.0
 51
270.0
  0
LINE
  5
284
330
6F
100
AcDbEntity
  8
0
 62
     0
100
AcDbLine
 10
56.00720000000001
 20
35.6553
 30
0.0
 11
68.00675000000001
 21
35.6553
 31
0.0
  0
ARC
  5
285
330
6F
100
AcDbEntity
  8
0
 62
     0
100
AcDbCircle
 10
56.00720000000001
 20
34.6553
 30
0.0
 40
1.0
100
AcDbArc
 50
90.0
 51
180.0
  0
LINE
  5
286
330
6F
100
AcDbEntity
  8
0
 62
     0
100
AcDbLine
 10
69.00675000000001
 20
34.6553
 30
0.0
 11
69.00675000000001
 21
22.65599999999999
 31
0.0
  0
ARC
  5
287
330
6F
100
AcDbEntity
  8
0
 62
     0
100
AcDbCircle
 10
68.00675000000001
 20
34.6553
 30
0.0
 40
1.0
100
AcDbArc
 50
0.0
 51
90.0
  0
LINE
  5
288
330
6F
100
AcDbEntity
  8
0
 62
     0
100
AcDbLine
 10
68.00675000000001
 20
21.65599999999999
 30
0.0
 11
56.00720000000001
 21
21.65599999999999
 31
0.0
  0
ARC
  5
289
330
6F
100
AcDbEntity
  8
0
 62
     0
100
AcDbCircle
 10
68.00675000000001
 20
22.65599999999999
 30
0.0
 40
1.0
100
AcDbArc
 50
270.0
 51
0.0
  0
LINE
  5
28A
330
6F
100
AcDbEntity
  8
0
 62
     0
100
AcDbLine
 10
55.00720000000001
 20
22.65599999999999
 30
0.0
 11
55.00720000000001
 21
34.6553
 31
0.0
  0
ARC
  5
28B
330
6F
100
AcDbEntity
  8
0
 62
     0
100
AcDbCircle
 10
56.00720000000001
 20
22.65599999999999
 30
0.0
 40
1.0
100
AcDbArc
 50
180.0
 51
270.0
  0
LINE
  5
28C
330
6F
100
AcDbEntity
  8
0
 62
     0
100
AcDbLine
 10
75.05720000000002
 20
35.6553
 30
0.0
 11
87.05675000000002
 21
35.6553
 31
0.0
  0
ARC
  5
28D
330
6F
100
AcDbEntity
  8
0
 62
     0
100
AcDbCircle
 10
75.05720000000002
 20
34.6553
 30
0.0
 40
1.0
100
AcDbArc
 50
90.0
 51
180.0
  0
LINE
  5
28E
330
6F
100
AcDbEntity
  8
0
 62
     0
100
AcDbLine
 10
88.05674999999999
 20
34.6553
 30
0.0
 11
88.05674999999999
 21
22.65599999999999
 31
0.0
  0
ARC
  5
28F
330
6F
100
AcDbEntity
  8
0
 62
     0
100
AcDbCircle
 10
87.05675000000002
 20
34.6553
 30
0.0
 40
1.0
100
AcDbArc
 50
0.0
 51
90.0
  0
LINE
  5
290
330
6F
100
AcDbEntity
  8
0
 62
     0
100
AcDbLine
 10
87.05675000000002
 20
21.65599999999999
 30
0.0
 11
75.05720000000002
 21
21.65599999999999
 31
0.0
  0
ARC
  5
291
330
6F
100
AcDbEntity
  8
0
 62
     0
100
AcDbCircle
 10
87.05675000000002
 20
22.65599999999999
 30
0.0
 40
1.0
100
AcDbArc
 50
270.0
 51
0.0
  0
LINE
  5
292
330
6F
100
AcDbEntity
  8
0
 62
     0
100
AcDbLine
 10
74.05720000000002
 20
22.65599999999999
 30
0.0
 11
74.05720000000002
 21
34.6553
 31
0.0
  0
ARC
  5
293
330
6F
100
AcDbEntity
  8
0
 62
     0
100
AcDbCircle
 10
75.05720000000002
 20
22.65599999999999
 30
0.0
 40
1.0
100
AcDbArc
 50
180.0
 51
270.0
  0
LINE
  5
294
330
6F
100
AcDbEntity
  8
0
 62
     0
100
AcDbLine
 10
94.10720000000003
 20
35.6553
 30
0.0
 11
106.10675
 21
35.6553
 31
0.0
  0
ARC
  5
295
330
6F
100
AcDbEntity
  8
0
 62
     0
100
AcDbCircle
 10
94.10720000000003
 20
34.6553
 30
0.0
 40
1.0
100
AcDbArc
 50
90.0
 51
180.0
  0
LINE
  5
296
330
6F
100
AcDbEntity
  8
0
 62
     0
100
AcDbLine
 10
107.10675
 20
34.6553
 30
0.0
 11
107.10675
 21
22.65599999999999
 31
0.0
  0
ARC
  5
297
330
6F
100
AcDbEntity
  8
0
 62
     0
100
AcDbCircle
 10
106.10675
 20
34.6553
 30
0.0
 40
1.0
100
AcDbArc
 50
0.0
 51
90.0
  0
LINE
  5
298
330
6F
100
AcDbEntity
  8
0
 62
     0
100
AcDbLine
 10
106.10675
 20
21.65599999999999
 30
0.0
 11
94.10720000000003
 21
21.65599999999999
 31
0.0
  0
ARC
  5
299
330
6F
100
AcDbEntity
  8
0
 62
     0
100
AcDbCircle
 10
106.10675
 20
22.65599999999999
 30
0.0
 40
1.0
100
AcDbArc
 50
270.0
 51
0.0
  0
LINE
  5
29A
330
6F
100
AcDbEntity
  8
0
 62
     0
100
AcDbLine
 10
93.10720000000001
 20
22.65599999999999
 30
0.0
 11
93.10720000000001
 21
34.6553
 31
0.0
  0
ARC
  5
29B
330
6F
100
AcDbEntity
  8
0
 62
     0
100
AcDbCircle
 10
94.10720000000003
 20
22.65599999999999
 30
0.0
 40
1.0
100
AcDbArc
 50
180.0
 51
270.0
  0
LINE
  5
29C
330
6F
100
AcDbEntity
  8
0
 62
     0
100
AcDbLine
 10
113.1558
 20
35.6553
 30
0.0
 11
125.15535
 21
35.6553
 31
0.0
  0
ARC
  5
29D
330
6F
100
AcDbEntity
  8
0
 62
     0
100
AcDbCircle
 10
113.1558
 20
34.6553
 30
0.0
 40
1.0
100
AcDbArc
 50
90.0
 51
180.0
  0
LINE
  5
29E
330
6F
100
AcDbEntity
  8
0
 62
     0
100
AcDbLine
 10
126.15535
 20
34.6553
 30
0.0
 11
126.15535
 21
22.65599999999999
 31
0.0
  0
ARC
  5
29F
330
6F
100
AcDbEntity
  8
0
 62
     0
100
AcDbCircle
 10
125.15535
 20
34.6553
 30
0.0
 40
1.0
100
AcDbArc
 50
0.0
 51
90.0
  0
LINE
  5
2A0
330
6F
100
AcDbEntity
  8
0
 62
     0
100
AcDbLine
 10
125.15535
 20
21.65599999999999
 30
0.0
 11
113.1558
 21
21.65599999999999
 31
0.0
  0
ARC
  5
2A1
330
6F
100
AcDbEntity
  8
0
 62
     0
100
AcDbCircle
 10
125.15535
 20
22.65599999999999
 30
0.0
 40
1.0
100
AcDbArc
 50
270.0
 51
0.0
  0
LINE
  5
2A2
330
6F
100
AcDbEntity
  8
0
 62
     0
100
AcDbLine
 10
112.1558
 20
22.65599999999999
 30
0.0
 11
112.1558
 21
34.6553
 31
0.0
  0
ARC
  5
2A3
330
6F
100
AcDbEntity
  8
0
 62
     0
100
AcDbCircle
 10
113.1558
 20
22.65599999999999
 30
0.0
 40
1.0
100
AcDbArc
 50
180.0
 51
270.0
  0
LINE
  5
2A4
330
6F
100
AcDbEntity
  8
0
 62
     0
100
AcDbLine
 10
132.2055
 20
35.6553
 30
0.0
 11
144.20505
 21
35.6553
 31
0.0
  0
ARC
  5
2A5
330
6F
100
AcDbEntity
  8
0
 62
     0
100
AcDbCircle
 10
132.2055
 20
34.6553
 30
0.0
 40
1.0
100
AcDbArc
 50
90.0
 51
180.0
  0
LINE
  5
2A6
330
6F
100
AcDbEntity
  8
0
 62
     0
100
AcDbLine
 10
145.20505
 20
34.6553
 30
0.0
 11
145.20505
 21
22.65599999999999
 31
0.0
  0
ARC
  5
2A7
330
6F
100
AcDbEntity
  8
0
 62
     0
100
AcDbCircle
 10
144.20505
 20
34.6553
 30
0.0
 40
1.0
100
AcDbArc
 50
0.0
 51
90.0
  0
LINE
  5
2A8
330
6F
100
AcDbEntity
  8
0
 62
     0
100
AcDbLine
 10
144.20505
 20
21.65599999999999
 30
0.0
 11
132.2055
 21
21.65599999999999
 31
0.0
  0
ARC
  5
2A9
330
6F
100
AcDbEntity
  8
0
 62
     0
100
AcDbCircle
 10
144.20505
 20
22.65599999999999
 30
0.0
 40
1.0
100
AcDbArc
 50
270.0
 51
0.0
  0
LINE
  5
2AA
330
6F
100
AcDbEntity
  8
0
 62
     0
100
AcDbLine
 10
131.2055
 20
22.65599999999999
 30
0.0
 11
131.2055
 21
34.6553
 31
0.0
  0
ARC
  5
2AB
330
6F
100
AcDbEntity
  8
0
 62
     0
100
AcDbCircle
 10
132.2055
 20
22.65599999999999
 30
0.0
 40
1.0
100
AcDbArc
 50
180.0
 51
270.0
  0
LINE
  5
2AC
330
6F
100
AcDbEntity
  8
0
 62
     0
100
AcDbLine
 10
151.2575
 20
35.6553
 30
0.0
 11
163.25705
 21
35.6553
 31
0.0
  0
ARC
  5
2AD
330
6F
100
AcDbEntity
  8
0
 62
     0
100
AcDbCircle
 10
151.2575
 20
34.6553
 30
0.0
 40
1.0
100
AcDbArc
 50
90.0
 51
180.0
  0
LINE
  5
2AE
330
6F
100
AcDbEntity
  8
0
 62
     0
100
AcDbLine
 10
164.25705
 20
34.6553
 30
0.0
 11
164.25705
 21
22.65599999999999
 31
0.0
  0
ARC
  5
2AF
330
6F
100
AcDbEntity
  8
0
 62
     0
100
AcDbCircle
 10
163.25705
 20
34.6553
 30
0.0
 40
1.0
100
AcDbArc
 50
0.0
 51
90.0
  0
LINE
  5
2B0
330
6F
100
AcDbEntity
  8
0
 62
     0
100
AcDbLine
 10
163.25705
 20
21.65599999999999
 30
0.0
 11
151.2575
 21
21.65599999999999
 31
0.0
  0
ARC
  5
2B1
330
6F
100
AcDbEntity
  8
0
 62
     0
100
AcDbCircle
 10
163.25705
 20
22.65599999999999
 30
0.0
 40
1.0
100
AcDbArc
 50
270.0
 51
0.0
  0
LINE
  5
2B2
330
6F
100
AcDbEntity
  8
0
 62
     0
100
AcDbLine
 10
150.2575
 20
22.65599999999999
 30
0.0
 11
150.2575
 21
34.6553
 31
0.0
  0
ARC
  5
2B3
330
6F
100
AcDbEntity
  8
0
 62
     0
100
AcDbCircle
 10
151.2575
 20
22.65599999999999
 30
0.0
 40
1.0
100
AcDbArc
 50
180.0
 51
270.0
  0
LINE
  5
2B4
330
6F
100
AcDbEntity
  8
0
 62
     0
100
AcDbLine
 10
170.3075
 20
35.6553
 30
0.0
 11
182.30705
 21
35.6553
 31
0.0
  0
ARC
  5
2B5
330
6F
100
AcDbEntity
  8
0
 62
     0
100
AcDbCircle
 10
170.3075
 20
34.6553
 30
0.0
 40
1.0
100
AcDbArc
 50
90.0
 51
180.0
  0
LINE
  5
2B6
330
6F
100
AcDbEntity
  8
0
 62
     0
100
AcDbLine
 10
183.30705
 20
34.6553
 30
0.0
 11
183.30705
 21
22.65599999999999
 31
0.0
  0
ARC
  5
2B7
330
6F
100
AcDbEntity
  8
0
 62
     0
100
AcDbCircle
 10
182.30705
 20
34.6553
 30
0.0
 40
1.0
100
AcDbArc
 50
0.0
 51
90.0
  0
LINE
  5
2B8
330
6F
100
AcDbEntity
  8
0
 62
     0
100
AcDbLine
 10
182.30705
 20
21.65599999999999
 30
0.0
 11
170.3075
 21
21.65599999999999
 31
0.0
  0
ARC
  5
2B9
330
6F
100
AcDbEntity
  8
0
 62
     0
100
AcDbCircle
 10
182.30705
 20
22.65599999999999
 30
0.0
 40
1.0
100
AcDbArc
 50
270.0
 51
0.0
  0
LINE
  5
2BA
330
6F
100
AcDbEntity
  8
0
 62
     0
100
AcDbLine
 10
169.3075
 20
22.65599999999999
 30
0.0
 11
169.3075
 21
34.6553
 31
0.0
  0
ARC
  5
2BB
330
6F
100
AcDbEntity
  8
0
 62
     0
100
AcDbCircle
 10
170.3075
 20
22.65599999999999
 30
0.0
 40
1.0
100
AcDbArc
 50
180.0
 51
270.0
  0
LWPOLYLINE
  5
2E6
330
6F
100
AcDbEntity
  8
0
  6
Continuous
100
AcDbPolyline
 90
        8
 70
     1
 43
0.0
 10
89.34470000000002
 20
16.60513500000001
 10
101.344
 20
16.60513500000001
 42
-0.4142135623730951
 10
102.344
 20
15.60513500000001
 10
102.344
 20
3.606134999999986
 42
-0.4142135623730951
 10
101.344
 20
2.606134999999986
 10
89.34470000000002
 20
2.606134999999986
 42
-0.4142135623730951
 10
88.34469999999992
 20
3.606134999999986
 10
88.34469999999992
 20
15.60513500000001
 42
-0.4142135623730951
  0
LINE
  5
2E7
330
6F
100
AcDbEntity
  8
0
100
AcDbLine
 10
85.80860000000321
 20
1.821134999998995
 30
0.0
 11
80.80860000000079
 21
1.821134999998995
 31
0.0
  0
LINE
  5
2E8
330
6F
100
AcDbEntity
  8
0
100
AcDbLine
 10
79.80860000000091
 20
2.821134999999109
 30
0.0
 11
79.80860000000091
 21
17.76113499999911
 31
0.0
  0
LINE
  5
2E9
330
6F
100
AcDbEntity
  8
0
100
AcDbLine
 10
80.80860000000079
 20
18.76113499999911
 30
0.0
 11
85.80860000000358
 21
18.76113499999911
 31
0.0
  0
LINE
  5
2EA
330
6F
100
AcDbEntity
  8
0
100
AcDbLine
 10
86.80860000000356
 20
17.76113499999911
 30
0.0
 11
86.80860000000309
 21
2.821134999998996
 31
0.0
  0
ARC
  5
2EB
330
6F
100
AcDbEntity
  8
0
100
AcDbCircle
 10
85.80860000000321
 20
2.821134999999109
 30
0.0
 40
1.0
100
AcDbArc
 50
270.0
 51
359.9999999999935
  0
ARC
  5
2EC
330
6F
100
AcDbEntity
  8
0
100
AcDbCircle
 10
80.80860000000079
 20
2.821134999999109
 30
0.0
 40
0.9999999999999996
100
AcDbArc
 50
180.0
 51
270.0
  0
ARC
  5
2ED
330
6F
100
AcDbEntity
  8
0
100
AcDbCircle
 10
80.80860000000079
 20
17.76113499999911
 30
0.0
 40
0.9999999999999996
100
AcDbArc
 50
90.0
 51
180.0
  0
ARC
  5
2EE
330
6F
100
AcDbEntity
  8
0
100
AcDbCircle
 10
85.80860000000358
 20
17.76113499999911
 30
0.0
 40
1.0
100
AcDbArc
 50
359.9999999999935
 51
90.0
  0
LINE
  5
2EF
330
6F
100
AcDbEntity
  8
0
100
AcDbLine
 10
110.6850000000026
 20
2.821134999999507
 30
0.0
 11
110.6850000000026
 21
17.76121020971316
 31
0.0
  0
LINE
  5
2F0
330
6F
100
AcDbEntity
  8
0
100
AcDbLine
 10
104.6850000000038
 20
18.76121020971316
 30
0.0
 11
109.6850000000025
 21
18.76121020971316
 31
0.0
  0
LINE
  5
2F1
330
6F
100
AcDbEntity
  8
0
100
AcDbLine
 10
103.6850000000038
 20
17.76121020971316
 30
0.0
 11
103.6850000000038
 21
2.821134999999109
 31
0.0
  0
LINE
  5
2F2
330
6F
100
AcDbEntity
  8
0
100
AcDbLine
 10
104.6850000000038
 20
1.821134999998995
 30
0.0
 11
109.6850000000025
 21
1.821134999999564
 31
0.0
  0
ARC
  5
2F3
330
6F
100
AcDbEntity
  8
0
100
AcDbCircle
 10
104.6850000000038
 20
2.821134999999109
 30
0.0
 40
0.9999999999999996
100
AcDbArc
 50
180.0
 51
270.0000000000065
  0
ARC
  5
2F4
330
6F
100
AcDbEntity
  8
0
100
AcDbCircle
 10
109.6850000000025
 20
2.821134999999507
 30
0.0
 40
0.9999999999999994
100
AcDbArc
 50
270.0000000000065
 51
0.0
  0
ARC
  5
2F5
330
6F
100
AcDbEntity
  8
0
100
AcDbCircle
 10
109.6850000000025
 20
17.76121020971316
 30
0.0
 40
0.9999999999999996
100
AcDbArc
 50
0.0
 51
90.0
  0
ARC
  5
2F6
330
6F
100
AcDbEntity
  8
0
100
AcDbCircle
 10
104.6850000000038
 20
17.76121020971316
 30
0.0
 40
0.9999999999999996
100
AcDbArc
 50
90.0
 51
180.0
  0
LWPOLYLINE
  5
300
330
6F
100
AcDbEntity
  8
0
  6
Continuous
100
AcDbPolyline
 90
        8
 70
     1
 43
0.0
 10
127.44485
 20
16.60513500000001
 10
139.44415
 20
16.60513500000001
 42
-0.4142135623730951
 10
140.44415
 20
15.60513500000001
 10
140.44415
 20
3.606134999999986
 42
-0.4142135623730951
 10
139.44415
 20
2.606134999999986
 10
127.44485
 20
2.606134999999986
 42
-0.4142135623730951
 10
126.4448499999999
 20
3.606134999999986
 10
126.4448499999999
 20
15.60513500000001
 42
-0.4142135623730951
  0
LINE
  5
301
330
6F
100
AcDbEntity
  8
0
100
AcDbLine
 10
123.9087500000032
 20
1.821134999998995
 30
0.0
 11
118.9087500000008
 21
1.821134999998995
 31
0.0
  0
LINE
  5
302
330
6F
100
AcDbEntity
  8
0
100
AcDbLine
 10
117.9087500000009
 20
2.821134999999109
 30
0.0
 11
117.9087500000009
 21
17.76113499999911
 31
0.0
  0
LINE
  5
303
330
6F
100
AcDbEntity
  8
0
100
AcDbLine
 10
118.9087500000008
 20
18.76113499999911
 30
0.0
 11
123.9087500000036
 21
18.76113499999911
 31
0.0
  0
LINE
  5
304
330
6F
100
AcDbEntity
  8
0
100
AcDbLine
 10
124.9087500000036
 20
17.76113499999911
 30
0.0
 11
124.9087500000031
 21
2.821134999998996
 31
0.0
  0
ARC
  5
305
330
6F
100
AcDbEntity
  8
0
100
AcDbCircle
 10
123.9087500000032
 20
2.821134999999109
 30
0.0
 40
1.0
100
AcDbArc
 50
270.0
 51
359.9999999999935
  0
ARC
  5
306
330
6F
100
AcDbEntity
  8
0
100
AcDbCircle
 10
118.9087500000008
 20
2.821134999999109
 30
0.0
 40
0.9999999999999996
100
AcDbArc
 50
180.0
 51
270.0
  0
ARC
  5
307
330
6F
100
AcDbEntity
  8
0
100
AcDbCircle
 10
118.9087500000008
 20
17.76113499999911
 30
0.0
 40
0.9999999999999996
100
AcDbArc
 50
90.0
 51
180.0
  0
ARC
  5
308
330
6F
100
AcDbEntity
  8
0
100
AcDbCircle
 10
123.9087500000036
 20
17.76113499999911
 30
0.0
 40
1.0
100
AcDbArc
 50
359.9999999999935
 51
90.0
  0
LINE
  5
309
330
6F
100
AcDbEntity
  8
0
100
AcDbLine
 10
148.7851500000026
 20
2.821134999999507
 30
0.0
 11
148.7851500000026
 21
17.76121020971316
 31
0.0
  0
LINE
  5
30A
330
6F
100
AcDbEntity
  8
0
100
AcDbLine
 10
142.7851500000038
 20
18.76121020971316
 30
0.0
 11
147.7851500000025
 21
18.76121020971316
 31
0.0
  0
LINE
  5
30B
330
6F
100
AcDbEntity
  8
0
100
AcDbLine
 10
141.7851500000038
 20
17.76121020971316
 30
0.0
 11
141.7851500000038
 21
2.821134999999109
 31
0.0
  0
LINE
  5
30C
330
6F
100
AcDbEntity
  8
0
100
AcDbLine
 10
142.7851500000038
 20
1.821134999998995
 30
0.0
 11
147.7851500000025
 21
1.821134999999564
 31
0.0
  0
ARC
  5
30D
330
6F
100
AcDbEntity
  8
0
100
AcDbCircle
 10
142.7851500000038
 20
2.821134999999109
 30
0.0
 40
0.9999999999999996
100
AcDbArc
 50
180.0
 51
270.0000000000065
  0
ARC
  5
30E
330
6F
100
AcDbEntity
  8
0
100
AcDbCircle
 10
147.7851500000025
 20
2.821134999999507
 30
0.0
 40
0.9999999999999994
100
AcDbArc
 50
270.0000000000065
 51
0.0
  0
ARC
  5
30F
330
6F
100
AcDbEntity
  8
0
100
AcDbCircle
 10
147.7851500000025
 20
17.76121020971316
 30
0.0
 40
0.9999999999999996
100
AcDbArc
 50
0.0
 51
90.0
  0
ARC
  5
310
330
6F
100
AcDbEntity
  8
0
100
AcDbCircle
 10
142.7851500000038
 20
17.76121020971316
 30
0.0
 40
0.9999999999999996
100
AcDbArc
 50
90.0
 51
180.0
  0
LINE
  5
317
330
6F
100
AcDbEntity
  8
0
100
AcDbLine
 10
197.7267500000032
 20
20.871034999999
 30
0.0
 11
192.7267500000008
 21
20.871034999999
 31
0.0
  0
LINE
  5
319
330
6F
100
AcDbEntity
  8
0
100
AcDbLine
 10
192.7267500000008
 20
37.81103499999911
 30
0.0
 11
197.7267500000036
 21
37.81103499999911
 31
0.0
  0
ARC
  5
31B
330
6F
100
AcDbEntity
  8
0
100
AcDbCircle
 10
197.7267500000032
 20
21.87103499999913
 30
0.0
 40
1.000000000000027
100
AcDbArc
 50
269.9999999999984
 51
347.5794858859412
  0
ARC
  5
31C
330
6F
100
AcDbEntity
  8
0
100
AcDbCircle
 10
192.7267500000008
 20
21.87103499999912
 30
0.0
 40
1.000000000000005
100
AcDbArc
 50
192.4205141140577
 51
270.0
  0
ARC
  5
31D
330
6F
100
AcDbEntity
  8
0
100
AcDbCircle
 10
192.7267500000008
 20
36.81103499999911
 30
0.0
 40
0.9999999999999996
100
AcDbArc
 50
90.0
 51
180.0
  0
ARC
  5
31E
330
6F
100
AcDbEntity
  8
0
100
AcDbCircle
 10
197.7267500000036
 20
36.81103499999911
 30
0.0
 40
1.0
100
AcDbArc
 50
359.9999999999935
 51
90.0
  0
LINE
  5
320
330
6F
100
AcDbEntity
  8
0
100
AcDbLine
 10
216.6031500000038
 20
37.81111020971316
 30
0.0
 11
221.6031500000025
 21
37.81111020971316
 31
0.0
  0
LINE
  5
322
330
6F
100
AcDbEntity
  8
0
100
AcDbLine
 10
216.6031500000038
 20
20.871034999999
 30
0.0
 11
221.6031500000025
 21
20.87103499999956
 31
0.0
  0
ARC
  5
323
330
6F
100
AcDbEntity
  8
0
100
AcDbCircle
 10
216.6031500000038
 20
21.87103499999914
 30
0.0
 40
1.000000000000011
100
AcDbArc
 50
192.4205141140591
 51
270.0000000000065
  0
ARC
  5
324
330
6F
100
AcDbEntity
  8
0
100
AcDbCircle
 10
221.6031500000026
 20
21.87103499999952
 30
0.0
 40
1.000000000000009
100
AcDbArc
 50
270.0000000000049
 51
347.5794858859184
  0
ARC
  5
325
330
6F
100
AcDbEntity
  8
0
100
AcDbCircle
 10
221.6031500000025
 20
36.81111020971317
 30
0.0
 40
0.9999999999999996
100
AcDbArc
 50
0.0
 51
90.0
  0
ARC
  5
326
330
6F
100
AcDbEntity
  8
0
100
AcDbCircle
 10
216.6031500000038
 20
36.81111020971317
 30
0.0
 40
0.9999999999999996
100
AcDbArc
 50
90.0
 51
180.0
  0
ARC
  5
32E
330
6F
100
AcDbEntity
  8
0
 62
     0
100
AcDbCircle
 10
189.357775
 20
34.65534999999999
 30
0.0
 40
1.0
100
AcDbArc
 50
90.0
 51
180.0
  0
ARC
  5
32F
330
6F
100
AcDbEntity
  8
0
 62
     0
100
AcDbCircle
 10
189.357775
 20
22.65594999999999
 30
0.0
 40
1.0
100
AcDbArc
 50
180.0
 51
270.0
  0
ARC
  5
331
330
6F
100
AcDbEntity
  8
0
 62
     0
100
AcDbCircle
 10
222.787775
 20
34.65534999999999
 30
0.0
 40
1.0
100
AcDbArc
 50
0.0
 51
90.0
  0
ARC
  5
332
330
6F
100
AcDbEntity
  8
0
 62
     0
100
AcDbCircle
 10
222.787775
 20
22.65594999999999
 30
0.0
 40
1.0
100
AcDbArc
 50
270.0
 51
0.0
  0
LINE
  5
336
330
6F
100
AcDbEntity
  8
0
  6
Continuous
100
AcDbLine
 10
191.7267500000008
 20
36.81103499999911
 30
0.0
 11
191.7267500000008
 21
35.65534999999999
 31
0.0
  0
LINE
  5
337
330
6F
100
AcDbEntity
  8
0
  6
Continuous
100
AcDbLine
 10
198.7267500000036
 20
36.81103499999899
 30
0.0
 11
198.7267500000036
 21
35.65534999999999
 31
0.0
  0
LINE
  5
338
330
6F
100
AcDbEntity
  8
0
  6
Continuous
100
AcDbLine
 10
198.7267500000036
 20
35.65534999999999
 30
0.0
 11
215.6031500000038
 21
35.65534999999999
 31
0.0
  0
LINE
  5
339
330
6F
100
AcDbEntity
  8
0
  6
Continuous
100
AcDbLine
 10
215.6031500000038
 20
35.65534999999999
 30
0.0
 11
215.6031500000038
 21
36.81111020971317
 31
0.0
  0
LINE
  5
33A
330
6F
100
AcDbEntity
  8
0
  6
Continuous
100
AcDbLine
 10
222.6031500000026
 20
36.81111020971317
 30
0.0
 11
222.6031500000026
 21
35.65534999999999
 31
0.0
  0
LINE
  5
33B
330
6F
100
AcDbEntity
  8
0
  6
Continuous
100
AcDbLine
 10
222.6031500000026
 20
35.65534999999999
 30
0.0
 11
222.787775
 21
35.65534999999999
 31
0.0
  0
LINE
  5
33C
330
6F
100
AcDbEntity
  8
0
  6
Continuous
100
AcDbLine
 10
198.7033453321523
 20
21.65594999999999
 30
0.0
 11
215.6265546678547
 21
21.65594999999999
 31
0.0
  0
LINE
  5
33D
330
6F
100
AcDbEntity
  8
0
  6
Continuous
100
AcDbLine
 10
222.787775
 20
21.65594999999999
 30
0.0
 11
222.5797453321515
 21
21.65594999999999
 31
0.0
  0
LINE
  5
348
330
6F
100
AcDbEntity
  8
0
  6
Continuous
100
AcDbLine
 10
-0.3805750000000003
 20
74.75565
 30
0.0
 11
-0.3805750000000003
 21
1.605750000000027
 31
0.0
  0
LINE
  5
349
330
6F
100
AcDbEntity
  8
0
  6
Continuous
100
AcDbLine
 10
1.619424999999998
 20
-0.3942499999999853
 30
0.0
 11
227.1697749999999
 21
-0.3942499999999854
 31
0.0
  0
LINE
  5
34A
330
6F
100
AcDbEntity
  8
0
  6
Continuous
100
AcDbLine
 10
229.169775
 20
1.605750000000014
 30
0.0
 11
229.169775
 21
74.75564999999997
 31
0.0
  0
LINE
  5
34B
330
6F
100
AcDbEntity
  8
0
  6
Continuous
100
AcDbLine
 10
227.169775
 20
76.75564999999997
 30
0.0
 11
1.619425000000035
 21
76.75565
 31
0.0
  0
ARC
  5
34C
330
6F
100
AcDbEntity
  8
0
  6
Continuous
100
AcDbCircle
 10
1.619424999999998
 20
74.75565
 30
0.0
 40
2.0
100
AcDbArc
 50
90.0
 51
180.0
  0
ARC
  5
34D
330
6F
100
AcDbEntity
  8
0
  6
Continuous
100
AcDbCircle
 10
227.169775
 20
74.75564999999997
 30
0.0
 40
2.0
100
AcDbArc
 50
0.0
 51
90.0
  0
ARC
  5
34E
330
6F
100
AcDbEntity
  8
0
  6
Continuous
100
AcDbCircle
 10
227.169775
 20
1.605750000000014
 30
0.0
 40
2.0
100
AcDbArc
 50
270.0
 51
0.0
  0
ARC
  5
34F
330
6F
100
AcDbEntity
  8
0
  6
Continuous
100
AcDbCircle
 10
1.619424999999998
 20
1.605750000000027
 30
0.0
 40
2.0
100
AcDbArc
 50
180.0
 51
270.0
  0
CIRCLE
  5
3AD
330
6F
100
AcDbEntity
  8
0
  6
Continuous
100
AcDbCircle
 10
38.19447499999998
 20
66.75565
 30
0.0
 40
2.5
  0
CIRCLE
  5
3AE
330
6F
100
AcDbEntity
  8
0
  6
Continuous
100
AcDbCircle
 10
114.393075
 20
66.75565
 30
0.0
 40
2.5
  0
CIRCLE
  5
3AF
330
6F
100
AcDbEntity
  8
0
  6
Continuous
100
AcDbCircle
 10
190.5947749999999
 20
66.75565
 30
0.0
 40
2.5
  0
CIRCLE
  5
3B0
330
6F
100
AcDbEntity
  8
0
  6
Continuous
100
AcDbCircle
 10
203.6916699999999
 20
9.605750000000007
 30
0.0
 40
2.5
  0
CIRCLE
  5
3B1
330
6F
100
AcDbEntity
  8
0
  6
Continuous
100
AcDbCircle
 10
147.7317749999999
 20
28.65565
 30
0.0
 40
2.5
  0
CIRCLE
  5
3B2
330
6F
100
AcDbEntity
  8
0
  6
Continuous
100
AcDbCircle
 10
71.53197499999994
 20
28.65565
 30
0.0
 40
2.5
  0
CIRCLE
  5
3B3
330
6F
100
AcDbEntity
  8
0
  6
Continuous
100
AcDbCircle
 10
25.09757999999997
 20
9.605750000000007
 30
0.0
 40
2.5
  0
LWPOLYLINE
  5
5BA
330
6F
100
AcDbEntity
  8
0
  6
Continuous
100
AcDbPolyline
 90
        8
 70
     1
 43
0.0
 38
1.0
 10
26.86006
 20
29.65565
 42
-0.4142135623730951
 10
27.86006
 20
30.65564999999999
 10
31.86006000000001
 20
30.65564999999999
 42
-0.4142135623730951
 10
32.86006
 20
29.65565
 10
32.86006
 20
27.65565
 42
-0.4142135623730951
 10
31.86006000000001
 20
26.65564999999999
 10
27.86006
 20
26.65564999999999
 42
-0.4142135623730951
 10
26.86006
 20
27.65565
  0
LWPOLYLINE
  5
5BF
330
6F
100
AcDbEntity
  8
0
  6
Continuous
100
AcDbPolyline
 90
        8
 70
     1
 43
0.0
 38
1.0
 10
17.14445
 20
66.75565
 42
-0.4142135623730951
 10
18.14445
 20
67.75565
 10
20.14445
 20
67.75565
 42
-0.4142135623730951
 10
21.14444999999999
 20
66.75565
 10
21.14444999999999
 20
66.75565
 42
-0.4142135623730951
 10
20.14445
 20
65.75565
 10
18.14445
 20
65.75565
 42
-0.4142135623730951
 10
17.14445
 20
66.75565
  0
ENDSEC
  0
SECTION
  2
OBJECTS
  0
DICTIONARY
  5
C
330
0
100
AcDbDictionary
281
     1
  3
ACAD_CIP_PREVIOUS_PRODUCT_INFO
350
186
  3
ACAD_COLOR
350
62
  3
ACAD_DETAILVIEWSTYLE
350
69
  3
ACAD_GROUP
350
D
  3
ACAD_LAYOUT
350
61
  3
ACAD_MATERIAL
350
10
  3
ACAD_MLEADERSTYLE
350
65
  3
ACAD_MLINESTYLE
350
5E
  3
ACAD_PLOTSETTINGS
350
60
  3
ACAD_PLOTSTYLENAME
350
E
  3
ACAD_SCALELIST
350
42
  3
ACAD_SECTIONVIEWSTYLE
350
67
  3
ACAD_TABLESTYLE
350
63
  3
ACAD_VISUALSTYLE
350
29
  3
ACDB_RECOMPOSE_DATA
350
5C1
  3
AcDbVariableDictionary
350
599
  0
DICTIONARY
  5
2CD
330
2
100
AcDbDictionary
280
     1
281
     1
  3
ACAD_LAYERSTATES
360
2CE
  0
DICTIONARY
  5
597
330
54
100
AcDbDictionary
280
     1
281
     1
  3
ADSK_XREC_LAYER_RECONCILED
360
598
  0
DICTIONARY
  5
188
330
6F
100
AcDbDictionary
280
     1
281
     1
  3
ACAD_SORTENTS
360
189
  0
XRECORD
  5
186
102
{ACAD_REACTORS
330
C
102
}
330
C
100
AcDbXrecord
280
     1
300
ACD
300
2019
300
ACD_F_S
  0
DICTIONARY
  5
62
102
{ACAD_REACTORS
330
C
102
}
330
C
100
AcDbDictionary
281
     1
  0
DICTIONARY
  5
69
102
{ACAD_REACTORS
330
C
102
}
330
C
100
AcDbDictionary
281
     1
  3
Imperial24
350
6A
  0
DICTIONARY
  5
D
102
{ACAD_REACTORS
330
C
102
}
330
C
100
AcDbDictionary
281
     1
  0
DICTIONARY
  5
61
102
{ACAD_REACTORS
330
C
102
}
330
C
100
AcDbDictionary
281
     1
  3
Layout1
350
6E
  3
Model
350
72
  0
DICTIONARY
  5
10
102
{ACAD_REACTORS
330
C
102
}
330
C
100
AcDbDictionary
281
     1
  3
ByBlock
350
19
  3
ByLayer
350
11
  3
Global
350
21
  0
DICTIONARY
  5
65
102
{ACAD_REACTORS
330
C
102
}
330
C
100
AcDbDictionary
281
     1
  3
Standard
350
66
  0
DICTIONARY
  5
5E
102
{ACAD_REACTORS
330
C
102
}
330
C
100
AcDbDictionary
281
     1
  3
Standard
350
5F
  0
DICTIONARY
  5
60
102
{ACAD_REACTORS
330
C
102
}
330
C
100
AcDbDictionary
281
     1
  0
ACDBDICTIONARYWDFLT
  5
E
102
{ACAD_REACTORS
330
C
102
}
330
C
100
AcDbDictionary
281
     1
  3
Normal
350
F
100
AcDbDictionaryWithDefault
340
F
  0
DICTIONARY
  5
42
102
{ACAD_REACTORS
330
C
102
}
330
C
100
AcDbDictionary
281
     1
  3
A0
350
43
  3
A1
350
44
  3
A2
350
45
  3
A3
350
46
  3
A4
350
47
  3
A5
350
48
  3
A6
350
49
  3
A7
350
4A
  3
A8
350
4B
  3
A9
350
4C
  3
B0
350
4D
  3
B1
350
4E
  3
B2
350
4F
  3
B3
350
50
  3
B4
350
51
  3
B5
350
52
  3
B6
350
53
  0
DICTIONARY
  5
67
102
{ACAD_REACTORS
330
C
102
}
330
C
100
AcDbDictionary
281
     1
  3
Imperial24
350
68
  0
DICTIONARY
  5
63
102
{ACAD_REACTORS
330
C
102
}
330
C
100
AcDbDictionary
281
     1
  3
Standard
350
64
  0
DICTIONARY
  5
29
102
{ACAD_REACTORS
330
C
102
}
330
C
100
AcDbDictionary
281
     1
  3
2dWireframe
350
2F
  3
Basic
350
2E
  3
Brighten
350
35
  3
ColorChange
350
39
  3
Conceptual
350
32
  3
Dim
350
34
  3
EdgeColorOff
350
41
  3
Facepattern
350
38
  3
Flat
350
2A
  3
FlatWithEdges
350
2B
  3
Gouraud
350
2C
  3
GouraudWithEdges
350
2D
  3
Hidden
350
31
  3
JitterOff
350
3F
  3
Linepattern
350
37
  3
OverhangOff
350
40
  3
Realistic
350
33
  3
Shaded
350
3E
  3
Shaded with edges
350
3D
  3
Shades of Gray
350
3A
  3
Sketchy
350
3B
  3
Thicken
350
36
  3
Wireframe
350
30
  3
X-Ray
350
3C
  0
XRECORD
  5
5C1
102
{ACAD_REACTORS
330
C
102
}
330
C
100
AcDbXrecord
280
     1
 90
        1
330
64
  0
DICTIONARY
  5
599
102
{ACAD_REACTORS
330
C
102
}
330
C
100
AcDbDictionary
281
     1
  3
CANNOSCALE
350
59F
  3
CMLEADERSTYLE
350
59B
  3
CTABLESTYLE
350
59A
  3
CVIEWDETAILSTYLE
350
59C
  3
CVIEWSECTIONSTYLE
350
59D
  3
LAYEREVAL
350
5A1
  3
LAYERNOTIFY
350
5A2
  3
LIGHTINGUNITS
350
5A0
  3
MSLTSCALE
350
59E
  0
DICTIONARY
  5
2CE
102
{ACAD_REACTORS
330
2CD
102
}
330
2CD
100
AcDbDictionary
281
     1
  0
XRECORD
  5
598
102
{ACAD_REACTORS
330
597
102
}
330
597
100
AcDbXrecord
280
     1
290
     1
  0
SORTENTSTABLE
  5
189
102
{ACAD_REACTORS
330
188
102
}
330
188
100
AcDbSortentsTable
330
6F
331
123
  5
124
331
124
  5
126
331
126
  5
155
331
151
  5
15C
331
155
  5
18D
331
156
  5
18F
331
157
  5
191
331
158
  5
193
331
187
  5
190
331
18A
  5
192
331
18B
  5
194
331
18C
  5
18E
331
18D
  5
195
331
18E
  5
196
331
18F
  5
197
331
190
  5
198
331
191
  5
199
331
192
  5
19A
331
193
  5
19B
331
194
  5
19C
331
195
  5
19D
331
196
  5
19E
331
197
  5
19F
331
198
  5
1A0
331
199
  5
1A1
331
19A
  5
1A2
331
19B
  5
1A3
331
19C
  5
1A4
331
19D
  5
1A5
331
19E
  5
1A6
331
19F
  5
1A7
331
1A0
  5
1A8
331
1A1
  5
1A9
331
1A2
  5
1AA
331
1A3
  5
1AB
331
1A4
  5
1AC
331
1A5
  5
1AD
331
1A6
  5
1AE
331
1A7
  5
1AF
331
1A8
  5
1B0
331
1A9
  5
1B1
331
1AA
  5
1B2
331
1AB
  5
1B3
331
1AC
  5
1B4
331
1AD
  5
1B5
331
1AE
  5
1B6
331
1AF
  5
1B7
331
1B0
  5
1B8
331
1B1
  5
1B9
331
1B2
  5
1BA
331
1B3
  5
1BB
331
1B4
  5
1BC
331
1B5
  5
1BD
331
1B6
  5
1BE
331
1B7
  5
1BF
331
1B8
  5
1C0
331
1B9
  5
1C1
331
1BA
  5
1C2
331
1BB
  5
1C3
331
1BC
  5
1C4
331
1BD
  5
1C5
331
1BE
  5
1C6
331
1BF
  5
1C7
331
1C0
  5
1C8
331
1C1
  5
1C9
331
1C2
  5
1CA
331
1C3
  5
1CB
331
1C4
  5
1CC
331
1C5
  5
1CD
331
1C6
  5
1CE
331
1C7
  5
1CF
331
1C8
  5
1D0
331
1C9
  5
1D1
331
1CA
  5
1D2
331
1CB
  5
1D3
331
1CC
  5
1D4
331
1CD
  5
1D5
331
1CE
  5
1D6
331
1CF
  5
1D7
331
1D0
  5
1D8
331
1D1
  5
1D9
331
1D2
  5
1DA
331
1D3
  5
1DB
331
1D4
  5
1DC
331
1D5
  5
1DD
331
1D6
  5
1DE
331
1D7
  5
1DF
331
1D8
  5
1E0
331
1D9
  5
1E1
331
1DA
  5
1E2
331
1DB
  5
1E3
331
1DC
  5
1E4
331
1DD
  5
1E5
331
1DE
  5
1E6
331
1DF
  5
1E7
331
1E0
  5
1E8
331
1E1
  5
1E9
331
1E2
  5
1EA
331
1E3
  5
1EB
331
1E4
  5
1EC
331
1E5
  5
1ED
331
1E6
  5
1EE
331
1E7
  5
1EF
331
1E8
  5
1F0
331
1E9
  5
1F1
331
1EA
  5
1F2
331
1EB
  5
1F3
331
1EC
  5
1F4
331
1ED
  5
1F5
331
1EE
  5
1F6
331
1EF
  5
1F7
331
1F0
  5
1F8
331
1F1
  5
1F9
331
1F2
  5
1FA
331
1F3
  5
1FB
331
1F4
  5
1FC
331
1F5
  5
1FD
331
1F6
  5
1FE
331
1F7
  5
1FF
331
1F8
  5
200
331
1F9
  5
201
331
1FA
  5
202
331
1FB
  5
203
331
1FC
  5
204
331
1FD
  5
205
331
1FE
  5
206
331
1FF
  5
207
331
200
  5
208
331
201
  5
209
331
202
  5
20A
331
203
  5
20B
331
204
  5
20C
331
205
  5
20D
331
206
  5
20E
331
207
  5
20F
331
208
  5
210
331
209
  5
211
331
20A
  5
212
331
20B
  5
213
331
20C
  5
214
331
20D
  5
215
331
20E
  5
216
331
20F
  5
217
331
210
  5
218
331
211
  5
219
331
212
  5
21A
331
213
  5
21B
331
214
  5
21C
331
215
  5
21D
331
216
  5
21E
331
217
  5
21F
331
218
  5
220
331
219
  5
221
331
21A
  5
222
331
21B
  5
223
331
21C
  5
224
331
21D
  5
225
331
21E
  5
226
331
21F
  5
227
331
220
  5
228
331
221
  5
229
331
222
  5
22A
331
223
  5
22B
331
224
  5
22C
331
225
  5
22D
331
226
  5
22E
331
227
  5
22F
331
228
  5
230
331
229
  5
231
331
22A
  5
232
331
22B
  5
233
331
22C
  5
234
331
22D
  5
235
331
22E
  5
236
331
22F
  5
237
331
230
  5
238
331
231
  5
239
331
232
  5
23A
331
233
  5
23B
331
234
  5
23C
331
235
  5
23E
331
236
  5
23F
331
237
  5
240
331
238
  5
241
331
239
  5
242
331
23A
  5
243
331
23B
  5
244
331
23C
  5
245
331
23E
  5
247
331
23F
  5
248
331
240
  5
249
331
241
  5
24A
331
242
  5
24B
331
243
  5
24C
331
244
  5
24D
331
245
  5
24E
331
247
  5
250
331
248
  5
251
331
249
  5
252
331
24A
  5
253
331
24B
  5
254
331
24C
  5
255
331
24D
  5
256
331
24E
  5
257
331
250
  5
259
331
251
  5
25A
331
252
  5
25B
331
253
  5
25C
331
254
  5
25D
331
255
  5
25E
331
256
  5
25F
331
257
  5
260
331
259
  5
262
331
25A
  5
263
331
25B
  5
264
331
25C
  5
265
331
25D
  5
266
331
25E
  5
267
331
25F
  5
268
331
260
  5
269
331
262
  5
26B
331
263
  5
26C
331
264
  5
26D
331
265
  5
26E
331
266
  5
26F
331
267
  5
270
331
268
  5
271
331
269
  5
272
331
26B
  5
274
331
26C
  5
275
331
26D
  5
276
331
26E
  5
277
331
26F
  5
278
331
270
  5
279
331
271
  5
27A
331
272
  5
27B
331
274
  5
27C
331
275
  5
27D
331
276
  5
27E
331
277
  5
27F
331
278
  5
280
331
279
  5
281
331
27A
  5
282
331
27B
  5
283
331
27C
  5
284
331
27D
  5
285
331
27E
  5
286
331
27F
  5
287
331
280
  5
288
331
281
  5
289
331
282
  5
28A
331
283
  5
28B
331
284
  5
28C
331
285
  5
28D
331
286
  5
28E
331
287
  5
28F
331
288
  5
290
331
289
  5
291
331
28A
  5
292
331
28B
  5
293
331
28C
  5
294
331
28D
  5
295
331
28E
  5
296
331
28F
  5
297
331
290
  5
298
331
291
  5
299
331
292
  5
29A
331
293
  5
29B
331
294
  5
29C
331
295
  5
29D
331
296
  5
29E
331
297
  5
29F
331
298
  5
2A0
331
299
  5
2A1
331
29A
  5
2A2
331
29B
  5
2A3
331
29C
  5
2A4
331
29D
  5
2A5
331
29E
  5
2A6
331
29F
  5
2A7
331
2A0
  5
2A8
331
2A1
  5
2A9
331
2A2
  5
2AA
331
2A3
  5
2AB
331
2A4
  5
2AC
331
2A5
  5
2AD
331
2A6
  5
2AE
331
2A7
  5
2AF
331
2A8
  5
2B0
331
2A9
  5
2B1
331
2AA
  5
2B2
331
2AB
  5
2B3
331
2AC
  5
2B4
331
2AD
  5
2B5
331
2AE
  5
2B6
331
2AF
  5
2B7
331
2B0
  5
2B8
331
2B1
  5
2B9
331
2B2
  5
2BA
331
2B3
  5
2BB
331
2B4
  5
2E6
331
2B5
  5
2E7
331
2B6
  5
2E8
331
2B7
  5
2E9
331
2B8
  5
2EA
331
2B9
  5
2EB
331
2BA
  5
2EC
331
2BB
  5
2ED
331
2E6
  5
2EE
331
2E7
  5
2EF
331
2E8
  5
2F0
331
2E9
  5
2F1
331
2EA
  5
2F2
331
2EB
  5
2F3
331
2EC
  5
2F4
331
2ED
  5
2F5
331
2EE
  5
2F6
331
2EF
  5
2FC
331
2F0
  5
2FD
331
2F1
  5
2FE
331
2F2
  5
2FF
331
2F3
  5
300
331
2F4
  5
301
331
2F5
  5
302
331
2F6
  5
303
331
300
  5
308
331
301
  5
309
331
302
  5
30A
331
303
  5
30B
331
304
  5
30C
331
305
  5
30D
331
306
  5
30E
331
307
  5
30F
331
308
  5
310
331
309
  5
311
331
30A
  5
312
331
30B
  5
313
331
30C
  5
314
331
30D
  5
315
331
30E
  5
316
331
30F
  5
317
331
310
  5
318
331
317
  5
31F
331
319
  5
321
331
31B
  5
323
331
31C
  5
324
331
31D
  5
325
331
31E
  5
326
331
320
  5
328
331
322
  5
32A
331
323
  5
32B
331
324
  5
32C
331
325
  5
32D
331
326
  5
32E
331
32E
  5
128
331
32F
  5
127
331
331
  5
156
331
332
  5
158
331
349
  5
34B
331
34A
  5
34C
331
34B
  5
34F
331
34C
  5
34A
331
34D
  5
34E
331
34E
  5
34D
331
34F
  5
349
  0
ACDBDETAILVIEWSTYLE
  5
6A
102
{ACAD_XDICTIONARY
360
5C4
102
}
102
{ACAD_REACTORS
330
69
102
}
330
69
100
AcDbModelDocViewStyle
 70
     0
  3
Imperial24
290
     0
100
AcDbDetailViewStyle
 70
     0
 71
     0
 90
        3
 71
     1
340
55
 62
   256
 40
0.24
340
0
 62
   256
 40
0.24
300

 40
0.36
280
     3
 71
     2
340
5C
 90
       25
 62
   256
 71
     3
340
55
 62
   256
 40
0.24
 90
        1
 40
0.75
 90
        1
300
%<\AcVar ViewType \f "%tc1">% %<\AcVar ViewDetailId>%\PSCALE %<\AcVar ViewScale \f "%sn">%
 71
     4
340
5C
 90
       25
 62
   256
340
5C
 90
       25
 62
   256
280
     0
  0
LAYOUT
  5
6E
102
{ACAD_REACTORS
330
61
102
}
330
61
100
AcDbPlotSettings
  1

  2
Microsoft Print to PDF
  4

  6

 40
0.0
 41
0.0
 42
0.0
 43
0.0
 44
0.0
 45
0.0
 46
0.0
 47
0.0
 48
0.0
 49
0.0
140
0.0
141
0.0
142
1.0
143
1.0
 70
   688
 72
     0
 73
     0
 74
     5
  7

 75
    16
147
1.0
 76
     0
 77
     2
 78
   300
148
0.0
149
0.0
100
AcDbLayout
  1
Layout1
 70
     1
 71
     1
 10
0.0
 20
0.0
 11
12.0
 21
9.0
 12
0.0
 22
0.0
 32
0.0
 14
1.000000000000000E+20
 24
1.000000000000000E+20
 34
1.000000000000000E+20
 15
-1.000000000000000E+20
 25
-1.000000000000000E+20
 35
-1.000000000000000E+20
146
0.0
 13
0.0
 23
0.0
 33
0.0
 16
1.0
 26
0.0
 36
0.0
 17
0.0
 27
1.0
 37
0.0
 76
     0
330
6B
  0
LAYOUT
  5
72
102
{ACAD_REACTORS
330
61
102
}
330
61
100
AcDbPlotSettings
  1

  2
Microsoft Print to PDF
  4

  6

 40
0.0
 41
0.0
 42
0.0
 43
0.0
 44
0.0
 45
0.0
 46
0.0
 47
0.0
 48
0.0
 49
0.0
140
0.0
141
0.0
142
1.0
143
1.0
 70
  1712
 72
     0
 73
     0
 74
     0
  7

 75
     0
147
1.0
 76
     0
 77
     2
 78
   300
148
0.0
149
0.0
100
AcDbLayout
  1
Model
 70
     1
 71
     0
 10
0.0
 20
0.0
 11
12.0
 21
9.0
 12
0.0
 22
0.0
 32
0.0
 14
0.0
 24
0.0
 34
0.0
 15
0.0
 25
0.0
 35
0.0
146
0.0
 13
0.0
 23
0.0
 33
0.0
 16
1.0
 26
0.0
 36
0.0
 17
0.0
 27
1.0
 37
0.0
 76
     0
330
6F
331
74
  0
MATERIAL
  5
19
102
{ACAD_XDICTIONARY
360
1A
102
}
102
{ACAD_REACTORS
330
10
102
}
330
10
100
AcDbMaterial
  1
ByBlock
 72
     0
 43
0.0208333333333333
 43
0.0
 43
0.0
 43
0.0
 43
0.0
 43
0.0208333333333333
 43
0.0
 43
0.0
 43
0.0
 43
0.0
 43
1.0
 43
0.0
 43
0.0
 43
0.0
 43
0.0
 43
1.0
 77
     0
 47
0.0208333333333333
 47
0.0
 47
0.0
 47
0.0
 47
0.0
 47
0.0208333333333333
 47
0.0
 47
0.0
 47
0.0
 47
0.0
 47
1.0
 47
0.0
 47
0.0
 47
0.0
 47
0.0
 47
1.0
171
     0
 49
0.0208333333333333
 49
0.0
 49
0.0
 49
0.0
 49
0.0
 49
0.0208333333333333
 49
0.0
 49
0.0
 49
0.0
 49
0.0
 49
1.0
 49
0.0
 49
0.0
 49
0.0
 49
0.0
 49
1.0
175
     0
142
0.0208333333333333
142
0.0
142
0.0
142
0.0
142
0.0
142
0.0208333333333333
142
0.0
142
0.0
142
0.0
142
0.0
142
1.0
142
0.0
142
0.0
142
0.0
142
0.0
142
1.0
179
     0
144
0.0208333333333333
144
0.0
144
0.0
144
0.0
144
0.0
144
0.0208333333333333
144
0.0
144
0.0
144
0.0
144
0.0
144
1.0
144
0.0
144
0.0
144
0.0
144
0.0
144
1.0
147
0.0208333333333333
147
0.0
147
0.0
147
0.0
147
0.0
147
0.0208333333333333
147
0.0
147
0.0
147
0.0
147
0.0
147
1.0
147
0.0
147
0.0
147
0.0
147
0.0
147
1.0
  0
MATERIAL
  5
11
102
{ACAD_XDICTIONARY
360
12
102
}
102
{ACAD_REACTORS
330
10
102
}
330
10
100
AcDbMaterial
  1
ByLayer
 72
     0
 43
0.0208333333333333
 43
0.0
 43
0.0
 43
0.0
 43
0.0
 43
0.0208333333333333
 43
0.0
 43
0.0
 43
0.0
 43
0.0
 43
1.0
 43
0.0
 43
0.0
 43
0.0
 43
0.0
 43
1.0
 77
     0
 47
0.0208333333333333
 47
0.0
 47
0.0
 47
0.0
 47
0.0
 47
0.0208333333333333
 47
0.0
 47
0.0
 47
0.0
 47
0.0
 47
1.0
 47
0.0
 47
0.0
 47
0.0
 47
0.0
 47
1.0
171
     0
 49
0.0208333333333333
 49
0.0
 49
0.0
 49
0.0
 49
0.0
 49
0.0208333333333333
 49
0.0
 49
0.0
 49
0.0
 49
0.0
 49
1.0
 49
0.0
 49
0.0
 49
0.0
 49
0.0
 49
1.0
175
     0
142
0.0208333333333333
142
0.0
142
0.0
142
0.0
142
0.0
142
0.0208333333333333
142
0.0
142
0.0
142
0.0
142
0.0
142
1.0
142
0.0
142
0.0
142
0.0
142
0.0
142
1.0
179
     0
144
0.0208333333333333
144
0.0
144
0.0
144
0.0
144
0.0
144
0.0208333333333333
144
0.0
144
0.0
144
0.0
144
0.0
144
1.0
144
0.0
144
0.0
144
0.0
144
0.0
144
1.0
147
0.0208333333333333
147
0.0
147
0.0
147
0.0
147
0.0
147
0.0208333333333333
147
0.0
147
0.0
147
0.0
147
0.0
147
1.0
147
0.0
147
0.0
147
0.0
147
0.0
147
1.0
  0
MATERIAL
  5
21
102
{ACAD_XDICTIONARY
360
22
102
}
102
{ACAD_REACTORS
330
10
102
}
330
10
100
AcDbMaterial
  1
Global
 72
     0
 43
0.0208333333333333
 43
0.0
 43
0.0
 43
0.0
 43
0.0
 43
0.0208333333333333
 43
0.0
 43
0.0
 43
0.0
 43
0.0
 43
1.0
 43
0.0
 43
0.0
 43
0.0
 43
0.0
 43
1.0
 77
     0
 47
0.0208333333333333
 47
0.0
 47
0.0
 47
0.0
 47
0.0
 47
0.0208333333333333
 47
0.0
 47
0.0
 47
0.0
 47
0.0
 47
1.0
 47
0.0
 47
0.0
 47
0.0
 47
0.0
 47
1.0
171
     0
 49
0.0208333333333333
 49
0.0
 49
0.0
 49
0.0
 49
0.0
 49
0.0208333333333333
 49
0.0
 49
0.0
 49
0.0
 49
0.0
 49
1.0
 49
0.0
 49
0.0
 49
0.0
 49
0.0
 49
1.0
175
     0
142
0.0208333333333333
142
0.0
142
0.0
142
0.0
142
0.0
142
0.0208333333333333
142
0.0
142
0.0
142
0.0
142
0.0
142
1.0
142
0.0
142
0.0
142
0.0
142
0.0
142
1.0
179
     0
144
0.0208333333333333
144
0.0
144
0.0
144
0.0
144
0.0
144
0.0208333333333333
144
0.0
144
0.0
144
0.0
144
0.0
144
1.0
144
0.0
144
0.0
144
0.0
144
0.0
144
1.0
147
0.0208333333333333
147
0.0
147
0.0
147
0.0
147
0.0
147
0.0208333333333333
147
0.0
147
0.0
147
0.0
147
0.0
147
1.0
147
0.0
147
0.0
147
0.0
147
0.0
147
1.0
  0
MLEADERSTYLE
  5
66
102
{ACAD_REACTORS
330
65
102
}
330
65
100
AcDbMLeaderStyle
179
     2
170
     2
171
     1
172
     0
 90
        2
 40
0.0
 41
0.0
173
     1
 91
-1056964608
340
5A
 92
       -2
290
     1
 42
0.09
291
     1
 43
0.36
  3
Standard
 44
0.18
300

342
55
174
     1
178
     6
175
     1
176
     0
 93
-1056964608
 45
0.18
292
     0
297
     0
 46
0.18
 94
-1056964608
 47
1.0
 49
1.0
140
1.0
293
     1
141
0.0
294
     1
177
     0
142
1.0
295
     0
296
     0
143
0.125
271
     0
272
     9
273
     9
298
     0
  0
MLINESTYLE
  5
5F
102
{ACAD_REACTORS
330
5E
102
}
330
5E
100
AcDbMlineStyle
  2
STANDARD
 70
     0
  3

 62
   256
 51
90.0
 52
90.0
 71
     2
 49
0.5
 62
   256
  6
BYLAYER
 49
-0.5
 62
   256
  6
BYLAYER
  0
ACDBPLACEHOLDER
  5
F
102
{ACAD_REACTORS
330
E
102
}
330
E
  0
SCALE
  5
43
102
{ACAD_REACTORS
330
42
102
}
330
42
100
AcDbScale
 70
     0
300
1:1
140
1.0
141
1.0
290
     1
  0
SCALE
  5
44
102
{ACAD_REACTORS
330
42
102
}
330
42
100
AcDbScale
 70
     0
300
1/128" = 1'-0"
140
0.0078125
141
12.0
290
     0
  0
SCALE
  5
45
102
{ACAD_REACTORS
330
42
102
}
330
42
100
AcDbScale
 70
     0
300
1/64" = 1'-0"
140
0.015625
141
12.0
290
     0
  0
SCALE
  5
46
102
{ACAD_REACTORS
330
42
102
}
330
42
100
AcDbScale
 70
     0
300
1/32" = 1'-0"
140
0.03125
141
12.0
290
     0
  0
SCALE
  5
47
102
{ACAD_REACTORS
330
42
102
}
330
42
100
AcDbScale
 70
     0
300
1/16" = 1'-0"
140
0.0625
141
12.0
290
     0
  0
SCALE
  5
48
102
{ACAD_REACTORS
330
42
102
}
330
42
100
AcDbScale
 70
     0
300
3/32" = 1'-0"
140
0.09375
141
12.0
290
     0
  0
SCALE
  5
49
102
{ACAD_REACTORS
330
42
102
}
330
42
100
AcDbScale
 70
     0
300
1/8" = 1'-0"
140
0.125
141
12.0
290
     0
  0
SCALE
  5
4A
102
{ACAD_REACTORS
330
42
102
}
330
42
100
AcDbScale
 70
     0
300
3/16" = 1'-0"
140
0.1875
141
12.0
290
     0
  0
SCALE
  5
4B
102
{ACAD_REACTORS
330
42
102
}
330
42
100
AcDbScale
 70
     0
300
1/4" = 1'-0"
140
0.25
141
12.0
290
     0
  0
SCALE
  5
4C
102
{ACAD_REACTORS
330
42
102
}
330
42
100
AcDbScale
 70
     0
300
3/8" = 1'-0"
140
0.375
141
12.0
290
     0
  0
SCALE
  5
4D
102
{ACAD_REACTORS
330
42
102
}
330
42
100
AcDbScale
 70
     0
300
1/2" = 1'-0"
140
0.5
141
12.0
290
     0
  0
SCALE
  5
4E
102
{ACAD_REACTORS
330
42
102
}
330
42
100
AcDbScale
 70
     0
300
3/4" = 1'-0"
140
0.75
141
12.0
290
     0
  0
SCALE
  5
4F
102
{ACAD_REACTORS
330
42
102
}
330
42
100
AcDbScale
 70
     0
300
1" = 1'-0"
140
1.0
141
12.0
290
     0
  0
SCALE
  5
50
102
{ACAD_REACTORS
330
42
102
}
330
42
100
AcDbScale
 70
     0
300
1-1/2" = 1'-0"
140
1.5
141
12.0
290
     0
  0
SCALE
  5
51
102
{ACAD_REACTORS
330
42
102
}
330
42
100
AcDbScale
 70
     0
300
3" = 1'-0"
140
3.0
141
12.0
290
     0
  0
SCALE
  5
52
102
{ACAD_REACTORS
330
42
102
}
330
42
100
AcDbScale
 70
     0
300
6" = 1'-0"
140
6.0
141
12.0
290
     0
  0
SCALE
  5
53
102
{ACAD_REACTORS
330
42
102
}
330
42
100
AcDbScale
 70
     0
300
1'-0" = 1'-0"
140
12.0
141
12.0
290
     0
  0
ACDBSECTIONVIEWSTYLE
  5
68
102
{ACAD_XDICTIONARY
360
5C2
102
}
102
{ACAD_REACTORS
330
67
102
}
330
67
100
AcDbModelDocViewStyle
 70
     0
  3
Imperial24
290
     0
100
AcDbSectionViewStyle
 70
     0
 71
     0
 90
       78
 71
     1
340
55
 62
   256
 40
0.24
340
0
340
0
 62
   256
 40
0.24
300
I, O, Q, S, X, Z
 40
0.48
 90
        3
 40
0.18
 90
        1
 71
     2
340
5C
 90
       25
 62
   256
340
5C
 90
       50
 62
   256
 40
0.24
 40
0.0
 40
0.24
 71
     3
340
55
 62
   256
 40
0.24
 90
        1
 40
0.75
 90
        1
300
%<\AcVar ViewType \f "%tc1">% %<\AcVar ViewSectionStartId>%-%<\AcVar ViewSectionEndId>%\PSCALE %<\AcVar ViewScale \f "%sn">%
 71
     4
 62
   256
 62
   257
300
ANSI31
 40
1.0
 90
        0
290
     0
290
     0
 90
        6
 40
0.0
 40
1.570796326794896
 40
0.2617993877991494
 40
1.308996938995747
 40
-0.2617993877991494
 40
1.832595714594045
  0
TABLESTYLE
  5
64
102
{ACAD_XDICTIONARY
360
5A3
102
}
102
{ACAD_REACTORS
330
63
102
}
330
63
100
AcDbTableStyle
280
     0
  3
Standard
 70
     0
 71
     0
 40
0.06
 41
0.06
280
     0
281
     0
  7
Standard
140
0.18
170
     2
 62
     0
 63
     7
283
     0
 90
      512
 91
        0
  1

274
    -2
284
     1
 64
     0
275
    -2
285
     1
 65
     0
276
    -2
286
     1
 66
     0
277
    -2
287
     1
 67
     0
278
    -2
288
     1
 68
     0
279
    -2
289
     1
 69
     0
  7
Standard
140
0.25
170
     5
 62
     0
 63
     7
283
     0
 90
      512
 91
        0
  1

274
    -2
284
     1
 64
     0
275
    -2
285
     1
 65
     0
276
    -2
286
     1
 66
     0
277
    -2
287
     1
 67
     0
278
    -2
288
     1
 68
     0
279
    -2
289
     1
 69
     0
  7
Standard
140
0.18
170
     5
 62
     0
 63
     7
283
     0
 90
      512
 91
        0
  1

274
    -2
284
     1
 64
     0
275
    -2
285
     1
 65
     0
276
    -2
286
     1
 66
     0
277
    -2
287
     1
 67
     0
278
    -2
288
     1
 68
     0
279
    -2
289
     1
 69
     0
  0
VISUALSTYLE
  5
2F
102
{ACAD_REACTORS
330
29
102
}
330
29
100
AcDbVisualStyle
  2
2dWireframe
 70
     4
177
     3
291
     0
 70
    58
 90
        0
176
     1
 90
        2
176
     1
 90
        0
176
     1
 90
        0
176
     1
 40
0.6
176
     1
 40
30.0
176
     1
 62
     7
420
 16777215
176
     1
 90
        1
176
     1
 90
        4
176
     1
 62
     7
176
     1
 62
   257
176
     1
 90
        1
176
     1
 90
        1
176
     1
 40
1.0
176
     1
 90
        0
176
     1
 62
   257
176
     1
 40
1.0
176
     1
 90
        1
176
     1
 90
        6
176
     1
 90
        2
176
     1
 62
     7
176
     1
 90
        5
176
     1
 90
        0
176
     1
 90
        0
176
     1
290
     0
176
     1
 90
        1
176
     1
 40
0.0
176
     1
 90
        0
176
     1
290
     1
176
     1
290
     1
176
     1
290
     0
176
     1
290
     0
176
     1
290
     0
176
     1
290
     0
176
     1
290
     0
176
     1
290
     0
176
     1
290
     0
176
     1
 90
       50
176
     1
 40
0.0
176
     1
 40
1.0
176
     1
 90
        0
176
     1
 62
    18
176
     1
 90
       50
176
     1
 90
        3
176
     1
 62
     5
420
      255
176
     1
290
     0
176
     1
 90
       50
176
     1
 90
       50
176
     1
 90
       50
176
     1
290
     0
176
     1
 90
       50
176
     1
 62
   256
176
     0
 40
1.0
176
     0
 90
        2
176
     1
  1
strokes_ogs.tif
176
     1
290
     0
176
     1
 40
1.0
176
     1
 40
1.0
176
     1
1001
ACAD
1000
AcDbSavedByObjectVersion
1070
     0
  0
VISUALSTYLE
  5
2E
102
{ACAD_REACTORS
330
29
102
}
330
29
100
AcDbVisualStyle
  2
Basic
 70
     7
177
     3
291
     1
 70
    58
 90
        1
176
     1
 90
        0
176
     1
 90
        1
176
     1
 90
        0
176
     1
 40
0.6
176
     1
 40
30.0
176
     1
 62
     7
420
 16777215
176
     1
 90
        0
176
     1
 90
        4
176
     1
 62
     7
176
     1
 62
   257
176
     1
 90
        1
176
     1
 90
        1
176
     1
 40
1.0
176
     1
 90
        8
176
     1
 62
     7
176
     1
 40
1.0
176
     1
 90
        1
176
     1
 90
        6
176
     1
 90
        2
176
     1
 62
     7
176
     1
 90
        5
176
     1
 90
        0
176
     1
 90
        0
176
     1
290
     0
176
     1
 90
        1
176
     1
 40
0.0
176
     1
 90
        0
176
     1
290
     0
176
     1
290
     1
176
     1
290
     1
176
     1
290
     0
176
     1
290
     0
176
     1
290
     0
176
     1
290
     0
176
     1
290
     0
176
     1
290
     0
176
     1
 90
       50
176
     1
 40
0.0
176
     1
 40
1.0
176
     1
 90
        0
176
     1
 62
    18
176
     1
 90
       50
176
     1
 90
        3
176
     1
 62
     5
420
      255
176
     1
290
     0
176
     1
 90
       50
176
     1
 90
       50
176
     1
 90
       50
176
     1
290
     0
176
     1
 90
       50
176
     1
 62
   256
176
     0
 40
1.0
176
     0
 90
        2
176
     1
  1
strokes_ogs.tif
176
     1
290
     0
176
     1
 40
1.0
176
     1
 40
1.0
176
     1
1001
ACAD
1000
AcDbSavedByObjectVersion
1070
     0
  0
VISUALSTYLE
  5
35
102
{ACAD_REACTORS
330
29
102
}
330
29
100
AcDbVisualStyle
  2
Brighten
 70
    12
177
     3
291
     1
 70
    58
 90
        2
176
     1
 90
        2
176
     1
 90
        0
176
     1
 90
        0
176
     1
 40
0.6
176
     1
 40
30.0
176
     1
 62
     7
420
 16777215
176
     1
 90
        1
176
     1
 90
        4
176
     1
 62
     7
176
     1
 62
   257
176
     1
 90
        1
176
     1
 90
        1
176
     1
 40
1.0
176
     1
 90
        8
176
     1
 62
     7
176
     1
 40
1.0
176
     1
 90
        1
176
     1
 90
        6
176
     1
 90
        2
176
     1
 62
     7
176
     1
 90
        5
176
     1
 90
        0
176
     1
 90
        0
176
     1
290
     0
176
     1
 90
        1
176
     1
 40
50.0
176
     1
 90
        0
176
     1
290
     0
176
     1
290
     1
176
     1
290
     1
176
     1
290
     0
176
     1
290
     0
176
     1
290
     0
176
     1
290
     0
176
     1
290
     0
176
     1
290
     0
176
     1
 90
       50
176
     1
 40
0.0
176
     1
 40
1.0
176
     1
 90
        0
176
     1
 62
    18
176
     1
 90
       50
176
     1
 90
        3
176
     1
 62
     5
420
      255
176
     1
290
     0
176
     1
 90
       50
176
     1
 90
       50
176
     1
 90
       50
176
     1
290
     0
176
     1
 90
       50
176
     1
 62
   256
176
     0
 40
1.0
176
     0
 90
        2
176
     1
  1
strokes_ogs.tif
176
     1
290
     0
176
     1
 40
1.0
176
     1
 40
1.0
176
     1
1001
ACAD
1000
AcDbSavedByObjectVersion
1070
     0
  0
VISUALSTYLE
  5
39
102
{ACAD_REACTORS
330
29
102
}
330
29
100
AcDbVisualStyle
  2
ColorChange
 70
    16
177
     3
291
     1
 70
    58
 90
        2
176
     1
 90
        2
176
     1
 90
        3
176
     1
 90
        0
176
     1
 40
0.6
176
     1
 40
30.0
176
     1
 62
     8
420
  8421504
176
     1
 90
        1
176
     1
 90
        4
176
     1
 62
     7
176
     1
 62
   257
176
     1
 90
        1
176
     1
 90
        1
176
     1
 40
1.0
176
     1
 90
        8
176
     1
 62
     8
420
  8421504
176
     1
 40
1.0
176
     1
 90
        1
176
     1
 90
        6
176
     1
 90
        2
176
     1
 62
     7
176
     1
 90
        5
176
     1
 90
        0
176
     1
 90
        0
176
     1
290
     0
176
     1
 90
        1
176
     1
 40
0.0
176
     1
 90
        0
176
     1
290
     0
176
     1
290
     1
176
     1
290
     1
176
     1
290
     0
176
     1
290
     0
176
     1
290
     0
176
     1
290
     0
176
     1
290
     0
176
     1
290
     0
176
     1
 90
       50
176
     1
 40
0.0
176
     1
 40
1.0
176
     1
 90
        0
176
     1
 62
    18
176
     1
 90
       50
176
     1
 90
        3
176
     1
 62
     5
420
      255
176
     1
290
     0
176
     1
 90
       50
176
     1
 90
       50
176
     1
 90
       50
176
     1
290
     0
176
     1
 90
       50
176
     1
 62
   256
176
     0
 40
1.0
176
     0
 90
        2
176
     1
  1
strokes_ogs.tif
176
     1
290
     0
176
     1
 40
1.0
176
     1
 40
1.0
176
     1
1001
ACAD
1000
AcDbSavedByObjectVersion
1070
     0
  0
VISUALSTYLE
  5
32
102
{ACAD_REACTORS
330
29
102
}
330
29
100
AcDbVisualStyle
  2
Conceptual
 70
     9
177
     3
291
     0
 70
    58
 90
        3
176
     1
 90
        2
176
     1
 90
        0
176
     1
 90
        0
176
     1
 40
0.6
176
     1
 40
30.0
176
     1
 62
     7
420
 16777215
176
     1
 90
        2
176
     1
 90
        2
176
     1
 62
     7
176
     1
 62
   257
176
     1
 90
        1
176
     1
 90
        1
176
     1
 40
179.0
176
     1
 90
        8
176
     1
 62
     7
176
     1
 40
1.0
176
     1
 90
        1
176
     1
 90
        6
176
     1
 90
        2
176
     1
 62
     7
176
     1
 90
        3
176
     1
 90
        0
176
     1
 90
        0
176
     1
290
     0
176
     1
 90
        1
176
     1
 40
0.0
176
     1
 90
        0
176
     1
290
     0
176
     1
290
     1
176
     1
290
     1
176
     1
290
     0
176
     1
290
     0
176
     1
290
     0
176
     1
290
     0
176
     1
290
     0
176
     1
290
     0
176
     1
 90
       50
176
     1
 40
0.0
176
     1
 40
1.0
176
     1
 90
        0
176
     1
 62
    18
176
     1
 90
       50
176
     1
 90
        3
176
     1
 62
     5
420
      255
176
     1
290
     0
176
     1
 90
       50
176
     1
 90
       50
176
     1
 90
       50
176
     1
290
     0
176
     1
 90
       50
176
     1
 62
   256
176
     0
 40
1.0
176
     0
 90
        2
176
     1
  1
strokes_ogs.tif
176
     1
290
     0
176
     1
 40
1.0
176
     1
 40
1.0
176
     1
1001
ACAD
1000
AcDbSavedByObjectVersion
1070
     0
  0
VISUALSTYLE
  5
34
102
{ACAD_REACTORS
330
29
102
}
330
29
100
AcDbVisualStyle
  2
Dim
 70
    11
177
     3
291
     1
 70
    58
 90
        2
176
     1
 90
        2
176
     1
 90
        0
176
     1
 90
        0
176
     1
 40
0.6
176
     1
 40
30.0
176
     1
 62
     7
420
 16777215
176
     1
 90
        1
176
     1
 90
        4
176
     1
 62
     7
176
     1
 62
   257
176
     1
 90
        1
176
     1
 90
        1
176
     1
 40
1.0
176
     1
 90
        8
176
     1
 62
     7
176
     1
 40
1.0
176
     1
 90
        1
176
     1
 90
        6
176
     1
 90
        2
176
     1
 62
     7
176
     1
 90
        5
176
     1
 90
        0
176
     1
 90
        0
176
     1
290
     0
176
     1
 90
        1
176
     1
 40
-50.0
176
     1
 90
        0
176
     1
290
     0
176
     1
290
     1
176
     1
290
     1
176
     1
290
     0
176
     1
290
     0
176
     1
290
     0
176
     1
290
     0
176
     1
290
     0
176
     1
290
     0
176
     1
 90
       50
176
     1
 40
0.0
176
     1
 40
1.0
176
     1
 90
        0
176
     1
 62
    18
176
     1
 90
       50
176
     1
 90
        3
176
     1
 62
     5
420
      255
176
     1
290
     0
176
     1
 90
       50
176
     1
 90
       50
176
     1
 90
       50
176
     1
290
     0
176
     1
 90
       50
176
     1
 62
   256
176
     0
 40
1.0
176
     0
 90
        2
176
     1
  1
strokes_ogs.tif
176
     1
290
     0
176
     1
 40
1.0
176
     1
 40
1.0
176
     1
1001
ACAD
1000
AcDbSavedByObjectVersion
1070
     0
  0
VISUALSTYLE
  5
41
102
{ACAD_REACTORS
330
29
102
}
330
29
100
AcDbVisualStyle
  2
EdgeColorOff
 70
    22
177
     3
291
     1
 70
    58
 90
        2
176
     0
 90
        2
176
     0
 90
        0
176
     0
 90
        0
176
     0
 40
0.6
176
     0
 40
30.0
176
     0
 62
     7
420
 16777215
176
     0
 90
        1
176
     0
 90
        4
176
     0
 62
     7
176
     0
 62
   257
176
     0
 90
        1
176
     0
 90
        1
176
     0
 40
1.0
176
     0
 90
        8
176
     2
 62
     7
176
     0
 40
1.0
176
     0
 90
        1
176
     0
 90
        6
176
     0
 90
        2
176
     0
 62
     7
176
     0
 90
        5
176
     0
 90
        0
176
     0
 90
        0
176
     0
290
     0
176
     0
 90
        1
176
     0
 40
0.0
176
     0
 90
        0
176
     0
290
     0
176
     1
290
     1
176
     1
290
     1
176
     1
290
     0
176
     1
290
     0
176
     1
290
     0
176
     1
290
     0
176
     1
290
     0
176
     1
290
     0
176
     1
 90
       50
176
     0
 40
0.0
176
     0
 40
1.0
176
     0
 90
        0
176
     0
 62
    18
176
     0
 90
       50
176
     0
 90
        3
176
     0
 62
     5
420
      255
176
     0
290
     0
176
     1
 90
       50
176
     0
 90
       50
176
     0
 90
       50
176
     0
290
     0
176
     1
 90
       50
176
     0
 62
   256
176
     0
 40
1.0
176
     0
 90
        2
176
     0
  1
strokes_ogs.tif
176
     0
290
     0
176
     1
 40
1.0
176
     0
 40
1.0
176
     0
1001
ACAD
1000
AcDbSavedByObjectVersion
1070
     0
  0
VISUALSTYLE
  5
38
102
{ACAD_REACTORS
330
29
102
}
330
29
100
AcDbVisualStyle
  2
Facepattern
 70
    15
177
     3
291
     1
 70
    58
 90
        2
176
     1
 90
        2
176
     1
 90
        0
176
     1
 90
        0
176
     1
 40
0.6
176
     1
 40
30.0
176
     1
 62
     7
420
 16777215
176
     1
 90
        1
176
     1
 90
        4
176
     1
 62
     7
176
     1
 62
   257
176
     1
 90
        1
176
     1
 90
        1
176
     1
 40
1.0
176
     1
 90
        8
176
     1
 62
     7
176
     1
 40
1.0
176
     1
 90
        1
176
     1
 90
        6
176
     1
 90
        2
176
     1
 62
     7
176
     1
 90
        5
176
     1
 90
        0
176
     1
 90
        0
176
     1
290
     0
176
     1
 90
        1
176
     1
 40
0.0
176
     1
 90
        0
176
     1
290
     0
176
     1
290
     1
176
     1
290
     1
176
     1
290
     0
176
     1
290
     0
176
     1
290
     0
176
     1
290
     0
176
     1
290
     0
176
     1
290
     0
176
     1
 90
       50
176
     1
 40
0.0
176
     1
 40
1.0
176
     1
 90
        0
176
     1
 62
    18
176
     1
 90
       50
176
     1
 90
        3
176
     1
 62
     5
420
      255
176
     1
290
     0
176
     1
 90
       50
176
     1
 90
       50
176
     1
 90
       50
176
     1
290
     0
176
     1
 90
       50
176
     1
 62
   256
176
     0
 40
1.0
176
     0
 90
        2
176
     1
  1
strokes_ogs.tif
176
     1
290
     0
176
     1
 40
1.0
176
     1
 40
1.0
176
     1
1001
ACAD
1000
AcDbSavedByObjectVersion
1070
     0
  0
VISUALSTYLE
  5
2A
102
{ACAD_REACTORS
330
29
102
}
330
29
100
AcDbVisualStyle
  2
Flat
 70
     0
177
     3
291
     1
 70
    58
 90
        2
176
     1
 90
        1
176
     1
 90
        1
176
     1
 90
        2
176
     1
 40
0.6
176
     1
 40
30.0
176
     1
 62
     7
420
 16777215
176
     1
 90
        0
176
     1
 90
        0
176
     1
 62
     7
176
     1
 62
   257
176
     1
 90
        1
176
     1
 90
        1
176
     1
 40
1.0
176
     1
 90
        8
176
     1
 62
     7
176
     1
 40
1.0
176
     1
 90
        1
176
     1
 90
        6
176
     1
 90
        2
176
     1
 62
     7
176
     1
 90
        5
176
     1
 90
        0
176
     1
 90
        0
176
     1
290
     0
176
     1
 90
       13
176
     1
 40
0.0
176
     1
 90
        0
176
     1
290
     0
176
     1
290
     1
176
     1
290
     1
176
     1
290
     0
176
     1
290
     0
176
     1
290
     0
176
     1
290
     0
176
     1
290
     0
176
     1
290
     0
176
     1
 90
       50
176
     1
 40
0.0
176
     1
 40
1.0
176
     1
 90
        0
176
     1
 62
    18
176
     1
 90
       50
176
     1
 90
        3
176
     1
 62
     5
420
      255
176
     1
290
     0
176
     1
 90
       50
176
     1
 90
       50
176
     1
 90
       50
176
     1
290
     0
176
     1
 90
       50
176
     1
 62
   256
176
     0
 40
1.0
176
     0
 90
        2
176
     1
  1
strokes_ogs.tif
176
     1
290
     0
176
     1
 40
1.0
176
     1
 40
1.0
176
     1
1001
ACAD
1000
AcDbSavedByObjectVersion
1070
     0
  0
VISUALSTYLE
  5
2B
102
{ACAD_REACTORS
330
29
102
}
330
29
100
AcDbVisualStyle
  2
FlatWithEdges
 70
     1
177
     3
291
     1
 70
    58
 90
        2
176
     1
 90
        1
176
     1
 90
        1
176
     1
 90
        2
176
     1
 40
0.6
176
     1
 40
30.0
176
     1
 62
     7
420
 16777215
176
     1
 90
        1
176
     1
 90
        0
176
     1
 62
     7
176
     1
 62
   257
176
     1
 90
        1
176
     1
 90
        1
176
     1
 40
1.0
176
     1
 90
        0
176
     1
 62
   257
176
     1
 40
1.0
176
     1
 90
        1
176
     1
 90
        6
176
     1
 90
        2
176
     1
 62
     7
176
     1
 90
        5
176
     1
 90
        0
176
     1
 90
        0
176
     1
290
     0
176
     1
 90
       13
176
     1
 40
0.0
176
     1
 90
        0
176
     1
290
     0
176
     1
290
     1
176
     1
290
     1
176
     1
290
     0
176
     1
290
     0
176
     1
290
     0
176
     1
290
     0
176
     1
290
     0
176
     1
290
     0
176
     1
 90
       50
176
     1
 40
0.0
176
     1
 40
1.0
176
     1
 90
        0
176
     1
 62
    18
176
     1
 90
       50
176
     1
 90
        3
176
     1
 62
     5
420
      255
176
     1
290
     0
176
     1
 90
       50
176
     1
 90
       50
176
     1
 90
       50
176
     1
290
     0
176
     1
 90
       50
176
     1
 62
   256
176
     0
 40
1.0
176
     0
 90
        2
176
     1
  1
strokes_ogs.tif
176
     1
290
     0
176
     1
 40
1.0
176
     1
 40
1.0
176
     1
1001
ACAD
1000
AcDbSavedByObjectVersion
1070
     0
  0
VISUALSTYLE
  5
2C
102
{ACAD_REACTORS
330
29
102
}
330
29
100
AcDbVisualStyle
  2
Gouraud
 70
     2
177
     3
291
     1
 70
    58
 90
        2
176
     1
 90
        2
176
     1
 90
        1
176
     1
 90
        2
176
     1
 40
0.6
176
     1
 40
30.0
176
     1
 62
     7
420
 16777215
176
     1
 90
        0
176
     1
 90
        0
176
     1
 62
     7
176
     1
 62
   257
176
     1
 90
        1
176
     1
 90
        1
176
     1
 40
1.0
176
     1
 90
        0
176
     1
 62
     7
176
     1
 40
1.0
176
     1
 90
        1
176
     1
 90
        6
176
     1
 90
        2
176
     1
 62
     7
176
     1
 90
        5
176
     1
 90
        0
176
     1
 90
        0
176
     1
290
     0
176
     1
 90
       13
176
     1
 40
0.0
176
     1
 90
        0
176
     1
290
     0
176
     1
290
     1
176
     1
290
     1
176
     1
290
     0
176
     1
290
     0
176
     1
290
     0
176
     1
290
     0
176
     1
290
     0
176
     1
290
     0
176
     1
 90
       50
176
     1
 40
0.0
176
     1
 40
1.0
176
     1
 90
        0
176
     1
 62
    18
176
     1
 90
       50
176
     1
 90
        3
176
     1
 62
     5
420
      255
176
     1
290
     0
176
     1
 90
       50
176
     1
 90
       50
176
     1
 90
       50
176
     1
290
     0
176
     1
 90
       50
176
     1
 62
   256
176
     0
 40
1.0
176
     0
 90
        2
176
     1
  1
strokes_ogs.tif
176
     1
290
     0
176
     1
 40
1.0
176
     1
 40
1.0
176
     1
1001
ACAD
1000
AcDbSavedByObjectVersion
1070
     0
  0
VISUALSTYLE
  5
2D
102
{ACAD_REACTORS
330
29
102
}
330
29
100
AcDbVisualStyle
  2
GouraudWithEdges
 70
     3
177
     3
291
     1
 70
    58
 90
        2
176
     1
 90
        2
176
     1
 90
        1
176
     1
 90
        2
176
     1
 40
0.6
176
     1
 40
30.0
176
     1
 62
     7
420
 16777215
176
     1
 90
        1
176
     1
 90
        0
176
     1
 62
     7
176
     1
 62
   257
176
     1
 90
        1
176
     1
 90
        1
176
     1
 40
1.0
176
     1
 90
        0
176
     1
 62
   257
176
     1
 40
1.0
176
     1
 90
        1
176
     1
 90
        6
176
     1
 90
        2
176
     1
 62
     7
176
     1
 90
        5
176
     1
 90
        0
176
     1
 90
        0
176
     1
290
     0
176
     1
 90
       13
176
     1
 40
0.0
176
     1
 90
        0
176
     1
290
     0
176
     1
290
     1
176
     1
290
     1
176
     1
290
     0
176
     1
290
     0
176
     1
290
     0
176
     1
290
     0
176
     1
290
     0
176
     1
290
     0
176
     1
 90
       50
176
     1
 40
0.0
176
     1
 40
1.0
176
     1
 90
        0
176
     1
 62
    18
176
     1
 90
       50
176
     1
 90
        3
176
     1
 62
     5
420
      255
176
     1
290
     0
176
     1
 90
       50
176
     1
 90
       50
176
     1
 90
       50
176
     1
290
     0
176
     1
 90
       50
176
     1
 62
   256
176
     0
 40
1.0
176
     0
 90
        2
176
     1
  1
strokes_ogs.tif
176
     1
290
     0
176
     1
 40
1.0
176
     1
 40
1.0
176
     1
1001
ACAD
1000
AcDbSavedByObjectVersion
1070
     0
  0
VISUALSTYLE
  5
31
102
{ACAD_REACTORS
330
29
102
}
330
29
100
AcDbVisualStyle
  2
Hidden
 70
     6
177
     3
291
     0
 70
    58
 90
        1
176
     1
 90
        2
176
     1
 90
        2
176
     1
 90
        0
176
     1
 40
0.6
176
     1
 40
30.0
176
     1
 62
     7
420
 16777215
176
     1
 90
        2
176
     1
 90
        2
176
     1
 62
     7
176
     1
 62
   257
176
     1
 90
        2
176
     1
 90
        1
176
     1
 40
40.0
176
     1
 90
        0
176
     1
 62
   257
176
     1
 40
1.0
176
     1
 90
        1
176
     1
 90
        6
176
     1
 90
        2
176
     1
 62
     7
176
     1
 90
        3
176
     1
 90
        0
176
     1
 90
        0
176
     1
290
     0
176
     1
 90
        1
176
     1
 40
0.0
176
     1
 90
        0
176
     1
290
     0
176
     1
290
     1
176
     1
290
     1
176
     1
290
     0
176
     1
290
     0
176
     1
290
     0
176
     1
290
     0
176
     1
290
     0
176
     1
290
     0
176
     1
 90
       50
176
     1
 40
0.0
176
     1
 40
1.0
176
     1
 90
        0
176
     1
 62
    18
176
     1
 90
       50
176
     1
 90
        3
176
     1
 62
     5
420
      255
176
     1
290
     0
176
     1
 90
       50
176
     1
 90
       50
176
     1
 90
       50
176
     1
290
     0
176
     1
 90
       50
176
     1
 62
   256
176
     0
 40
1.0
176
     0
 90
        2
176
     1
  1
strokes_ogs.tif
176
     1
290
     0
176
     1
 40
1.0
176
     1
 40
1.0
176
     1
1001
ACAD
1000
AcDbSavedByObjectVersion
1070
     0
  0
VISUALSTYLE
  5
3F
102
{ACAD_REACTORS
330
29
102
}
330
29
100
AcDbVisualStyle
  2
JitterOff
 70
    20
177
     3
291
     1
 70
    58
 90
        2
176
     0
 90
        2
176
     0
 90
        0
176
     0
 90
        0
176
     0
 40
0.6
176
     0
 40
30.0
176
     0
 62
     7
420
 16777215
176
     0
 90
        1
176
     0
 90
        4
176
     0
 62
     7
176
     0
 62
   257
176
     0
 90
        1
176
     0
 90
        1
176
     0
 40
1.0
176
     0
 90
       10
176
     2
 62
     7
176
     0
 40
1.0
176
     0
 90
        1
176
     0
 90
        6
176
     0
 90
        2
176
     0
 62
     7
176
     0
 90
        5
176
     0
 90
        0
176
     0
 90
        0
176
     0
290
     0
176
     0
 90
        1
176
     0
 40
0.0
176
     0
 90
        0
176
     0
290
     0
176
     1
290
     1
176
     1
290
     1
176
     1
290
     0
176
     1
290
     0
176
     1
290
     0
176
     1
290
     0
176
     1
290
     0
176
     1
290
     0
176
     1
 90
       50
176
     0
 40
0.0
176
     0
 40
1.0
176
     0
 90
        0
176
     0
 62
    18
176
     0
 90
       50
176
     0
 90
        3
176
     0
 62
     5
420
      255
176
     0
290
     0
176
     1
 90
       50
176
     0
 90
       50
176
     0
 90
       50
176
     0
290
     0
176
     1
 90
       50
176
     0
 62
   256
176
     0
 40
1.0
176
     0
 90
        2
176
     0
  1
strokes_ogs.tif
176
     0
290
     0
176
     1
 40
1.0
176
     0
 40
1.0
176
     0
1001
ACAD
1000
AcDbSavedByObjectVersion
1070
     0
  0
VISUALSTYLE
  5
37
102
{ACAD_REACTORS
330
29
102
}
330
29
100
AcDbVisualStyle
  2
Linepattern
 70
    14
177
     3
291
     1
 70
    58
 90
        2
176
     1
 90
        2
176
     1
 90
        0
176
     1
 90
        0
176
     1
 40
0.6
176
     1
 40
30.0
176
     1
 62
     7
420
 16777215
176
     1
 90
        1
176
     1
 90
        4
176
     1
 62
     7
176
     1
 62
   257
176
     1
 90
        7
176
     1
 90
        7
176
     1
 40
1.0
176
     1
 90
        8
176
     1
 62
     7
176
     1
 40
1.0
176
     1
 90
        1
176
     1
 90
        6
176
     1
 90
        2
176
     1
 62
     7
176
     1
 90
        5
176
     1
 90
        0
176
     1
 90
        0
176
     1
290
     0
176
     1
 90
        1
176
     1
 40
0.0
176
     1
 90
        0
176
     1
290
     0
176
     1
290
     1
176
     1
290
     1
176
     1
290
     0
176
     1
290
     0
176
     1
290
     0
176
     1
290
     0
176
     1
290
     0
176
     1
290
     0
176
     1
 90
       50
176
     1
 40
0.0
176
     1
 40
1.0
176
     1
 90
        0
176
     1
 62
    18
176
     1
 90
       50
176
     1
 90
        3
176
     1
 62
     5
420
      255
176
     1
290
     0
176
     1
 90
       50
176
     1
 90
       50
176
     1
 90
       50
176
     1
290
     0
176
     1
 90
       50
176
     1
 62
   256
176
     0
 40
1.0
176
     0
 90
        2
176
     1
  1
strokes_ogs.tif
176
     1
290
     0
176
     1
 40
1.0
176
     1
 40
1.0
176
     1
1001
ACAD
1000
AcDbSavedByObjectVersion
1070
     0
  0
VISUALSTYLE
  5
40
102
{ACAD_REACTORS
330
29
102
}
330
29
100
AcDbVisualStyle
  2
OverhangOff
 70
    21
177
     3
291
     1
 70
    58
 90
        2
176
     0
 90
        2
176
     0
 90
        0
176
     0
 90
        0
176
     0
 40
0.6
176
     0
 40
30.0
176
     0
 62
     7
420
 16777215
176
     0
 90
        1
176
     0
 90
        4
176
     0
 62
     7
176
     0
 62
   257
176
     0
 90
        1
176
     0
 90
        1
176
     0
 40
1.0
176
     0
 90
        9
176
     2
 62
     7
176
     0
 40
1.0
176
     0
 90
        1
176
     0
 90
        6
176
     0
 90
        2
176
     0
 62
     7
176
     0
 90
        5
176
     0
 90
        0
176
     0
 90
        0
176
     0
290
     0
176
     0
 90
        1
176
     0
 40
0.0
176
     0
 90
        0
176
     0
290
     0
176
     1
290
     1
176
     1
290
     1
176
     1
290
     0
176
     1
290
     0
176
     1
290
     0
176
     1
290
     0
176
     1
290
     0
176
     1
290
     0
176
     1
 90
       50
176
     0
 40
0.0
176
     0
 40
1.0
176
     0
 90
        0
176
     0
 62
    18
176
     0
 90
       50
176
     0
 90
        3
176
     0
 62
     5
420
      255
176
     0
290
     0
176
     1
 90
       50
176
     0
 90
       50
176
     0
 90
       50
176
     0
290
     0
176
     1
 90
       50
176
     0
 62
   256
176
     0
 40
1.0
176
     0
 90
        2
176
     0
  1
strokes_ogs.tif
176
     0
290
     0
176
     1
 40
1.0
176
     0
 40
1.0
176
     0
1001
ACAD
1000
AcDbSavedByObjectVersion
1070
     0
  0
VISUALSTYLE
  5
33
102
{ACAD_REACTORS
330
29
102
}
330
29
100
AcDbVisualStyle
  2
Realistic
 70
     8
177
     3
291
     0
 70
    58
 90
        2
176
     1
 90
        3
176
     1
 90
        0
176
     1
 90
        2
176
     1
 40
0.6
176
     1
 40
30.0
176
     1
 62
     7
420
 16777215
176
     1
 90
        0
176
     1
 90
        0
176
     1
 62
     7
176
     1
 62
   257
176
     1
 90
        1
176
     1
 90
        1
176
     1
 40
1.0
176
     1
 90
        8
176
     1
 62
   257
176
     1
 40
1.0
176
     1
 90
        1
176
     1
 90
        6
176
     1
 90
        2
176
     1
 62
     7
176
     1
 90
        3
176
     1
 90
        0
176
     1
 90
        0
176
     1
290
     0
176
     1
 90
       13
176
     1
 40
0.0
176
     1
 90
        0
176
     1
290
     0
176
     1
290
     1
176
     1
290
     1
176
     1
290
     0
176
     1
290
     0
176
     1
290
     0
176
     1
290
     0
176
     1
290
     0
176
     1
290
     0
176
     1
 90
       50
176
     1
 40
0.0
176
     1
 40
1.0
176
     1
 90
        0
176
     1
 62
    18
176
     1
 90
       50
176
     1
 90
        3
176
     1
 62
     5
420
      255
176
     1
290
     0
176
     1
 90
       50
176
     1
 90
       50
176
     1
 90
       50
176
     1
290
     0
176
     1
 90
       50
176
     1
 62
   256
176
     0
 40
1.0
176
     0
 90
        2
176
     1
  1
strokes_ogs.tif
176
     1
290
     0
176
     1
 40
1.0
176
     1
 40
1.0
176
     1
1001
ACAD
1000
AcDbSavedByObjectVersion
1070
     0
  0
VISUALSTYLE
  5
3E
102
{ACAD_REACTORS
330
29
102
}
330
29
100
AcDbVisualStyle
  2
Shaded
 70
    27
177
     3
291
     0
 70
    58
 90
        2
176
     1
 90
        2
176
     1
 90
        1
176
     1
 90
        2
176
     1
 40
0.6
176
     1
 40
30.0
176
     1
 62
     7
420
 16777215
176
     1
 90
        0
176
     1
 90
        4
176
     1
 62
     7
176
     1
 62
   257
176
     1
 90
        1
176
     1
 90
        1
176
     1
 40
1.0
176
     1
 90
        8
176
     1
 62
   257
176
     1
 40
1.0
176
     1
 90
        1
176
     1
 90
        6
176
     1
 90
        2
176
     1
 62
     8
420
  7895160
176
     1
 90
        3
176
     1
 90
        0
176
     1
 90
        0
176
     1
290
     0
176
     1
 90
        5
176
     1
 40
0.0
176
     1
 90
        0
176
     1
290
     0
176
     1
290
     1
176
     1
290
     1
176
     1
290
     0
176
     1
290
     0
176
     1
290
     0
176
     1
290
     0
176
     1
290
     0
176
     1
290
     0
176
     1
 90
       50
176
     1
 40
0.0
176
     1
 40
1.0
176
     1
 90
        0
176
     1
 62
    18
176
     1
 90
       50
176
     1
 90
        3
176
     1
 62
     5
420
      255
176
     1
290
     0
176
     1
 90
       50
176
     1
 90
       50
176
     1
 90
       50
176
     1
290
     0
176
     1
 90
       50
176
     1
 62
   256
176
     0
 40
1.0
176
     0
 90
        2
176
     1
  1
strokes_ogs.tif
176
     1
290
     0
176
     1
 40
1.0
176
     1
 40
1.0
176
     1
1001
ACAD
1000
AcDbSavedByObjectVersion
1070
     0
  0
VISUALSTYLE
  5
3D
102
{ACAD_REACTORS
330
29
102
}
330
29
100
AcDbVisualStyle
  2
Shaded with edges
 70
    26
177
     3
291
     0
 70
    58
 90
        2
176
     1
 90
        2
176
     1
 90
        1
176
     1
 90
        2
176
     1
 40
0.6
176
     1
 40
30.0
176
     1
 62
     7
420
 16777215
176
     1
 90
        1
176
     1
 90
        2
176
     1
 62
     7
176
     1
 62
   257
176
     1
 90
        2
176
     1
 90
        1
176
     1
 40
1.0
176
     1
 90
        8
176
     1
 62
   257
176
     1
 40
1.0
176
     1
 90
        1
176
     1
 90
        6
176
     1
 90
        2
176
     1
 62
     7
176
     1
 90
        3
176
     1
 90
        0
176
     1
 90
        0
176
     1
290
     0
176
     1
 90
        5
176
     1
 40
0.0
176
     1
 90
        0
176
     1
290
     0
176
     1
290
     1
176
     1
290
     1
176
     1
290
     0
176
     1
290
     0
176
     1
290
     0
176
     1
290
     0
176
     1
290
     0
176
     1
290
     0
176
     1
 90
       50
176
     1
 40
0.0
176
     1
 40
1.0
176
     1
 90
        0
176
     1
 62
    18
176
     1
 90
       50
176
     1
 90
        3
176
     1
 62
     5
420
      255
176
     1
290
     0
176
     1
 90
       50
176
     1
 90
       50
176
     1
 90
       50
176
     1
290
     0
176
     1
 90
       50
176
     1
 62
   256
176
     0
 40
1.0
176
     0
 90
        2
176
     1
  1
strokes_ogs.tif
176
     1
290
     0
176
     1
 40
1.0
176
     1
 40
1.0
176
     1
1001
ACAD
1000
AcDbSavedByObjectVersion
1070
     0
  0
VISUALSTYLE
  5
3A
102
{ACAD_REACTORS
330
29
102
}
330
29
100
AcDbVisualStyle
  2
Shades of Gray
 70
    23
177
     3
291
     0
 70
    58
 90
        2
176
     1
 90
        2
176
     1
 90
        3
176
     1
 90
        0
176
     1
 40
0.6
176
     1
 40
30.0
176
     1
 62
     7
420
 16777215
176
     1
 90
        2
176
     1
 90
        2
176
     1
 62
     7
176
     1
 62
     7
176
     1
 90
        1
176
     1
 90
        1
176
     1
 40
40.0
176
     1
 90
        8
176
     1
 62
     7
176
     1
 40
1.0
176
     1
 90
        1
176
     1
 90
        6
176
     1
 90
        2
176
     1
 62
     7
176
     1
 90
        3
176
     1
 90
        0
176
     1
 90
        0
176
     1
290
     0
176
     1
 90
        1
176
     1
 40
0.0
176
     1
 90
        0
176
     1
290
     0
176
     1
290
     1
176
     1
290
     1
176
     1
290
     0
176
     1
290
     0
176
     1
290
     0
176
     1
290
     0
176
     1
290
     0
176
     1
290
     0
176
     1
 90
       50
176
     1
 40
0.0
176
     1
 40
1.0
176
     1
 90
        0
176
     1
 62
    18
176
     1
 90
       50
176
     1
 90
        3
176
     1
 62
     5
420
      255
176
     1
290
     0
176
     1
 90
       50
176
     1
 90
       50
176
     1
 90
       50
176
     1
290
     0
176
     1
 90
       50
176
     1
 62
   256
176
     0
 40
1.0
176
     0
 90
        2
176
     1
  1
strokes_ogs.tif
176
     1
290
     0
176
     1
 40
1.0
176
     1
 40
1.0
176
     1
1001
ACAD
1000
AcDbSavedByObjectVersion
1070
     0
  0
VISUALSTYLE
  5
3B
102
{ACAD_REACTORS
330
29
102
}
330
29
100
AcDbVisualStyle
  2
Sketchy
 70
    24
177
     3
291
     0
 70
    58
 90
        1
176
     1
 90
        2
176
     1
 90
        2
176
     1
 90
        0
176
     1
 40
0.6
176
     1
 40
30.0
176
     1
 62
     7
420
 16777215
176
     1
 90
        2
176
     1
 90
        2
176
     1
 62
     7
176
     1
 62
     7
176
     1
 90
        1
176
     1
 90
        1
176
     1
 40
40.0
176
     1
 90
       11
176
     1
 62
     7
176
     1
 40
1.0
176
     1
 90
        1
176
     1
 90
        6
176
     1
 90
        2
176
     1
 62
     7
176
     1
 90
        6
176
     1
 90
        0
176
     1
 90
        0
176
     1
290
     0
176
     1
 90
        1
176
     1
 40
0.0
176
     1
 90
        0
176
     1
290
     0
176
     1
290
     1
176
     1
290
     1
176
     1
290
     0
176
     1
290
     0
176
     1
290
     0
176
     1
290
     0
176
     1
290
     0
176
     1
290
     0
176
     1
 90
       50
176
     1
 40
0.0
176
     1
 40
1.0
176
     1
 90
        0
176
     1
 62
    18
176
     1
 90
       50
176
     1
 90
        3
176
     1
 62
     5
420
      255
176
     1
290
     0
176
     1
 90
       50
176
     1
 90
       50
176
     1
 90
       50
176
     1
290
     0
176
     1
 90
       50
176
     1
 62
   256
176
     0
 40
1.0
176
     0
 90
        2
176
     1
  1
strokes_ogs.tif
176
     1
290
     0
176
     1
 40
1.0
176
     1
 40
1.0
176
     1
1001
ACAD
1000
AcDbSavedByObjectVersion
1070
     0
  0
VISUALSTYLE
  5
36
102
{ACAD_REACTORS
330
29
102
}
330
29
100
AcDbVisualStyle
  2
Thicken
 70
    13
177
     3
291
     1
 70
    58
 90
        2
176
     1
 90
        2
176
     1
 90
        0
176
     1
 90
        0
176
     1
 40
0.6
176
     1
 40
30.0
176
     1
 62
     7
420
 16777215
176
     1
 90
        1
176
     1
 90
        4
176
     1
 62
     7
176
     1
 62
   257
176
     1
 90
        1
176
     1
 90
        1
176
     1
 40
1.0
176
     1
 90
       12
176
     1
 62
     7
176
     1
 40
1.0
176
     1
 90
        1
176
     1
 90
        6
176
     1
 90
        2
176
     1
 62
     7
176
     1
 90
        5
176
     1
 90
        0
176
     1
 90
        0
176
     1
290
     0
176
     1
 90
        1
176
     1
 40
0.0
176
     1
 90
        0
176
     1
290
     0
176
     1
290
     1
176
     1
290
     1
176
     1
290
     0
176
     1
290
     0
176
     1
290
     0
176
     1
290
     0
176
     1
290
     0
176
     1
290
     0
176
     1
 90
       50
176
     1
 40
0.0
176
     1
 40
1.0
176
     1
 90
        0
176
     1
 62
    18
176
     1
 90
       50
176
     1
 90
        3
176
     1
 62
     5
420
      255
176
     1
290
     0
176
     1
 90
       50
176
     1
 90
       50
176
     1
 90
       50
176
     1
290
     0
176
     1
 90
       50
176
     1
 62
   256
176
     0
 40
1.0
176
     0
 90
        2
176
     1
  1
strokes_ogs.tif
176
     1
290
     0
176
     1
 40
1.0
176
     1
 40
1.0
176
     1
1001
ACAD
1000
AcDbSavedByObjectVersion
1070
     0
  0
VISUALSTYLE
  5
30
102
{ACAD_REACTORS
330
29
102
}
330
29
100
AcDbVisualStyle
  2
Wireframe
 70
     5
177
     3
291
     0
 70
    58
 90
        0
176
     1
 90
        2
176
     1
 90
        0
176
     1
 90
        0
176
     1
 40
0.6
176
     1
 40
30.0
176
     1
 62
     7
420
 16777215
176
     1
 90
        1
176
     1
 90
        4
176
     1
 62
     7
176
     1
 62
   257
176
     1
 90
        1
176
     1
 90
        1
176
     1
 40
1.0
176
     1
 90
        0
176
     1
 62
   257
176
     1
 40
1.0
176
     1
 90
        1
176
     1
 90
        6
176
     1
 90
        2
176
     1
 62
     7
176
     1
 90
        3
176
     1
 90
        0
176
     1
 90
        0
176
     1
290
     0
176
     1
 90
        1
176
     1
 40
0.0
176
     1
 90
        0
176
     1
290
     0
176
     1
290
     1
176
     1
290
     1
176
     1
290
     0
176
     1
290
     0
176
     1
290
     0
176
     1
290
     0
176
     1
290
     0
176
     1
290
     0
176
     1
 90
       50
176
     1
 40
0.0
176
     1
 40
1.0
176
     1
 90
        0
176
     1
 62
    18
176
     1
 90
       50
176
     1
 90
        3
176
     1
 62
     5
420
      255
176
     1
290
     0
176
     1
 90
       50
176
     1
 90
       50
176
     1
 90
       50
176
     1
290
     0
176
     1
 90
       50
176
     1
 62
   256
176
     0
 40
1.0
176
     0
 90
        2
176
     1
  1
strokes_ogs.tif
176
     1
290
     0
176
     1
 40
1.0
176
     1
 40
1.0
176
     1
1001
ACAD
1000
AcDbSavedByObjectVersion
1070
     0
  0
VISUALSTYLE
  5
3C
102
{ACAD_REACTORS
330
29
102
}
330
29
100
AcDbVisualStyle
  2
X-Ray
 70
    25
177
     3
291
     0
 70
    58
 90
        2
176
     1
 90
        2
176
     1
 90
        1
176
     1
 90
        1
176
     1
 40
0.5
176
     1
 40
30.0
176
     1
 62
     7
420
 16777215
176
     1
 90
        1
176
     1
 90
        0
176
     1
 62
     7
176
     1
 62
   257
176
     1
 90
        1
176
     1
 90
        1
176
     1
 40
1.0
176
     1
 90
        8
176
     1
 62
     7
176
     1
 40
1.0
176
     1
 90
        1
176
     1
 90
        6
176
     1
 90
        2
176
     1
 62
     7
176
     1
 90
        3
176
     1
 90
        0
176
     1
 90
        0
176
     1
290
     0
176
     1
 90
       13
176
     1
 40
0.0
176
     1
 90
        0
176
     1
290
     0
176
     1
290
     1
176
     1
290
     1
176
     1
290
     0
176
     1
290
     0
176
     1
290
     0
176
     1
290
     0
176
     1
290
     0
176
     1
290
     0
176
     1
 90
       50
176
     1
 40
0.0
176
     1
 40
1.0
176
     1
 90
        0
176
     1
 62
    18
176
     1
 90
       50
176
     1
 90
        3
176
     1
 62
     5
420
      255
176
     1
290
     0
176
     1
 90
       50
176
     1
 90
       50
176
     1
 90
       50
176
     1
290
     0
176
     1
 90
       50
176
     1
 62
   256
176
     0
 40
1.0
176
     0
 90
        2
176
     1
  1
strokes_ogs.tif
176
     1
290
     0
176
     1
 40
1.0
176
     1
 40
1.0
176
     1
1001
ACAD
1000
AcDbSavedByObjectVersion
1070
     0
  0
DICTIONARYVAR
  5
59F
102
{ACAD_REACTORS
330
599
102
}
330
599
100
DictionaryVariables
280
     0
  1
1:1
  0
DICTIONARYVAR
  5
59B
102
{ACAD_REACTORS
330
599
102
}
330
599
100
DictionaryVariables
280
     0
  1
STANDARD
  0
DICTIONARYVAR
  5
59A
102
{ACAD_REACTORS
330
599
102
}
330
599
100
DictionaryVariables
280
     0
  1
STANDARD
  0
DICTIONARYVAR
  5
59C
102
{ACAD_REACTORS
330
599
102
}
330
599
100
DictionaryVariables
280
     0
  1
Imperial24
  0
DICTIONARYVAR
  5
59D
102
{ACAD_REACTORS
330
599
102
}
330
599
100
DictionaryVariables
280
     0
  1
Imperial24
  0
DICTIONARYVAR
  5
5A1
102
{ACAD_REACTORS
330
599
102
}
330
599
100
DictionaryVariables
280
     0
  1
1
  0
DICTIONARYVAR
  5
5A2
102
{ACAD_REACTORS
330
599
102
}
330
599
100
DictionaryVariables
280
     0
  1
15
  0
DICTIONARYVAR
  5
5A0
102
{ACAD_REACTORS
330
599
102
}
330
599
100
DictionaryVariables
280
     0
  1
0
  0
DICTIONARYVAR
  5
59E
102
{ACAD_REACTORS
330
599
102
}
330
599
100
DictionaryVariables
280
     0
  1
0
  0
DICTIONARY
  5
5C4
330
6A
100
AcDbDictionary
280
     1
281
     1
  3
ACAD_XREC_ROUNDTRIP
360
5C5
  0
DICTIONARY
  5
1A
330
19
100
AcDbDictionary
280
     1
281
     1
  3
BUMPTILE
360
1C
  3
DIFFUSETILE
360
1B
  3
OPACITYTILE
360
1F
  3
REFLECTIONTILE
360
1E
  3
REFRACTIONTILE
360
20
  3
SPECULARTILE
360
1D
  0
DICTIONARY
  5
12
330
11
100
AcDbDictionary
280
     1
281
     1
  3
BUMPTILE
360
14
  3
DIFFUSETILE
360
13
  3
OPACITYTILE
360
17
  3
REFLECTIONTILE
360
16
  3
REFRACTIONTILE
360
18
  3
SPECULARTILE
360
15
  0
DICTIONARY
  5
22
330
21
100
AcDbDictionary
280
     1
281
     1
  3
BUMPTILE
360
24
  3
DIFFUSETILE
360
23
  3
OPACITYTILE
360
27
  3
REFLECTIONTILE
360
26
  3
REFRACTIONTILE
360
28
  3
SPECULARTILE
360
25
  0
DICTIONARY
  5
5C2
330
68
100
AcDbDictionary
280
     1
281
     1
  3
ACAD_XREC_ROUNDTRIP
360
5C3
  0
DICTIONARY
  5
5A3
330
64
100
AcDbDictionary
280
     1
281
     1
  3
ACAD_ROUNDTRIP_2008_TABLESTYLE_CELLSTYLEMAP
360
5C0
  0
XRECORD
  5
5C5
102
{ACAD_REACTORS
330
5C4
102
}
330
5C4
100
AcDbXrecord
280
     1
102
DISPLAYNAME
  1
Imperial24
102
FLAGS
 90
        0
  0
XRECORD
  5
1C
102
{ACAD_REACTORS
330
1A
102
}
330
1A
100
AcDbXrecord
280
     1
270
     1
271
     1
  0
XRECORD
  5
1B
102
{ACAD_REACTORS
330
1A
102
}
330
1A
100
AcDbXrecord
280
     1
270
     1
271
     1
  0
XRECORD
  5
1F
102
{ACAD_REACTORS
330
1A
102
}
330
1A
100
AcDbXrecord
280
     1
270
     1
271
     1
  0
XRECORD
  5
1E
102
{ACAD_REACTORS
330
1A
102
}
330
1A
100
AcDbXrecord
280
     1
270
     1
271
     1
  0
XRECORD
  5
20
102
{ACAD_REACTORS
330
1A
102
}
330
1A
100
AcDbXrecord
280
     1
270
     1
271
     1
  0
XRECORD
  5
1D
102
{ACAD_REACTORS
330
1A
102
}
330
1A
100
AcDbXrecord
280
     1
270
     1
271
     1
  0
XRECORD
  5
14
102
{ACAD_REACTORS
330
12
102
}
330
12
100
AcDbXrecord
280
     1
270
     1
271
     1
  0
XRECORD
  5
13
102
{ACAD_REACTORS
330
12
102
}
330
12
100
AcDbXrecord
280
     1
270
     1
271
     1
  0
XRECORD
  5
17
102
{ACAD_REACTORS
330
12
102
}
330
12
100
AcDbXrecord
280
     1
270
     1
271
     1
  0
XRECORD
  5
16
102
{ACAD_REACTORS
330
12
102
}
330
12
100
AcDbXrecord
280
     1
270
     1
271
     1
  0
XRECORD
  5
18
102
{ACAD_REACTORS
330
12
102
}
330
12
100
AcDbXrecord
280
     1
270
     1
271
     1
  0
XRECORD
  5
15
102
{ACAD_REACTORS
330
12
102
}
330
12
100
AcDbXrecord
280
     1
270
     1
271
     1
  0
XRECORD
  5
24
102
{ACAD_REACTORS
330
22
102
}
330
22
100
AcDbXrecord
280
     1
270
     1
271
     1
  0
XRECORD
  5
23
102
{ACAD_REACTORS
330
22
102
}
330
22
100
AcDbXrecord
280
     1
270
     1
271
     1
  0
XRECORD
  5
27
102
{ACAD_REACTORS
330
22
102
}
330
22
100
AcDbXrecord
280
     1
270
     1
271
     1
  0
XRECORD
  5
26
102
{ACAD_REACTORS
330
22
102
}
330
22
100
AcDbXrecord
280
     1
270
     1
271
     1
  0
XRECORD
  5
28
102
{ACAD_REACTORS
330
22
102
}
330
22
100
AcDbXrecord
280
     1
270
     1
271
     1
  0
XRECORD
  5
25
102
{ACAD_REACTORS
330
22
102
}
330
22
100
AcDbXrecord
280
     1
270
     1
271
     1
  0
XRECORD
  5
5C3
102
{ACAD_REACTORS
330
5C2
102
}
330
5C2
100
AcDbXrecord
280
     1
102
DISPLAYNAME
  1
Imperial24
102
FLAGS
 90
        0
  0
CELLSTYLEMAP
  5
5C0
102
{ACAD_REACTORS
330
5A3
102
}
330
5A3
100
AcDbCellStyleMap
 90
        3
300
CELLSTYLE
  1
TABLEFORMAT_BEGIN
 90
        5
170
     1
 91
        0
 92
    32768
 62
   257
 93
        1
300
CONTENTFORMAT
  1
CONTENTFORMAT_BEGIN
 90
        0
 91
        0
 92
      512
 93
        0
300

 40
0.0
140
1.0
 94
        5
 62
     0
340
55
144
0.25
309
CONTENTFORMAT_END
171
     1
301
MARGIN
  1
CELLMARGIN_BEGIN
 40
0.06
 40
0.06
 40
0.06
 40
0.06
 40
0.18
 40
0.18
309
CELLMARGIN_END
 94
        6
 95
        1
302
GRIDFORMAT
  1
GRIDFORMAT_BEGIN
 90
        0
 91
        1
 62
     0
 92
       -2
340
0
 93
        0
 40
0.045
309
GRIDFORMAT_END
 95
        2
302
GRIDFORMAT
  1
GRIDFORMAT_BEGIN
 90
        0
 91
        1
 62
     0
 92
       -2
340
0
 93
        0
 40
0.045
309
GRIDFORMAT_END
 95
        4
302
GRIDFORMAT
  1
GRIDFORMAT_BEGIN
 90
        0
 91
        1
 62
     0
 92
       -2
340
0
 93
        0
 40
0.045
309
GRIDFORMAT_END
 95
        8
302
GRIDFORMAT
  1
GRIDFORMAT_BEGIN
 90
        0
 91
        1
 62
     0
 92
       -2
340
0
 93
        0
 40
0.045
309
GRIDFORMAT_END
 95
       16
302
GRIDFORMAT
  1
GRIDFORMAT_BEGIN
 90
        0
 91
        1
 62
     0
 92
       -2
340
0
 93
        0
 40
0.045
309
GRIDFORMAT_END
 95
       32
302
GRIDFORMAT
  1
GRIDFORMAT_BEGIN
 90
        0
 91
        1
 62
     0
 92
       -2
340
0
 93
        0
 40
0.045
309
GRIDFORMAT_END
309
TABLEFORMAT_END
  1
CELLSTYLE_BEGIN
 90
        1
 91
        1
300
_TITLE
309
CELLSTYLE_END
300
CELLSTYLE
  1
TABLEFORMAT_BEGIN
 90
        5
170
     1
 91
        0
 92
        0
 62
   257
 93
        1
300
CONTENTFORMAT
  1
CONTENTFORMAT_BEGIN
 90
        0
 91
        0
 92
      512
 93
        0
300

 40
0.0
140
1.0
 94
        5
 62
     0
340
55
144
0.18
309
CONTENTFORMAT_END
171
     1
301
MARGIN
  1
CELLMARGIN_BEGIN
 40
0.06
 40
0.06
 40
0.06
 40
0.06
 40
0.18
 40
0.18
309
CELLMARGIN_END
 94
        6
 95
        1
302
GRIDFORMAT
  1
GRIDFORMAT_BEGIN
 90
        0
 91
        1
 62
     0
 92
       -2
340
0
 93
        0
 40
0.045
309
GRIDFORMAT_END
 95
        2
302
GRIDFORMAT
  1
GRIDFORMAT_BEGIN
 90
        0
 91
        1
 62
     0
 92
       -2
340
0
 93
        0
 40
0.045
309
GRIDFORMAT_END
 95
        4
302
GRIDFORMAT
  1
GRIDFORMAT_BEGIN
 90
        0
 91
        1
 62
     0
 92
       -2
340
0
 93
        0
 40
0.045
309
GRIDFORMAT_END
 95
        8
302
GRIDFORMAT
  1
GRIDFORMAT_BEGIN
 90
        0
 91
        1
 62
     0
 92
       -2
340
0
 93
        0
 40
0.045
309
GRIDFORMAT_END
 95
       16
302
GRIDFORMAT
  1
GRIDFORMAT_BEGIN
 90
        0
 91
        1
 62
     0
 92
       -2
340
0
 93
        0
 40
0.045
309
GRIDFORMAT_END
 95
       32
302
GRIDFORMAT
  1
GRIDFORMAT_BEGIN
 90
        0
 91
        1
 62
     0
 92
       -2
340
0
 93
        0
 40
0.045
309
GRIDFORMAT_END
309
TABLEFORMAT_END
  1
CELLSTYLE_BEGIN
 90
        2
 91
        1
300
_HEADER
309
CELLSTYLE_END
300
CELLSTYLE
  1
TABLEFORMAT_BEGIN
 90
        5
170
     1
 91
        0
 92
        0
 62
   257
 93
        1
300
CONTENTFORMAT
  1
CONTENTFORMAT_BEGIN
 90
        0
 91
        0
 92
      512
 93
        0
300

 40
0.0
140
1.0
 94
        2
 62
     0
340
55
144
0.18
309
CONTENTFORMAT_END
171
     1
301
MARGIN
  1
CELLMARGIN_BEGIN
 40
0.06
 40
0.06
 40
0.06
 40
0.06
 40
0.18
 40
0.18
309
CELLMARGIN_END
 94
        6
 95
        1
302
GRIDFORMAT
  1
GRIDFORMAT_BEGIN
 90
        0
 91
        1
 62
     0
 92
       -2
340
0
 93
        0
 40
0.045
309
GRIDFORMAT_END
 95
        2
302
GRIDFORMAT
  1
GRIDFORMAT_BEGIN
 90
        0
 91
        1
 62
     0
 92
       -2
340
0
 93
        0
 40
0.045
309
GRIDFORMAT_END
 95
        4
302
GRIDFORMAT
  1
GRIDFORMAT_BEGIN
 90
        0
 91
        1
 62
     0
 92
       -2
340
0
 93
        0
 40
0.045
309
GRIDFORMAT_END
 95
        8
302
GRIDFORMAT
  1
GRIDFORMAT_BEGIN
 90
        0
 91
        1
 62
     0
 92
       -2
340
0
 93
        0
 40
0.045
309
GRIDFORMAT_END
 95
       16
302
GRIDFORMAT
  1
GRIDFORMAT_BEGIN
 90
        0
 91
        1
 62
     0
 92
       -2
340
0
 93
        0
 40
0.045
309
GRIDFORMAT_END
 95
       32
302
GRIDFORMAT
  1
GRIDFORMAT_BEGIN
 90
        0
 91
        1
 62
     0
 92
       -2
340
0
 93
        0
 40
0.045
309
GRIDFORMAT_END
309
TABLEFORMAT_END
  1
CELLSTYLE_BEGIN
 90
        3
 91
        2
300
_DATA
309
CELLSTYLE_END
  0
ENDSEC
  0
EOF
